<?xml version="1.0" encoding="utf-8" standalone="no"?>
<!DOCTYPE svg PUBLIC "-//W3C//DTD SVG 1.1//EN"
  "http://www.w3.org/Graphics/SVG/1.1/DTD/svg11.dtd">
<svg xmlns:xlink="http://www.w3.org/1999/xlink" width="928.970937pt" height="366.828437pt" viewBox="0 0 928.970937 366.828437" xmlns="http://www.w3.org/2000/svg" version="1.1">
 <metadata>
  <rdf:RDF xmlns:dc="http://purl.org/dc/elements/1.1/" xmlns:cc="http://creativecommons.org/ns#" xmlns:rdf="http://www.w3.org/1999/02/22-rdf-syntax-ns#">
   <cc:Work>
    <dc:type rdf:resource="http://purl.org/dc/dcmitype/StillImage"/>
    <dc:date>2026-04-26T20:19:29.474949</dc:date>
    <dc:format>image/svg+xml</dc:format>
    <dc:creator>
     <cc:Agent>
      <dc:title>Matplotlib v3.10.0, https://matplotlib.org/</dc:title>
     </cc:Agent>
    </dc:creator>
   </cc:Work>
  </rdf:RDF>
 </metadata>
 <defs>
  <style type="text/css">*{stroke-linejoin: round; stroke-linecap: butt}</style>
 </defs>
 <g id="figure_1">
  <g id="patch_1">
   <path d="M 0 366.828437 
L 928.970937 366.828437 
L 928.970937 0 
L 0 0 
z
" style="fill: #ffffff"/>
  </g>
  <g id="axes_1">
   <g id="patch_2">
    <path d="M 33.735938 330.44 
L 299.900937 330.44 
L 299.900937 56.821875 
L 33.735938 56.821875 
z
" style="fill: #ffffff"/>
   </g>
   <g id="PathCollection_1">
    <defs>
     <path id="C0_0_3b8c2f008f" d="M 0 3.535534 
C 0.937635 3.535534 1.836992 3.163008 2.5 2.5 
C 3.163008 1.836992 3.535534 0.937635 3.535534 -0 
C 3.535534 -0.937635 3.163008 -1.836992 2.5 -2.5 
C 1.836992 -3.163008 0.937635 -3.535534 0 -3.535534 
C -0.937635 -3.535534 -1.836992 -3.163008 -2.5 -2.5 
C -3.163008 -1.836992 -3.535534 -0.937635 -3.535534 0 
C -3.535534 0.937635 -3.163008 1.836992 -2.5 2.5 
C -1.836992 3.163008 -0.937635 3.535534 0 3.535534 
z
"/>
    </defs>
    <g clip-path="url(#p773b3a524e)">
     <use xlink:href="#C0_0_3b8c2f008f" x="64.427886" y="250.409402" style="fill: #808080; fill-opacity: 0.8"/>
    </g>
    <g clip-path="url(#p773b3a524e)">
     <use xlink:href="#C0_0_3b8c2f008f" x="64.427886" y="242.298193" style="fill: #808080; fill-opacity: 0.8"/>
    </g>
    <g clip-path="url(#p773b3a524e)">
     <use xlink:href="#C0_0_3b8c2f008f" x="45.834347" y="277.446766" style="fill: #808080; fill-opacity: 0.8"/>
    </g>
    <g clip-path="url(#p773b3a524e)">
     <use xlink:href="#C0_0_3b8c2f008f" x="51.464525" y="257.168743" style="fill: #808080; fill-opacity: 0.8"/>
    </g>
    <g clip-path="url(#p773b3a524e)">
     <use xlink:href="#C0_0_3b8c2f008f" x="51.464525" y="308.539735" style="fill: #808080; fill-opacity: 0.8"/>
    </g>
    <g clip-path="url(#p773b3a524e)">
     <use xlink:href="#C0_0_3b8c2f008f" x="45.834347" y="278.798635" style="fill: #808080; fill-opacity: 0.8"/>
    </g>
    <g clip-path="url(#p773b3a524e)">
     <use xlink:href="#C0_0_3b8c2f008f" x="49.309903" y="278.798635" style="fill: #808080; fill-opacity: 0.8"/>
    </g>
    <g clip-path="url(#p773b3a524e)">
     <use xlink:href="#C0_0_3b8c2f008f" x="49.309903" y="190.927201" style="fill: #808080; fill-opacity: 0.8"/>
    </g>
    <g clip-path="url(#p773b3a524e)">
     <use xlink:href="#C0_0_3b8c2f008f" x="123.221758" y="69.259062" style="fill: #808080; fill-opacity: 0.8"/>
    </g>
   </g>
   <g id="PathCollection_2">
    <defs>
     <path id="C1_0_8339b79096" d="M 0 3.535534 
C 0.937635 3.535534 1.836992 3.163008 2.5 2.5 
C 3.163008 1.836992 3.535534 0.937635 3.535534 -0 
C 3.535534 -0.937635 3.163008 -1.836992 2.5 -2.5 
C 1.836992 -3.163008 0.937635 -3.535534 0 -3.535534 
C -0.937635 -3.535534 -1.836992 -3.163008 -2.5 -2.5 
C -3.163008 -1.836992 -3.535534 -0.937635 -3.535534 0 
C -3.535534 0.937635 -3.163008 1.836992 -2.5 2.5 
C -1.836992 3.163008 -0.937635 3.535534 0 3.535534 
z
"/>
    </defs>
    <g clip-path="url(#p773b3a524e)">
     <use xlink:href="#C1_0_8339b79096" x="49.684019" y="295.021053" style="fill: #fd810a; fill-opacity: 0.8"/>
    </g>
    <g clip-path="url(#p773b3a524e)">
     <use xlink:href="#C1_0_8339b79096" x="49.684019" y="312.59534" style="fill: #fd810a; fill-opacity: 0.8"/>
    </g>
    <g clip-path="url(#p773b3a524e)">
     <use xlink:href="#C1_0_8339b79096" x="109.251795" y="242.298193" style="fill: #fd810a; fill-opacity: 0.8"/>
    </g>
    <g clip-path="url(#p773b3a524e)">
     <use xlink:href="#C1_0_8339b79096" x="46.837836" y="315.299076" style="fill: #fd810a; fill-opacity: 0.8"/>
    </g>
    <g clip-path="url(#p773b3a524e)">
     <use xlink:href="#C1_0_8339b79096" x="46.837836" y="318.002812" style="fill: #fd810a; fill-opacity: 0.8"/>
    </g>
    <g clip-path="url(#p773b3a524e)">
     <use xlink:href="#C1_0_8339b79096" x="45.834347" y="312.59534" style="fill: #fd810a; fill-opacity: 0.8"/>
    </g>
    <g clip-path="url(#p773b3a524e)">
     <use xlink:href="#C1_0_8339b79096" x="287.802528" y="292.317317" style="fill: #fd810a; fill-opacity: 0.8"/>
    </g>
    <g clip-path="url(#p773b3a524e)">
     <use xlink:href="#C1_0_8339b79096" x="287.802528" y="270.687425" style="fill: #fd810a; fill-opacity: 0.8"/>
    </g>
    <g clip-path="url(#p773b3a524e)">
     <use xlink:href="#C1_0_8339b79096" x="154.40444" y="136.852473" style="fill: #fd810a; fill-opacity: 0.8"/>
    </g>
   </g>
   <g id="matplotlib.axis_1">
    <g id="xtick_1">
     <g id="line2d_1">
      <defs>
       <path id="m402848f4d9" d="M 0 0 
L 0 3.5 
" style="stroke: #000000; stroke-width: 0.8"/>
      </defs>
      <g>
       <use xlink:href="#m402848f4d9" x="45.834347" y="330.44" style="stroke: #000000; stroke-width: 0.8"/>
      </g>
     </g>
     <g id="text_1">
      <!-- 0 -->
      <g transform="translate(43.289347 343.51875) scale(0.08 -0.08)">
       <defs>
        <path id="DejaVuSans-30" d="M 2034 4250 
Q 1547 4250 1301 3770 
Q 1056 3291 1056 2328 
Q 1056 1369 1301 889 
Q 1547 409 2034 409 
Q 2525 409 2770 889 
Q 3016 1369 3016 2328 
Q 3016 3291 2770 3770 
Q 2525 4250 2034 4250 
z
M 2034 4750 
Q 2819 4750 3233 4129 
Q 3647 3509 3647 2328 
Q 3647 1150 3233 529 
Q 2819 -91 2034 -91 
Q 1250 -91 836 529 
Q 422 1150 422 2328 
Q 422 3509 836 4129 
Q 1250 4750 2034 4750 
z
" transform="scale(0.015625)"/>
       </defs>
       <use xlink:href="#DejaVuSans-30"/>
      </g>
     </g>
    </g>
    <g id="xtick_2">
     <g id="line2d_2">
      <g>
       <use xlink:href="#m402848f4d9" x="92.292178" y="330.44" style="stroke: #000000; stroke-width: 0.8"/>
      </g>
     </g>
     <g id="text_2">
      <!-- 50 -->
      <g transform="translate(87.202178 343.51875) scale(0.08 -0.08)">
       <defs>
        <path id="DejaVuSans-35" d="M 691 4666 
L 3169 4666 
L 3169 4134 
L 1269 4134 
L 1269 2991 
Q 1406 3038 1543 3061 
Q 1681 3084 1819 3084 
Q 2600 3084 3056 2656 
Q 3513 2228 3513 1497 
Q 3513 744 3044 326 
Q 2575 -91 1722 -91 
Q 1428 -91 1123 -41 
Q 819 9 494 109 
L 494 744 
Q 775 591 1075 516 
Q 1375 441 1709 441 
Q 2250 441 2565 725 
Q 2881 1009 2881 1497 
Q 2881 1984 2565 2268 
Q 2250 2553 1709 2553 
Q 1456 2553 1204 2497 
Q 953 2441 691 2322 
L 691 4666 
z
" transform="scale(0.015625)"/>
       </defs>
       <use xlink:href="#DejaVuSans-35"/>
       <use xlink:href="#DejaVuSans-30" transform="translate(63.623047 0)"/>
      </g>
     </g>
    </g>
    <g id="xtick_3">
     <g id="line2d_3">
      <g>
       <use xlink:href="#m402848f4d9" x="138.750009" y="330.44" style="stroke: #000000; stroke-width: 0.8"/>
      </g>
     </g>
     <g id="text_3">
      <!-- 100 -->
      <g transform="translate(131.115009 343.51875) scale(0.08 -0.08)">
       <defs>
        <path id="DejaVuSans-31" d="M 794 531 
L 1825 531 
L 1825 4091 
L 703 3866 
L 703 4441 
L 1819 4666 
L 2450 4666 
L 2450 531 
L 3481 531 
L 3481 0 
L 794 0 
L 794 531 
z
" transform="scale(0.015625)"/>
       </defs>
       <use xlink:href="#DejaVuSans-31"/>
       <use xlink:href="#DejaVuSans-30" transform="translate(63.623047 0)"/>
       <use xlink:href="#DejaVuSans-30" transform="translate(127.246094 0)"/>
      </g>
     </g>
    </g>
    <g id="xtick_4">
     <g id="line2d_4">
      <g>
       <use xlink:href="#m402848f4d9" x="185.207841" y="330.44" style="stroke: #000000; stroke-width: 0.8"/>
      </g>
     </g>
     <g id="text_4">
      <!-- 150 -->
      <g transform="translate(177.572841 343.51875) scale(0.08 -0.08)">
       <use xlink:href="#DejaVuSans-31"/>
       <use xlink:href="#DejaVuSans-35" transform="translate(63.623047 0)"/>
       <use xlink:href="#DejaVuSans-30" transform="translate(127.246094 0)"/>
      </g>
     </g>
    </g>
    <g id="xtick_5">
     <g id="line2d_5">
      <g>
       <use xlink:href="#m402848f4d9" x="231.665672" y="330.44" style="stroke: #000000; stroke-width: 0.8"/>
      </g>
     </g>
     <g id="text_5">
      <!-- 200 -->
      <g transform="translate(224.030672 343.51875) scale(0.08 -0.08)">
       <defs>
        <path id="DejaVuSans-32" d="M 1228 531 
L 3431 531 
L 3431 0 
L 469 0 
L 469 531 
Q 828 903 1448 1529 
Q 2069 2156 2228 2338 
Q 2531 2678 2651 2914 
Q 2772 3150 2772 3378 
Q 2772 3750 2511 3984 
Q 2250 4219 1831 4219 
Q 1534 4219 1204 4116 
Q 875 4013 500 3803 
L 500 4441 
Q 881 4594 1212 4672 
Q 1544 4750 1819 4750 
Q 2544 4750 2975 4387 
Q 3406 4025 3406 3419 
Q 3406 3131 3298 2873 
Q 3191 2616 2906 2266 
Q 2828 2175 2409 1742 
Q 1991 1309 1228 531 
z
" transform="scale(0.015625)"/>
       </defs>
       <use xlink:href="#DejaVuSans-32"/>
       <use xlink:href="#DejaVuSans-30" transform="translate(63.623047 0)"/>
       <use xlink:href="#DejaVuSans-30" transform="translate(127.246094 0)"/>
      </g>
     </g>
    </g>
    <g id="xtick_6">
     <g id="line2d_6">
      <g>
       <use xlink:href="#m402848f4d9" x="278.123504" y="330.44" style="stroke: #000000; stroke-width: 0.8"/>
      </g>
     </g>
     <g id="text_6">
      <!-- 250 -->
      <g transform="translate(270.488504 343.51875) scale(0.08 -0.08)">
       <use xlink:href="#DejaVuSans-32"/>
       <use xlink:href="#DejaVuSans-35" transform="translate(63.623047 0)"/>
       <use xlink:href="#DejaVuSans-30" transform="translate(127.246094 0)"/>
      </g>
     </g>
    </g>
    <g id="text_7">
     <!-- Fungal Volume (mm³) -->
     <g transform="translate(123.558672 357.734219) scale(0.09 -0.09)">
      <defs>
       <path id="ArialMT-46" d="M 525 0 
L 525 4581 
L 3616 4581 
L 3616 4041 
L 1131 4041 
L 1131 2622 
L 3281 2622 
L 3281 2081 
L 1131 2081 
L 1131 0 
L 525 0 
z
" transform="scale(0.015625)"/>
       <path id="ArialMT-75" d="M 2597 0 
L 2597 488 
Q 2209 -75 1544 -75 
Q 1250 -75 995 37 
Q 741 150 617 320 
Q 494 491 444 738 
Q 409 903 409 1263 
L 409 3319 
L 972 3319 
L 972 1478 
Q 972 1038 1006 884 
Q 1059 663 1231 536 
Q 1403 409 1656 409 
Q 1909 409 2131 539 
Q 2353 669 2445 892 
Q 2538 1116 2538 1541 
L 2538 3319 
L 3100 3319 
L 3100 0 
L 2597 0 
z
" transform="scale(0.015625)"/>
       <path id="ArialMT-6e" d="M 422 0 
L 422 3319 
L 928 3319 
L 928 2847 
Q 1294 3394 1984 3394 
Q 2284 3394 2536 3286 
Q 2788 3178 2913 3003 
Q 3038 2828 3088 2588 
Q 3119 2431 3119 2041 
L 3119 0 
L 2556 0 
L 2556 2019 
Q 2556 2363 2490 2533 
Q 2425 2703 2258 2804 
Q 2091 2906 1866 2906 
Q 1506 2906 1245 2678 
Q 984 2450 984 1813 
L 984 0 
L 422 0 
z
" transform="scale(0.015625)"/>
       <path id="ArialMT-67" d="M 319 -275 
L 866 -356 
Q 900 -609 1056 -725 
Q 1266 -881 1628 -881 
Q 2019 -881 2231 -725 
Q 2444 -569 2519 -288 
Q 2563 -116 2559 434 
Q 2191 0 1641 0 
Q 956 0 581 494 
Q 206 988 206 1678 
Q 206 2153 378 2554 
Q 550 2956 876 3175 
Q 1203 3394 1644 3394 
Q 2231 3394 2613 2919 
L 2613 3319 
L 3131 3319 
L 3131 450 
Q 3131 -325 2973 -648 
Q 2816 -972 2473 -1159 
Q 2131 -1347 1631 -1347 
Q 1038 -1347 672 -1080 
Q 306 -813 319 -275 
z
M 784 1719 
Q 784 1066 1043 766 
Q 1303 466 1694 466 
Q 2081 466 2343 764 
Q 2606 1063 2606 1700 
Q 2606 2309 2336 2618 
Q 2066 2928 1684 2928 
Q 1309 2928 1046 2623 
Q 784 2319 784 1719 
z
" transform="scale(0.015625)"/>
       <path id="ArialMT-61" d="M 2588 409 
Q 2275 144 1986 34 
Q 1697 -75 1366 -75 
Q 819 -75 525 192 
Q 231 459 231 875 
Q 231 1119 342 1320 
Q 453 1522 633 1644 
Q 813 1766 1038 1828 
Q 1203 1872 1538 1913 
Q 2219 1994 2541 2106 
Q 2544 2222 2544 2253 
Q 2544 2597 2384 2738 
Q 2169 2928 1744 2928 
Q 1347 2928 1158 2789 
Q 969 2650 878 2297 
L 328 2372 
Q 403 2725 575 2942 
Q 747 3159 1072 3276 
Q 1397 3394 1825 3394 
Q 2250 3394 2515 3294 
Q 2781 3194 2906 3042 
Q 3031 2891 3081 2659 
Q 3109 2516 3109 2141 
L 3109 1391 
Q 3109 606 3145 398 
Q 3181 191 3288 0 
L 2700 0 
Q 2613 175 2588 409 
z
M 2541 1666 
Q 2234 1541 1622 1453 
Q 1275 1403 1131 1340 
Q 988 1278 909 1158 
Q 831 1038 831 891 
Q 831 666 1001 516 
Q 1172 366 1500 366 
Q 1825 366 2078 508 
Q 2331 650 2450 897 
Q 2541 1088 2541 1459 
L 2541 1666 
z
" transform="scale(0.015625)"/>
       <path id="ArialMT-6c" d="M 409 0 
L 409 4581 
L 972 4581 
L 972 0 
L 409 0 
z
" transform="scale(0.015625)"/>
       <path id="ArialMT-20" transform="scale(0.015625)"/>
       <path id="ArialMT-56" d="M 1803 0 
L 28 4581 
L 684 4581 
L 1875 1253 
Q 2019 853 2116 503 
Q 2222 878 2363 1253 
L 3600 4581 
L 4219 4581 
L 2425 0 
L 1803 0 
z
" transform="scale(0.015625)"/>
       <path id="ArialMT-6f" d="M 213 1659 
Q 213 2581 725 3025 
Q 1153 3394 1769 3394 
Q 2453 3394 2887 2945 
Q 3322 2497 3322 1706 
Q 3322 1066 3130 698 
Q 2938 331 2570 128 
Q 2203 -75 1769 -75 
Q 1072 -75 642 372 
Q 213 819 213 1659 
z
M 791 1659 
Q 791 1022 1069 705 
Q 1347 388 1769 388 
Q 2188 388 2466 706 
Q 2744 1025 2744 1678 
Q 2744 2294 2464 2611 
Q 2184 2928 1769 2928 
Q 1347 2928 1069 2612 
Q 791 2297 791 1659 
z
" transform="scale(0.015625)"/>
       <path id="ArialMT-6d" d="M 422 0 
L 422 3319 
L 925 3319 
L 925 2853 
Q 1081 3097 1340 3245 
Q 1600 3394 1931 3394 
Q 2300 3394 2536 3241 
Q 2772 3088 2869 2813 
Q 3263 3394 3894 3394 
Q 4388 3394 4653 3120 
Q 4919 2847 4919 2278 
L 4919 0 
L 4359 0 
L 4359 2091 
Q 4359 2428 4304 2576 
Q 4250 2725 4106 2815 
Q 3963 2906 3769 2906 
Q 3419 2906 3187 2673 
Q 2956 2441 2956 1928 
L 2956 0 
L 2394 0 
L 2394 2156 
Q 2394 2531 2256 2718 
Q 2119 2906 1806 2906 
Q 1569 2906 1367 2781 
Q 1166 2656 1075 2415 
Q 984 2175 984 1722 
L 984 0 
L 422 0 
z
" transform="scale(0.015625)"/>
       <path id="ArialMT-65" d="M 2694 1069 
L 3275 997 
Q 3138 488 2766 206 
Q 2394 -75 1816 -75 
Q 1088 -75 661 373 
Q 234 822 234 1631 
Q 234 2469 665 2931 
Q 1097 3394 1784 3394 
Q 2450 3394 2872 2941 
Q 3294 2488 3294 1666 
Q 3294 1616 3291 1516 
L 816 1516 
Q 847 969 1125 678 
Q 1403 388 1819 388 
Q 2128 388 2347 550 
Q 2566 713 2694 1069 
z
M 847 1978 
L 2700 1978 
Q 2663 2397 2488 2606 
Q 2219 2931 1791 2931 
Q 1403 2931 1139 2672 
Q 875 2413 847 1978 
z
" transform="scale(0.015625)"/>
       <path id="ArialMT-28" d="M 1497 -1347 
Q 1031 -759 709 28 
Q 388 816 388 1659 
Q 388 2403 628 3084 
Q 909 3875 1497 4659 
L 1900 4659 
Q 1522 4009 1400 3731 
Q 1209 3300 1100 2831 
Q 966 2247 966 1656 
Q 966 153 1900 -1347 
L 1497 -1347 
z
" transform="scale(0.015625)"/>
       <path id="ArialMT-b3" d="M 103 2903 
L 559 2950 
Q 622 2763 722 2694 
Q 856 2600 1041 2600 
Q 1263 2600 1397 2722 
Q 1531 2844 1531 3016 
Q 1531 3172 1418 3265 
Q 1306 3359 1034 3359 
Q 997 3359 931 3353 
Q 888 3350 863 3350 
L 931 3694 
Q 1184 3691 1301 3784 
Q 1419 3878 1419 4013 
Q 1419 4128 1325 4209 
Q 1231 4291 1047 4291 
Q 872 4291 773 4222 
Q 675 4153 603 3972 
L 156 4044 
Q 284 4375 479 4506 
Q 675 4638 1050 4638 
Q 1500 4638 1704 4470 
Q 1909 4303 1909 4053 
Q 1909 3881 1798 3747 
Q 1688 3613 1478 3553 
Q 1756 3484 1887 3326 
Q 2019 3169 2019 2956 
Q 2019 2666 1772 2450 
Q 1525 2234 1069 2234 
Q 631 2234 400 2407 
Q 169 2581 103 2903 
z
" transform="scale(0.015625)"/>
       <path id="ArialMT-29" d="M 791 -1347 
L 388 -1347 
Q 1322 153 1322 1656 
Q 1322 2244 1188 2822 
Q 1081 3291 891 3722 
Q 769 4003 388 4659 
L 791 4659 
Q 1378 3875 1659 3084 
Q 1900 2403 1900 1659 
Q 1900 816 1576 28 
Q 1253 -759 791 -1347 
z
" transform="scale(0.015625)"/>
      </defs>
      <use xlink:href="#ArialMT-46"/>
      <use xlink:href="#ArialMT-75" transform="translate(61.083984 0)"/>
      <use xlink:href="#ArialMT-6e" transform="translate(116.699219 0)"/>
      <use xlink:href="#ArialMT-67" transform="translate(172.314453 0)"/>
      <use xlink:href="#ArialMT-61" transform="translate(227.929688 0)"/>
      <use xlink:href="#ArialMT-6c" transform="translate(283.544922 0)"/>
      <use xlink:href="#ArialMT-20" transform="translate(305.761719 0)"/>
      <use xlink:href="#ArialMT-56" transform="translate(333.544922 0)"/>
      <use xlink:href="#ArialMT-6f" transform="translate(394.744141 0)"/>
      <use xlink:href="#ArialMT-6c" transform="translate(450.359375 0)"/>
      <use xlink:href="#ArialMT-75" transform="translate(472.576172 0)"/>
      <use xlink:href="#ArialMT-6d" transform="translate(528.191406 0)"/>
      <use xlink:href="#ArialMT-65" transform="translate(611.492188 0)"/>
      <use xlink:href="#ArialMT-20" transform="translate(667.107422 0)"/>
      <use xlink:href="#ArialMT-28" transform="translate(694.890625 0)"/>
      <use xlink:href="#ArialMT-6d" transform="translate(728.191406 0)"/>
      <use xlink:href="#ArialMT-6d" transform="translate(811.492188 0)"/>
      <use xlink:href="#ArialMT-b3" transform="translate(894.792969 0)"/>
      <use xlink:href="#ArialMT-29" transform="translate(928.09375 0)"/>
     </g>
    </g>
   </g>
   <g id="matplotlib.axis_2">
    <g id="ytick_1">
     <g id="line2d_7">
      <defs>
       <path id="m5e5181d4da" d="M 0 0 
L -3.5 0 
" style="stroke: #000000; stroke-width: 0.8"/>
      </defs>
      <g>
       <use xlink:href="#m5e5181d4da" x="33.735938" y="291.754939" style="stroke: #000000; stroke-width: 0.8"/>
      </g>
     </g>
     <g id="text_8">
      <!-- 1 -->
      <g transform="translate(21.645938 294.794314) scale(0.08 -0.08)">
       <use xlink:href="#DejaVuSans-31"/>
      </g>
     </g>
    </g>
    <g id="ytick_2">
     <g id="line2d_8">
      <g>
       <use xlink:href="#m5e5181d4da" x="33.735938" y="249.284648" style="stroke: #000000; stroke-width: 0.8"/>
      </g>
     </g>
     <g id="text_9">
      <!-- 2 -->
      <g transform="translate(21.645938 252.324023) scale(0.08 -0.08)">
       <use xlink:href="#DejaVuSans-32"/>
      </g>
     </g>
    </g>
    <g id="ytick_3">
     <g id="line2d_9">
      <g>
       <use xlink:href="#m5e5181d4da" x="33.735938" y="206.814356" style="stroke: #000000; stroke-width: 0.8"/>
      </g>
     </g>
     <g id="text_10">
      <!-- 3 -->
      <g transform="translate(21.645938 209.853731) scale(0.08 -0.08)">
       <defs>
        <path id="DejaVuSans-33" d="M 2597 2516 
Q 3050 2419 3304 2112 
Q 3559 1806 3559 1356 
Q 3559 666 3084 287 
Q 2609 -91 1734 -91 
Q 1441 -91 1130 -33 
Q 819 25 488 141 
L 488 750 
Q 750 597 1062 519 
Q 1375 441 1716 441 
Q 2309 441 2620 675 
Q 2931 909 2931 1356 
Q 2931 1769 2642 2001 
Q 2353 2234 1838 2234 
L 1294 2234 
L 1294 2753 
L 1863 2753 
Q 2328 2753 2575 2939 
Q 2822 3125 2822 3475 
Q 2822 3834 2567 4026 
Q 2313 4219 1838 4219 
Q 1578 4219 1281 4162 
Q 984 4106 628 3988 
L 628 4550 
Q 988 4650 1302 4700 
Q 1616 4750 1894 4750 
Q 2613 4750 3031 4423 
Q 3450 4097 3450 3541 
Q 3450 3153 3228 2886 
Q 3006 2619 2597 2516 
z
" transform="scale(0.015625)"/>
       </defs>
       <use xlink:href="#DejaVuSans-33"/>
      </g>
     </g>
    </g>
    <g id="ytick_4">
     <g id="line2d_10">
      <g>
       <use xlink:href="#m5e5181d4da" x="33.735938" y="164.344065" style="stroke: #000000; stroke-width: 0.8"/>
      </g>
     </g>
     <g id="text_11">
      <!-- 4 -->
      <g transform="translate(21.645938 167.38344) scale(0.08 -0.08)">
       <defs>
        <path id="DejaVuSans-34" d="M 2419 4116 
L 825 1625 
L 2419 1625 
L 2419 4116 
z
M 2253 4666 
L 3047 4666 
L 3047 1625 
L 3713 1625 
L 3713 1100 
L 3047 1100 
L 3047 0 
L 2419 0 
L 2419 1100 
L 313 1100 
L 313 1709 
L 2253 4666 
z
" transform="scale(0.015625)"/>
       </defs>
       <use xlink:href="#DejaVuSans-34"/>
      </g>
     </g>
    </g>
    <g id="ytick_5">
     <g id="line2d_11">
      <g>
       <use xlink:href="#m5e5181d4da" x="33.735938" y="121.873773" style="stroke: #000000; stroke-width: 0.8"/>
      </g>
     </g>
     <g id="text_12">
      <!-- 5 -->
      <g transform="translate(21.645938 124.913148) scale(0.08 -0.08)">
       <use xlink:href="#DejaVuSans-35"/>
      </g>
     </g>
    </g>
    <g id="ytick_6">
     <g id="line2d_12">
      <g>
       <use xlink:href="#m5e5181d4da" x="33.735938" y="79.403482" style="stroke: #000000; stroke-width: 0.8"/>
      </g>
     </g>
     <g id="text_13">
      <!-- 6 -->
      <g transform="translate(21.645938 82.442857) scale(0.08 -0.08)">
       <defs>
        <path id="DejaVuSans-36" d="M 2113 2584 
Q 1688 2584 1439 2293 
Q 1191 2003 1191 1497 
Q 1191 994 1439 701 
Q 1688 409 2113 409 
Q 2538 409 2786 701 
Q 3034 994 3034 1497 
Q 3034 2003 2786 2293 
Q 2538 2584 2113 2584 
z
M 3366 4563 
L 3366 3988 
Q 3128 4100 2886 4159 
Q 2644 4219 2406 4219 
Q 1781 4219 1451 3797 
Q 1122 3375 1075 2522 
Q 1259 2794 1537 2939 
Q 1816 3084 2150 3084 
Q 2853 3084 3261 2657 
Q 3669 2231 3669 1497 
Q 3669 778 3244 343 
Q 2819 -91 2113 -91 
Q 1303 -91 875 529 
Q 447 1150 447 2328 
Q 447 3434 972 4092 
Q 1497 4750 2381 4750 
Q 2619 4750 2861 4703 
Q 3103 4656 3366 4563 
z
" transform="scale(0.015625)"/>
       </defs>
       <use xlink:href="#DejaVuSans-36"/>
      </g>
     </g>
    </g>
    <g id="text_14">
     <!-- Cell Density (1000 cells/100 μm circle) -->
     <g transform="translate(13.751719 270.24625) rotate(-90) scale(0.09 -0.09)">
      <defs>
       <path id="ArialMT-43" d="M 3763 1606 
L 4369 1453 
Q 4178 706 3683 314 
Q 3188 -78 2472 -78 
Q 1731 -78 1267 223 
Q 803 525 561 1097 
Q 319 1669 319 2325 
Q 319 3041 592 3573 
Q 866 4106 1370 4382 
Q 1875 4659 2481 4659 
Q 3169 4659 3637 4309 
Q 4106 3959 4291 3325 
L 3694 3184 
Q 3534 3684 3231 3912 
Q 2928 4141 2469 4141 
Q 1941 4141 1586 3887 
Q 1231 3634 1087 3207 
Q 944 2781 944 2328 
Q 944 1744 1114 1308 
Q 1284 872 1643 656 
Q 2003 441 2422 441 
Q 2931 441 3284 734 
Q 3638 1028 3763 1606 
z
" transform="scale(0.015625)"/>
       <path id="ArialMT-44" d="M 494 0 
L 494 4581 
L 2072 4581 
Q 2606 4581 2888 4516 
Q 3281 4425 3559 4188 
Q 3922 3881 4101 3404 
Q 4281 2928 4281 2316 
Q 4281 1794 4159 1391 
Q 4038 988 3847 723 
Q 3656 459 3429 307 
Q 3203 156 2883 78 
Q 2563 0 2147 0 
L 494 0 
z
M 1100 541 
L 2078 541 
Q 2531 541 2789 625 
Q 3047 709 3200 863 
Q 3416 1078 3536 1442 
Q 3656 1806 3656 2325 
Q 3656 3044 3420 3430 
Q 3184 3816 2847 3947 
Q 2603 4041 2063 4041 
L 1100 4041 
L 1100 541 
z
" transform="scale(0.015625)"/>
       <path id="ArialMT-73" d="M 197 991 
L 753 1078 
Q 800 744 1014 566 
Q 1228 388 1613 388 
Q 2000 388 2187 545 
Q 2375 703 2375 916 
Q 2375 1106 2209 1216 
Q 2094 1291 1634 1406 
Q 1016 1563 777 1677 
Q 538 1791 414 1992 
Q 291 2194 291 2438 
Q 291 2659 392 2848 
Q 494 3038 669 3163 
Q 800 3259 1026 3326 
Q 1253 3394 1513 3394 
Q 1903 3394 2198 3281 
Q 2494 3169 2634 2976 
Q 2775 2784 2828 2463 
L 2278 2388 
Q 2241 2644 2061 2787 
Q 1881 2931 1553 2931 
Q 1166 2931 1000 2803 
Q 834 2675 834 2503 
Q 834 2394 903 2306 
Q 972 2216 1119 2156 
Q 1203 2125 1616 2013 
Q 2213 1853 2448 1751 
Q 2684 1650 2818 1456 
Q 2953 1263 2953 975 
Q 2953 694 2789 445 
Q 2625 197 2315 61 
Q 2006 -75 1616 -75 
Q 969 -75 630 194 
Q 291 463 197 991 
z
" transform="scale(0.015625)"/>
       <path id="ArialMT-69" d="M 425 3934 
L 425 4581 
L 988 4581 
L 988 3934 
L 425 3934 
z
M 425 0 
L 425 3319 
L 988 3319 
L 988 0 
L 425 0 
z
" transform="scale(0.015625)"/>
       <path id="ArialMT-74" d="M 1650 503 
L 1731 6 
Q 1494 -44 1306 -44 
Q 1000 -44 831 53 
Q 663 150 594 308 
Q 525 466 525 972 
L 525 2881 
L 113 2881 
L 113 3319 
L 525 3319 
L 525 4141 
L 1084 4478 
L 1084 3319 
L 1650 3319 
L 1650 2881 
L 1084 2881 
L 1084 941 
Q 1084 700 1114 631 
Q 1144 563 1211 522 
Q 1278 481 1403 481 
Q 1497 481 1650 503 
z
" transform="scale(0.015625)"/>
       <path id="ArialMT-79" d="M 397 -1278 
L 334 -750 
Q 519 -800 656 -800 
Q 844 -800 956 -737 
Q 1069 -675 1141 -563 
Q 1194 -478 1313 -144 
Q 1328 -97 1363 -6 
L 103 3319 
L 709 3319 
L 1400 1397 
Q 1534 1031 1641 628 
Q 1738 1016 1872 1384 
L 2581 3319 
L 3144 3319 
L 1881 -56 
Q 1678 -603 1566 -809 
Q 1416 -1088 1222 -1217 
Q 1028 -1347 759 -1347 
Q 597 -1347 397 -1278 
z
" transform="scale(0.015625)"/>
       <path id="ArialMT-31" d="M 2384 0 
L 1822 0 
L 1822 3584 
Q 1619 3391 1289 3197 
Q 959 3003 697 2906 
L 697 3450 
Q 1169 3672 1522 3987 
Q 1875 4303 2022 4600 
L 2384 4600 
L 2384 0 
z
" transform="scale(0.015625)"/>
       <path id="ArialMT-30" d="M 266 2259 
Q 266 3072 433 3567 
Q 600 4063 929 4331 
Q 1259 4600 1759 4600 
Q 2128 4600 2406 4451 
Q 2684 4303 2865 4023 
Q 3047 3744 3150 3342 
Q 3253 2941 3253 2259 
Q 3253 1453 3087 958 
Q 2922 463 2592 192 
Q 2263 -78 1759 -78 
Q 1097 -78 719 397 
Q 266 969 266 2259 
z
M 844 2259 
Q 844 1131 1108 757 
Q 1372 384 1759 384 
Q 2147 384 2411 759 
Q 2675 1134 2675 2259 
Q 2675 3391 2411 3762 
Q 2147 4134 1753 4134 
Q 1366 4134 1134 3806 
Q 844 3388 844 2259 
z
" transform="scale(0.015625)"/>
       <path id="ArialMT-63" d="M 2588 1216 
L 3141 1144 
Q 3050 572 2676 248 
Q 2303 -75 1759 -75 
Q 1078 -75 664 370 
Q 250 816 250 1647 
Q 250 2184 428 2587 
Q 606 2991 970 3192 
Q 1334 3394 1763 3394 
Q 2303 3394 2647 3120 
Q 2991 2847 3088 2344 
L 2541 2259 
Q 2463 2594 2264 2762 
Q 2066 2931 1784 2931 
Q 1359 2931 1093 2626 
Q 828 2322 828 1663 
Q 828 994 1084 691 
Q 1341 388 1753 388 
Q 2084 388 2306 591 
Q 2528 794 2588 1216 
z
" transform="scale(0.015625)"/>
       <path id="ArialMT-2f" d="M 0 -78 
L 1328 4659 
L 1778 4659 
L 453 -78 
L 0 -78 
z
" transform="scale(0.015625)"/>
       <path id="ArialMT-3bc" d="M 3181 3319 
L 3181 0 
L 2678 0 
L 2678 394 
Q 2516 144 2356 50 
Q 2138 -78 1847 -78 
Q 1588 -78 1388 25 
Q 1238 103 1056 334 
L 1056 -1272 
L 500 -1272 
L 500 3319 
L 1056 3319 
L 1056 1913 
Q 1056 1147 1137 920 
Q 1219 694 1401 562 
Q 1584 431 1822 431 
Q 2072 431 2269 568 
Q 2466 706 2547 923 
Q 2628 1141 2628 1903 
L 2628 3319 
L 3181 3319 
z
" transform="scale(0.015625)"/>
       <path id="ArialMT-72" d="M 416 0 
L 416 3319 
L 922 3319 
L 922 2816 
Q 1116 3169 1280 3281 
Q 1444 3394 1641 3394 
Q 1925 3394 2219 3213 
L 2025 2691 
Q 1819 2813 1613 2813 
Q 1428 2813 1281 2702 
Q 1134 2591 1072 2394 
Q 978 2094 978 1738 
L 978 0 
L 416 0 
z
" transform="scale(0.015625)"/>
      </defs>
      <use xlink:href="#ArialMT-43"/>
      <use xlink:href="#ArialMT-65" transform="translate(72.216797 0)"/>
      <use xlink:href="#ArialMT-6c" transform="translate(127.832031 0)"/>
      <use xlink:href="#ArialMT-6c" transform="translate(150.048828 0)"/>
      <use xlink:href="#ArialMT-20" transform="translate(172.265625 0)"/>
      <use xlink:href="#ArialMT-44" transform="translate(200.048828 0)"/>
      <use xlink:href="#ArialMT-65" transform="translate(272.265625 0)"/>
      <use xlink:href="#ArialMT-6e" transform="translate(327.880859 0)"/>
      <use xlink:href="#ArialMT-73" transform="translate(383.496094 0)"/>
      <use xlink:href="#ArialMT-69" transform="translate(433.496094 0)"/>
      <use xlink:href="#ArialMT-74" transform="translate(455.712891 0)"/>
      <use xlink:href="#ArialMT-79" transform="translate(483.496094 0)"/>
      <use xlink:href="#ArialMT-20" transform="translate(533.496094 0)"/>
      <use xlink:href="#ArialMT-28" transform="translate(561.279297 0)"/>
      <use xlink:href="#ArialMT-31" transform="translate(594.580078 0)"/>
      <use xlink:href="#ArialMT-30" transform="translate(650.195312 0)"/>
      <use xlink:href="#ArialMT-30" transform="translate(705.810547 0)"/>
      <use xlink:href="#ArialMT-30" transform="translate(761.425781 0)"/>
      <use xlink:href="#ArialMT-20" transform="translate(817.041016 0)"/>
      <use xlink:href="#ArialMT-63" transform="translate(844.824219 0)"/>
      <use xlink:href="#ArialMT-65" transform="translate(894.824219 0)"/>
      <use xlink:href="#ArialMT-6c" transform="translate(950.439453 0)"/>
      <use xlink:href="#ArialMT-6c" transform="translate(972.65625 0)"/>
      <use xlink:href="#ArialMT-73" transform="translate(994.873047 0)"/>
      <use xlink:href="#ArialMT-2f" transform="translate(1044.873047 0)"/>
      <use xlink:href="#ArialMT-31" transform="translate(1072.65625 0)"/>
      <use xlink:href="#ArialMT-30" transform="translate(1128.271484 0)"/>
      <use xlink:href="#ArialMT-30" transform="translate(1183.886719 0)"/>
      <use xlink:href="#ArialMT-20" transform="translate(1239.501953 0)"/>
      <use xlink:href="#ArialMT-3bc" transform="translate(1267.285156 0)"/>
      <use xlink:href="#ArialMT-6d" transform="translate(1324.902344 0)"/>
      <use xlink:href="#ArialMT-20" transform="translate(1408.203125 0)"/>
      <use xlink:href="#ArialMT-63" transform="translate(1435.986328 0)"/>
      <use xlink:href="#ArialMT-69" transform="translate(1485.986328 0)"/>
      <use xlink:href="#ArialMT-72" transform="translate(1508.203125 0)"/>
      <use xlink:href="#ArialMT-63" transform="translate(1541.503906 0)"/>
      <use xlink:href="#ArialMT-6c" transform="translate(1591.503906 0)"/>
      <use xlink:href="#ArialMT-65" transform="translate(1613.720703 0)"/>
      <use xlink:href="#ArialMT-29" transform="translate(1669.335938 0)"/>
     </g>
    </g>
   </g>
   <g id="line2d_13">
    <path d="M 45.834347 277.451174 
L 46.616038 275.429546 
L 47.397729 273.407919 
L 48.17942 271.386291 
L 48.961111 269.364663 
L 49.742802 267.343035 
L 50.524493 265.321407 
L 51.306184 263.299779 
L 52.087875 261.278151 
L 52.869566 259.256524 
L 53.651257 257.234896 
L 54.432948 255.213268 
L 55.214639 253.19164 
L 55.99633 251.170012 
L 56.778021 249.148384 
L 57.559712 247.126756 
L 58.341403 245.105129 
L 59.123094 243.083501 
L 59.904785 241.061873 
L 60.686476 239.040245 
L 61.468167 237.018617 
L 62.249858 234.996989 
L 63.031549 232.975361 
L 63.81324 230.953734 
L 64.594931 228.932106 
L 65.376622 226.910478 
L 66.158313 224.88885 
L 66.940004 222.867222 
L 67.721695 220.845594 
L 68.503386 218.823966 
L 69.285077 216.802339 
L 70.066768 214.780711 
L 70.848459 212.759083 
L 71.63015 210.737455 
L 72.411841 208.715827 
L 73.193532 206.694199 
L 73.975223 204.672571 
L 74.756915 202.650944 
L 75.538606 200.629316 
L 76.320297 198.607688 
L 77.101988 196.58606 
L 77.883679 194.564432 
L 78.66537 192.542804 
L 79.447061 190.521176 
L 80.228752 188.499549 
L 81.010443 186.477921 
L 81.792134 184.456293 
L 82.573825 182.434665 
L 83.355516 180.413037 
L 84.137207 178.391409 
L 84.918898 176.369781 
L 85.700589 174.348154 
L 86.48228 172.326526 
L 87.263971 170.304898 
L 88.045662 168.28327 
L 88.827353 166.261642 
L 89.609044 164.240014 
L 90.390735 162.218386 
L 91.172426 160.196758 
L 91.954117 158.175131 
L 92.735808 156.153503 
L 93.517499 154.131875 
L 94.29919 152.110247 
L 95.080881 150.088619 
L 95.862572 148.066991 
L 96.644263 146.045363 
L 97.425954 144.023736 
L 98.207645 142.002108 
L 98.989336 139.98048 
L 99.771027 137.958852 
L 100.552718 135.937224 
L 101.334409 133.915596 
L 102.1161 131.893968 
L 102.897791 129.872341 
L 103.679482 127.850713 
L 104.461173 125.829085 
L 105.242864 123.807457 
L 106.024556 121.785829 
L 106.806247 119.764201 
L 107.587938 117.742573 
L 108.369629 115.720946 
L 109.15132 113.699318 
L 109.933011 111.67769 
L 110.714702 109.656062 
L 111.496393 107.634434 
L 112.278084 105.612806 
L 113.059775 103.591178 
L 113.841466 101.569551 
L 114.623157 99.547923 
L 115.404848 97.526295 
L 116.186539 95.504667 
L 116.96823 93.483039 
L 117.749921 91.461411 
L 118.531612 89.439783 
L 119.313303 87.418156 
L 120.094994 85.396528 
L 120.876685 83.3749 
L 121.658376 81.353272 
L 122.440067 79.331644 
L 123.221758 77.310016 
" clip-path="url(#p773b3a524e)" style="fill: none; stroke: #808080; stroke-opacity: 0.9; stroke-width: 1.5; stroke-linecap: square"/>
   </g>
   <g id="line2d_14">
    <path d="M 45.834347 290.68117 
L 48.27847 290.238848 
L 50.722593 289.796526 
L 53.166716 289.354204 
L 55.610839 288.911883 
L 58.054962 288.469561 
L 60.499085 288.027239 
L 62.943208 287.584917 
L 65.387331 287.142596 
L 67.831454 286.700274 
L 70.275577 286.257952 
L 72.7197 285.81563 
L 75.163823 285.373309 
L 77.607946 284.930987 
L 80.052069 284.488665 
L 82.496192 284.046343 
L 84.940315 283.604022 
L 87.384438 283.1617 
L 89.828561 282.719378 
L 92.272685 282.277056 
L 94.716808 281.834735 
L 97.160931 281.392413 
L 99.605054 280.950091 
L 102.049177 280.507769 
L 104.4933 280.065448 
L 106.937423 279.623126 
L 109.381546 279.180804 
L 111.825669 278.738483 
L 114.269792 278.296161 
L 116.713915 277.853839 
L 119.158038 277.411517 
L 121.602161 276.969196 
L 124.046284 276.526874 
L 126.490407 276.084552 
L 128.93453 275.64223 
L 131.378653 275.199909 
L 133.822776 274.757587 
L 136.266899 274.315265 
L 138.711022 273.872943 
L 141.155145 273.430622 
L 143.599269 272.9883 
L 146.043392 272.545978 
L 148.487515 272.103656 
L 150.931638 271.661335 
L 153.375761 271.219013 
L 155.819884 270.776691 
L 158.264007 270.334369 
L 160.70813 269.892048 
L 163.152253 269.449726 
L 165.596376 269.007404 
L 168.040499 268.565082 
L 170.484622 268.122761 
L 172.928745 267.680439 
L 175.372868 267.238117 
L 177.816991 266.795796 
L 180.261114 266.353474 
L 182.705237 265.911152 
L 185.14936 265.46883 
L 187.593483 265.026509 
L 190.037606 264.584187 
L 192.48173 264.141865 
L 194.925853 263.699543 
L 197.369976 263.257222 
L 199.814099 262.8149 
L 202.258222 262.372578 
L 204.702345 261.930256 
L 207.146468 261.487935 
L 209.590591 261.045613 
L 212.034714 260.603291 
L 214.478837 260.160969 
L 216.92296 259.718648 
L 219.367083 259.276326 
L 221.811206 258.834004 
L 224.255329 258.391682 
L 226.699452 257.949361 
L 229.143575 257.507039 
L 231.587698 257.064717 
L 234.031821 256.622396 
L 236.475944 256.180074 
L 238.920067 255.737752 
L 241.36419 255.29543 
L 243.808314 254.853109 
L 246.252437 254.410787 
L 248.69656 253.968465 
L 251.140683 253.526143 
L 253.584806 253.083822 
L 256.028929 252.6415 
L 258.473052 252.199178 
L 260.917175 251.756856 
L 263.361298 251.314535 
L 265.805421 250.872213 
L 268.249544 250.429891 
L 270.693667 249.987569 
L 273.13779 249.545248 
L 275.581913 249.102926 
L 278.026036 248.660604 
L 280.470159 248.218282 
L 282.914282 247.775961 
L 285.358405 247.333639 
L 287.802528 246.891317 
" clip-path="url(#p773b3a524e)" style="fill: none; stroke: #fd810a; stroke-opacity: 0.9; stroke-width: 1.5; stroke-linecap: square"/>
   </g>
   <g id="patch_3">
    <path d="M 33.735938 330.44 
L 33.735938 56.821875 
" style="fill: none; stroke: #000000; stroke-width: 0.8; stroke-linejoin: miter; stroke-linecap: square"/>
   </g>
   <g id="patch_4">
    <path d="M 33.735938 330.44 
L 299.900937 330.44 
" style="fill: none; stroke: #000000; stroke-width: 0.8; stroke-linejoin: miter; stroke-linecap: square"/>
   </g>
   <g id="text_15">
    <!-- r²=0.78 ** -->
    <g style="fill: #808080" transform="translate(88.116344 60.518144) scale(0.09 -0.09)">
     <defs>
      <path id="Arial-BoldMT-72" d="M 1300 0 
L 422 0 
L 422 3319 
L 1238 3319 
L 1238 2847 
Q 1447 3181 1614 3287 
Q 1781 3394 1994 3394 
Q 2294 3394 2572 3228 
L 2300 2463 
Q 2078 2606 1888 2606 
Q 1703 2606 1575 2504 
Q 1447 2403 1373 2137 
Q 1300 1872 1300 1025 
L 1300 0 
z
" transform="scale(0.015625)"/>
      <path id="Arial-BoldMT-b2" d="M 1975 2766 
L 1975 2272 
L 78 2272 
Q 113 2538 248 2747 
Q 384 2956 856 3328 
Q 1213 3606 1284 3697 
Q 1381 3816 1381 3938 
Q 1381 4053 1303 4122 
Q 1225 4191 1066 4191 
Q 906 4191 828 4114 
Q 750 4038 731 3831 
L 141 3881 
Q 188 4247 375 4416 
Q 625 4638 1081 4638 
Q 1516 4638 1745 4438 
Q 1975 4238 1975 3966 
Q 1975 3797 1903 3645 
Q 1831 3494 1675 3331 
Q 1594 3250 1253 2981 
Q 1072 2841 994 2766 
L 1975 2766 
z
" transform="scale(0.015625)"/>
      <path id="Arial-BoldMT-3d" d="M 266 2550 
L 266 3356 
L 3469 3356 
L 3469 2550 
L 266 2550 
z
M 266 1163 
L 266 1972 
L 3469 1972 
L 3469 1163 
L 266 1163 
z
" transform="scale(0.015625)"/>
      <path id="Arial-BoldMT-30" d="M 1756 4600 
Q 2422 4600 2797 4125 
Q 3244 3563 3244 2259 
Q 3244 959 2794 391 
Q 2422 -78 1756 -78 
Q 1088 -78 678 436 
Q 269 950 269 2269 
Q 269 3563 719 4131 
Q 1091 4600 1756 4600 
z
M 1756 3872 
Q 1597 3872 1472 3770 
Q 1347 3669 1278 3406 
Q 1188 3066 1188 2259 
Q 1188 1453 1269 1151 
Q 1350 850 1473 750 
Q 1597 650 1756 650 
Q 1916 650 2041 751 
Q 2166 853 2234 1116 
Q 2325 1453 2325 2259 
Q 2325 3066 2244 3367 
Q 2163 3669 2039 3770 
Q 1916 3872 1756 3872 
z
" transform="scale(0.015625)"/>
      <path id="Arial-BoldMT-2e" d="M 459 0 
L 459 878 
L 1338 878 
L 1338 0 
L 459 0 
z
" transform="scale(0.015625)"/>
      <path id="Arial-BoldMT-37" d="M 272 3703 
L 272 4519 
L 3275 4519 
L 3275 3881 
Q 2903 3516 2518 2831 
Q 2134 2147 1932 1376 
Q 1731 606 1734 0 
L 888 0 
Q 909 950 1279 1937 
Q 1650 2925 2269 3703 
L 272 3703 
z
" transform="scale(0.015625)"/>
      <path id="Arial-BoldMT-38" d="M 1025 2472 
Q 684 2616 529 2867 
Q 375 3119 375 3419 
Q 375 3931 733 4265 
Q 1091 4600 1750 4600 
Q 2403 4600 2764 4265 
Q 3125 3931 3125 3419 
Q 3125 3100 2959 2851 
Q 2794 2603 2494 2472 
Q 2875 2319 3073 2025 
Q 3272 1731 3272 1347 
Q 3272 713 2867 316 
Q 2463 -81 1791 -81 
Q 1166 -81 750 247 
Q 259 634 259 1309 
Q 259 1681 443 1992 
Q 628 2303 1025 2472 
z
M 1206 3356 
Q 1206 3094 1354 2947 
Q 1503 2800 1750 2800 
Q 2000 2800 2150 2948 
Q 2300 3097 2300 3359 
Q 2300 3606 2151 3754 
Q 2003 3903 1759 3903 
Q 1506 3903 1356 3753 
Q 1206 3603 1206 3356 
z
M 1125 1394 
Q 1125 1031 1311 828 
Q 1497 625 1775 625 
Q 2047 625 2225 820 
Q 2403 1016 2403 1384 
Q 2403 1706 2222 1901 
Q 2041 2097 1763 2097 
Q 1441 2097 1283 1875 
Q 1125 1653 1125 1394 
z
" transform="scale(0.015625)"/>
      <path id="Arial-BoldMT-20" transform="scale(0.015625)"/>
      <path id="Arial-BoldMT-2a" d="M 766 2475 
L 294 2841 
Q 519 3094 763 3325 
Q 859 3419 884 3444 
Q 806 3456 438 3547 
Q 172 3613 88 3644 
L 272 4194 
Q 681 4028 1003 3828 
Q 928 4338 928 4659 
L 1484 4659 
Q 1484 4431 1400 3822 
Q 1463 3847 1669 3944 
Q 1950 4072 2188 4163 
L 2353 3597 
Q 2006 3519 1550 3444 
L 1925 3022 
Q 2038 2894 2103 2813 
L 1625 2497 
L 1203 3194 
Q 1013 2856 766 2475 
z
" transform="scale(0.015625)"/>
     </defs>
     <use xlink:href="#Arial-BoldMT-72"/>
     <use xlink:href="#Arial-BoldMT-b2" transform="translate(38.916016 0)"/>
     <use xlink:href="#Arial-BoldMT-3d" transform="translate(72.216797 0)"/>
     <use xlink:href="#Arial-BoldMT-30" transform="translate(130.615234 0)"/>
     <use xlink:href="#Arial-BoldMT-2e" transform="translate(186.230469 0)"/>
     <use xlink:href="#Arial-BoldMT-37" transform="translate(214.013672 0)"/>
     <use xlink:href="#Arial-BoldMT-38" transform="translate(269.628906 0)"/>
     <use xlink:href="#Arial-BoldMT-20" transform="translate(325.244141 0)"/>
     <use xlink:href="#Arial-BoldMT-2a" transform="translate(353.027344 0)"/>
     <use xlink:href="#Arial-BoldMT-2a" transform="translate(391.943359 0)"/>
    </g>
   </g>
   <g id="text_16">
    <!-- r²=0.10 ns -->
    <g style="fill: #fd810a" transform="translate(206.743187 60.518144) scale(0.09 -0.09)">
     <defs>
      <path id="Arial-BoldMT-31" d="M 2519 0 
L 1641 0 
L 1641 3309 
Q 1159 2859 506 2644 
L 506 3441 
Q 850 3553 1253 3867 
Q 1656 4181 1806 4600 
L 2519 4600 
L 2519 0 
z
" transform="scale(0.015625)"/>
      <path id="Arial-BoldMT-6e" d="M 3478 0 
L 2600 0 
L 2600 1694 
Q 2600 2231 2544 2389 
Q 2488 2547 2361 2634 
Q 2234 2722 2056 2722 
Q 1828 2722 1647 2597 
Q 1466 2472 1398 2265 
Q 1331 2059 1331 1503 
L 1331 0 
L 453 0 
L 453 3319 
L 1269 3319 
L 1269 2831 
Q 1703 3394 2363 3394 
Q 2653 3394 2893 3289 
Q 3134 3184 3257 3021 
Q 3381 2859 3429 2653 
Q 3478 2447 3478 2063 
L 3478 0 
z
" transform="scale(0.015625)"/>
      <path id="Arial-BoldMT-73" d="M 150 947 
L 1031 1081 
Q 1088 825 1259 692 
Q 1431 559 1741 559 
Q 2081 559 2253 684 
Q 2369 772 2369 919 
Q 2369 1019 2306 1084 
Q 2241 1147 2013 1200 
Q 950 1434 666 1628 
Q 272 1897 272 2375 
Q 272 2806 612 3100 
Q 953 3394 1669 3394 
Q 2350 3394 2681 3172 
Q 3013 2950 3138 2516 
L 2309 2363 
Q 2256 2556 2107 2659 
Q 1959 2763 1684 2763 
Q 1338 2763 1188 2666 
Q 1088 2597 1088 2488 
Q 1088 2394 1175 2328 
Q 1294 2241 1995 2081 
Q 2697 1922 2975 1691 
Q 3250 1456 3250 1038 
Q 3250 581 2869 253 
Q 2488 -75 1741 -75 
Q 1063 -75 667 200 
Q 272 475 150 947 
z
" transform="scale(0.015625)"/>
     </defs>
     <use xlink:href="#Arial-BoldMT-72"/>
     <use xlink:href="#Arial-BoldMT-b2" transform="translate(38.916016 0)"/>
     <use xlink:href="#Arial-BoldMT-3d" transform="translate(72.216797 0)"/>
     <use xlink:href="#Arial-BoldMT-30" transform="translate(130.615234 0)"/>
     <use xlink:href="#Arial-BoldMT-2e" transform="translate(186.230469 0)"/>
     <use xlink:href="#Arial-BoldMT-31" transform="translate(214.013672 0)"/>
     <use xlink:href="#Arial-BoldMT-30" transform="translate(269.628906 0)"/>
     <use xlink:href="#Arial-BoldMT-20" transform="translate(325.244141 0)"/>
     <use xlink:href="#Arial-BoldMT-6e" transform="translate(353.027344 0)"/>
     <use xlink:href="#Arial-BoldMT-73" transform="translate(414.111328 0)"/>
    </g>
   </g>
   <g id="text_17">
    <!-- Microglia -->
    <g transform="translate(144.871562 50.821875) scale(0.1 -0.1)">
     <defs>
      <path id="Arial-BoldMT-4d" d="M 453 0 
L 453 4581 
L 1838 4581 
L 2669 1456 
L 3491 4581 
L 4878 4581 
L 4878 0 
L 4019 0 
L 4019 3606 
L 3109 0 
L 2219 0 
L 1313 3606 
L 1313 0 
L 453 0 
z
" transform="scale(0.015625)"/>
      <path id="Arial-BoldMT-69" d="M 459 3769 
L 459 4581 
L 1338 4581 
L 1338 3769 
L 459 3769 
z
M 459 0 
L 459 3319 
L 1338 3319 
L 1338 0 
L 459 0 
z
" transform="scale(0.015625)"/>
      <path id="Arial-BoldMT-63" d="M 3353 2338 
L 2488 2181 
Q 2444 2441 2289 2572 
Q 2134 2703 1888 2703 
Q 1559 2703 1364 2476 
Q 1169 2250 1169 1719 
Q 1169 1128 1367 884 
Q 1566 641 1900 641 
Q 2150 641 2309 783 
Q 2469 925 2534 1272 
L 3397 1125 
Q 3263 531 2881 228 
Q 2500 -75 1859 -75 
Q 1131 -75 698 384 
Q 266 844 266 1656 
Q 266 2478 700 2936 
Q 1134 3394 1875 3394 
Q 2481 3394 2839 3133 
Q 3197 2872 3353 2338 
z
" transform="scale(0.015625)"/>
      <path id="Arial-BoldMT-6f" d="M 256 1706 
Q 256 2144 472 2553 
Q 688 2963 1083 3178 
Q 1478 3394 1966 3394 
Q 2719 3394 3200 2905 
Q 3681 2416 3681 1669 
Q 3681 916 3195 420 
Q 2709 -75 1972 -75 
Q 1516 -75 1102 131 
Q 688 338 472 736 
Q 256 1134 256 1706 
z
M 1156 1659 
Q 1156 1166 1390 903 
Q 1625 641 1969 641 
Q 2313 641 2545 903 
Q 2778 1166 2778 1666 
Q 2778 2153 2545 2415 
Q 2313 2678 1969 2678 
Q 1625 2678 1390 2415 
Q 1156 2153 1156 1659 
z
" transform="scale(0.015625)"/>
      <path id="Arial-BoldMT-67" d="M 378 -219 
L 1381 -341 
Q 1406 -516 1497 -581 
Q 1622 -675 1891 -675 
Q 2234 -675 2406 -572 
Q 2522 -503 2581 -350 
Q 2622 -241 2622 53 
L 2622 538 
Q 2228 0 1628 0 
Q 959 0 569 566 
Q 263 1013 263 1678 
Q 263 2513 664 2953 
Q 1066 3394 1663 3394 
Q 2278 3394 2678 2853 
L 2678 3319 
L 3500 3319 
L 3500 341 
Q 3500 -247 3403 -537 
Q 3306 -828 3131 -993 
Q 2956 -1159 2664 -1253 
Q 2372 -1347 1925 -1347 
Q 1081 -1347 728 -1058 
Q 375 -769 375 -325 
Q 375 -281 378 -219 
z
M 1163 1728 
Q 1163 1200 1367 954 
Q 1572 709 1872 709 
Q 2194 709 2416 961 
Q 2638 1213 2638 1706 
Q 2638 2222 2425 2472 
Q 2213 2722 1888 2722 
Q 1572 2722 1367 2476 
Q 1163 2231 1163 1728 
z
" transform="scale(0.015625)"/>
      <path id="Arial-BoldMT-6c" d="M 459 0 
L 459 4581 
L 1338 4581 
L 1338 0 
L 459 0 
z
" transform="scale(0.015625)"/>
      <path id="Arial-BoldMT-61" d="M 1116 2306 
L 319 2450 
Q 453 2931 781 3162 
Q 1109 3394 1756 3394 
Q 2344 3394 2631 3255 
Q 2919 3116 3036 2902 
Q 3153 2688 3153 2116 
L 3144 1091 
Q 3144 653 3186 445 
Q 3228 238 3344 0 
L 2475 0 
Q 2441 88 2391 259 
Q 2369 338 2359 363 
Q 2134 144 1878 34 
Q 1622 -75 1331 -75 
Q 819 -75 523 203 
Q 228 481 228 906 
Q 228 1188 362 1408 
Q 497 1628 739 1745 
Q 981 1863 1438 1950 
Q 2053 2066 2291 2166 
L 2291 2253 
Q 2291 2506 2166 2614 
Q 2041 2722 1694 2722 
Q 1459 2722 1328 2630 
Q 1197 2538 1116 2306 
z
M 2291 1594 
Q 2122 1538 1756 1459 
Q 1391 1381 1278 1306 
Q 1106 1184 1106 997 
Q 1106 813 1243 678 
Q 1381 544 1594 544 
Q 1831 544 2047 700 
Q 2206 819 2256 991 
Q 2291 1103 2291 1419 
L 2291 1594 
z
" transform="scale(0.015625)"/>
     </defs>
     <use xlink:href="#Arial-BoldMT-4d"/>
     <use xlink:href="#Arial-BoldMT-69" transform="translate(83.300781 0)"/>
     <use xlink:href="#Arial-BoldMT-63" transform="translate(111.083984 0)"/>
     <use xlink:href="#Arial-BoldMT-72" transform="translate(166.699219 0)"/>
     <use xlink:href="#Arial-BoldMT-6f" transform="translate(205.615234 0)"/>
     <use xlink:href="#Arial-BoldMT-67" transform="translate(266.699219 0)"/>
     <use xlink:href="#Arial-BoldMT-6c" transform="translate(327.783203 0)"/>
     <use xlink:href="#Arial-BoldMT-69" transform="translate(355.566406 0)"/>
     <use xlink:href="#Arial-BoldMT-61" transform="translate(383.349609 0)"/>
    </g>
   </g>
  </g>
  <g id="axes_2">
   <g id="patch_5">
    <path d="M 344.670938 330.44 
L 610.835938 330.44 
L 610.835938 56.821875 
L 344.670938 56.821875 
z
" style="fill: #ffffff"/>
   </g>
   <g id="PathCollection_3">
    <defs>
     <path id="C2_0_ba5d80fd43" d="M 0 3.535534 
C 0.937635 3.535534 1.836992 3.163008 2.5 2.5 
C 3.163008 1.836992 3.535534 0.937635 3.535534 -0 
C 3.535534 -0.937635 3.163008 -1.836992 2.5 -2.5 
C 1.836992 -3.163008 0.937635 -3.535534 0 -3.535534 
C -0.937635 -3.535534 -1.836992 -3.163008 -2.5 -2.5 
C -3.163008 -1.836992 -3.535534 -0.937635 -3.535534 0 
C -3.535534 0.937635 -3.163008 1.836992 -2.5 2.5 
C -1.836992 3.163008 -0.937635 3.535534 0 3.535534 
z
"/>
    </defs>
    <g clip-path="url(#p6c6d6bd8bd)">
     <use xlink:href="#C2_0_ba5d80fd43" x="360.71623" y="318.002812" style="fill: #808080; fill-opacity: 0.8"/>
    </g>
    <g clip-path="url(#p6c6d6bd8bd)">
     <use xlink:href="#C2_0_ba5d80fd43" x="360.71623" y="300.235402" style="fill: #808080; fill-opacity: 0.8"/>
    </g>
    <g clip-path="url(#p6c6d6bd8bd)">
     <use xlink:href="#C2_0_ba5d80fd43" x="503.759895" y="257.593616" style="fill: #808080; fill-opacity: 0.8"/>
    </g>
    <g clip-path="url(#p6c6d6bd8bd)">
     <use xlink:href="#C2_0_ba5d80fd43" x="503.759895" y="211.398348" style="fill: #808080; fill-opacity: 0.8"/>
    </g>
    <g clip-path="url(#p6c6d6bd8bd)">
     <use xlink:href="#C2_0_ba5d80fd43" x="462.41935" y="69.259063" style="fill: #808080; fill-opacity: 0.8"/>
    </g>
    <g clip-path="url(#p6c6d6bd8bd)">
     <use xlink:href="#C2_0_ba5d80fd43" x="385.884011" y="300.235402" style="fill: #808080; fill-opacity: 0.8"/>
    </g>
    <g clip-path="url(#p6c6d6bd8bd)">
     <use xlink:href="#C2_0_ba5d80fd43" x="385.884011" y="307.342366" style="fill: #808080; fill-opacity: 0.8"/>
    </g>
   </g>
   <g id="PathCollection_4">
    <defs>
     <path id="C3_0_a21556a0ee" d="M 0 3.535534 
C 0.937635 3.535534 1.836992 3.163008 2.5 2.5 
C 3.163008 1.836992 3.535534 0.937635 3.535534 -0 
C 3.535534 -0.937635 3.163008 -1.836992 2.5 -2.5 
C 1.836992 -3.163008 0.937635 -3.535534 0 -3.535534 
C -0.937635 -3.535534 -1.836992 -3.163008 -2.5 -2.5 
C -3.163008 -1.836992 -3.535534 -0.937635 -3.535534 0 
C -3.535534 0.937635 -3.163008 1.836992 -2.5 2.5 
C -1.836992 3.163008 -0.937635 3.535534 0 3.535534 
z
"/>
    </defs>
    <g clip-path="url(#p6c6d6bd8bd)">
     <use xlink:href="#C3_0_a21556a0ee" x="356.769347" y="147.43567" style="fill: #fd810a; fill-opacity: 0.8"/>
    </g>
    <g clip-path="url(#p6c6d6bd8bd)">
     <use xlink:href="#C3_0_a21556a0ee" x="356.769347" y="318.002812" style="fill: #fd810a; fill-opacity: 0.8"/>
    </g>
    <g clip-path="url(#p6c6d6bd8bd)">
     <use xlink:href="#C3_0_a21556a0ee" x="577.345089" y="200.737902" style="fill: #fd810a; fill-opacity: 0.8"/>
    </g>
    <g clip-path="url(#p6c6d6bd8bd)">
     <use xlink:href="#C3_0_a21556a0ee" x="577.345089" y="214.95183" style="fill: #fd810a; fill-opacity: 0.8"/>
    </g>
    <g clip-path="url(#p6c6d6bd8bd)">
     <use xlink:href="#C3_0_a21556a0ee" x="598.737528" y="318.002812" style="fill: #fd810a; fill-opacity: 0.8"/>
    </g>
    <g clip-path="url(#p6c6d6bd8bd)">
     <use xlink:href="#C3_0_a21556a0ee" x="450.390343" y="268.254062" style="fill: #fd810a; fill-opacity: 0.8"/>
    </g>
    <g clip-path="url(#p6c6d6bd8bd)">
     <use xlink:href="#C3_0_a21556a0ee" x="450.390343" y="200.737902" style="fill: #fd810a; fill-opacity: 0.8"/>
    </g>
    <g clip-path="url(#p6c6d6bd8bd)">
     <use xlink:href="#C3_0_a21556a0ee" x="495.612518" y="289.574955" style="fill: #fd810a; fill-opacity: 0.8"/>
    </g>
   </g>
   <g id="matplotlib.axis_3">
    <g id="xtick_7">
     <g id="line2d_15">
      <g>
       <use xlink:href="#m402848f4d9" x="356.769347" y="330.44" style="stroke: #000000; stroke-width: 0.8"/>
      </g>
     </g>
     <g id="text_18">
      <!-- 0 -->
      <g transform="translate(354.224347 343.51875) scale(0.08 -0.08)">
       <use xlink:href="#DejaVuSans-30"/>
      </g>
     </g>
    </g>
    <g id="xtick_8">
     <g id="line2d_16">
      <g>
       <use xlink:href="#m402848f4d9" x="386.396713" y="330.44" style="stroke: #000000; stroke-width: 0.8"/>
      </g>
     </g>
     <g id="text_19">
      <!-- 20 -->
      <g transform="translate(381.306713 343.51875) scale(0.08 -0.08)">
       <use xlink:href="#DejaVuSans-32"/>
       <use xlink:href="#DejaVuSans-30" transform="translate(63.623047 0)"/>
      </g>
     </g>
    </g>
    <g id="xtick_9">
     <g id="line2d_17">
      <g>
       <use xlink:href="#m402848f4d9" x="416.024079" y="330.44" style="stroke: #000000; stroke-width: 0.8"/>
      </g>
     </g>
     <g id="text_20">
      <!-- 40 -->
      <g transform="translate(410.934079 343.51875) scale(0.08 -0.08)">
       <use xlink:href="#DejaVuSans-34"/>
       <use xlink:href="#DejaVuSans-30" transform="translate(63.623047 0)"/>
      </g>
     </g>
    </g>
    <g id="xtick_10">
     <g id="line2d_18">
      <g>
       <use xlink:href="#m402848f4d9" x="445.651445" y="330.44" style="stroke: #000000; stroke-width: 0.8"/>
      </g>
     </g>
     <g id="text_21">
      <!-- 60 -->
      <g transform="translate(440.561445 343.51875) scale(0.08 -0.08)">
       <use xlink:href="#DejaVuSans-36"/>
       <use xlink:href="#DejaVuSans-30" transform="translate(63.623047 0)"/>
      </g>
     </g>
    </g>
    <g id="xtick_11">
     <g id="line2d_19">
      <g>
       <use xlink:href="#m402848f4d9" x="475.278812" y="330.44" style="stroke: #000000; stroke-width: 0.8"/>
      </g>
     </g>
     <g id="text_22">
      <!-- 80 -->
      <g transform="translate(470.188812 343.51875) scale(0.08 -0.08)">
       <defs>
        <path id="DejaVuSans-38" d="M 2034 2216 
Q 1584 2216 1326 1975 
Q 1069 1734 1069 1313 
Q 1069 891 1326 650 
Q 1584 409 2034 409 
Q 2484 409 2743 651 
Q 3003 894 3003 1313 
Q 3003 1734 2745 1975 
Q 2488 2216 2034 2216 
z
M 1403 2484 
Q 997 2584 770 2862 
Q 544 3141 544 3541 
Q 544 4100 942 4425 
Q 1341 4750 2034 4750 
Q 2731 4750 3128 4425 
Q 3525 4100 3525 3541 
Q 3525 3141 3298 2862 
Q 3072 2584 2669 2484 
Q 3125 2378 3379 2068 
Q 3634 1759 3634 1313 
Q 3634 634 3220 271 
Q 2806 -91 2034 -91 
Q 1263 -91 848 271 
Q 434 634 434 1313 
Q 434 1759 690 2068 
Q 947 2378 1403 2484 
z
M 1172 3481 
Q 1172 3119 1398 2916 
Q 1625 2713 2034 2713 
Q 2441 2713 2670 2916 
Q 2900 3119 2900 3481 
Q 2900 3844 2670 4047 
Q 2441 4250 2034 4250 
Q 1625 4250 1398 4047 
Q 1172 3844 1172 3481 
z
" transform="scale(0.015625)"/>
       </defs>
       <use xlink:href="#DejaVuSans-38"/>
       <use xlink:href="#DejaVuSans-30" transform="translate(63.623047 0)"/>
      </g>
     </g>
    </g>
    <g id="xtick_12">
     <g id="line2d_20">
      <g>
       <use xlink:href="#m402848f4d9" x="504.906178" y="330.44" style="stroke: #000000; stroke-width: 0.8"/>
      </g>
     </g>
     <g id="text_23">
      <!-- 100 -->
      <g transform="translate(497.271178 343.51875) scale(0.08 -0.08)">
       <use xlink:href="#DejaVuSans-31"/>
       <use xlink:href="#DejaVuSans-30" transform="translate(63.623047 0)"/>
       <use xlink:href="#DejaVuSans-30" transform="translate(127.246094 0)"/>
      </g>
     </g>
    </g>
    <g id="xtick_13">
     <g id="line2d_21">
      <g>
       <use xlink:href="#m402848f4d9" x="534.533544" y="330.44" style="stroke: #000000; stroke-width: 0.8"/>
      </g>
     </g>
     <g id="text_24">
      <!-- 120 -->
      <g transform="translate(526.898544 343.51875) scale(0.08 -0.08)">
       <use xlink:href="#DejaVuSans-31"/>
       <use xlink:href="#DejaVuSans-32" transform="translate(63.623047 0)"/>
       <use xlink:href="#DejaVuSans-30" transform="translate(127.246094 0)"/>
      </g>
     </g>
    </g>
    <g id="xtick_14">
     <g id="line2d_22">
      <g>
       <use xlink:href="#m402848f4d9" x="564.160911" y="330.44" style="stroke: #000000; stroke-width: 0.8"/>
      </g>
     </g>
     <g id="text_25">
      <!-- 140 -->
      <g transform="translate(556.525911 343.51875) scale(0.08 -0.08)">
       <use xlink:href="#DejaVuSans-31"/>
       <use xlink:href="#DejaVuSans-34" transform="translate(63.623047 0)"/>
       <use xlink:href="#DejaVuSans-30" transform="translate(127.246094 0)"/>
      </g>
     </g>
    </g>
    <g id="xtick_15">
     <g id="line2d_23">
      <g>
       <use xlink:href="#m402848f4d9" x="593.788277" y="330.44" style="stroke: #000000; stroke-width: 0.8"/>
      </g>
     </g>
     <g id="text_26">
      <!-- 160 -->
      <g transform="translate(586.153277 343.51875) scale(0.08 -0.08)">
       <use xlink:href="#DejaVuSans-31"/>
       <use xlink:href="#DejaVuSans-36" transform="translate(63.623047 0)"/>
       <use xlink:href="#DejaVuSans-30" transform="translate(127.246094 0)"/>
      </g>
     </g>
    </g>
    <g id="text_27">
     <!-- Fungal Volume (mm³) -->
     <g transform="translate(434.493672 357.734219) scale(0.09 -0.09)">
      <use xlink:href="#ArialMT-46"/>
      <use xlink:href="#ArialMT-75" transform="translate(61.083984 0)"/>
      <use xlink:href="#ArialMT-6e" transform="translate(116.699219 0)"/>
      <use xlink:href="#ArialMT-67" transform="translate(172.314453 0)"/>
      <use xlink:href="#ArialMT-61" transform="translate(227.929688 0)"/>
      <use xlink:href="#ArialMT-6c" transform="translate(283.544922 0)"/>
      <use xlink:href="#ArialMT-20" transform="translate(305.761719 0)"/>
      <use xlink:href="#ArialMT-56" transform="translate(333.544922 0)"/>
      <use xlink:href="#ArialMT-6f" transform="translate(394.744141 0)"/>
      <use xlink:href="#ArialMT-6c" transform="translate(450.359375 0)"/>
      <use xlink:href="#ArialMT-75" transform="translate(472.576172 0)"/>
      <use xlink:href="#ArialMT-6d" transform="translate(528.191406 0)"/>
      <use xlink:href="#ArialMT-65" transform="translate(611.492188 0)"/>
      <use xlink:href="#ArialMT-20" transform="translate(667.107422 0)"/>
      <use xlink:href="#ArialMT-28" transform="translate(694.890625 0)"/>
      <use xlink:href="#ArialMT-6d" transform="translate(728.191406 0)"/>
      <use xlink:href="#ArialMT-6d" transform="translate(811.492188 0)"/>
      <use xlink:href="#ArialMT-b3" transform="translate(894.792969 0)"/>
      <use xlink:href="#ArialMT-29" transform="translate(928.09375 0)"/>
     </g>
    </g>
   </g>
   <g id="matplotlib.axis_4">
    <g id="ytick_7">
     <g id="line2d_24">
      <g>
       <use xlink:href="#m5e5181d4da" x="344.670938" y="318.002812" style="stroke: #000000; stroke-width: 0.8"/>
      </g>
     </g>
     <g id="text_28">
      <!-- 0.0 -->
      <g transform="translate(324.948438 321.042187) scale(0.08 -0.08)">
       <defs>
        <path id="DejaVuSans-2e" d="M 684 794 
L 1344 794 
L 1344 0 
L 684 0 
L 684 794 
z
" transform="scale(0.015625)"/>
       </defs>
       <use xlink:href="#DejaVuSans-30"/>
       <use xlink:href="#DejaVuSans-2e" transform="translate(63.623047 0)"/>
       <use xlink:href="#DejaVuSans-30" transform="translate(95.410156 0)"/>
      </g>
     </g>
    </g>
    <g id="ytick_8">
     <g id="line2d_25">
      <g>
       <use xlink:href="#m5e5181d4da" x="344.670938" y="262.184715" style="stroke: #000000; stroke-width: 0.8"/>
      </g>
     </g>
     <g id="text_29">
      <!-- 0.5 -->
      <g transform="translate(324.948438 265.22409) scale(0.08 -0.08)">
       <use xlink:href="#DejaVuSans-30"/>
       <use xlink:href="#DejaVuSans-2e" transform="translate(63.623047 0)"/>
       <use xlink:href="#DejaVuSans-35" transform="translate(95.410156 0)"/>
      </g>
     </g>
    </g>
    <g id="ytick_9">
     <g id="line2d_26">
      <g>
       <use xlink:href="#m5e5181d4da" x="344.670938" y="206.366617" style="stroke: #000000; stroke-width: 0.8"/>
      </g>
     </g>
     <g id="text_30">
      <!-- 1.0 -->
      <g transform="translate(324.948438 209.405992) scale(0.08 -0.08)">
       <use xlink:href="#DejaVuSans-31"/>
       <use xlink:href="#DejaVuSans-2e" transform="translate(63.623047 0)"/>
       <use xlink:href="#DejaVuSans-30" transform="translate(95.410156 0)"/>
      </g>
     </g>
    </g>
    <g id="ytick_10">
     <g id="line2d_27">
      <g>
       <use xlink:href="#m5e5181d4da" x="344.670938" y="150.54852" style="stroke: #000000; stroke-width: 0.8"/>
      </g>
     </g>
     <g id="text_31">
      <!-- 1.5 -->
      <g transform="translate(324.948438 153.587895) scale(0.08 -0.08)">
       <use xlink:href="#DejaVuSans-31"/>
       <use xlink:href="#DejaVuSans-2e" transform="translate(63.623047 0)"/>
       <use xlink:href="#DejaVuSans-35" transform="translate(95.410156 0)"/>
      </g>
     </g>
    </g>
    <g id="ytick_11">
     <g id="line2d_28">
      <g>
       <use xlink:href="#m5e5181d4da" x="344.670938" y="94.730422" style="stroke: #000000; stroke-width: 0.8"/>
      </g>
     </g>
     <g id="text_32">
      <!-- 2.0 -->
      <g transform="translate(324.948438 97.769797) scale(0.08 -0.08)">
       <use xlink:href="#DejaVuSans-32"/>
       <use xlink:href="#DejaVuSans-2e" transform="translate(63.623047 0)"/>
       <use xlink:href="#DejaVuSans-30" transform="translate(95.410156 0)"/>
      </g>
     </g>
    </g>
    <g id="text_33">
     <!-- Cell Density (1000 cells/100 μm circle) -->
     <g transform="translate(317.054219 270.24625) rotate(-90) scale(0.09 -0.09)">
      <use xlink:href="#ArialMT-43"/>
      <use xlink:href="#ArialMT-65" transform="translate(72.216797 0)"/>
      <use xlink:href="#ArialMT-6c" transform="translate(127.832031 0)"/>
      <use xlink:href="#ArialMT-6c" transform="translate(150.048828 0)"/>
      <use xlink:href="#ArialMT-20" transform="translate(172.265625 0)"/>
      <use xlink:href="#ArialMT-44" transform="translate(200.048828 0)"/>
      <use xlink:href="#ArialMT-65" transform="translate(272.265625 0)"/>
      <use xlink:href="#ArialMT-6e" transform="translate(327.880859 0)"/>
      <use xlink:href="#ArialMT-73" transform="translate(383.496094 0)"/>
      <use xlink:href="#ArialMT-69" transform="translate(433.496094 0)"/>
      <use xlink:href="#ArialMT-74" transform="translate(455.712891 0)"/>
      <use xlink:href="#ArialMT-79" transform="translate(483.496094 0)"/>
      <use xlink:href="#ArialMT-20" transform="translate(533.496094 0)"/>
      <use xlink:href="#ArialMT-28" transform="translate(561.279297 0)"/>
      <use xlink:href="#ArialMT-31" transform="translate(594.580078 0)"/>
      <use xlink:href="#ArialMT-30" transform="translate(650.195312 0)"/>
      <use xlink:href="#ArialMT-30" transform="translate(705.810547 0)"/>
      <use xlink:href="#ArialMT-30" transform="translate(761.425781 0)"/>
      <use xlink:href="#ArialMT-20" transform="translate(817.041016 0)"/>
      <use xlink:href="#ArialMT-63" transform="translate(844.824219 0)"/>
      <use xlink:href="#ArialMT-65" transform="translate(894.824219 0)"/>
      <use xlink:href="#ArialMT-6c" transform="translate(950.439453 0)"/>
      <use xlink:href="#ArialMT-6c" transform="translate(972.65625 0)"/>
      <use xlink:href="#ArialMT-73" transform="translate(994.873047 0)"/>
      <use xlink:href="#ArialMT-2f" transform="translate(1044.873047 0)"/>
      <use xlink:href="#ArialMT-31" transform="translate(1072.65625 0)"/>
      <use xlink:href="#ArialMT-30" transform="translate(1128.271484 0)"/>
      <use xlink:href="#ArialMT-30" transform="translate(1183.886719 0)"/>
      <use xlink:href="#ArialMT-20" transform="translate(1239.501953 0)"/>
      <use xlink:href="#ArialMT-3bc" transform="translate(1267.285156 0)"/>
      <use xlink:href="#ArialMT-6d" transform="translate(1324.902344 0)"/>
      <use xlink:href="#ArialMT-20" transform="translate(1408.203125 0)"/>
      <use xlink:href="#ArialMT-63" transform="translate(1435.986328 0)"/>
      <use xlink:href="#ArialMT-69" transform="translate(1485.986328 0)"/>
      <use xlink:href="#ArialMT-72" transform="translate(1508.203125 0)"/>
      <use xlink:href="#ArialMT-63" transform="translate(1541.503906 0)"/>
      <use xlink:href="#ArialMT-6c" transform="translate(1591.503906 0)"/>
      <use xlink:href="#ArialMT-65" transform="translate(1613.720703 0)"/>
      <use xlink:href="#ArialMT-29" transform="translate(1669.335938 0)"/>
     </g>
    </g>
   </g>
   <g id="line2d_29">
    <path d="M 360.71623 304.327709 
L 362.161116 303.119938 
L 363.606001 301.912167 
L 365.050887 300.704395 
L 366.495772 299.496624 
L 367.940658 298.288853 
L 369.385543 297.081081 
L 370.830429 295.87331 
L 372.275314 294.665539 
L 373.7202 293.457768 
L 375.165085 292.249996 
L 376.609971 291.042225 
L 378.054856 289.834454 
L 379.499742 288.626682 
L 380.944627 287.418911 
L 382.389513 286.21114 
L 383.834398 285.003368 
L 385.279284 283.795597 
L 386.724169 282.587826 
L 388.169055 281.380055 
L 389.61394 280.172283 
L 391.058826 278.964512 
L 392.503711 277.756741 
L 393.948597 276.548969 
L 395.393482 275.341198 
L 396.838368 274.133427 
L 398.283253 272.925656 
L 399.728139 271.717884 
L 401.173024 270.510113 
L 402.61791 269.302342 
L 404.062795 268.09457 
L 405.507681 266.886799 
L 406.952566 265.679028 
L 408.397452 264.471257 
L 409.842337 263.263485 
L 411.287223 262.055714 
L 412.732108 260.847943 
L 414.176994 259.640171 
L 415.621879 258.4324 
L 417.066765 257.224629 
L 418.51165 256.016857 
L 419.956536 254.809086 
L 421.401421 253.601315 
L 422.846307 252.393544 
L 424.291192 251.185772 
L 425.736078 249.978001 
L 427.180963 248.77023 
L 428.625849 247.562458 
L 430.070734 246.354687 
L 431.51562 245.146916 
L 432.960505 243.939145 
L 434.405391 242.731373 
L 435.850276 241.523602 
L 437.295162 240.315831 
L 438.740048 239.108059 
L 440.184933 237.900288 
L 441.629819 236.692517 
L 443.074704 235.484746 
L 444.51959 234.276974 
L 445.964475 233.069203 
L 447.409361 231.861432 
L 448.854246 230.65366 
L 450.299132 229.445889 
L 451.744017 228.238118 
L 453.188903 227.030346 
L 454.633788 225.822575 
L 456.078674 224.614804 
L 457.523559 223.407033 
L 458.968445 222.199261 
L 460.41333 220.99149 
L 461.858216 219.783719 
L 463.303101 218.575947 
L 464.747987 217.368176 
L 466.192872 216.160405 
L 467.637758 214.952634 
L 469.082643 213.744862 
L 470.527529 212.537091 
L 471.972414 211.32932 
L 473.4173 210.121548 
L 474.862185 208.913777 
L 476.307071 207.706006 
L 477.751956 206.498235 
L 479.196842 205.290463 
L 480.641727 204.082692 
L 482.086613 202.874921 
L 483.531498 201.667149 
L 484.976384 200.459378 
L 486.421269 199.251607 
L 487.866155 198.043835 
L 489.31104 196.836064 
L 490.755926 195.628293 
L 492.200811 194.420522 
L 493.645697 193.21275 
L 495.090582 192.004979 
L 496.535468 190.797208 
L 497.980353 189.589436 
L 499.425239 188.381665 
L 500.870124 187.173894 
L 502.31501 185.966123 
L 503.759895 184.758351 
" clip-path="url(#p6c6d6bd8bd)" style="fill: none; stroke: #808080; stroke-opacity: 0.9; stroke-width: 1.5; stroke-linecap: square"/>
   </g>
   <g id="line2d_30">
    <path d="M 356.769347 233.543546 
L 359.21347 233.759935 
L 361.657593 233.976325 
L 364.101716 234.192715 
L 366.545839 234.409104 
L 368.989962 234.625494 
L 371.434085 234.841883 
L 373.878208 235.058273 
L 376.322331 235.274662 
L 378.766454 235.491052 
L 381.210577 235.707441 
L 383.6547 235.923831 
L 386.098823 236.14022 
L 388.542946 236.35661 
L 390.987069 236.572999 
L 393.431192 236.789389 
L 395.875315 237.005779 
L 398.319438 237.222168 
L 400.763561 237.438558 
L 403.207685 237.654947 
L 405.651808 237.871337 
L 408.095931 238.087726 
L 410.540054 238.304116 
L 412.984177 238.520505 
L 415.4283 238.736895 
L 417.872423 238.953284 
L 420.316546 239.169674 
L 422.760669 239.386063 
L 425.204792 239.602453 
L 427.648915 239.818842 
L 430.093038 240.035232 
L 432.537161 240.251622 
L 434.981284 240.468011 
L 437.425407 240.684401 
L 439.86953 240.90079 
L 442.313653 241.11718 
L 444.757776 241.333569 
L 447.201899 241.549959 
L 449.646022 241.766348 
L 452.090145 241.982738 
L 454.534269 242.199127 
L 456.978392 242.415517 
L 459.422515 242.631906 
L 461.866638 242.848296 
L 464.310761 243.064686 
L 466.754884 243.281075 
L 469.199007 243.497465 
L 471.64313 243.713854 
L 474.087253 243.930244 
L 476.531376 244.146633 
L 478.975499 244.363023 
L 481.419622 244.579412 
L 483.863745 244.795802 
L 486.307868 245.012191 
L 488.751991 245.228581 
L 491.196114 245.44497 
L 493.640237 245.66136 
L 496.08436 245.87775 
L 498.528483 246.094139 
L 500.972606 246.310529 
L 503.41673 246.526918 
L 505.860853 246.743308 
L 508.304976 246.959697 
L 510.749099 247.176087 
L 513.193222 247.392476 
L 515.637345 247.608866 
L 518.081468 247.825255 
L 520.525591 248.041645 
L 522.969714 248.258034 
L 525.413837 248.474424 
L 527.85796 248.690814 
L 530.302083 248.907203 
L 532.746206 249.123593 
L 535.190329 249.339982 
L 537.634452 249.556372 
L 540.078575 249.772761 
L 542.522698 249.989151 
L 544.966821 250.20554 
L 547.410944 250.42193 
L 549.855067 250.638319 
L 552.29919 250.854709 
L 554.743314 251.071098 
L 557.187437 251.287488 
L 559.63156 251.503877 
L 562.075683 251.720267 
L 564.519806 251.936657 
L 566.963929 252.153046 
L 569.408052 252.369436 
L 571.852175 252.585825 
L 574.296298 252.802215 
L 576.740421 253.018604 
L 579.184544 253.234994 
L 581.628667 253.451383 
L 584.07279 253.667773 
L 586.516913 253.884162 
L 588.961036 254.100552 
L 591.405159 254.316941 
L 593.849282 254.533331 
L 596.293405 254.749721 
L 598.737528 254.96611 
" clip-path="url(#p6c6d6bd8bd)" style="fill: none; stroke: #fd810a; stroke-opacity: 0.9; stroke-width: 1.5; stroke-linecap: square"/>
   </g>
   <g id="patch_6">
    <path d="M 344.670938 330.44 
L 344.670938 56.821875 
" style="fill: none; stroke: #000000; stroke-width: 0.8; stroke-linejoin: miter; stroke-linecap: square"/>
   </g>
   <g id="patch_7">
    <path d="M 344.670938 330.44 
L 610.835938 330.44 
" style="fill: none; stroke: #000000; stroke-width: 0.8; stroke-linejoin: miter; stroke-linecap: square"/>
   </g>
   <g id="text_34">
    <!-- r²=0.37 ns -->
    <g style="fill: #808080" transform="translate(395.555406 60.518144) scale(0.09 -0.09)">
     <defs>
      <path id="Arial-BoldMT-33" d="M 241 1216 
L 1091 1319 
Q 1131 994 1309 822 
Q 1488 650 1741 650 
Q 2013 650 2198 856 
Q 2384 1063 2384 1413 
Q 2384 1744 2206 1937 
Q 2028 2131 1772 2131 
Q 1603 2131 1369 2066 
L 1466 2781 
Q 1822 2772 2009 2936 
Q 2197 3100 2197 3372 
Q 2197 3603 2059 3740 
Q 1922 3878 1694 3878 
Q 1469 3878 1309 3722 
Q 1150 3566 1116 3266 
L 306 3403 
Q 391 3819 561 4067 
Q 731 4316 1036 4458 
Q 1341 4600 1719 4600 
Q 2366 4600 2756 4188 
Q 3078 3850 3078 3425 
Q 3078 2822 2419 2463 
Q 2813 2378 3048 2084 
Q 3284 1791 3284 1375 
Q 3284 772 2843 347 
Q 2403 -78 1747 -78 
Q 1125 -78 715 280 
Q 306 638 241 1216 
z
" transform="scale(0.015625)"/>
     </defs>
     <use xlink:href="#Arial-BoldMT-72"/>
     <use xlink:href="#Arial-BoldMT-b2" transform="translate(38.916016 0)"/>
     <use xlink:href="#Arial-BoldMT-3d" transform="translate(72.216797 0)"/>
     <use xlink:href="#Arial-BoldMT-30" transform="translate(130.615234 0)"/>
     <use xlink:href="#Arial-BoldMT-2e" transform="translate(186.230469 0)"/>
     <use xlink:href="#Arial-BoldMT-33" transform="translate(214.013672 0)"/>
     <use xlink:href="#Arial-BoldMT-37" transform="translate(269.628906 0)"/>
     <use xlink:href="#Arial-BoldMT-20" transform="translate(325.244141 0)"/>
     <use xlink:href="#Arial-BoldMT-6e" transform="translate(353.027344 0)"/>
     <use xlink:href="#Arial-BoldMT-73" transform="translate(414.111328 0)"/>
    </g>
   </g>
   <g id="text_35">
    <!-- r²=0.02 ns -->
    <g style="fill: #fd810a" transform="translate(517.678188 60.518144) scale(0.09 -0.09)">
     <defs>
      <path id="Arial-BoldMT-32" d="M 3238 816 
L 3238 0 
L 159 0 
Q 209 463 459 877 
Q 709 1291 1447 1975 
Q 2041 2528 2175 2725 
Q 2356 2997 2356 3263 
Q 2356 3556 2198 3714 
Q 2041 3872 1763 3872 
Q 1488 3872 1325 3706 
Q 1163 3541 1138 3156 
L 263 3244 
Q 341 3969 753 4284 
Q 1166 4600 1784 4600 
Q 2463 4600 2850 4234 
Q 3238 3869 3238 3325 
Q 3238 3016 3127 2736 
Q 3016 2456 2775 2150 
Q 2616 1947 2200 1565 
Q 1784 1184 1673 1059 
Q 1563 934 1494 816 
L 3238 816 
z
" transform="scale(0.015625)"/>
     </defs>
     <use xlink:href="#Arial-BoldMT-72"/>
     <use xlink:href="#Arial-BoldMT-b2" transform="translate(38.916016 0)"/>
     <use xlink:href="#Arial-BoldMT-3d" transform="translate(72.216797 0)"/>
     <use xlink:href="#Arial-BoldMT-30" transform="translate(130.615234 0)"/>
     <use xlink:href="#Arial-BoldMT-2e" transform="translate(186.230469 0)"/>
     <use xlink:href="#Arial-BoldMT-30" transform="translate(214.013672 0)"/>
     <use xlink:href="#Arial-BoldMT-32" transform="translate(269.628906 0)"/>
     <use xlink:href="#Arial-BoldMT-20" transform="translate(325.244141 0)"/>
     <use xlink:href="#Arial-BoldMT-6e" transform="translate(353.027344 0)"/>
     <use xlink:href="#Arial-BoldMT-73" transform="translate(414.111328 0)"/>
    </g>
   </g>
   <g id="text_36">
    <!-- Neutrophils -->
    <g transform="translate(449.976875 50.821875) scale(0.1 -0.1)">
     <defs>
      <path id="Arial-BoldMT-4e" d="M 475 0 
L 475 4581 
L 1375 4581 
L 3250 1522 
L 3250 4581 
L 4109 4581 
L 4109 0 
L 3181 0 
L 1334 2988 
L 1334 0 
L 475 0 
z
" transform="scale(0.015625)"/>
      <path id="Arial-BoldMT-65" d="M 2381 1056 
L 3256 909 
Q 3088 428 2723 176 
Q 2359 -75 1813 -75 
Q 947 -75 531 491 
Q 203 944 203 1634 
Q 203 2459 634 2926 
Q 1066 3394 1725 3394 
Q 2466 3394 2894 2905 
Q 3322 2416 3303 1406 
L 1103 1406 
Q 1113 1016 1316 798 
Q 1519 581 1822 581 
Q 2028 581 2168 693 
Q 2309 806 2381 1056 
z
M 2431 1944 
Q 2422 2325 2234 2523 
Q 2047 2722 1778 2722 
Q 1491 2722 1303 2513 
Q 1116 2303 1119 1944 
L 2431 1944 
z
" transform="scale(0.015625)"/>
      <path id="Arial-BoldMT-75" d="M 2644 0 
L 2644 497 
Q 2463 231 2167 78 
Q 1872 -75 1544 -75 
Q 1209 -75 943 72 
Q 678 219 559 484 
Q 441 750 441 1219 
L 441 3319 
L 1319 3319 
L 1319 1794 
Q 1319 1094 1367 936 
Q 1416 778 1544 686 
Q 1672 594 1869 594 
Q 2094 594 2272 717 
Q 2450 841 2515 1023 
Q 2581 1206 2581 1919 
L 2581 3319 
L 3459 3319 
L 3459 0 
L 2644 0 
z
" transform="scale(0.015625)"/>
      <path id="Arial-BoldMT-74" d="M 1981 3319 
L 1981 2619 
L 1381 2619 
L 1381 1281 
Q 1381 875 1398 808 
Q 1416 741 1477 697 
Q 1538 653 1625 653 
Q 1747 653 1978 738 
L 2053 56 
Q 1747 -75 1359 -75 
Q 1122 -75 931 4 
Q 741 84 652 211 
Q 563 338 528 553 
Q 500 706 500 1172 
L 500 2619 
L 97 2619 
L 97 3319 
L 500 3319 
L 500 3978 
L 1381 4491 
L 1381 3319 
L 1981 3319 
z
" transform="scale(0.015625)"/>
      <path id="Arial-BoldMT-70" d="M 434 3319 
L 1253 3319 
L 1253 2831 
Q 1413 3081 1684 3237 
Q 1956 3394 2288 3394 
Q 2866 3394 3269 2941 
Q 3672 2488 3672 1678 
Q 3672 847 3265 386 
Q 2859 -75 2281 -75 
Q 2006 -75 1782 34 
Q 1559 144 1313 409 
L 1313 -1263 
L 434 -1263 
L 434 3319 
z
M 1303 1716 
Q 1303 1156 1525 889 
Q 1747 622 2066 622 
Q 2372 622 2575 867 
Q 2778 1113 2778 1672 
Q 2778 2194 2568 2447 
Q 2359 2700 2050 2700 
Q 1728 2700 1515 2451 
Q 1303 2203 1303 1716 
z
" transform="scale(0.015625)"/>
      <path id="Arial-BoldMT-68" d="M 1334 4581 
L 1334 2897 
Q 1759 3394 2350 3394 
Q 2653 3394 2897 3281 
Q 3141 3169 3264 2994 
Q 3388 2819 3433 2606 
Q 3478 2394 3478 1947 
L 3478 0 
L 2600 0 
L 2600 1753 
Q 2600 2275 2550 2415 
Q 2500 2556 2373 2639 
Q 2247 2722 2056 2722 
Q 1838 2722 1666 2615 
Q 1494 2509 1414 2295 
Q 1334 2081 1334 1663 
L 1334 0 
L 456 0 
L 456 4581 
L 1334 4581 
z
" transform="scale(0.015625)"/>
     </defs>
     <use xlink:href="#Arial-BoldMT-4e"/>
     <use xlink:href="#Arial-BoldMT-65" transform="translate(72.216797 0)"/>
     <use xlink:href="#Arial-BoldMT-75" transform="translate(127.832031 0)"/>
     <use xlink:href="#Arial-BoldMT-74" transform="translate(188.916016 0)"/>
     <use xlink:href="#Arial-BoldMT-72" transform="translate(222.216797 0)"/>
     <use xlink:href="#Arial-BoldMT-6f" transform="translate(261.132812 0)"/>
     <use xlink:href="#Arial-BoldMT-70" transform="translate(322.216797 0)"/>
     <use xlink:href="#Arial-BoldMT-68" transform="translate(383.300781 0)"/>
     <use xlink:href="#Arial-BoldMT-69" transform="translate(444.384766 0)"/>
     <use xlink:href="#Arial-BoldMT-6c" transform="translate(472.167969 0)"/>
     <use xlink:href="#Arial-BoldMT-73" transform="translate(499.951172 0)"/>
    </g>
   </g>
  </g>
  <g id="axes_3">
   <g id="patch_8">
    <path d="M 655.605938 330.44 
L 921.770938 330.44 
L 921.770938 56.821875 
L 655.605938 56.821875 
z
" style="fill: #ffffff"/>
   </g>
   <g id="PathCollection_5">
    <defs>
     <path id="C4_0_7d95710826" d="M 0 3.535534 
C 0.937635 3.535534 1.836992 3.163008 2.5 2.5 
C 3.163008 1.836992 3.535534 0.937635 3.535534 -0 
C 3.535534 -0.937635 3.163008 -1.836992 2.5 -2.5 
C 1.836992 -3.163008 0.937635 -3.535534 0 -3.535534 
C -0.937635 -3.535534 -1.836992 -3.163008 -2.5 -2.5 
C -3.163008 -1.836992 -3.535534 -0.937635 -3.535534 0 
C -3.535534 0.937635 -3.163008 1.836992 -2.5 2.5 
C -1.836992 3.163008 -0.937635 3.535534 0 3.535534 
z
"/>
    </defs>
    <g clip-path="url(#pf46d04789d)">
     <use xlink:href="#C4_0_7d95710826" x="798.108938" y="156.997767" style="fill: #808080; fill-opacity: 0.8"/>
    </g>
    <g clip-path="url(#pf46d04789d)">
     <use xlink:href="#C4_0_7d95710826" x="798.108938" y="218.505312" style="fill: #808080; fill-opacity: 0.8"/>
    </g>
    <g clip-path="url(#pf46d04789d)">
     <use xlink:href="#C4_0_7d95710826" x="731.534056" y="186.847017" style="fill: #808080; fill-opacity: 0.8"/>
    </g>
    <g clip-path="url(#pf46d04789d)">
     <use xlink:href="#C4_0_7d95710826" x="909.672528" y="291.771653" style="fill: #808080; fill-opacity: 0.8"/>
    </g>
    <g clip-path="url(#pf46d04789d)">
     <use xlink:href="#C4_0_7d95710826" x="909.672528" y="307.14854" style="fill: #808080; fill-opacity: 0.8"/>
    </g>
    <g clip-path="url(#pf46d04789d)">
     <use xlink:href="#C4_0_7d95710826" x="727.576311" y="242.927426" style="fill: #808080; fill-opacity: 0.8"/>
    </g>
    <g clip-path="url(#pf46d04789d)">
     <use xlink:href="#C4_0_7d95710826" x="667.704347" y="300.816881" style="fill: #808080; fill-opacity: 0.8"/>
    </g>
    <g clip-path="url(#pf46d04789d)">
     <use xlink:href="#C4_0_7d95710826" x="757.308928" y="69.259062" style="fill: #808080; fill-opacity: 0.8"/>
    </g>
   </g>
   <g id="PathCollection_6">
    <defs>
     <path id="C5_0_8914d47e5f" d="M 0 3.535534 
C 0.937635 3.535534 1.836992 3.163008 2.5 2.5 
C 3.163008 1.836992 3.535534 0.937635 3.535534 -0 
C 3.535534 -0.937635 3.163008 -1.836992 2.5 -2.5 
C 1.836992 -3.163008 0.937635 -3.535534 0 -3.535534 
C -0.937635 -3.535534 -1.836992 -3.163008 -2.5 -2.5 
C -3.163008 -1.836992 -3.535534 -0.937635 -3.535534 0 
C -3.535534 0.937635 -3.163008 1.836992 -2.5 2.5 
C -1.836992 3.163008 -0.937635 3.535534 0 3.535534 
z
"/>
    </defs>
    <g clip-path="url(#pf46d04789d)">
     <use xlink:href="#C5_0_8914d47e5f" x="760.336946" y="316.193767" style="fill: #fd810a; fill-opacity: 0.8"/>
    </g>
    <g clip-path="url(#pf46d04789d)">
     <use xlink:href="#C5_0_8914d47e5f" x="760.336946" y="318.002812" style="fill: #fd810a; fill-opacity: 0.8"/>
    </g>
    <g clip-path="url(#pf46d04789d)">
     <use xlink:href="#C5_0_8914d47e5f" x="687.668587" y="300.816881" style="fill: #fd810a; fill-opacity: 0.8"/>
    </g>
    <g clip-path="url(#pf46d04789d)">
     <use xlink:href="#C5_0_8914d47e5f" x="799.77107" y="292.676176" style="fill: #fd810a; fill-opacity: 0.8"/>
    </g>
    <g clip-path="url(#pf46d04789d)">
     <use xlink:href="#C5_0_8914d47e5f" x="799.77107" y="287.24904" style="fill: #fd810a; fill-opacity: 0.8"/>
    </g>
    <g clip-path="url(#pf46d04789d)">
     <use xlink:href="#C5_0_8914d47e5f" x="667.704347" y="297.19879" style="fill: #fd810a; fill-opacity: 0.8"/>
    </g>
    <g clip-path="url(#pf46d04789d)">
     <use xlink:href="#C5_0_8914d47e5f" x="791.486027" y="315.289244" style="fill: #fd810a; fill-opacity: 0.8"/>
    </g>
    <g clip-path="url(#pf46d04789d)">
     <use xlink:href="#C5_0_8914d47e5f" x="791.486027" y="199.510335" style="fill: #fd810a; fill-opacity: 0.8"/>
    </g>
   </g>
   <g id="matplotlib.axis_5">
    <g id="xtick_16">
     <g id="line2d_31">
      <g>
       <use xlink:href="#m402848f4d9" x="667.704347" y="330.44" style="stroke: #000000; stroke-width: 0.8"/>
      </g>
     </g>
     <g id="text_37">
      <!-- 0 -->
      <g transform="translate(665.159347 343.51875) scale(0.08 -0.08)">
       <use xlink:href="#DejaVuSans-30"/>
      </g>
     </g>
    </g>
    <g id="xtick_17">
     <g id="line2d_32">
      <g>
       <use xlink:href="#m402848f4d9" x="700.547615" y="330.44" style="stroke: #000000; stroke-width: 0.8"/>
      </g>
     </g>
     <g id="text_38">
      <!-- 25 -->
      <g transform="translate(695.457615 343.51875) scale(0.08 -0.08)">
       <use xlink:href="#DejaVuSans-32"/>
       <use xlink:href="#DejaVuSans-35" transform="translate(63.623047 0)"/>
      </g>
     </g>
    </g>
    <g id="xtick_18">
     <g id="line2d_33">
      <g>
       <use xlink:href="#m402848f4d9" x="733.390883" y="330.44" style="stroke: #000000; stroke-width: 0.8"/>
      </g>
     </g>
     <g id="text_39">
      <!-- 50 -->
      <g transform="translate(728.300883 343.51875) scale(0.08 -0.08)">
       <use xlink:href="#DejaVuSans-35"/>
       <use xlink:href="#DejaVuSans-30" transform="translate(63.623047 0)"/>
      </g>
     </g>
    </g>
    <g id="xtick_19">
     <g id="line2d_34">
      <g>
       <use xlink:href="#m402848f4d9" x="766.234152" y="330.44" style="stroke: #000000; stroke-width: 0.8"/>
      </g>
     </g>
     <g id="text_40">
      <!-- 75 -->
      <g transform="translate(761.144152 343.51875) scale(0.08 -0.08)">
       <defs>
        <path id="DejaVuSans-37" d="M 525 4666 
L 3525 4666 
L 3525 4397 
L 1831 0 
L 1172 0 
L 2766 4134 
L 525 4134 
L 525 4666 
z
" transform="scale(0.015625)"/>
       </defs>
       <use xlink:href="#DejaVuSans-37"/>
       <use xlink:href="#DejaVuSans-35" transform="translate(63.623047 0)"/>
      </g>
     </g>
    </g>
    <g id="xtick_20">
     <g id="line2d_35">
      <g>
       <use xlink:href="#m402848f4d9" x="799.07742" y="330.44" style="stroke: #000000; stroke-width: 0.8"/>
      </g>
     </g>
     <g id="text_41">
      <!-- 100 -->
      <g transform="translate(791.44242 343.51875) scale(0.08 -0.08)">
       <use xlink:href="#DejaVuSans-31"/>
       <use xlink:href="#DejaVuSans-30" transform="translate(63.623047 0)"/>
       <use xlink:href="#DejaVuSans-30" transform="translate(127.246094 0)"/>
      </g>
     </g>
    </g>
    <g id="xtick_21">
     <g id="line2d_36">
      <g>
       <use xlink:href="#m402848f4d9" x="831.920689" y="330.44" style="stroke: #000000; stroke-width: 0.8"/>
      </g>
     </g>
     <g id="text_42">
      <!-- 125 -->
      <g transform="translate(824.285689 343.51875) scale(0.08 -0.08)">
       <use xlink:href="#DejaVuSans-31"/>
       <use xlink:href="#DejaVuSans-32" transform="translate(63.623047 0)"/>
       <use xlink:href="#DejaVuSans-35" transform="translate(127.246094 0)"/>
      </g>
     </g>
    </g>
    <g id="xtick_22">
     <g id="line2d_37">
      <g>
       <use xlink:href="#m402848f4d9" x="864.763957" y="330.44" style="stroke: #000000; stroke-width: 0.8"/>
      </g>
     </g>
     <g id="text_43">
      <!-- 150 -->
      <g transform="translate(857.128957 343.51875) scale(0.08 -0.08)">
       <use xlink:href="#DejaVuSans-31"/>
       <use xlink:href="#DejaVuSans-35" transform="translate(63.623047 0)"/>
       <use xlink:href="#DejaVuSans-30" transform="translate(127.246094 0)"/>
      </g>
     </g>
    </g>
    <g id="xtick_23">
     <g id="line2d_38">
      <g>
       <use xlink:href="#m402848f4d9" x="897.607225" y="330.44" style="stroke: #000000; stroke-width: 0.8"/>
      </g>
     </g>
     <g id="text_44">
      <!-- 175 -->
      <g transform="translate(889.972225 343.51875) scale(0.08 -0.08)">
       <use xlink:href="#DejaVuSans-31"/>
       <use xlink:href="#DejaVuSans-37" transform="translate(63.623047 0)"/>
       <use xlink:href="#DejaVuSans-35" transform="translate(127.246094 0)"/>
      </g>
     </g>
    </g>
    <g id="text_45">
     <!-- Fungal Volume (mm³) -->
     <g transform="translate(745.428672 357.734219) scale(0.09 -0.09)">
      <use xlink:href="#ArialMT-46"/>
      <use xlink:href="#ArialMT-75" transform="translate(61.083984 0)"/>
      <use xlink:href="#ArialMT-6e" transform="translate(116.699219 0)"/>
      <use xlink:href="#ArialMT-67" transform="translate(172.314453 0)"/>
      <use xlink:href="#ArialMT-61" transform="translate(227.929688 0)"/>
      <use xlink:href="#ArialMT-6c" transform="translate(283.544922 0)"/>
      <use xlink:href="#ArialMT-20" transform="translate(305.761719 0)"/>
      <use xlink:href="#ArialMT-56" transform="translate(333.544922 0)"/>
      <use xlink:href="#ArialMT-6f" transform="translate(394.744141 0)"/>
      <use xlink:href="#ArialMT-6c" transform="translate(450.359375 0)"/>
      <use xlink:href="#ArialMT-75" transform="translate(472.576172 0)"/>
      <use xlink:href="#ArialMT-6d" transform="translate(528.191406 0)"/>
      <use xlink:href="#ArialMT-65" transform="translate(611.492188 0)"/>
      <use xlink:href="#ArialMT-20" transform="translate(667.107422 0)"/>
      <use xlink:href="#ArialMT-28" transform="translate(694.890625 0)"/>
      <use xlink:href="#ArialMT-6d" transform="translate(728.191406 0)"/>
      <use xlink:href="#ArialMT-6d" transform="translate(811.492188 0)"/>
      <use xlink:href="#ArialMT-b3" transform="translate(894.792969 0)"/>
      <use xlink:href="#ArialMT-29" transform="translate(928.09375 0)"/>
     </g>
    </g>
   </g>
   <g id="matplotlib.axis_6">
    <g id="ytick_12">
     <g id="line2d_39">
      <g>
       <use xlink:href="#m5e5181d4da" x="655.605938" y="318.907335" style="stroke: #000000; stroke-width: 0.8"/>
      </g>
     </g>
     <g id="text_46">
      <!-- 0 -->
      <g transform="translate(643.515938 321.94671) scale(0.08 -0.08)">
       <use xlink:href="#DejaVuSans-30"/>
      </g>
     </g>
    </g>
    <g id="ytick_13">
     <g id="line2d_40">
      <g>
       <use xlink:href="#m5e5181d4da" x="655.605938" y="262.074363" style="stroke: #000000; stroke-width: 0.8"/>
      </g>
     </g>
     <g id="text_47">
      <!-- 2 -->
      <g transform="translate(643.515938 265.113738) scale(0.08 -0.08)">
       <use xlink:href="#DejaVuSans-32"/>
      </g>
     </g>
    </g>
    <g id="ytick_14">
     <g id="line2d_41">
      <g>
       <use xlink:href="#m5e5181d4da" x="655.605938" y="205.241391" style="stroke: #000000; stroke-width: 0.8"/>
      </g>
     </g>
     <g id="text_48">
      <!-- 4 -->
      <g transform="translate(643.515938 208.280766) scale(0.08 -0.08)">
       <use xlink:href="#DejaVuSans-34"/>
      </g>
     </g>
    </g>
    <g id="ytick_15">
     <g id="line2d_42">
      <g>
       <use xlink:href="#m5e5181d4da" x="655.605938" y="148.408419" style="stroke: #000000; stroke-width: 0.8"/>
      </g>
     </g>
     <g id="text_49">
      <!-- 6 -->
      <g transform="translate(643.515938 151.447794) scale(0.08 -0.08)">
       <use xlink:href="#DejaVuSans-36"/>
      </g>
     </g>
    </g>
    <g id="ytick_16">
     <g id="line2d_43">
      <g>
       <use xlink:href="#m5e5181d4da" x="655.605938" y="91.575447" style="stroke: #000000; stroke-width: 0.8"/>
      </g>
     </g>
     <g id="text_50">
      <!-- 8 -->
      <g transform="translate(643.515938 94.614822) scale(0.08 -0.08)">
       <use xlink:href="#DejaVuSans-38"/>
      </g>
     </g>
    </g>
    <g id="text_51">
     <!-- Cell Density (1000 cells/100 μm circle) -->
     <g transform="translate(635.621719 270.24625) rotate(-90) scale(0.09 -0.09)">
      <use xlink:href="#ArialMT-43"/>
      <use xlink:href="#ArialMT-65" transform="translate(72.216797 0)"/>
      <use xlink:href="#ArialMT-6c" transform="translate(127.832031 0)"/>
      <use xlink:href="#ArialMT-6c" transform="translate(150.048828 0)"/>
      <use xlink:href="#ArialMT-20" transform="translate(172.265625 0)"/>
      <use xlink:href="#ArialMT-44" transform="translate(200.048828 0)"/>
      <use xlink:href="#ArialMT-65" transform="translate(272.265625 0)"/>
      <use xlink:href="#ArialMT-6e" transform="translate(327.880859 0)"/>
      <use xlink:href="#ArialMT-73" transform="translate(383.496094 0)"/>
      <use xlink:href="#ArialMT-69" transform="translate(433.496094 0)"/>
      <use xlink:href="#ArialMT-74" transform="translate(455.712891 0)"/>
      <use xlink:href="#ArialMT-79" transform="translate(483.496094 0)"/>
      <use xlink:href="#ArialMT-20" transform="translate(533.496094 0)"/>
      <use xlink:href="#ArialMT-28" transform="translate(561.279297 0)"/>
      <use xlink:href="#ArialMT-31" transform="translate(594.580078 0)"/>
      <use xlink:href="#ArialMT-30" transform="translate(650.195312 0)"/>
      <use xlink:href="#ArialMT-30" transform="translate(705.810547 0)"/>
      <use xlink:href="#ArialMT-30" transform="translate(761.425781 0)"/>
      <use xlink:href="#ArialMT-20" transform="translate(817.041016 0)"/>
      <use xlink:href="#ArialMT-63" transform="translate(844.824219 0)"/>
      <use xlink:href="#ArialMT-65" transform="translate(894.824219 0)"/>
      <use xlink:href="#ArialMT-6c" transform="translate(950.439453 0)"/>
      <use xlink:href="#ArialMT-6c" transform="translate(972.65625 0)"/>
      <use xlink:href="#ArialMT-73" transform="translate(994.873047 0)"/>
      <use xlink:href="#ArialMT-2f" transform="translate(1044.873047 0)"/>
      <use xlink:href="#ArialMT-31" transform="translate(1072.65625 0)"/>
      <use xlink:href="#ArialMT-30" transform="translate(1128.271484 0)"/>
      <use xlink:href="#ArialMT-30" transform="translate(1183.886719 0)"/>
      <use xlink:href="#ArialMT-20" transform="translate(1239.501953 0)"/>
      <use xlink:href="#ArialMT-3bc" transform="translate(1267.285156 0)"/>
      <use xlink:href="#ArialMT-6d" transform="translate(1324.902344 0)"/>
      <use xlink:href="#ArialMT-20" transform="translate(1408.203125 0)"/>
      <use xlink:href="#ArialMT-63" transform="translate(1435.986328 0)"/>
      <use xlink:href="#ArialMT-69" transform="translate(1485.986328 0)"/>
      <use xlink:href="#ArialMT-72" transform="translate(1508.203125 0)"/>
      <use xlink:href="#ArialMT-63" transform="translate(1541.503906 0)"/>
      <use xlink:href="#ArialMT-6c" transform="translate(1591.503906 0)"/>
      <use xlink:href="#ArialMT-65" transform="translate(1613.720703 0)"/>
      <use xlink:href="#ArialMT-29" transform="translate(1669.335938 0)"/>
     </g>
    </g>
   </g>
   <g id="line2d_44">
    <path d="M 667.704347 189.389963 
L 670.14847 190.051101 
L 672.592593 190.712239 
L 675.036716 191.373376 
L 677.480839 192.034514 
L 679.924962 192.695652 
L 682.369085 193.35679 
L 684.813208 194.017927 
L 687.257331 194.679065 
L 689.701454 195.340203 
L 692.145577 196.00134 
L 694.5897 196.662478 
L 697.033823 197.323616 
L 699.477946 197.984753 
L 701.922069 198.645891 
L 704.366192 199.307029 
L 706.810315 199.968166 
L 709.254438 200.629304 
L 711.698561 201.290442 
L 714.142685 201.951579 
L 716.586808 202.612717 
L 719.030931 203.273855 
L 721.475054 203.934992 
L 723.919177 204.59613 
L 726.3633 205.257268 
L 728.807423 205.918405 
L 731.251546 206.579543 
L 733.695669 207.240681 
L 736.139792 207.901818 
L 738.583915 208.562956 
L 741.028038 209.224094 
L 743.472161 209.885232 
L 745.916284 210.546369 
L 748.360407 211.207507 
L 750.80453 211.868645 
L 753.248653 212.529782 
L 755.692776 213.19092 
L 758.136899 213.852058 
L 760.581022 214.513195 
L 763.025145 215.174333 
L 765.469269 215.835471 
L 767.913392 216.496608 
L 770.357515 217.157746 
L 772.801638 217.818884 
L 775.245761 218.480021 
L 777.689884 219.141159 
L 780.134007 219.802297 
L 782.57813 220.463434 
L 785.022253 221.124572 
L 787.466376 221.78571 
L 789.910499 222.446847 
L 792.354622 223.107985 
L 794.798745 223.769123 
L 797.242868 224.430261 
L 799.686991 225.091398 
L 802.131114 225.752536 
L 804.575237 226.413674 
L 807.01936 227.074811 
L 809.463483 227.735949 
L 811.907606 228.397087 
L 814.35173 229.058224 
L 816.795853 229.719362 
L 819.239976 230.3805 
L 821.684099 231.041637 
L 824.128222 231.702775 
L 826.572345 232.363913 
L 829.016468 233.02505 
L 831.460591 233.686188 
L 833.904714 234.347326 
L 836.348837 235.008463 
L 838.79296 235.669601 
L 841.237083 236.330739 
L 843.681206 236.991876 
L 846.125329 237.653014 
L 848.569452 238.314152 
L 851.013575 238.975289 
L 853.457698 239.636427 
L 855.901821 240.297565 
L 858.345944 240.958703 
L 860.790067 241.61984 
L 863.23419 242.280978 
L 865.678314 242.942116 
L 868.122437 243.603253 
L 870.56656 244.264391 
L 873.010683 244.925529 
L 875.454806 245.586666 
L 877.898929 246.247804 
L 880.343052 246.908942 
L 882.787175 247.570079 
L 885.231298 248.231217 
L 887.675421 248.892355 
L 890.119544 249.553492 
L 892.563667 250.21463 
L 895.00779 250.875768 
L 897.451913 251.536905 
L 899.896036 252.198043 
L 902.340159 252.859181 
L 904.784282 253.520318 
L 907.228405 254.181456 
L 909.672528 254.842594 
" clip-path="url(#pf46d04789d)" style="fill: none; stroke: #808080; stroke-opacity: 0.9; stroke-width: 1.5; stroke-linecap: square"/>
   </g>
   <g id="line2d_45">
    <path d="M 667.704347 307.353623 
L 669.038354 307.108207 
L 670.372361 306.862792 
L 671.706369 306.617376 
L 673.040376 306.371961 
L 674.374383 306.126545 
L 675.70839 305.88113 
L 677.042398 305.635714 
L 678.376405 305.390299 
L 679.710412 305.144883 
L 681.04442 304.899468 
L 682.378427 304.654052 
L 683.712434 304.408637 
L 685.046442 304.163221 
L 686.380449 303.917806 
L 687.714456 303.67239 
L 689.048464 303.426975 
L 690.382471 303.181559 
L 691.716478 302.936144 
L 693.050485 302.690728 
L 694.384493 302.445313 
L 695.7185 302.199897 
L 697.052507 301.954482 
L 698.386515 301.709067 
L 699.720522 301.463651 
L 701.054529 301.218236 
L 702.388537 300.97282 
L 703.722544 300.727405 
L 705.056551 300.481989 
L 706.390558 300.236574 
L 707.724566 299.991158 
L 709.058573 299.745743 
L 710.39258 299.500327 
L 711.726588 299.254912 
L 713.060595 299.009496 
L 714.394602 298.764081 
L 715.72861 298.518665 
L 717.062617 298.27325 
L 718.396624 298.027834 
L 719.730632 297.782419 
L 721.064639 297.537003 
L 722.398646 297.291588 
L 723.732653 297.046172 
L 725.066661 296.800757 
L 726.400668 296.555341 
L 727.734675 296.309926 
L 729.068683 296.06451 
L 730.40269 295.819095 
L 731.736697 295.573679 
L 733.070705 295.328264 
L 734.404712 295.082848 
L 735.738719 294.837433 
L 737.072727 294.592017 
L 738.406734 294.346602 
L 739.740741 294.101186 
L 741.074748 293.855771 
L 742.408756 293.610355 
L 743.742763 293.36494 
L 745.07677 293.119524 
L 746.410778 292.874109 
L 747.744785 292.628693 
L 749.078792 292.383278 
L 750.4128 292.137862 
L 751.746807 291.892447 
L 753.080814 291.647031 
L 754.414822 291.401616 
L 755.748829 291.1562 
L 757.082836 290.910785 
L 758.416843 290.665369 
L 759.750851 290.419954 
L 761.084858 290.174538 
L 762.418865 289.929123 
L 763.752873 289.683707 
L 765.08688 289.438292 
L 766.420887 289.192876 
L 767.754895 288.947461 
L 769.088902 288.702045 
L 770.422909 288.45663 
L 771.756917 288.211214 
L 773.090924 287.965799 
L 774.424931 287.720383 
L 775.758938 287.474968 
L 777.092946 287.229552 
L 778.426953 286.984137 
L 779.76096 286.738721 
L 781.094968 286.493306 
L 782.428975 286.24789 
L 783.762982 286.002475 
L 785.09699 285.757059 
L 786.430997 285.511644 
L 787.765004 285.266229 
L 789.099012 285.020813 
L 790.433019 284.775398 
L 791.767026 284.529982 
L 793.101033 284.284567 
L 794.435041 284.039151 
L 795.769048 283.793736 
L 797.103055 283.54832 
L 798.437063 283.302905 
L 799.77107 283.057489 
" clip-path="url(#pf46d04789d)" style="fill: none; stroke: #fd810a; stroke-opacity: 0.9; stroke-width: 1.5; stroke-linecap: square"/>
   </g>
   <g id="patch_9">
    <path d="M 655.605938 330.44 
L 655.605938 56.821875 
" style="fill: none; stroke: #000000; stroke-width: 0.8; stroke-linejoin: miter; stroke-linecap: square"/>
   </g>
   <g id="patch_10">
    <path d="M 655.605938 330.44 
L 921.770938 330.44 
" style="fill: none; stroke: #000000; stroke-width: 0.8; stroke-linejoin: miter; stroke-linecap: square"/>
   </g>
   <g id="text_52">
    <!-- r²=0.08 ns -->
    <g style="fill: #808080" transform="translate(706.490406 60.518144) scale(0.09 -0.09)">
     <use xlink:href="#Arial-BoldMT-72"/>
     <use xlink:href="#Arial-BoldMT-b2" transform="translate(38.916016 0)"/>
     <use xlink:href="#Arial-BoldMT-3d" transform="translate(72.216797 0)"/>
     <use xlink:href="#Arial-BoldMT-30" transform="translate(130.615234 0)"/>
     <use xlink:href="#Arial-BoldMT-2e" transform="translate(186.230469 0)"/>
     <use xlink:href="#Arial-BoldMT-30" transform="translate(214.013672 0)"/>
     <use xlink:href="#Arial-BoldMT-38" transform="translate(269.628906 0)"/>
     <use xlink:href="#Arial-BoldMT-20" transform="translate(325.244141 0)"/>
     <use xlink:href="#Arial-BoldMT-6e" transform="translate(353.027344 0)"/>
     <use xlink:href="#Arial-BoldMT-73" transform="translate(414.111328 0)"/>
    </g>
   </g>
   <g id="text_53">
    <!-- r²=0.06 ns -->
    <g style="fill: #fd810a" transform="translate(828.613188 60.518144) scale(0.09 -0.09)">
     <defs>
      <path id="Arial-BoldMT-36" d="M 3247 3459 
L 2397 3366 
Q 2366 3628 2234 3753 
Q 2103 3878 1894 3878 
Q 1616 3878 1423 3628 
Q 1231 3378 1181 2588 
Q 1509 2975 1997 2975 
Q 2547 2975 2939 2556 
Q 3331 2138 3331 1475 
Q 3331 772 2918 347 
Q 2506 -78 1859 -78 
Q 1166 -78 719 461 
Q 272 1000 272 2228 
Q 272 3488 737 4044 
Q 1203 4600 1947 4600 
Q 2469 4600 2811 4308 
Q 3153 4016 3247 3459 
z
M 1256 1544 
Q 1256 1116 1453 883 
Q 1650 650 1903 650 
Q 2147 650 2309 840 
Q 2472 1031 2472 1466 
Q 2472 1913 2297 2120 
Q 2122 2328 1859 2328 
Q 1606 2328 1431 2129 
Q 1256 1931 1256 1544 
z
" transform="scale(0.015625)"/>
     </defs>
     <use xlink:href="#Arial-BoldMT-72"/>
     <use xlink:href="#Arial-BoldMT-b2" transform="translate(38.916016 0)"/>
     <use xlink:href="#Arial-BoldMT-3d" transform="translate(72.216797 0)"/>
     <use xlink:href="#Arial-BoldMT-30" transform="translate(130.615234 0)"/>
     <use xlink:href="#Arial-BoldMT-2e" transform="translate(186.230469 0)"/>
     <use xlink:href="#Arial-BoldMT-30" transform="translate(214.013672 0)"/>
     <use xlink:href="#Arial-BoldMT-36" transform="translate(269.628906 0)"/>
     <use xlink:href="#Arial-BoldMT-20" transform="translate(325.244141 0)"/>
     <use xlink:href="#Arial-BoldMT-6e" transform="translate(353.027344 0)"/>
     <use xlink:href="#Arial-BoldMT-73" transform="translate(414.111328 0)"/>
    </g>
   </g>
   <g id="text_54">
    <!-- Macrophages -->
    <g transform="translate(756.459531 50.821875) scale(0.1 -0.1)">
     <use xlink:href="#Arial-BoldMT-4d"/>
     <use xlink:href="#Arial-BoldMT-61" transform="translate(83.300781 0)"/>
     <use xlink:href="#Arial-BoldMT-63" transform="translate(138.916016 0)"/>
     <use xlink:href="#Arial-BoldMT-72" transform="translate(194.53125 0)"/>
     <use xlink:href="#Arial-BoldMT-6f" transform="translate(233.447266 0)"/>
     <use xlink:href="#Arial-BoldMT-70" transform="translate(294.53125 0)"/>
     <use xlink:href="#Arial-BoldMT-68" transform="translate(355.615234 0)"/>
     <use xlink:href="#Arial-BoldMT-61" transform="translate(416.699219 0)"/>
     <use xlink:href="#Arial-BoldMT-67" transform="translate(472.314453 0)"/>
     <use xlink:href="#Arial-BoldMT-65" transform="translate(533.398438 0)"/>
     <use xlink:href="#Arial-BoldMT-73" transform="translate(589.013672 0)"/>
    </g>
   </g>
  </g>
  <g id="text_55">
   <!-- Hippocampus — Inner -->
   <g transform="translate(400.900625 15.789375) scale(0.12 -0.12)">
    <defs>
     <path id="Arial-BoldMT-48" d="M 469 0 
L 469 4581 
L 1394 4581 
L 1394 2778 
L 3206 2778 
L 3206 4581 
L 4131 4581 
L 4131 0 
L 3206 0 
L 3206 2003 
L 1394 2003 
L 1394 0 
L 469 0 
z
" transform="scale(0.015625)"/>
     <path id="Arial-BoldMT-6d" d="M 394 3319 
L 1203 3319 
L 1203 2866 
Q 1638 3394 2238 3394 
Q 2556 3394 2790 3262 
Q 3025 3131 3175 2866 
Q 3394 3131 3647 3262 
Q 3900 3394 4188 3394 
Q 4553 3394 4806 3245 
Q 5059 3097 5184 2809 
Q 5275 2597 5275 2122 
L 5275 0 
L 4397 0 
L 4397 1897 
Q 4397 2391 4306 2534 
Q 4184 2722 3931 2722 
Q 3747 2722 3584 2609 
Q 3422 2497 3350 2280 
Q 3278 2063 3278 1594 
L 3278 0 
L 2400 0 
L 2400 1819 
Q 2400 2303 2353 2443 
Q 2306 2584 2207 2653 
Q 2109 2722 1941 2722 
Q 1738 2722 1575 2612 
Q 1413 2503 1342 2297 
Q 1272 2091 1272 1613 
L 1272 0 
L 394 0 
L 394 3319 
z
" transform="scale(0.015625)"/>
     <path id="Arial-BoldMT-2014" d="M 0 1331 
L 0 1988 
L 6400 1988 
L 6400 1331 
L 0 1331 
z
" transform="scale(0.015625)"/>
     <path id="Arial-BoldMT-49" d="M 438 0 
L 438 4581 
L 1363 4581 
L 1363 0 
L 438 0 
z
" transform="scale(0.015625)"/>
    </defs>
    <use xlink:href="#Arial-BoldMT-48"/>
    <use xlink:href="#Arial-BoldMT-69" transform="translate(72.216797 0)"/>
    <use xlink:href="#Arial-BoldMT-70" transform="translate(100 0)"/>
    <use xlink:href="#Arial-BoldMT-70" transform="translate(161.083984 0)"/>
    <use xlink:href="#Arial-BoldMT-6f" transform="translate(222.167969 0)"/>
    <use xlink:href="#Arial-BoldMT-63" transform="translate(283.251953 0)"/>
    <use xlink:href="#Arial-BoldMT-61" transform="translate(338.867188 0)"/>
    <use xlink:href="#Arial-BoldMT-6d" transform="translate(394.482422 0)"/>
    <use xlink:href="#Arial-BoldMT-70" transform="translate(483.398438 0)"/>
    <use xlink:href="#Arial-BoldMT-75" transform="translate(544.482422 0)"/>
    <use xlink:href="#Arial-BoldMT-73" transform="translate(605.566406 0)"/>
    <use xlink:href="#Arial-BoldMT-20" transform="translate(661.181641 0)"/>
    <use xlink:href="#Arial-BoldMT-2014" transform="translate(688.964844 0)"/>
    <use xlink:href="#Arial-BoldMT-20" transform="translate(788.964844 0)"/>
    <use xlink:href="#Arial-BoldMT-49" transform="translate(816.748047 0)"/>
    <use xlink:href="#Arial-BoldMT-6e" transform="translate(844.53125 0)"/>
    <use xlink:href="#Arial-BoldMT-6e" transform="translate(905.615234 0)"/>
    <use xlink:href="#Arial-BoldMT-65" transform="translate(966.699219 0)"/>
    <use xlink:href="#Arial-BoldMT-72" transform="translate(1022.314453 0)"/>
   </g>
  </g>
 </g>
 <defs>
  <clipPath id="p773b3a524e">
   <rect x="33.735938" y="56.821875" width="266.165" height="273.618125"/>
  </clipPath>
  <clipPath id="p6c6d6bd8bd">
   <rect x="344.670938" y="56.821875" width="266.165" height="273.618125"/>
  </clipPath>
  <clipPath id="pf46d04789d">
   <rect x="655.605938" y="56.821875" width="266.165" height="273.618125"/>
  </clipPath>
 </defs>
</svg>
