<?xml version="1.0" encoding="utf-8" standalone="no"?>
<!DOCTYPE svg PUBLIC "-//W3C//DTD SVG 1.1//EN"
  "http://www.w3.org/Graphics/SVG/1.1/DTD/svg11.dtd">
<svg xmlns:xlink="http://www.w3.org/1999/xlink" width="928.970937pt" height="366.828437pt" viewBox="0 0 928.970937 366.828437" xmlns="http://www.w3.org/2000/svg" version="1.1">
 <metadata>
  <rdf:RDF xmlns:dc="http://purl.org/dc/elements/1.1/" xmlns:cc="http://creativecommons.org/ns#" xmlns:rdf="http://www.w3.org/1999/02/22-rdf-syntax-ns#">
   <cc:Work>
    <dc:type rdf:resource="http://purl.org/dc/dcmitype/StillImage"/>
    <dc:date>2026-05-13T12:04:58.197009</dc:date>
    <dc:format>image/svg+xml</dc:format>
    <dc:creator>
     <cc:Agent>
      <dc:title>Matplotlib v3.10.0, https://matplotlib.org/</dc:title>
     </cc:Agent>
    </dc:creator>
   </cc:Work>
  </rdf:RDF>
 </metadata>
 <defs>
  <style type="text/css">*{stroke-linejoin: round; stroke-linecap: butt}</style>
 </defs>
 <g id="figure_1">
  <g id="patch_1">
   <path d="M 0 366.828437 
L 928.970937 366.828437 
L 928.970937 0 
L 0 0 
z
" style="fill: #ffffff"/>
  </g>
  <g id="axes_1">
   <g id="patch_2">
    <path d="M 33.735938 330.44 
L 299.900937 330.44 
L 299.900937 56.895 
L 33.735938 56.895 
z
" style="fill: #ffffff"/>
   </g>
   <g id="PathCollection_1">
    <defs>
     <path id="C0_0_cb92d4088d" d="M 0 3.535534 
C 0.937635 3.535534 1.836992 3.163008 2.5 2.5 
C 3.163008 1.836992 3.535534 0.937635 3.535534 -0 
C 3.535534 -0.937635 3.163008 -1.836992 2.5 -2.5 
C 1.836992 -3.163008 0.937635 -3.535534 0 -3.535534 
C -0.937635 -3.535534 -1.836992 -3.163008 -2.5 -2.5 
C -3.163008 -1.836992 -3.535534 -0.937635 -3.535534 0 
C -3.535534 0.937635 -3.163008 1.836992 -2.5 2.5 
C -1.836992 3.163008 -0.937635 3.535534 0 3.535534 
z
"/>
    </defs>
    <g clip-path="url(#p33c0d11628)">
     <use xlink:href="#C0_0_cb92d4088d" x="63.169985" y="228.654562" style="fill: #808080; fill-opacity: 0.8"/>
    </g>
    <g clip-path="url(#p33c0d11628)">
     <use xlink:href="#C0_0_cb92d4088d" x="63.169985" y="225.424987" style="fill: #808080; fill-opacity: 0.8"/>
    </g>
    <g clip-path="url(#p33c0d11628)">
     <use xlink:href="#C0_0_cb92d4088d" x="45.834347" y="212.506687" style="fill: #808080; fill-opacity: 0.8"/>
    </g>
    <g clip-path="url(#p33c0d11628)">
     <use xlink:href="#C0_0_cb92d4088d" x="45.834347" y="69.328864" style="fill: #808080; fill-opacity: 0.8"/>
    </g>
    <g clip-path="url(#p33c0d11628)">
     <use xlink:href="#C0_0_cb92d4088d" x="95.544944" y="91.935888" style="fill: #808080; fill-opacity: 0.8"/>
    </g>
    <g clip-path="url(#p33c0d11628)">
     <use xlink:href="#C0_0_cb92d4088d" x="95.544944" y="298.628687" style="fill: #808080; fill-opacity: 0.8"/>
    </g>
   </g>
   <g id="PathCollection_2">
    <defs>
     <path id="C1_0_e65b63aff3" d="M 0 3.535534 
C 0.937635 3.535534 1.836992 3.163008 2.5 2.5 
C 3.163008 1.836992 3.535534 0.937635 3.535534 -0 
C 3.535534 -0.937635 3.163008 -1.836992 2.5 -2.5 
C 1.836992 -3.163008 0.937635 -3.535534 0 -3.535534 
C -0.937635 -3.535534 -1.836992 -3.163008 -2.5 -2.5 
C -3.163008 -1.836992 -3.535534 -0.937635 -3.535534 0 
C -3.535534 0.937635 -3.163008 1.836992 -2.5 2.5 
C -1.836992 3.163008 -0.937635 3.535534 0 3.535534 
z
"/>
    </defs>
    <g clip-path="url(#p33c0d11628)">
     <use xlink:href="#C1_0_e65b63aff3" x="109.409569" y="318.006136" style="fill: #fd810a; fill-opacity: 0.8"/>
    </g>
    <g clip-path="url(#p33c0d11628)">
     <use xlink:href="#C1_0_e65b63aff3" x="109.409569" y="251.261587" style="fill: #fd810a; fill-opacity: 0.8"/>
    </g>
    <g clip-path="url(#p33c0d11628)">
     <use xlink:href="#C1_0_e65b63aff3" x="90.729744" y="280.327762" style="fill: #fd810a; fill-opacity: 0.8"/>
    </g>
    <g clip-path="url(#p33c0d11628)">
     <use xlink:href="#C1_0_e65b63aff3" x="90.729744" y="274.945137" style="fill: #fd810a; fill-opacity: 0.8"/>
    </g>
    <g clip-path="url(#p33c0d11628)">
     <use xlink:href="#C1_0_e65b63aff3" x="287.802528" y="211.430162" style="fill: #fd810a; fill-opacity: 0.8"/>
    </g>
    <g clip-path="url(#p33c0d11628)">
     <use xlink:href="#C1_0_e65b63aff3" x="287.802528" y="316.929611" style="fill: #fd810a; fill-opacity: 0.8"/>
    </g>
   </g>
   <g id="matplotlib.axis_1">
    <g id="xtick_1">
     <g id="line2d_1">
      <defs>
       <path id="ma8e843b99b" d="M 0 0 
L 0 3.5 
" style="stroke: #000000; stroke-width: 0.8"/>
      </defs>
      <g>
       <use xlink:href="#ma8e843b99b" x="39.002956" y="330.44" style="stroke: #000000; stroke-width: 0.8"/>
      </g>
     </g>
     <g id="text_1">
      <!-- 0 -->
      <g transform="translate(36.457956 343.51875) scale(0.08 -0.08)">
       <defs>
        <path id="DejaVuSans-30" d="M 2034 4250 
Q 1547 4250 1301 3770 
Q 1056 3291 1056 2328 
Q 1056 1369 1301 889 
Q 1547 409 2034 409 
Q 2525 409 2770 889 
Q 3016 1369 3016 2328 
Q 3016 3291 2770 3770 
Q 2525 4250 2034 4250 
z
M 2034 4750 
Q 2819 4750 3233 4129 
Q 3647 3509 3647 2328 
Q 3647 1150 3233 529 
Q 2819 -91 2034 -91 
Q 1250 -91 836 529 
Q 422 1150 422 2328 
Q 422 3509 836 4129 
Q 1250 4750 2034 4750 
z
" transform="scale(0.015625)"/>
       </defs>
       <use xlink:href="#DejaVuSans-30"/>
      </g>
     </g>
    </g>
    <g id="xtick_2">
     <g id="line2d_2">
      <g>
       <use xlink:href="#ma8e843b99b" x="71.225662" y="330.44" style="stroke: #000000; stroke-width: 0.8"/>
      </g>
     </g>
     <g id="text_2">
      <!-- 20 -->
      <g transform="translate(66.135662 343.51875) scale(0.08 -0.08)">
       <defs>
        <path id="DejaVuSans-32" d="M 1228 531 
L 3431 531 
L 3431 0 
L 469 0 
L 469 531 
Q 828 903 1448 1529 
Q 2069 2156 2228 2338 
Q 2531 2678 2651 2914 
Q 2772 3150 2772 3378 
Q 2772 3750 2511 3984 
Q 2250 4219 1831 4219 
Q 1534 4219 1204 4116 
Q 875 4013 500 3803 
L 500 4441 
Q 881 4594 1212 4672 
Q 1544 4750 1819 4750 
Q 2544 4750 2975 4387 
Q 3406 4025 3406 3419 
Q 3406 3131 3298 2873 
Q 3191 2616 2906 2266 
Q 2828 2175 2409 1742 
Q 1991 1309 1228 531 
z
" transform="scale(0.015625)"/>
       </defs>
       <use xlink:href="#DejaVuSans-32"/>
       <use xlink:href="#DejaVuSans-30" transform="translate(63.623047 0)"/>
      </g>
     </g>
    </g>
    <g id="xtick_3">
     <g id="line2d_3">
      <g>
       <use xlink:href="#ma8e843b99b" x="103.448369" y="330.44" style="stroke: #000000; stroke-width: 0.8"/>
      </g>
     </g>
     <g id="text_3">
      <!-- 40 -->
      <g transform="translate(98.358369 343.51875) scale(0.08 -0.08)">
       <defs>
        <path id="DejaVuSans-34" d="M 2419 4116 
L 825 1625 
L 2419 1625 
L 2419 4116 
z
M 2253 4666 
L 3047 4666 
L 3047 1625 
L 3713 1625 
L 3713 1100 
L 3047 1100 
L 3047 0 
L 2419 0 
L 2419 1100 
L 313 1100 
L 313 1709 
L 2253 4666 
z
" transform="scale(0.015625)"/>
       </defs>
       <use xlink:href="#DejaVuSans-34"/>
       <use xlink:href="#DejaVuSans-30" transform="translate(63.623047 0)"/>
      </g>
     </g>
    </g>
    <g id="xtick_4">
     <g id="line2d_4">
      <g>
       <use xlink:href="#ma8e843b99b" x="135.671075" y="330.44" style="stroke: #000000; stroke-width: 0.8"/>
      </g>
     </g>
     <g id="text_4">
      <!-- 60 -->
      <g transform="translate(130.581075 343.51875) scale(0.08 -0.08)">
       <defs>
        <path id="DejaVuSans-36" d="M 2113 2584 
Q 1688 2584 1439 2293 
Q 1191 2003 1191 1497 
Q 1191 994 1439 701 
Q 1688 409 2113 409 
Q 2538 409 2786 701 
Q 3034 994 3034 1497 
Q 3034 2003 2786 2293 
Q 2538 2584 2113 2584 
z
M 3366 4563 
L 3366 3988 
Q 3128 4100 2886 4159 
Q 2644 4219 2406 4219 
Q 1781 4219 1451 3797 
Q 1122 3375 1075 2522 
Q 1259 2794 1537 2939 
Q 1816 3084 2150 3084 
Q 2853 3084 3261 2657 
Q 3669 2231 3669 1497 
Q 3669 778 3244 343 
Q 2819 -91 2113 -91 
Q 1303 -91 875 529 
Q 447 1150 447 2328 
Q 447 3434 972 4092 
Q 1497 4750 2381 4750 
Q 2619 4750 2861 4703 
Q 3103 4656 3366 4563 
z
" transform="scale(0.015625)"/>
       </defs>
       <use xlink:href="#DejaVuSans-36"/>
       <use xlink:href="#DejaVuSans-30" transform="translate(63.623047 0)"/>
      </g>
     </g>
    </g>
    <g id="xtick_5">
     <g id="line2d_5">
      <g>
       <use xlink:href="#ma8e843b99b" x="167.893782" y="330.44" style="stroke: #000000; stroke-width: 0.8"/>
      </g>
     </g>
     <g id="text_5">
      <!-- 80 -->
      <g transform="translate(162.803782 343.51875) scale(0.08 -0.08)">
       <defs>
        <path id="DejaVuSans-38" d="M 2034 2216 
Q 1584 2216 1326 1975 
Q 1069 1734 1069 1313 
Q 1069 891 1326 650 
Q 1584 409 2034 409 
Q 2484 409 2743 651 
Q 3003 894 3003 1313 
Q 3003 1734 2745 1975 
Q 2488 2216 2034 2216 
z
M 1403 2484 
Q 997 2584 770 2862 
Q 544 3141 544 3541 
Q 544 4100 942 4425 
Q 1341 4750 2034 4750 
Q 2731 4750 3128 4425 
Q 3525 4100 3525 3541 
Q 3525 3141 3298 2862 
Q 3072 2584 2669 2484 
Q 3125 2378 3379 2068 
Q 3634 1759 3634 1313 
Q 3634 634 3220 271 
Q 2806 -91 2034 -91 
Q 1263 -91 848 271 
Q 434 634 434 1313 
Q 434 1759 690 2068 
Q 947 2378 1403 2484 
z
M 1172 3481 
Q 1172 3119 1398 2916 
Q 1625 2713 2034 2713 
Q 2441 2713 2670 2916 
Q 2900 3119 2900 3481 
Q 2900 3844 2670 4047 
Q 2441 4250 2034 4250 
Q 1625 4250 1398 4047 
Q 1172 3844 1172 3481 
z
" transform="scale(0.015625)"/>
       </defs>
       <use xlink:href="#DejaVuSans-38"/>
       <use xlink:href="#DejaVuSans-30" transform="translate(63.623047 0)"/>
      </g>
     </g>
    </g>
    <g id="xtick_6">
     <g id="line2d_6">
      <g>
       <use xlink:href="#ma8e843b99b" x="200.116488" y="330.44" style="stroke: #000000; stroke-width: 0.8"/>
      </g>
     </g>
     <g id="text_6">
      <!-- 100 -->
      <g transform="translate(192.481488 343.51875) scale(0.08 -0.08)">
       <defs>
        <path id="DejaVuSans-31" d="M 794 531 
L 1825 531 
L 1825 4091 
L 703 3866 
L 703 4441 
L 1819 4666 
L 2450 4666 
L 2450 531 
L 3481 531 
L 3481 0 
L 794 0 
L 794 531 
z
" transform="scale(0.015625)"/>
       </defs>
       <use xlink:href="#DejaVuSans-31"/>
       <use xlink:href="#DejaVuSans-30" transform="translate(63.623047 0)"/>
       <use xlink:href="#DejaVuSans-30" transform="translate(127.246094 0)"/>
      </g>
     </g>
    </g>
    <g id="xtick_7">
     <g id="line2d_7">
      <g>
       <use xlink:href="#ma8e843b99b" x="232.339195" y="330.44" style="stroke: #000000; stroke-width: 0.8"/>
      </g>
     </g>
     <g id="text_7">
      <!-- 120 -->
      <g transform="translate(224.704195 343.51875) scale(0.08 -0.08)">
       <use xlink:href="#DejaVuSans-31"/>
       <use xlink:href="#DejaVuSans-32" transform="translate(63.623047 0)"/>
       <use xlink:href="#DejaVuSans-30" transform="translate(127.246094 0)"/>
      </g>
     </g>
    </g>
    <g id="xtick_8">
     <g id="line2d_8">
      <g>
       <use xlink:href="#ma8e843b99b" x="264.561901" y="330.44" style="stroke: #000000; stroke-width: 0.8"/>
      </g>
     </g>
     <g id="text_8">
      <!-- 140 -->
      <g transform="translate(256.926901 343.51875) scale(0.08 -0.08)">
       <use xlink:href="#DejaVuSans-31"/>
       <use xlink:href="#DejaVuSans-34" transform="translate(63.623047 0)"/>
       <use xlink:href="#DejaVuSans-30" transform="translate(127.246094 0)"/>
      </g>
     </g>
    </g>
    <g id="xtick_9">
     <g id="line2d_9">
      <g>
       <use xlink:href="#ma8e843b99b" x="296.784608" y="330.44" style="stroke: #000000; stroke-width: 0.8"/>
      </g>
     </g>
     <g id="text_9">
      <!-- 160 -->
      <g transform="translate(289.149608 343.51875) scale(0.08 -0.08)">
       <use xlink:href="#DejaVuSans-31"/>
       <use xlink:href="#DejaVuSans-36" transform="translate(63.623047 0)"/>
       <use xlink:href="#DejaVuSans-30" transform="translate(127.246094 0)"/>
      </g>
     </g>
    </g>
    <g id="text_10">
     <!-- Fungal Volume (mm³) -->
     <g transform="translate(123.558672 357.734219) scale(0.09 -0.09)">
      <defs>
       <path id="ArialMT-46" d="M 525 0 
L 525 4581 
L 3616 4581 
L 3616 4041 
L 1131 4041 
L 1131 2622 
L 3281 2622 
L 3281 2081 
L 1131 2081 
L 1131 0 
L 525 0 
z
" transform="scale(0.015625)"/>
       <path id="ArialMT-75" d="M 2597 0 
L 2597 488 
Q 2209 -75 1544 -75 
Q 1250 -75 995 37 
Q 741 150 617 320 
Q 494 491 444 738 
Q 409 903 409 1263 
L 409 3319 
L 972 3319 
L 972 1478 
Q 972 1038 1006 884 
Q 1059 663 1231 536 
Q 1403 409 1656 409 
Q 1909 409 2131 539 
Q 2353 669 2445 892 
Q 2538 1116 2538 1541 
L 2538 3319 
L 3100 3319 
L 3100 0 
L 2597 0 
z
" transform="scale(0.015625)"/>
       <path id="ArialMT-6e" d="M 422 0 
L 422 3319 
L 928 3319 
L 928 2847 
Q 1294 3394 1984 3394 
Q 2284 3394 2536 3286 
Q 2788 3178 2913 3003 
Q 3038 2828 3088 2588 
Q 3119 2431 3119 2041 
L 3119 0 
L 2556 0 
L 2556 2019 
Q 2556 2363 2490 2533 
Q 2425 2703 2258 2804 
Q 2091 2906 1866 2906 
Q 1506 2906 1245 2678 
Q 984 2450 984 1813 
L 984 0 
L 422 0 
z
" transform="scale(0.015625)"/>
       <path id="ArialMT-67" d="M 319 -275 
L 866 -356 
Q 900 -609 1056 -725 
Q 1266 -881 1628 -881 
Q 2019 -881 2231 -725 
Q 2444 -569 2519 -288 
Q 2563 -116 2559 434 
Q 2191 0 1641 0 
Q 956 0 581 494 
Q 206 988 206 1678 
Q 206 2153 378 2554 
Q 550 2956 876 3175 
Q 1203 3394 1644 3394 
Q 2231 3394 2613 2919 
L 2613 3319 
L 3131 3319 
L 3131 450 
Q 3131 -325 2973 -648 
Q 2816 -972 2473 -1159 
Q 2131 -1347 1631 -1347 
Q 1038 -1347 672 -1080 
Q 306 -813 319 -275 
z
M 784 1719 
Q 784 1066 1043 766 
Q 1303 466 1694 466 
Q 2081 466 2343 764 
Q 2606 1063 2606 1700 
Q 2606 2309 2336 2618 
Q 2066 2928 1684 2928 
Q 1309 2928 1046 2623 
Q 784 2319 784 1719 
z
" transform="scale(0.015625)"/>
       <path id="ArialMT-61" d="M 2588 409 
Q 2275 144 1986 34 
Q 1697 -75 1366 -75 
Q 819 -75 525 192 
Q 231 459 231 875 
Q 231 1119 342 1320 
Q 453 1522 633 1644 
Q 813 1766 1038 1828 
Q 1203 1872 1538 1913 
Q 2219 1994 2541 2106 
Q 2544 2222 2544 2253 
Q 2544 2597 2384 2738 
Q 2169 2928 1744 2928 
Q 1347 2928 1158 2789 
Q 969 2650 878 2297 
L 328 2372 
Q 403 2725 575 2942 
Q 747 3159 1072 3276 
Q 1397 3394 1825 3394 
Q 2250 3394 2515 3294 
Q 2781 3194 2906 3042 
Q 3031 2891 3081 2659 
Q 3109 2516 3109 2141 
L 3109 1391 
Q 3109 606 3145 398 
Q 3181 191 3288 0 
L 2700 0 
Q 2613 175 2588 409 
z
M 2541 1666 
Q 2234 1541 1622 1453 
Q 1275 1403 1131 1340 
Q 988 1278 909 1158 
Q 831 1038 831 891 
Q 831 666 1001 516 
Q 1172 366 1500 366 
Q 1825 366 2078 508 
Q 2331 650 2450 897 
Q 2541 1088 2541 1459 
L 2541 1666 
z
" transform="scale(0.015625)"/>
       <path id="ArialMT-6c" d="M 409 0 
L 409 4581 
L 972 4581 
L 972 0 
L 409 0 
z
" transform="scale(0.015625)"/>
       <path id="ArialMT-20" transform="scale(0.015625)"/>
       <path id="ArialMT-56" d="M 1803 0 
L 28 4581 
L 684 4581 
L 1875 1253 
Q 2019 853 2116 503 
Q 2222 878 2363 1253 
L 3600 4581 
L 4219 4581 
L 2425 0 
L 1803 0 
z
" transform="scale(0.015625)"/>
       <path id="ArialMT-6f" d="M 213 1659 
Q 213 2581 725 3025 
Q 1153 3394 1769 3394 
Q 2453 3394 2887 2945 
Q 3322 2497 3322 1706 
Q 3322 1066 3130 698 
Q 2938 331 2570 128 
Q 2203 -75 1769 -75 
Q 1072 -75 642 372 
Q 213 819 213 1659 
z
M 791 1659 
Q 791 1022 1069 705 
Q 1347 388 1769 388 
Q 2188 388 2466 706 
Q 2744 1025 2744 1678 
Q 2744 2294 2464 2611 
Q 2184 2928 1769 2928 
Q 1347 2928 1069 2612 
Q 791 2297 791 1659 
z
" transform="scale(0.015625)"/>
       <path id="ArialMT-6d" d="M 422 0 
L 422 3319 
L 925 3319 
L 925 2853 
Q 1081 3097 1340 3245 
Q 1600 3394 1931 3394 
Q 2300 3394 2536 3241 
Q 2772 3088 2869 2813 
Q 3263 3394 3894 3394 
Q 4388 3394 4653 3120 
Q 4919 2847 4919 2278 
L 4919 0 
L 4359 0 
L 4359 2091 
Q 4359 2428 4304 2576 
Q 4250 2725 4106 2815 
Q 3963 2906 3769 2906 
Q 3419 2906 3187 2673 
Q 2956 2441 2956 1928 
L 2956 0 
L 2394 0 
L 2394 2156 
Q 2394 2531 2256 2718 
Q 2119 2906 1806 2906 
Q 1569 2906 1367 2781 
Q 1166 2656 1075 2415 
Q 984 2175 984 1722 
L 984 0 
L 422 0 
z
" transform="scale(0.015625)"/>
       <path id="ArialMT-65" d="M 2694 1069 
L 3275 997 
Q 3138 488 2766 206 
Q 2394 -75 1816 -75 
Q 1088 -75 661 373 
Q 234 822 234 1631 
Q 234 2469 665 2931 
Q 1097 3394 1784 3394 
Q 2450 3394 2872 2941 
Q 3294 2488 3294 1666 
Q 3294 1616 3291 1516 
L 816 1516 
Q 847 969 1125 678 
Q 1403 388 1819 388 
Q 2128 388 2347 550 
Q 2566 713 2694 1069 
z
M 847 1978 
L 2700 1978 
Q 2663 2397 2488 2606 
Q 2219 2931 1791 2931 
Q 1403 2931 1139 2672 
Q 875 2413 847 1978 
z
" transform="scale(0.015625)"/>
       <path id="ArialMT-28" d="M 1497 -1347 
Q 1031 -759 709 28 
Q 388 816 388 1659 
Q 388 2403 628 3084 
Q 909 3875 1497 4659 
L 1900 4659 
Q 1522 4009 1400 3731 
Q 1209 3300 1100 2831 
Q 966 2247 966 1656 
Q 966 153 1900 -1347 
L 1497 -1347 
z
" transform="scale(0.015625)"/>
       <path id="ArialMT-b3" d="M 103 2903 
L 559 2950 
Q 622 2763 722 2694 
Q 856 2600 1041 2600 
Q 1263 2600 1397 2722 
Q 1531 2844 1531 3016 
Q 1531 3172 1418 3265 
Q 1306 3359 1034 3359 
Q 997 3359 931 3353 
Q 888 3350 863 3350 
L 931 3694 
Q 1184 3691 1301 3784 
Q 1419 3878 1419 4013 
Q 1419 4128 1325 4209 
Q 1231 4291 1047 4291 
Q 872 4291 773 4222 
Q 675 4153 603 3972 
L 156 4044 
Q 284 4375 479 4506 
Q 675 4638 1050 4638 
Q 1500 4638 1704 4470 
Q 1909 4303 1909 4053 
Q 1909 3881 1798 3747 
Q 1688 3613 1478 3553 
Q 1756 3484 1887 3326 
Q 2019 3169 2019 2956 
Q 2019 2666 1772 2450 
Q 1525 2234 1069 2234 
Q 631 2234 400 2407 
Q 169 2581 103 2903 
z
" transform="scale(0.015625)"/>
       <path id="ArialMT-29" d="M 791 -1347 
L 388 -1347 
Q 1322 153 1322 1656 
Q 1322 2244 1188 2822 
Q 1081 3291 891 3722 
Q 769 4003 388 4659 
L 791 4659 
Q 1378 3875 1659 3084 
Q 1900 2403 1900 1659 
Q 1900 816 1576 28 
Q 1253 -759 791 -1347 
z
" transform="scale(0.015625)"/>
      </defs>
      <use xlink:href="#ArialMT-46"/>
      <use xlink:href="#ArialMT-75" transform="translate(61.083984 0)"/>
      <use xlink:href="#ArialMT-6e" transform="translate(116.699219 0)"/>
      <use xlink:href="#ArialMT-67" transform="translate(172.314453 0)"/>
      <use xlink:href="#ArialMT-61" transform="translate(227.929688 0)"/>
      <use xlink:href="#ArialMT-6c" transform="translate(283.544922 0)"/>
      <use xlink:href="#ArialMT-20" transform="translate(305.761719 0)"/>
      <use xlink:href="#ArialMT-56" transform="translate(333.544922 0)"/>
      <use xlink:href="#ArialMT-6f" transform="translate(394.744141 0)"/>
      <use xlink:href="#ArialMT-6c" transform="translate(450.359375 0)"/>
      <use xlink:href="#ArialMT-75" transform="translate(472.576172 0)"/>
      <use xlink:href="#ArialMT-6d" transform="translate(528.191406 0)"/>
      <use xlink:href="#ArialMT-65" transform="translate(611.492188 0)"/>
      <use xlink:href="#ArialMT-20" transform="translate(667.107422 0)"/>
      <use xlink:href="#ArialMT-28" transform="translate(694.890625 0)"/>
      <use xlink:href="#ArialMT-6d" transform="translate(728.191406 0)"/>
      <use xlink:href="#ArialMT-6d" transform="translate(811.492188 0)"/>
      <use xlink:href="#ArialMT-b3" transform="translate(894.792969 0)"/>
      <use xlink:href="#ArialMT-29" transform="translate(928.09375 0)"/>
     </g>
    </g>
   </g>
   <g id="matplotlib.axis_2">
    <g id="ytick_1">
     <g id="line2d_10">
      <defs>
       <path id="mb175158291" d="M 0 0 
L -3.5 0 
" style="stroke: #000000; stroke-width: 0.8"/>
      </defs>
      <g>
       <use xlink:href="#mb175158291" x="33.735938" y="329.847911" style="stroke: #000000; stroke-width: 0.8"/>
      </g>
     </g>
     <g id="text_11">
      <!-- 0 -->
      <g transform="translate(21.645938 332.887286) scale(0.08 -0.08)">
       <use xlink:href="#DejaVuSans-30"/>
      </g>
     </g>
    </g>
    <g id="ytick_2">
     <g id="line2d_11">
      <g>
       <use xlink:href="#mb175158291" x="33.735938" y="296.027802" style="stroke: #000000; stroke-width: 0.8"/>
      </g>
     </g>
     <g id="text_12">
      <!-- 1 -->
      <g transform="translate(21.645938 299.067177) scale(0.08 -0.08)">
       <use xlink:href="#DejaVuSans-31"/>
      </g>
     </g>
    </g>
    <g id="ytick_3">
     <g id="line2d_12">
      <g>
       <use xlink:href="#mb175158291" x="33.735938" y="262.207693" style="stroke: #000000; stroke-width: 0.8"/>
      </g>
     </g>
     <g id="text_13">
      <!-- 2 -->
      <g transform="translate(21.645938 265.247068) scale(0.08 -0.08)">
       <use xlink:href="#DejaVuSans-32"/>
      </g>
     </g>
    </g>
    <g id="ytick_4">
     <g id="line2d_13">
      <g>
       <use xlink:href="#mb175158291" x="33.735938" y="228.387584" style="stroke: #000000; stroke-width: 0.8"/>
      </g>
     </g>
     <g id="text_14">
      <!-- 3 -->
      <g transform="translate(21.645938 231.426959) scale(0.08 -0.08)">
       <defs>
        <path id="DejaVuSans-33" d="M 2597 2516 
Q 3050 2419 3304 2112 
Q 3559 1806 3559 1356 
Q 3559 666 3084 287 
Q 2609 -91 1734 -91 
Q 1441 -91 1130 -33 
Q 819 25 488 141 
L 488 750 
Q 750 597 1062 519 
Q 1375 441 1716 441 
Q 2309 441 2620 675 
Q 2931 909 2931 1356 
Q 2931 1769 2642 2001 
Q 2353 2234 1838 2234 
L 1294 2234 
L 1294 2753 
L 1863 2753 
Q 2328 2753 2575 2939 
Q 2822 3125 2822 3475 
Q 2822 3834 2567 4026 
Q 2313 4219 1838 4219 
Q 1578 4219 1281 4162 
Q 984 4106 628 3988 
L 628 4550 
Q 988 4650 1302 4700 
Q 1616 4750 1894 4750 
Q 2613 4750 3031 4423 
Q 3450 4097 3450 3541 
Q 3450 3153 3228 2886 
Q 3006 2619 2597 2516 
z
" transform="scale(0.015625)"/>
       </defs>
       <use xlink:href="#DejaVuSans-33"/>
      </g>
     </g>
    </g>
    <g id="ytick_5">
     <g id="line2d_14">
      <g>
       <use xlink:href="#mb175158291" x="33.735938" y="194.567475" style="stroke: #000000; stroke-width: 0.8"/>
      </g>
     </g>
     <g id="text_15">
      <!-- 4 -->
      <g transform="translate(21.645938 197.60685) scale(0.08 -0.08)">
       <use xlink:href="#DejaVuSans-34"/>
      </g>
     </g>
    </g>
    <g id="ytick_6">
     <g id="line2d_15">
      <g>
       <use xlink:href="#mb175158291" x="33.735938" y="160.747366" style="stroke: #000000; stroke-width: 0.8"/>
      </g>
     </g>
     <g id="text_16">
      <!-- 5 -->
      <g transform="translate(21.645938 163.786741) scale(0.08 -0.08)">
       <defs>
        <path id="DejaVuSans-35" d="M 691 4666 
L 3169 4666 
L 3169 4134 
L 1269 4134 
L 1269 2991 
Q 1406 3038 1543 3061 
Q 1681 3084 1819 3084 
Q 2600 3084 3056 2656 
Q 3513 2228 3513 1497 
Q 3513 744 3044 326 
Q 2575 -91 1722 -91 
Q 1428 -91 1123 -41 
Q 819 9 494 109 
L 494 744 
Q 775 591 1075 516 
Q 1375 441 1709 441 
Q 2250 441 2565 725 
Q 2881 1009 2881 1497 
Q 2881 1984 2565 2268 
Q 2250 2553 1709 2553 
Q 1456 2553 1204 2497 
Q 953 2441 691 2322 
L 691 4666 
z
" transform="scale(0.015625)"/>
       </defs>
       <use xlink:href="#DejaVuSans-35"/>
      </g>
     </g>
    </g>
    <g id="ytick_7">
     <g id="line2d_16">
      <g>
       <use xlink:href="#mb175158291" x="33.735938" y="126.927257" style="stroke: #000000; stroke-width: 0.8"/>
      </g>
     </g>
     <g id="text_17">
      <!-- 6 -->
      <g transform="translate(21.645938 129.966632) scale(0.08 -0.08)">
       <use xlink:href="#DejaVuSans-36"/>
      </g>
     </g>
    </g>
    <g id="ytick_8">
     <g id="line2d_17">
      <g>
       <use xlink:href="#mb175158291" x="33.735938" y="93.107148" style="stroke: #000000; stroke-width: 0.8"/>
      </g>
     </g>
     <g id="text_18">
      <!-- 7 -->
      <g transform="translate(21.645938 96.146523) scale(0.08 -0.08)">
       <defs>
        <path id="DejaVuSans-37" d="M 525 4666 
L 3525 4666 
L 3525 4397 
L 1831 0 
L 1172 0 
L 2766 4134 
L 525 4134 
L 525 4666 
z
" transform="scale(0.015625)"/>
       </defs>
       <use xlink:href="#DejaVuSans-37"/>
      </g>
     </g>
    </g>
    <g id="ytick_9">
     <g id="line2d_18">
      <g>
       <use xlink:href="#mb175158291" x="33.735938" y="59.287039" style="stroke: #000000; stroke-width: 0.8"/>
      </g>
     </g>
     <g id="text_19">
      <!-- 8 -->
      <g transform="translate(21.645938 62.326414) scale(0.08 -0.08)">
       <use xlink:href="#DejaVuSans-38"/>
      </g>
     </g>
    </g>
    <g id="text_20">
     <!-- Cell Density (1000 cells/100 μm circle) -->
     <g transform="translate(13.751719 270.282812) rotate(-90) scale(0.09 -0.09)">
      <defs>
       <path id="ArialMT-43" d="M 3763 1606 
L 4369 1453 
Q 4178 706 3683 314 
Q 3188 -78 2472 -78 
Q 1731 -78 1267 223 
Q 803 525 561 1097 
Q 319 1669 319 2325 
Q 319 3041 592 3573 
Q 866 4106 1370 4382 
Q 1875 4659 2481 4659 
Q 3169 4659 3637 4309 
Q 4106 3959 4291 3325 
L 3694 3184 
Q 3534 3684 3231 3912 
Q 2928 4141 2469 4141 
Q 1941 4141 1586 3887 
Q 1231 3634 1087 3207 
Q 944 2781 944 2328 
Q 944 1744 1114 1308 
Q 1284 872 1643 656 
Q 2003 441 2422 441 
Q 2931 441 3284 734 
Q 3638 1028 3763 1606 
z
" transform="scale(0.015625)"/>
       <path id="ArialMT-44" d="M 494 0 
L 494 4581 
L 2072 4581 
Q 2606 4581 2888 4516 
Q 3281 4425 3559 4188 
Q 3922 3881 4101 3404 
Q 4281 2928 4281 2316 
Q 4281 1794 4159 1391 
Q 4038 988 3847 723 
Q 3656 459 3429 307 
Q 3203 156 2883 78 
Q 2563 0 2147 0 
L 494 0 
z
M 1100 541 
L 2078 541 
Q 2531 541 2789 625 
Q 3047 709 3200 863 
Q 3416 1078 3536 1442 
Q 3656 1806 3656 2325 
Q 3656 3044 3420 3430 
Q 3184 3816 2847 3947 
Q 2603 4041 2063 4041 
L 1100 4041 
L 1100 541 
z
" transform="scale(0.015625)"/>
       <path id="ArialMT-73" d="M 197 991 
L 753 1078 
Q 800 744 1014 566 
Q 1228 388 1613 388 
Q 2000 388 2187 545 
Q 2375 703 2375 916 
Q 2375 1106 2209 1216 
Q 2094 1291 1634 1406 
Q 1016 1563 777 1677 
Q 538 1791 414 1992 
Q 291 2194 291 2438 
Q 291 2659 392 2848 
Q 494 3038 669 3163 
Q 800 3259 1026 3326 
Q 1253 3394 1513 3394 
Q 1903 3394 2198 3281 
Q 2494 3169 2634 2976 
Q 2775 2784 2828 2463 
L 2278 2388 
Q 2241 2644 2061 2787 
Q 1881 2931 1553 2931 
Q 1166 2931 1000 2803 
Q 834 2675 834 2503 
Q 834 2394 903 2306 
Q 972 2216 1119 2156 
Q 1203 2125 1616 2013 
Q 2213 1853 2448 1751 
Q 2684 1650 2818 1456 
Q 2953 1263 2953 975 
Q 2953 694 2789 445 
Q 2625 197 2315 61 
Q 2006 -75 1616 -75 
Q 969 -75 630 194 
Q 291 463 197 991 
z
" transform="scale(0.015625)"/>
       <path id="ArialMT-69" d="M 425 3934 
L 425 4581 
L 988 4581 
L 988 3934 
L 425 3934 
z
M 425 0 
L 425 3319 
L 988 3319 
L 988 0 
L 425 0 
z
" transform="scale(0.015625)"/>
       <path id="ArialMT-74" d="M 1650 503 
L 1731 6 
Q 1494 -44 1306 -44 
Q 1000 -44 831 53 
Q 663 150 594 308 
Q 525 466 525 972 
L 525 2881 
L 113 2881 
L 113 3319 
L 525 3319 
L 525 4141 
L 1084 4478 
L 1084 3319 
L 1650 3319 
L 1650 2881 
L 1084 2881 
L 1084 941 
Q 1084 700 1114 631 
Q 1144 563 1211 522 
Q 1278 481 1403 481 
Q 1497 481 1650 503 
z
" transform="scale(0.015625)"/>
       <path id="ArialMT-79" d="M 397 -1278 
L 334 -750 
Q 519 -800 656 -800 
Q 844 -800 956 -737 
Q 1069 -675 1141 -563 
Q 1194 -478 1313 -144 
Q 1328 -97 1363 -6 
L 103 3319 
L 709 3319 
L 1400 1397 
Q 1534 1031 1641 628 
Q 1738 1016 1872 1384 
L 2581 3319 
L 3144 3319 
L 1881 -56 
Q 1678 -603 1566 -809 
Q 1416 -1088 1222 -1217 
Q 1028 -1347 759 -1347 
Q 597 -1347 397 -1278 
z
" transform="scale(0.015625)"/>
       <path id="ArialMT-31" d="M 2384 0 
L 1822 0 
L 1822 3584 
Q 1619 3391 1289 3197 
Q 959 3003 697 2906 
L 697 3450 
Q 1169 3672 1522 3987 
Q 1875 4303 2022 4600 
L 2384 4600 
L 2384 0 
z
" transform="scale(0.015625)"/>
       <path id="ArialMT-30" d="M 266 2259 
Q 266 3072 433 3567 
Q 600 4063 929 4331 
Q 1259 4600 1759 4600 
Q 2128 4600 2406 4451 
Q 2684 4303 2865 4023 
Q 3047 3744 3150 3342 
Q 3253 2941 3253 2259 
Q 3253 1453 3087 958 
Q 2922 463 2592 192 
Q 2263 -78 1759 -78 
Q 1097 -78 719 397 
Q 266 969 266 2259 
z
M 844 2259 
Q 844 1131 1108 757 
Q 1372 384 1759 384 
Q 2147 384 2411 759 
Q 2675 1134 2675 2259 
Q 2675 3391 2411 3762 
Q 2147 4134 1753 4134 
Q 1366 4134 1134 3806 
Q 844 3388 844 2259 
z
" transform="scale(0.015625)"/>
       <path id="ArialMT-63" d="M 2588 1216 
L 3141 1144 
Q 3050 572 2676 248 
Q 2303 -75 1759 -75 
Q 1078 -75 664 370 
Q 250 816 250 1647 
Q 250 2184 428 2587 
Q 606 2991 970 3192 
Q 1334 3394 1763 3394 
Q 2303 3394 2647 3120 
Q 2991 2847 3088 2344 
L 2541 2259 
Q 2463 2594 2264 2762 
Q 2066 2931 1784 2931 
Q 1359 2931 1093 2626 
Q 828 2322 828 1663 
Q 828 994 1084 691 
Q 1341 388 1753 388 
Q 2084 388 2306 591 
Q 2528 794 2588 1216 
z
" transform="scale(0.015625)"/>
       <path id="ArialMT-2f" d="M 0 -78 
L 1328 4659 
L 1778 4659 
L 453 -78 
L 0 -78 
z
" transform="scale(0.015625)"/>
       <path id="ArialMT-3bc" d="M 3181 3319 
L 3181 0 
L 2678 0 
L 2678 394 
Q 2516 144 2356 50 
Q 2138 -78 1847 -78 
Q 1588 -78 1388 25 
Q 1238 103 1056 334 
L 1056 -1272 
L 500 -1272 
L 500 3319 
L 1056 3319 
L 1056 1913 
Q 1056 1147 1137 920 
Q 1219 694 1401 562 
Q 1584 431 1822 431 
Q 2072 431 2269 568 
Q 2466 706 2547 923 
Q 2628 1141 2628 1903 
L 2628 3319 
L 3181 3319 
z
" transform="scale(0.015625)"/>
       <path id="ArialMT-72" d="M 416 0 
L 416 3319 
L 922 3319 
L 922 2816 
Q 1116 3169 1280 3281 
Q 1444 3394 1641 3394 
Q 1925 3394 2219 3213 
L 2025 2691 
Q 1819 2813 1613 2813 
Q 1428 2813 1281 2702 
Q 1134 2591 1072 2394 
Q 978 2094 978 1738 
L 978 0 
L 416 0 
z
" transform="scale(0.015625)"/>
      </defs>
      <use xlink:href="#ArialMT-43"/>
      <use xlink:href="#ArialMT-65" transform="translate(72.216797 0)"/>
      <use xlink:href="#ArialMT-6c" transform="translate(127.832031 0)"/>
      <use xlink:href="#ArialMT-6c" transform="translate(150.048828 0)"/>
      <use xlink:href="#ArialMT-20" transform="translate(172.265625 0)"/>
      <use xlink:href="#ArialMT-44" transform="translate(200.048828 0)"/>
      <use xlink:href="#ArialMT-65" transform="translate(272.265625 0)"/>
      <use xlink:href="#ArialMT-6e" transform="translate(327.880859 0)"/>
      <use xlink:href="#ArialMT-73" transform="translate(383.496094 0)"/>
      <use xlink:href="#ArialMT-69" transform="translate(433.496094 0)"/>
      <use xlink:href="#ArialMT-74" transform="translate(455.712891 0)"/>
      <use xlink:href="#ArialMT-79" transform="translate(483.496094 0)"/>
      <use xlink:href="#ArialMT-20" transform="translate(533.496094 0)"/>
      <use xlink:href="#ArialMT-28" transform="translate(561.279297 0)"/>
      <use xlink:href="#ArialMT-31" transform="translate(594.580078 0)"/>
      <use xlink:href="#ArialMT-30" transform="translate(650.195312 0)"/>
      <use xlink:href="#ArialMT-30" transform="translate(705.810547 0)"/>
      <use xlink:href="#ArialMT-30" transform="translate(761.425781 0)"/>
      <use xlink:href="#ArialMT-20" transform="translate(817.041016 0)"/>
      <use xlink:href="#ArialMT-63" transform="translate(844.824219 0)"/>
      <use xlink:href="#ArialMT-65" transform="translate(894.824219 0)"/>
      <use xlink:href="#ArialMT-6c" transform="translate(950.439453 0)"/>
      <use xlink:href="#ArialMT-6c" transform="translate(972.65625 0)"/>
      <use xlink:href="#ArialMT-73" transform="translate(994.873047 0)"/>
      <use xlink:href="#ArialMT-2f" transform="translate(1044.873047 0)"/>
      <use xlink:href="#ArialMT-31" transform="translate(1072.65625 0)"/>
      <use xlink:href="#ArialMT-30" transform="translate(1128.271484 0)"/>
      <use xlink:href="#ArialMT-30" transform="translate(1183.886719 0)"/>
      <use xlink:href="#ArialMT-20" transform="translate(1239.501953 0)"/>
      <use xlink:href="#ArialMT-3bc" transform="translate(1267.285156 0)"/>
      <use xlink:href="#ArialMT-6d" transform="translate(1324.902344 0)"/>
      <use xlink:href="#ArialMT-20" transform="translate(1408.203125 0)"/>
      <use xlink:href="#ArialMT-63" transform="translate(1435.986328 0)"/>
      <use xlink:href="#ArialMT-69" transform="translate(1485.986328 0)"/>
      <use xlink:href="#ArialMT-72" transform="translate(1508.203125 0)"/>
      <use xlink:href="#ArialMT-63" transform="translate(1541.503906 0)"/>
      <use xlink:href="#ArialMT-6c" transform="translate(1591.503906 0)"/>
      <use xlink:href="#ArialMT-65" transform="translate(1613.720703 0)"/>
      <use xlink:href="#ArialMT-29" transform="translate(1669.335938 0)"/>
     </g>
    </g>
   </g>
   <g id="line2d_19">
    <path d="M 45.834347 169.215373 
L 46.336474 169.631729 
L 46.838601 170.048085 
L 47.340728 170.464441 
L 47.842856 170.880798 
L 48.344983 171.297154 
L 48.84711 171.71351 
L 49.349237 172.129867 
L 49.851365 172.546223 
L 50.353492 172.962579 
L 50.855619 173.378935 
L 51.357746 173.795292 
L 51.859874 174.211648 
L 52.362001 174.628004 
L 52.864128 175.044361 
L 53.366255 175.460717 
L 53.868383 175.877073 
L 54.37051 176.293429 
L 54.872637 176.709786 
L 55.374764 177.126142 
L 55.876892 177.542498 
L 56.379019 177.958855 
L 56.881146 178.375211 
L 57.383273 178.791567 
L 57.885401 179.207923 
L 58.387528 179.62428 
L 58.889655 180.040636 
L 59.391782 180.456992 
L 59.89391 180.873348 
L 60.396037 181.289705 
L 60.898164 181.706061 
L 61.400291 182.122417 
L 61.902419 182.538774 
L 62.404546 182.95513 
L 62.906673 183.371486 
L 63.4088 183.787842 
L 63.910928 184.204199 
L 64.413055 184.620555 
L 64.915182 185.036911 
L 65.417309 185.453268 
L 65.919437 185.869624 
L 66.421564 186.28598 
L 66.923691 186.702336 
L 67.425818 187.118693 
L 67.927946 187.535049 
L 68.430073 187.951405 
L 68.9322 188.367761 
L 69.434327 188.784118 
L 69.936455 189.200474 
L 70.438582 189.61683 
L 70.940709 190.033187 
L 71.442836 190.449543 
L 71.944964 190.865899 
L 72.447091 191.282255 
L 72.949218 191.698612 
L 73.451345 192.114968 
L 73.953473 192.531324 
L 74.4556 192.947681 
L 74.957727 193.364037 
L 75.459854 193.780393 
L 75.961982 194.196749 
L 76.464109 194.613106 
L 76.966236 195.029462 
L 77.468363 195.445818 
L 77.970491 195.862174 
L 78.472618 196.278531 
L 78.974745 196.694887 
L 79.476872 197.111243 
L 79.979 197.5276 
L 80.481127 197.943956 
L 80.983254 198.360312 
L 81.485381 198.776668 
L 81.987509 199.193025 
L 82.489636 199.609381 
L 82.991763 200.025737 
L 83.49389 200.442094 
L 83.996018 200.85845 
L 84.498145 201.274806 
L 85.000272 201.691162 
L 85.502399 202.107519 
L 86.004527 202.523875 
L 86.506654 202.940231 
L 87.008781 203.356588 
L 87.510908 203.772944 
L 88.013036 204.1893 
L 88.515163 204.605656 
L 89.01729 205.022013 
L 89.519417 205.438369 
L 90.021545 205.854725 
L 90.523672 206.271081 
L 91.025799 206.687438 
L 91.527926 207.103794 
L 92.030054 207.52015 
L 92.532181 207.936507 
L 93.034308 208.352863 
L 93.536435 208.769219 
L 94.038563 209.185575 
L 94.54069 209.601932 
L 95.042817 210.018288 
L 95.544944 210.434644 
" clip-path="url(#p33c0d11628)" style="fill: none; stroke: #808080; stroke-opacity: 0.9; stroke-width: 1.5; stroke-linecap: square"/>
   </g>
   <g id="line2d_20">
    <path d="M 90.729744 281.732253 
L 92.720378 281.559289 
L 94.711013 281.386324 
L 96.701647 281.21336 
L 98.692281 281.040395 
L 100.682915 280.867431 
L 102.673549 280.694466 
L 104.664183 280.521502 
L 106.654818 280.348537 
L 108.645452 280.175573 
L 110.636086 280.002608 
L 112.62672 279.829644 
L 114.617354 279.656679 
L 116.607989 279.483715 
L 118.598623 279.31075 
L 120.589257 279.137785 
L 122.579891 278.964821 
L 124.570525 278.791856 
L 126.561159 278.618892 
L 128.551794 278.445927 
L 130.542428 278.272963 
L 132.533062 278.099998 
L 134.523696 277.927034 
L 136.51433 277.754069 
L 138.504965 277.581105 
L 140.495599 277.40814 
L 142.486233 277.235176 
L 144.476867 277.062211 
L 146.467501 276.889247 
L 148.458136 276.716282 
L 150.44877 276.543318 
L 152.439404 276.370353 
L 154.430038 276.197389 
L 156.420672 276.024424 
L 158.411306 275.851459 
L 160.401941 275.678495 
L 162.392575 275.50553 
L 164.383209 275.332566 
L 166.373843 275.159601 
L 168.364477 274.986637 
L 170.355112 274.813672 
L 172.345746 274.640708 
L 174.33638 274.467743 
L 176.327014 274.294779 
L 178.317648 274.121814 
L 180.308282 273.94885 
L 182.298917 273.775885 
L 184.289551 273.602921 
L 186.280185 273.429956 
L 188.270819 273.256992 
L 190.261453 273.084027 
L 192.252088 272.911063 
L 194.242722 272.738098 
L 196.233356 272.565134 
L 198.22399 272.392169 
L 200.214624 272.219204 
L 202.205258 272.04624 
L 204.195893 271.873275 
L 206.186527 271.700311 
L 208.177161 271.527346 
L 210.167795 271.354382 
L 212.158429 271.181417 
L 214.149064 271.008453 
L 216.139698 270.835488 
L 218.130332 270.662524 
L 220.120966 270.489559 
L 222.1116 270.316595 
L 224.102235 270.14363 
L 226.092869 269.970666 
L 228.083503 269.797701 
L 230.074137 269.624737 
L 232.064771 269.451772 
L 234.055405 269.278808 
L 236.04604 269.105843 
L 238.036674 268.932878 
L 240.027308 268.759914 
L 242.017942 268.586949 
L 244.008576 268.413985 
L 245.999211 268.24102 
L 247.989845 268.068056 
L 249.980479 267.895091 
L 251.971113 267.722127 
L 253.961747 267.549162 
L 255.952381 267.376198 
L 257.943016 267.203233 
L 259.93365 267.030269 
L 261.924284 266.857304 
L 263.914918 266.68434 
L 265.905552 266.511375 
L 267.896187 266.338411 
L 269.886821 266.165446 
L 271.877455 265.992482 
L 273.868089 265.819517 
L 275.858723 265.646553 
L 277.849357 265.473588 
L 279.839992 265.300623 
L 281.830626 265.127659 
L 283.82126 264.954694 
L 285.811894 264.78173 
L 287.802528 264.608765 
" clip-path="url(#p33c0d11628)" style="fill: none; stroke: #fd810a; stroke-opacity: 0.9; stroke-width: 1.5; stroke-linecap: square"/>
   </g>
   <g id="patch_3">
    <path d="M 33.735938 330.44 
L 33.735938 56.895 
" style="fill: none; stroke: #000000; stroke-width: 0.8; stroke-linejoin: miter; stroke-linecap: square"/>
   </g>
   <g id="patch_4">
    <path d="M 33.735938 330.44 
L 299.900937 330.44 
" style="fill: none; stroke: #000000; stroke-width: 0.8; stroke-linejoin: miter; stroke-linecap: square"/>
   </g>
   <g id="text_21">
    <!-- r=-0.21 ns -->
    <g style="fill: #808080" transform="translate(84.620406 60.589806) scale(0.09 -0.09)">
     <defs>
      <path id="Arial-BoldMT-72" d="M 1300 0 
L 422 0 
L 422 3319 
L 1238 3319 
L 1238 2847 
Q 1447 3181 1614 3287 
Q 1781 3394 1994 3394 
Q 2294 3394 2572 3228 
L 2300 2463 
Q 2078 2606 1888 2606 
Q 1703 2606 1575 2504 
Q 1447 2403 1373 2137 
Q 1300 1872 1300 1025 
L 1300 0 
z
" transform="scale(0.015625)"/>
      <path id="Arial-BoldMT-3d" d="M 266 2550 
L 266 3356 
L 3469 3356 
L 3469 2550 
L 266 2550 
z
M 266 1163 
L 266 1972 
L 3469 1972 
L 3469 1163 
L 266 1163 
z
" transform="scale(0.015625)"/>
      <path id="Arial-BoldMT-2d" d="M 359 1222 
L 359 2100 
L 2084 2100 
L 2084 1222 
L 359 1222 
z
" transform="scale(0.015625)"/>
      <path id="Arial-BoldMT-30" d="M 1756 4600 
Q 2422 4600 2797 4125 
Q 3244 3563 3244 2259 
Q 3244 959 2794 391 
Q 2422 -78 1756 -78 
Q 1088 -78 678 436 
Q 269 950 269 2269 
Q 269 3563 719 4131 
Q 1091 4600 1756 4600 
z
M 1756 3872 
Q 1597 3872 1472 3770 
Q 1347 3669 1278 3406 
Q 1188 3066 1188 2259 
Q 1188 1453 1269 1151 
Q 1350 850 1473 750 
Q 1597 650 1756 650 
Q 1916 650 2041 751 
Q 2166 853 2234 1116 
Q 2325 1453 2325 2259 
Q 2325 3066 2244 3367 
Q 2163 3669 2039 3770 
Q 1916 3872 1756 3872 
z
" transform="scale(0.015625)"/>
      <path id="Arial-BoldMT-2e" d="M 459 0 
L 459 878 
L 1338 878 
L 1338 0 
L 459 0 
z
" transform="scale(0.015625)"/>
      <path id="Arial-BoldMT-32" d="M 3238 816 
L 3238 0 
L 159 0 
Q 209 463 459 877 
Q 709 1291 1447 1975 
Q 2041 2528 2175 2725 
Q 2356 2997 2356 3263 
Q 2356 3556 2198 3714 
Q 2041 3872 1763 3872 
Q 1488 3872 1325 3706 
Q 1163 3541 1138 3156 
L 263 3244 
Q 341 3969 753 4284 
Q 1166 4600 1784 4600 
Q 2463 4600 2850 4234 
Q 3238 3869 3238 3325 
Q 3238 3016 3127 2736 
Q 3016 2456 2775 2150 
Q 2616 1947 2200 1565 
Q 1784 1184 1673 1059 
Q 1563 934 1494 816 
L 3238 816 
z
" transform="scale(0.015625)"/>
      <path id="Arial-BoldMT-31" d="M 2519 0 
L 1641 0 
L 1641 3309 
Q 1159 2859 506 2644 
L 506 3441 
Q 850 3553 1253 3867 
Q 1656 4181 1806 4600 
L 2519 4600 
L 2519 0 
z
" transform="scale(0.015625)"/>
      <path id="Arial-BoldMT-20" transform="scale(0.015625)"/>
      <path id="Arial-BoldMT-6e" d="M 3478 0 
L 2600 0 
L 2600 1694 
Q 2600 2231 2544 2389 
Q 2488 2547 2361 2634 
Q 2234 2722 2056 2722 
Q 1828 2722 1647 2597 
Q 1466 2472 1398 2265 
Q 1331 2059 1331 1503 
L 1331 0 
L 453 0 
L 453 3319 
L 1269 3319 
L 1269 2831 
Q 1703 3394 2363 3394 
Q 2653 3394 2893 3289 
Q 3134 3184 3257 3021 
Q 3381 2859 3429 2653 
Q 3478 2447 3478 2063 
L 3478 0 
z
" transform="scale(0.015625)"/>
      <path id="Arial-BoldMT-73" d="M 150 947 
L 1031 1081 
Q 1088 825 1259 692 
Q 1431 559 1741 559 
Q 2081 559 2253 684 
Q 2369 772 2369 919 
Q 2369 1019 2306 1084 
Q 2241 1147 2013 1200 
Q 950 1434 666 1628 
Q 272 1897 272 2375 
Q 272 2806 612 3100 
Q 953 3394 1669 3394 
Q 2350 3394 2681 3172 
Q 3013 2950 3138 2516 
L 2309 2363 
Q 2256 2556 2107 2659 
Q 1959 2763 1684 2763 
Q 1338 2763 1188 2666 
Q 1088 2597 1088 2488 
Q 1088 2394 1175 2328 
Q 1294 2241 1995 2081 
Q 2697 1922 2975 1691 
Q 3250 1456 3250 1038 
Q 3250 581 2869 253 
Q 2488 -75 1741 -75 
Q 1063 -75 667 200 
Q 272 475 150 947 
z
" transform="scale(0.015625)"/>
     </defs>
     <use xlink:href="#Arial-BoldMT-72"/>
     <use xlink:href="#Arial-BoldMT-3d" transform="translate(38.916016 0)"/>
     <use xlink:href="#Arial-BoldMT-2d" transform="translate(97.314453 0)"/>
     <use xlink:href="#Arial-BoldMT-30" transform="translate(130.615234 0)"/>
     <use xlink:href="#Arial-BoldMT-2e" transform="translate(186.230469 0)"/>
     <use xlink:href="#Arial-BoldMT-32" transform="translate(214.013672 0)"/>
     <use xlink:href="#Arial-BoldMT-31" transform="translate(269.628906 0)"/>
     <use xlink:href="#Arial-BoldMT-20" transform="translate(325.244141 0)"/>
     <use xlink:href="#Arial-BoldMT-6e" transform="translate(353.027344 0)"/>
     <use xlink:href="#Arial-BoldMT-73" transform="translate(414.111328 0)"/>
    </g>
   </g>
   <g id="text_22">
    <!-- r=0.21 ns -->
    <g style="fill: #fd810a" transform="translate(206.743187 60.589806) scale(0.09 -0.09)">
     <use xlink:href="#Arial-BoldMT-72"/>
     <use xlink:href="#Arial-BoldMT-3d" transform="translate(38.916016 0)"/>
     <use xlink:href="#Arial-BoldMT-30" transform="translate(97.314453 0)"/>
     <use xlink:href="#Arial-BoldMT-2e" transform="translate(152.929688 0)"/>
     <use xlink:href="#Arial-BoldMT-32" transform="translate(180.712891 0)"/>
     <use xlink:href="#Arial-BoldMT-31" transform="translate(236.328125 0)"/>
     <use xlink:href="#Arial-BoldMT-20" transform="translate(291.943359 0)"/>
     <use xlink:href="#Arial-BoldMT-6e" transform="translate(319.726562 0)"/>
     <use xlink:href="#Arial-BoldMT-73" transform="translate(380.810547 0)"/>
    </g>
   </g>
   <g id="text_23">
    <!-- Macrophages -->
    <g transform="translate(134.589531 50.895) scale(0.1 -0.1)">
     <defs>
      <path id="Arial-BoldMT-4d" d="M 453 0 
L 453 4581 
L 1838 4581 
L 2669 1456 
L 3491 4581 
L 4878 4581 
L 4878 0 
L 4019 0 
L 4019 3606 
L 3109 0 
L 2219 0 
L 1313 3606 
L 1313 0 
L 453 0 
z
" transform="scale(0.015625)"/>
      <path id="Arial-BoldMT-61" d="M 1116 2306 
L 319 2450 
Q 453 2931 781 3162 
Q 1109 3394 1756 3394 
Q 2344 3394 2631 3255 
Q 2919 3116 3036 2902 
Q 3153 2688 3153 2116 
L 3144 1091 
Q 3144 653 3186 445 
Q 3228 238 3344 0 
L 2475 0 
Q 2441 88 2391 259 
Q 2369 338 2359 363 
Q 2134 144 1878 34 
Q 1622 -75 1331 -75 
Q 819 -75 523 203 
Q 228 481 228 906 
Q 228 1188 362 1408 
Q 497 1628 739 1745 
Q 981 1863 1438 1950 
Q 2053 2066 2291 2166 
L 2291 2253 
Q 2291 2506 2166 2614 
Q 2041 2722 1694 2722 
Q 1459 2722 1328 2630 
Q 1197 2538 1116 2306 
z
M 2291 1594 
Q 2122 1538 1756 1459 
Q 1391 1381 1278 1306 
Q 1106 1184 1106 997 
Q 1106 813 1243 678 
Q 1381 544 1594 544 
Q 1831 544 2047 700 
Q 2206 819 2256 991 
Q 2291 1103 2291 1419 
L 2291 1594 
z
" transform="scale(0.015625)"/>
      <path id="Arial-BoldMT-63" d="M 3353 2338 
L 2488 2181 
Q 2444 2441 2289 2572 
Q 2134 2703 1888 2703 
Q 1559 2703 1364 2476 
Q 1169 2250 1169 1719 
Q 1169 1128 1367 884 
Q 1566 641 1900 641 
Q 2150 641 2309 783 
Q 2469 925 2534 1272 
L 3397 1125 
Q 3263 531 2881 228 
Q 2500 -75 1859 -75 
Q 1131 -75 698 384 
Q 266 844 266 1656 
Q 266 2478 700 2936 
Q 1134 3394 1875 3394 
Q 2481 3394 2839 3133 
Q 3197 2872 3353 2338 
z
" transform="scale(0.015625)"/>
      <path id="Arial-BoldMT-6f" d="M 256 1706 
Q 256 2144 472 2553 
Q 688 2963 1083 3178 
Q 1478 3394 1966 3394 
Q 2719 3394 3200 2905 
Q 3681 2416 3681 1669 
Q 3681 916 3195 420 
Q 2709 -75 1972 -75 
Q 1516 -75 1102 131 
Q 688 338 472 736 
Q 256 1134 256 1706 
z
M 1156 1659 
Q 1156 1166 1390 903 
Q 1625 641 1969 641 
Q 2313 641 2545 903 
Q 2778 1166 2778 1666 
Q 2778 2153 2545 2415 
Q 2313 2678 1969 2678 
Q 1625 2678 1390 2415 
Q 1156 2153 1156 1659 
z
" transform="scale(0.015625)"/>
      <path id="Arial-BoldMT-70" d="M 434 3319 
L 1253 3319 
L 1253 2831 
Q 1413 3081 1684 3237 
Q 1956 3394 2288 3394 
Q 2866 3394 3269 2941 
Q 3672 2488 3672 1678 
Q 3672 847 3265 386 
Q 2859 -75 2281 -75 
Q 2006 -75 1782 34 
Q 1559 144 1313 409 
L 1313 -1263 
L 434 -1263 
L 434 3319 
z
M 1303 1716 
Q 1303 1156 1525 889 
Q 1747 622 2066 622 
Q 2372 622 2575 867 
Q 2778 1113 2778 1672 
Q 2778 2194 2568 2447 
Q 2359 2700 2050 2700 
Q 1728 2700 1515 2451 
Q 1303 2203 1303 1716 
z
" transform="scale(0.015625)"/>
      <path id="Arial-BoldMT-68" d="M 1334 4581 
L 1334 2897 
Q 1759 3394 2350 3394 
Q 2653 3394 2897 3281 
Q 3141 3169 3264 2994 
Q 3388 2819 3433 2606 
Q 3478 2394 3478 1947 
L 3478 0 
L 2600 0 
L 2600 1753 
Q 2600 2275 2550 2415 
Q 2500 2556 2373 2639 
Q 2247 2722 2056 2722 
Q 1838 2722 1666 2615 
Q 1494 2509 1414 2295 
Q 1334 2081 1334 1663 
L 1334 0 
L 456 0 
L 456 4581 
L 1334 4581 
z
" transform="scale(0.015625)"/>
      <path id="Arial-BoldMT-67" d="M 378 -219 
L 1381 -341 
Q 1406 -516 1497 -581 
Q 1622 -675 1891 -675 
Q 2234 -675 2406 -572 
Q 2522 -503 2581 -350 
Q 2622 -241 2622 53 
L 2622 538 
Q 2228 0 1628 0 
Q 959 0 569 566 
Q 263 1013 263 1678 
Q 263 2513 664 2953 
Q 1066 3394 1663 3394 
Q 2278 3394 2678 2853 
L 2678 3319 
L 3500 3319 
L 3500 341 
Q 3500 -247 3403 -537 
Q 3306 -828 3131 -993 
Q 2956 -1159 2664 -1253 
Q 2372 -1347 1925 -1347 
Q 1081 -1347 728 -1058 
Q 375 -769 375 -325 
Q 375 -281 378 -219 
z
M 1163 1728 
Q 1163 1200 1367 954 
Q 1572 709 1872 709 
Q 2194 709 2416 961 
Q 2638 1213 2638 1706 
Q 2638 2222 2425 2472 
Q 2213 2722 1888 2722 
Q 1572 2722 1367 2476 
Q 1163 2231 1163 1728 
z
" transform="scale(0.015625)"/>
      <path id="Arial-BoldMT-65" d="M 2381 1056 
L 3256 909 
Q 3088 428 2723 176 
Q 2359 -75 1813 -75 
Q 947 -75 531 491 
Q 203 944 203 1634 
Q 203 2459 634 2926 
Q 1066 3394 1725 3394 
Q 2466 3394 2894 2905 
Q 3322 2416 3303 1406 
L 1103 1406 
Q 1113 1016 1316 798 
Q 1519 581 1822 581 
Q 2028 581 2168 693 
Q 2309 806 2381 1056 
z
M 2431 1944 
Q 2422 2325 2234 2523 
Q 2047 2722 1778 2722 
Q 1491 2722 1303 2513 
Q 1116 2303 1119 1944 
L 2431 1944 
z
" transform="scale(0.015625)"/>
     </defs>
     <use xlink:href="#Arial-BoldMT-4d"/>
     <use xlink:href="#Arial-BoldMT-61" transform="translate(83.300781 0)"/>
     <use xlink:href="#Arial-BoldMT-63" transform="translate(138.916016 0)"/>
     <use xlink:href="#Arial-BoldMT-72" transform="translate(194.53125 0)"/>
     <use xlink:href="#Arial-BoldMT-6f" transform="translate(233.447266 0)"/>
     <use xlink:href="#Arial-BoldMT-70" transform="translate(294.53125 0)"/>
     <use xlink:href="#Arial-BoldMT-68" transform="translate(355.615234 0)"/>
     <use xlink:href="#Arial-BoldMT-61" transform="translate(416.699219 0)"/>
     <use xlink:href="#Arial-BoldMT-67" transform="translate(472.314453 0)"/>
     <use xlink:href="#Arial-BoldMT-65" transform="translate(533.398438 0)"/>
     <use xlink:href="#Arial-BoldMT-73" transform="translate(589.013672 0)"/>
    </g>
   </g>
  </g>
  <g id="axes_2">
   <g id="patch_5">
    <path d="M 344.670938 330.44 
L 610.835938 330.44 
L 610.835938 56.895 
L 344.670938 56.895 
z
" style="fill: #ffffff"/>
   </g>
   <g id="PathCollection_3">
    <defs>
     <path id="C2_0_0186f7df3d" d="M 0 3.535534 
C 0.937635 3.535534 1.836992 3.163008 2.5 2.5 
C 3.163008 1.836992 3.535534 0.937635 3.535534 -0 
C 3.535534 -0.937635 3.163008 -1.836992 2.5 -2.5 
C 1.836992 -3.163008 0.937635 -3.535534 0 -3.535534 
C -0.937635 -3.535534 -1.836992 -3.163008 -2.5 -2.5 
C -3.163008 -1.836992 -3.535534 -0.937635 -3.535534 0 
C -3.535534 0.937635 -3.163008 1.836992 -2.5 2.5 
C -1.836992 3.163008 -0.937635 3.535534 0 3.535534 
z
"/>
    </defs>
    <g clip-path="url(#pd01c10bd27)">
     <use xlink:href="#C2_0_0186f7df3d" x="356.769347" y="162.208327" style="fill: #808080; fill-opacity: 0.8"/>
    </g>
    <g clip-path="url(#pd01c10bd27)">
     <use xlink:href="#C2_0_0186f7df3d" x="356.769347" y="267.072237" style="fill: #808080; fill-opacity: 0.8"/>
    </g>
    <g clip-path="url(#pd01c10bd27)">
     <use xlink:href="#C2_0_0186f7df3d" x="392.415937" y="186.177221" style="fill: #808080; fill-opacity: 0.8"/>
    </g>
    <g clip-path="url(#pd01c10bd27)">
     <use xlink:href="#C2_0_0186f7df3d" x="392.415937" y="267.072237" style="fill: #808080; fill-opacity: 0.8"/>
    </g>
    <g clip-path="url(#pd01c10bd27)">
     <use xlink:href="#C2_0_0186f7df3d" x="392.832836" y="189.173332" style="fill: #808080; fill-opacity: 0.8"/>
    </g>
    <g clip-path="url(#pd01c10bd27)">
     <use xlink:href="#C2_0_0186f7df3d" x="392.832836" y="285.048907" style="fill: #808080; fill-opacity: 0.8"/>
    </g>
   </g>
   <g id="PathCollection_4">
    <defs>
     <path id="C3_0_b458796393" d="M 0 3.535534 
C 0.937635 3.535534 1.836992 3.163008 2.5 2.5 
C 3.163008 1.836992 3.535534 0.937635 3.535534 -0 
C 3.535534 -0.937635 3.163008 -1.836992 2.5 -2.5 
C 1.836992 -3.163008 0.937635 -3.535534 0 -3.535534 
C -0.937635 -3.535534 -1.836992 -3.163008 -2.5 -2.5 
C -3.163008 -1.836992 -3.535534 -0.937635 -3.535534 0 
C -3.535534 0.937635 -3.163008 1.836992 -2.5 2.5 
C -1.836992 3.163008 -0.937635 3.535534 0 3.535534 
z
"/>
    </defs>
    <g clip-path="url(#pd01c10bd27)">
     <use xlink:href="#C3_0_b458796393" x="546.530272" y="318.006136" style="fill: #fd810a; fill-opacity: 0.8"/>
    </g>
    <g clip-path="url(#pd01c10bd27)">
     <use xlink:href="#C3_0_b458796393" x="546.530272" y="303.025578" style="fill: #fd810a; fill-opacity: 0.8"/>
    </g>
    <g clip-path="url(#pd01c10bd27)">
     <use xlink:href="#C3_0_b458796393" x="598.737528" y="153.219992" style="fill: #fd810a; fill-opacity: 0.8"/>
    </g>
    <g clip-path="url(#pd01c10bd27)">
     <use xlink:href="#C3_0_b458796393" x="598.737528" y="288.045019" style="fill: #fd810a; fill-opacity: 0.8"/>
    </g>
    <g clip-path="url(#pd01c10bd27)">
     <use xlink:href="#C3_0_b458796393" x="454.497373" y="291.041131" style="fill: #fd810a; fill-opacity: 0.8"/>
    </g>
    <g clip-path="url(#pd01c10bd27)">
     <use xlink:href="#C3_0_b458796393" x="454.497373" y="69.328864" style="fill: #fd810a; fill-opacity: 0.8"/>
    </g>
   </g>
   <g id="matplotlib.axis_3">
    <g id="xtick_10">
     <g id="line2d_21">
      <g>
       <use xlink:href="#ma8e843b99b" x="364.244777" y="330.44" style="stroke: #000000; stroke-width: 0.8"/>
      </g>
     </g>
     <g id="text_24">
      <!-- 20 -->
      <g transform="translate(359.154777 343.51875) scale(0.08 -0.08)">
       <use xlink:href="#DejaVuSans-32"/>
       <use xlink:href="#DejaVuSans-30" transform="translate(63.623047 0)"/>
      </g>
     </g>
    </g>
    <g id="xtick_11">
     <g id="line2d_22">
      <g>
       <use xlink:href="#ma8e843b99b" x="421.748088" y="330.44" style="stroke: #000000; stroke-width: 0.8"/>
      </g>
     </g>
     <g id="text_25">
      <!-- 40 -->
      <g transform="translate(416.658088 343.51875) scale(0.08 -0.08)">
       <use xlink:href="#DejaVuSans-34"/>
       <use xlink:href="#DejaVuSans-30" transform="translate(63.623047 0)"/>
      </g>
     </g>
    </g>
    <g id="xtick_12">
     <g id="line2d_23">
      <g>
       <use xlink:href="#ma8e843b99b" x="479.251399" y="330.44" style="stroke: #000000; stroke-width: 0.8"/>
      </g>
     </g>
     <g id="text_26">
      <!-- 60 -->
      <g transform="translate(474.161399 343.51875) scale(0.08 -0.08)">
       <use xlink:href="#DejaVuSans-36"/>
       <use xlink:href="#DejaVuSans-30" transform="translate(63.623047 0)"/>
      </g>
     </g>
    </g>
    <g id="xtick_13">
     <g id="line2d_24">
      <g>
       <use xlink:href="#ma8e843b99b" x="536.75471" y="330.44" style="stroke: #000000; stroke-width: 0.8"/>
      </g>
     </g>
     <g id="text_27">
      <!-- 80 -->
      <g transform="translate(531.66471 343.51875) scale(0.08 -0.08)">
       <use xlink:href="#DejaVuSans-38"/>
       <use xlink:href="#DejaVuSans-30" transform="translate(63.623047 0)"/>
      </g>
     </g>
    </g>
    <g id="xtick_14">
     <g id="line2d_25">
      <g>
       <use xlink:href="#ma8e843b99b" x="594.25802" y="330.44" style="stroke: #000000; stroke-width: 0.8"/>
      </g>
     </g>
     <g id="text_28">
      <!-- 100 -->
      <g transform="translate(586.62302 343.51875) scale(0.08 -0.08)">
       <use xlink:href="#DejaVuSans-31"/>
       <use xlink:href="#DejaVuSans-30" transform="translate(63.623047 0)"/>
       <use xlink:href="#DejaVuSans-30" transform="translate(127.246094 0)"/>
      </g>
     </g>
    </g>
    <g id="text_29">
     <!-- Fungal Volume (mm³) -->
     <g transform="translate(434.493672 357.734219) scale(0.09 -0.09)">
      <use xlink:href="#ArialMT-46"/>
      <use xlink:href="#ArialMT-75" transform="translate(61.083984 0)"/>
      <use xlink:href="#ArialMT-6e" transform="translate(116.699219 0)"/>
      <use xlink:href="#ArialMT-67" transform="translate(172.314453 0)"/>
      <use xlink:href="#ArialMT-61" transform="translate(227.929688 0)"/>
      <use xlink:href="#ArialMT-6c" transform="translate(283.544922 0)"/>
      <use xlink:href="#ArialMT-20" transform="translate(305.761719 0)"/>
      <use xlink:href="#ArialMT-56" transform="translate(333.544922 0)"/>
      <use xlink:href="#ArialMT-6f" transform="translate(394.744141 0)"/>
      <use xlink:href="#ArialMT-6c" transform="translate(450.359375 0)"/>
      <use xlink:href="#ArialMT-75" transform="translate(472.576172 0)"/>
      <use xlink:href="#ArialMT-6d" transform="translate(528.191406 0)"/>
      <use xlink:href="#ArialMT-65" transform="translate(611.492188 0)"/>
      <use xlink:href="#ArialMT-20" transform="translate(667.107422 0)"/>
      <use xlink:href="#ArialMT-28" transform="translate(694.890625 0)"/>
      <use xlink:href="#ArialMT-6d" transform="translate(728.191406 0)"/>
      <use xlink:href="#ArialMT-6d" transform="translate(811.492188 0)"/>
      <use xlink:href="#ArialMT-b3" transform="translate(894.792969 0)"/>
      <use xlink:href="#ArialMT-29" transform="translate(928.09375 0)"/>
     </g>
    </g>
   </g>
   <g id="matplotlib.axis_4">
    <g id="ytick_10">
     <g id="line2d_26">
      <g>
       <use xlink:href="#mb175158291" x="344.670938" y="327.869336" style="stroke: #000000; stroke-width: 0.8"/>
      </g>
     </g>
     <g id="text_30">
      <!-- 0.5 -->
      <g transform="translate(324.948438 330.908711) scale(0.08 -0.08)">
       <defs>
        <path id="DejaVuSans-2e" d="M 684 794 
L 1344 794 
L 1344 0 
L 684 0 
L 684 794 
z
" transform="scale(0.015625)"/>
       </defs>
       <use xlink:href="#DejaVuSans-30"/>
       <use xlink:href="#DejaVuSans-2e" transform="translate(63.623047 0)"/>
       <use xlink:href="#DejaVuSans-35" transform="translate(95.410156 0)"/>
      </g>
     </g>
    </g>
    <g id="ytick_11">
     <g id="line2d_27">
      <g>
       <use xlink:href="#mb175158291" x="344.670938" y="280.806413" style="stroke: #000000; stroke-width: 0.8"/>
      </g>
     </g>
     <g id="text_31">
      <!-- 1.0 -->
      <g transform="translate(324.948438 283.845788) scale(0.08 -0.08)">
       <use xlink:href="#DejaVuSans-31"/>
       <use xlink:href="#DejaVuSans-2e" transform="translate(63.623047 0)"/>
       <use xlink:href="#DejaVuSans-30" transform="translate(95.410156 0)"/>
      </g>
     </g>
    </g>
    <g id="ytick_12">
     <g id="line2d_28">
      <g>
       <use xlink:href="#mb175158291" x="344.670938" y="233.74349" style="stroke: #000000; stroke-width: 0.8"/>
      </g>
     </g>
     <g id="text_32">
      <!-- 1.5 -->
      <g transform="translate(324.948438 236.782865) scale(0.08 -0.08)">
       <use xlink:href="#DejaVuSans-31"/>
       <use xlink:href="#DejaVuSans-2e" transform="translate(63.623047 0)"/>
       <use xlink:href="#DejaVuSans-35" transform="translate(95.410156 0)"/>
      </g>
     </g>
    </g>
    <g id="ytick_13">
     <g id="line2d_29">
      <g>
       <use xlink:href="#mb175158291" x="344.670938" y="186.680567" style="stroke: #000000; stroke-width: 0.8"/>
      </g>
     </g>
     <g id="text_33">
      <!-- 2.0 -->
      <g transform="translate(324.948438 189.719942) scale(0.08 -0.08)">
       <use xlink:href="#DejaVuSans-32"/>
       <use xlink:href="#DejaVuSans-2e" transform="translate(63.623047 0)"/>
       <use xlink:href="#DejaVuSans-30" transform="translate(95.410156 0)"/>
      </g>
     </g>
    </g>
    <g id="ytick_14">
     <g id="line2d_30">
      <g>
       <use xlink:href="#mb175158291" x="344.670938" y="139.617645" style="stroke: #000000; stroke-width: 0.8"/>
      </g>
     </g>
     <g id="text_34">
      <!-- 2.5 -->
      <g transform="translate(324.948438 142.65702) scale(0.08 -0.08)">
       <use xlink:href="#DejaVuSans-32"/>
       <use xlink:href="#DejaVuSans-2e" transform="translate(63.623047 0)"/>
       <use xlink:href="#DejaVuSans-35" transform="translate(95.410156 0)"/>
      </g>
     </g>
    </g>
    <g id="ytick_15">
     <g id="line2d_31">
      <g>
       <use xlink:href="#mb175158291" x="344.670938" y="92.554722" style="stroke: #000000; stroke-width: 0.8"/>
      </g>
     </g>
     <g id="text_35">
      <!-- 3.0 -->
      <g transform="translate(324.948438 95.594097) scale(0.08 -0.08)">
       <use xlink:href="#DejaVuSans-33"/>
       <use xlink:href="#DejaVuSans-2e" transform="translate(63.623047 0)"/>
       <use xlink:href="#DejaVuSans-30" transform="translate(95.410156 0)"/>
      </g>
     </g>
    </g>
    <g id="text_36">
     <!-- Cell Density (1000 cells/100 μm circle) -->
     <g transform="translate(317.054219 270.282812) rotate(-90) scale(0.09 -0.09)">
      <use xlink:href="#ArialMT-43"/>
      <use xlink:href="#ArialMT-65" transform="translate(72.216797 0)"/>
      <use xlink:href="#ArialMT-6c" transform="translate(127.832031 0)"/>
      <use xlink:href="#ArialMT-6c" transform="translate(150.048828 0)"/>
      <use xlink:href="#ArialMT-20" transform="translate(172.265625 0)"/>
      <use xlink:href="#ArialMT-44" transform="translate(200.048828 0)"/>
      <use xlink:href="#ArialMT-65" transform="translate(272.265625 0)"/>
      <use xlink:href="#ArialMT-6e" transform="translate(327.880859 0)"/>
      <use xlink:href="#ArialMT-73" transform="translate(383.496094 0)"/>
      <use xlink:href="#ArialMT-69" transform="translate(433.496094 0)"/>
      <use xlink:href="#ArialMT-74" transform="translate(455.712891 0)"/>
      <use xlink:href="#ArialMT-79" transform="translate(483.496094 0)"/>
      <use xlink:href="#ArialMT-20" transform="translate(533.496094 0)"/>
      <use xlink:href="#ArialMT-28" transform="translate(561.279297 0)"/>
      <use xlink:href="#ArialMT-31" transform="translate(594.580078 0)"/>
      <use xlink:href="#ArialMT-30" transform="translate(650.195312 0)"/>
      <use xlink:href="#ArialMT-30" transform="translate(705.810547 0)"/>
      <use xlink:href="#ArialMT-30" transform="translate(761.425781 0)"/>
      <use xlink:href="#ArialMT-20" transform="translate(817.041016 0)"/>
      <use xlink:href="#ArialMT-63" transform="translate(844.824219 0)"/>
      <use xlink:href="#ArialMT-65" transform="translate(894.824219 0)"/>
      <use xlink:href="#ArialMT-6c" transform="translate(950.439453 0)"/>
      <use xlink:href="#ArialMT-6c" transform="translate(972.65625 0)"/>
      <use xlink:href="#ArialMT-73" transform="translate(994.873047 0)"/>
      <use xlink:href="#ArialMT-2f" transform="translate(1044.873047 0)"/>
      <use xlink:href="#ArialMT-31" transform="translate(1072.65625 0)"/>
      <use xlink:href="#ArialMT-30" transform="translate(1128.271484 0)"/>
      <use xlink:href="#ArialMT-30" transform="translate(1183.886719 0)"/>
      <use xlink:href="#ArialMT-20" transform="translate(1239.501953 0)"/>
      <use xlink:href="#ArialMT-3bc" transform="translate(1267.285156 0)"/>
      <use xlink:href="#ArialMT-6d" transform="translate(1324.902344 0)"/>
      <use xlink:href="#ArialMT-20" transform="translate(1408.203125 0)"/>
      <use xlink:href="#ArialMT-63" transform="translate(1435.986328 0)"/>
      <use xlink:href="#ArialMT-69" transform="translate(1485.986328 0)"/>
      <use xlink:href="#ArialMT-72" transform="translate(1508.203125 0)"/>
      <use xlink:href="#ArialMT-63" transform="translate(1541.503906 0)"/>
      <use xlink:href="#ArialMT-6c" transform="translate(1591.503906 0)"/>
      <use xlink:href="#ArialMT-65" transform="translate(1613.720703 0)"/>
      <use xlink:href="#ArialMT-29" transform="translate(1669.335938 0)"/>
     </g>
    </g>
   </g>
   <g id="line2d_32">
    <path d="M 356.769347 214.580488 
L 357.133624 214.756428 
L 357.497902 214.932367 
L 357.86218 215.108307 
L 358.226457 215.284246 
L 358.590735 215.460186 
L 358.955013 215.636125 
L 359.31929 215.812065 
L 359.683568 215.988004 
L 360.047846 216.163944 
L 360.412123 216.339883 
L 360.776401 216.515823 
L 361.140679 216.691762 
L 361.504956 216.867702 
L 361.869234 217.043641 
L 362.233512 217.219581 
L 362.597789 217.39552 
L 362.962067 217.57146 
L 363.326345 217.747399 
L 363.690622 217.923339 
L 364.0549 218.099278 
L 364.419178 218.275218 
L 364.783455 218.451157 
L 365.147733 218.627097 
L 365.512011 218.803036 
L 365.876288 218.978976 
L 366.240566 219.154915 
L 366.604844 219.330855 
L 366.969121 219.506794 
L 367.333399 219.682734 
L 367.697677 219.858673 
L 368.061954 220.034613 
L 368.426232 220.210552 
L 368.79051 220.386492 
L 369.154787 220.562431 
L 369.519065 220.738371 
L 369.883343 220.91431 
L 370.24762 221.09025 
L 370.611898 221.266189 
L 370.976176 221.442129 
L 371.340453 221.618068 
L 371.704731 221.794008 
L 372.069009 221.969947 
L 372.433286 222.145887 
L 372.797564 222.321826 
L 373.161842 222.497766 
L 373.526119 222.673705 
L 373.890397 222.849645 
L 374.254675 223.025584 
L 374.618952 223.201524 
L 374.98323 223.377463 
L 375.347508 223.553403 
L 375.711785 223.729342 
L 376.076063 223.905282 
L 376.440341 224.081221 
L 376.804618 224.257161 
L 377.168896 224.4331 
L 377.533174 224.60904 
L 377.897451 224.784979 
L 378.261729 224.960919 
L 378.626007 225.136858 
L 378.990284 225.312798 
L 379.354562 225.488737 
L 379.71884 225.664677 
L 380.083117 225.840616 
L 380.447395 226.016556 
L 380.811673 226.192495 
L 381.17595 226.368435 
L 381.540228 226.544374 
L 381.904506 226.720314 
L 382.268783 226.896253 
L 382.633061 227.072193 
L 382.997339 227.248132 
L 383.361616 227.424072 
L 383.725894 227.600011 
L 384.090172 227.775951 
L 384.454449 227.95189 
L 384.818727 228.12783 
L 385.183005 228.303769 
L 385.547282 228.479709 
L 385.91156 228.655648 
L 386.275838 228.831588 
L 386.640115 229.007527 
L 387.004393 229.183467 
L 387.368671 229.359406 
L 387.732948 229.535346 
L 388.097226 229.711285 
L 388.461504 229.887225 
L 388.825781 230.063164 
L 389.190059 230.239104 
L 389.554337 230.415043 
L 389.918614 230.590983 
L 390.282892 230.766922 
L 390.64717 230.942862 
L 391.011447 231.118801 
L 391.375725 231.294741 
L 391.740003 231.47068 
L 392.10428 231.64662 
L 392.468558 231.822559 
L 392.832836 231.998499 
" clip-path="url(#pd01c10bd27)" style="fill: none; stroke: #808080; stroke-opacity: 0.9; stroke-width: 1.5; stroke-linecap: square"/>
   </g>
   <g id="line2d_33">
    <path d="M 454.497373 204.78119 
L 455.954345 205.379275 
L 457.411316 205.977359 
L 458.868287 206.575444 
L 460.325259 207.173529 
L 461.78223 207.771614 
L 463.239201 208.369699 
L 464.696172 208.967784 
L 466.153144 209.565869 
L 467.610115 210.163954 
L 469.067086 210.762038 
L 470.524057 211.360123 
L 471.981029 211.958208 
L 473.438 212.556293 
L 474.894971 213.154378 
L 476.351942 213.752463 
L 477.808914 214.350548 
L 479.265885 214.948632 
L 480.722856 215.546717 
L 482.179827 216.144802 
L 483.636799 216.742887 
L 485.09377 217.340972 
L 486.550741 217.939057 
L 488.007713 218.537142 
L 489.464684 219.135226 
L 490.921655 219.733311 
L 492.378626 220.331396 
L 493.835598 220.929481 
L 495.292569 221.527566 
L 496.74954 222.125651 
L 498.206511 222.723736 
L 499.663483 223.321821 
L 501.120454 223.919905 
L 502.577425 224.51799 
L 504.034396 225.116075 
L 505.491368 225.71416 
L 506.948339 226.312245 
L 508.40531 226.91033 
L 509.862281 227.508415 
L 511.319253 228.106499 
L 512.776224 228.704584 
L 514.233195 229.302669 
L 515.690166 229.900754 
L 517.147138 230.498839 
L 518.604109 231.096924 
L 520.06108 231.695009 
L 521.518052 232.293094 
L 522.975023 232.891178 
L 524.431994 233.489263 
L 525.888965 234.087348 
L 527.345937 234.685433 
L 528.802908 235.283518 
L 530.259879 235.881603 
L 531.71685 236.479688 
L 533.173822 237.077772 
L 534.630793 237.675857 
L 536.087764 238.273942 
L 537.544735 238.872027 
L 539.001707 239.470112 
L 540.458678 240.068197 
L 541.915649 240.666282 
L 543.37262 241.264367 
L 544.829592 241.862451 
L 546.286563 242.460536 
L 547.743534 243.058621 
L 549.200506 243.656706 
L 550.657477 244.254791 
L 552.114448 244.852876 
L 553.571419 245.450961 
L 555.028391 246.049045 
L 556.485362 246.64713 
L 557.942333 247.245215 
L 559.399304 247.8433 
L 560.856276 248.441385 
L 562.313247 249.03947 
L 563.770218 249.637555 
L 565.227189 250.235639 
L 566.684161 250.833724 
L 568.141132 251.431809 
L 569.598103 252.029894 
L 571.055074 252.627979 
L 572.512046 253.226064 
L 573.969017 253.824149 
L 575.425988 254.422234 
L 576.882959 255.020318 
L 578.339931 255.618403 
L 579.796902 256.216488 
L 581.253873 256.814573 
L 582.710845 257.412658 
L 584.167816 258.010743 
L 585.624787 258.608828 
L 587.081758 259.206912 
L 588.53873 259.804997 
L 589.995701 260.403082 
L 591.452672 261.001167 
L 592.909643 261.599252 
L 594.366615 262.197337 
L 595.823586 262.795422 
L 597.280557 263.393507 
L 598.737528 263.991591 
" clip-path="url(#pd01c10bd27)" style="fill: none; stroke: #fd810a; stroke-opacity: 0.9; stroke-width: 1.5; stroke-linecap: square"/>
   </g>
   <g id="patch_6">
    <path d="M 344.670938 330.44 
L 344.670938 56.895 
" style="fill: none; stroke: #000000; stroke-width: 0.8; stroke-linejoin: miter; stroke-linecap: square"/>
   </g>
   <g id="patch_7">
    <path d="M 344.670938 330.44 
L 610.835938 330.44 
" style="fill: none; stroke: #000000; stroke-width: 0.8; stroke-linejoin: miter; stroke-linecap: square"/>
   </g>
   <g id="text_37">
    <!-- r=-0.17 ns -->
    <g style="fill: #808080" transform="translate(395.555406 60.589806) scale(0.09 -0.09)">
     <defs>
      <path id="Arial-BoldMT-37" d="M 272 3703 
L 272 4519 
L 3275 4519 
L 3275 3881 
Q 2903 3516 2518 2831 
Q 2134 2147 1932 1376 
Q 1731 606 1734 0 
L 888 0 
Q 909 950 1279 1937 
Q 1650 2925 2269 3703 
L 272 3703 
z
" transform="scale(0.015625)"/>
     </defs>
     <use xlink:href="#Arial-BoldMT-72"/>
     <use xlink:href="#Arial-BoldMT-3d" transform="translate(38.916016 0)"/>
     <use xlink:href="#Arial-BoldMT-2d" transform="translate(97.314453 0)"/>
     <use xlink:href="#Arial-BoldMT-30" transform="translate(130.615234 0)"/>
     <use xlink:href="#Arial-BoldMT-2e" transform="translate(186.230469 0)"/>
     <use xlink:href="#Arial-BoldMT-31" transform="translate(214.013672 0)"/>
     <use xlink:href="#Arial-BoldMT-37" transform="translate(269.628906 0)"/>
     <use xlink:href="#Arial-BoldMT-20" transform="translate(325.244141 0)"/>
     <use xlink:href="#Arial-BoldMT-6e" transform="translate(353.027344 0)"/>
     <use xlink:href="#Arial-BoldMT-73" transform="translate(414.111328 0)"/>
    </g>
   </g>
   <g id="text_38">
    <!-- r=-0.26 ns -->
    <g style="fill: #fd810a" transform="translate(517.678188 60.589806) scale(0.09 -0.09)">
     <defs>
      <path id="Arial-BoldMT-36" d="M 3247 3459 
L 2397 3366 
Q 2366 3628 2234 3753 
Q 2103 3878 1894 3878 
Q 1616 3878 1423 3628 
Q 1231 3378 1181 2588 
Q 1509 2975 1997 2975 
Q 2547 2975 2939 2556 
Q 3331 2138 3331 1475 
Q 3331 772 2918 347 
Q 2506 -78 1859 -78 
Q 1166 -78 719 461 
Q 272 1000 272 2228 
Q 272 3488 737 4044 
Q 1203 4600 1947 4600 
Q 2469 4600 2811 4308 
Q 3153 4016 3247 3459 
z
M 1256 1544 
Q 1256 1116 1453 883 
Q 1650 650 1903 650 
Q 2147 650 2309 840 
Q 2472 1031 2472 1466 
Q 2472 1913 2297 2120 
Q 2122 2328 1859 2328 
Q 1606 2328 1431 2129 
Q 1256 1931 1256 1544 
z
" transform="scale(0.015625)"/>
     </defs>
     <use xlink:href="#Arial-BoldMT-72"/>
     <use xlink:href="#Arial-BoldMT-3d" transform="translate(38.916016 0)"/>
     <use xlink:href="#Arial-BoldMT-2d" transform="translate(97.314453 0)"/>
     <use xlink:href="#Arial-BoldMT-30" transform="translate(130.615234 0)"/>
     <use xlink:href="#Arial-BoldMT-2e" transform="translate(186.230469 0)"/>
     <use xlink:href="#Arial-BoldMT-32" transform="translate(214.013672 0)"/>
     <use xlink:href="#Arial-BoldMT-36" transform="translate(269.628906 0)"/>
     <use xlink:href="#Arial-BoldMT-20" transform="translate(325.244141 0)"/>
     <use xlink:href="#Arial-BoldMT-6e" transform="translate(353.027344 0)"/>
     <use xlink:href="#Arial-BoldMT-73" transform="translate(414.111328 0)"/>
    </g>
   </g>
   <g id="text_39">
    <!-- Microglia -->
    <g transform="translate(455.806563 50.895) scale(0.1 -0.1)">
     <defs>
      <path id="Arial-BoldMT-69" d="M 459 3769 
L 459 4581 
L 1338 4581 
L 1338 3769 
L 459 3769 
z
M 459 0 
L 459 3319 
L 1338 3319 
L 1338 0 
L 459 0 
z
" transform="scale(0.015625)"/>
      <path id="Arial-BoldMT-6c" d="M 459 0 
L 459 4581 
L 1338 4581 
L 1338 0 
L 459 0 
z
" transform="scale(0.015625)"/>
     </defs>
     <use xlink:href="#Arial-BoldMT-4d"/>
     <use xlink:href="#Arial-BoldMT-69" transform="translate(83.300781 0)"/>
     <use xlink:href="#Arial-BoldMT-63" transform="translate(111.083984 0)"/>
     <use xlink:href="#Arial-BoldMT-72" transform="translate(166.699219 0)"/>
     <use xlink:href="#Arial-BoldMT-6f" transform="translate(205.615234 0)"/>
     <use xlink:href="#Arial-BoldMT-67" transform="translate(266.699219 0)"/>
     <use xlink:href="#Arial-BoldMT-6c" transform="translate(327.783203 0)"/>
     <use xlink:href="#Arial-BoldMT-69" transform="translate(355.566406 0)"/>
     <use xlink:href="#Arial-BoldMT-61" transform="translate(383.349609 0)"/>
    </g>
   </g>
  </g>
  <g id="axes_3">
   <g id="patch_8">
    <path d="M 655.605938 330.44 
L 921.770938 330.44 
L 921.770938 56.895 
L 655.605938 56.895 
z
" style="fill: #ffffff"/>
   </g>
   <g id="PathCollection_5">
    <defs>
     <path id="C4_0_3d14bc025a" d="M 0 3.535534 
C 0.937635 3.535534 1.836992 3.163008 2.5 2.5 
C 3.163008 1.836992 3.535534 0.937635 3.535534 -0 
C 3.535534 -0.937635 3.163008 -1.836992 2.5 -2.5 
C 1.836992 -3.163008 0.937635 -3.535534 0 -3.535534 
C -0.937635 -3.535534 -1.836992 -3.163008 -2.5 -2.5 
C -3.163008 -1.836992 -3.535534 -0.937635 -3.535534 0 
C -3.535534 0.937635 -3.163008 1.836992 -2.5 2.5 
C -1.836992 3.163008 -0.937635 3.535534 0 3.535534 
z
"/>
    </defs>
    <g clip-path="url(#p400fb3214f)">
     <use xlink:href="#C4_0_3d14bc025a" x="688.235309" y="265.653026" style="fill: #808080; fill-opacity: 0.8"/>
    </g>
    <g clip-path="url(#p400fb3214f)">
     <use xlink:href="#C4_0_3d14bc025a" x="688.235309" y="183.851292" style="fill: #808080; fill-opacity: 0.8"/>
    </g>
    <g clip-path="url(#p400fb3214f)">
     <use xlink:href="#C4_0_3d14bc025a" x="727.087388" y="308.189928" style="fill: #808080; fill-opacity: 0.8"/>
    </g>
    <g clip-path="url(#p400fb3214f)">
     <use xlink:href="#C4_0_3d14bc025a" x="727.087388" y="285.285443" style="fill: #808080; fill-opacity: 0.8"/>
    </g>
    <g clip-path="url(#p400fb3214f)">
     <use xlink:href="#C4_0_3d14bc025a" x="667.704347" y="295.101651" style="fill: #808080; fill-opacity: 0.8"/>
    </g>
    <g clip-path="url(#p400fb3214f)">
     <use xlink:href="#C4_0_3d14bc025a" x="667.704347" y="311.461998" style="fill: #808080; fill-opacity: 0.8"/>
    </g>
   </g>
   <g id="PathCollection_6">
    <defs>
     <path id="C5_0_58edae6dae" d="M 0 3.535534 
C 0.937635 3.535534 1.836992 3.163008 2.5 2.5 
C 3.163008 1.836992 3.535534 0.937635 3.535534 -0 
C 3.535534 -0.937635 3.163008 -1.836992 2.5 -2.5 
C 1.836992 -3.163008 0.937635 -3.535534 0 -3.535534 
C -0.937635 -3.535534 -1.836992 -3.163008 -2.5 -2.5 
C -3.163008 -1.836992 -3.535534 -0.937635 -3.535534 0 
C -3.535534 0.937635 -3.163008 1.836992 -2.5 2.5 
C -1.836992 3.163008 -0.937635 3.535534 0 3.535534 
z
"/>
    </defs>
    <g clip-path="url(#p400fb3214f)">
     <use xlink:href="#C5_0_58edae6dae" x="909.672528" y="210.027847" style="fill: #fd810a; fill-opacity: 0.8"/>
    </g>
    <g clip-path="url(#p400fb3214f)">
     <use xlink:href="#C5_0_58edae6dae" x="909.672528" y="219.844055" style="fill: #fd810a; fill-opacity: 0.8"/>
    </g>
    <g clip-path="url(#p400fb3214f)">
     <use xlink:href="#C5_0_58edae6dae" x="737.473672" y="69.328864" style="fill: #fd810a; fill-opacity: 0.8"/>
    </g>
    <g clip-path="url(#p400fb3214f)">
     <use xlink:href="#C5_0_58edae6dae" x="737.473672" y="88.96128" style="fill: #fd810a; fill-opacity: 0.8"/>
    </g>
    <g clip-path="url(#p400fb3214f)">
     <use xlink:href="#C5_0_58edae6dae" x="766.848814" y="318.006136" style="fill: #fd810a; fill-opacity: 0.8"/>
    </g>
    <g clip-path="url(#p400fb3214f)">
     <use xlink:href="#C5_0_58edae6dae" x="766.848814" y="226.388194" style="fill: #fd810a; fill-opacity: 0.8"/>
    </g>
   </g>
   <g id="matplotlib.axis_5">
    <g id="xtick_15">
     <g id="line2d_34">
      <g>
       <use xlink:href="#ma8e843b99b" x="668.204433" y="330.44" style="stroke: #000000; stroke-width: 0.8"/>
      </g>
     </g>
     <g id="text_40">
      <!-- 25 -->
      <g transform="translate(663.114433 343.51875) scale(0.08 -0.08)">
       <use xlink:href="#DejaVuSans-32"/>
       <use xlink:href="#DejaVuSans-35" transform="translate(63.623047 0)"/>
      </g>
     </g>
    </g>
    <g id="xtick_16">
     <g id="line2d_35">
      <g>
       <use xlink:href="#ma8e843b99b" x="702.503878" y="330.44" style="stroke: #000000; stroke-width: 0.8"/>
      </g>
     </g>
     <g id="text_41">
      <!-- 50 -->
      <g transform="translate(697.413878 343.51875) scale(0.08 -0.08)">
       <use xlink:href="#DejaVuSans-35"/>
       <use xlink:href="#DejaVuSans-30" transform="translate(63.623047 0)"/>
      </g>
     </g>
    </g>
    <g id="xtick_17">
     <g id="line2d_36">
      <g>
       <use xlink:href="#ma8e843b99b" x="736.803323" y="330.44" style="stroke: #000000; stroke-width: 0.8"/>
      </g>
     </g>
     <g id="text_42">
      <!-- 75 -->
      <g transform="translate(731.713323 343.51875) scale(0.08 -0.08)">
       <use xlink:href="#DejaVuSans-37"/>
       <use xlink:href="#DejaVuSans-35" transform="translate(63.623047 0)"/>
      </g>
     </g>
    </g>
    <g id="xtick_18">
     <g id="line2d_37">
      <g>
       <use xlink:href="#ma8e843b99b" x="771.102769" y="330.44" style="stroke: #000000; stroke-width: 0.8"/>
      </g>
     </g>
     <g id="text_43">
      <!-- 100 -->
      <g transform="translate(763.467769 343.51875) scale(0.08 -0.08)">
       <use xlink:href="#DejaVuSans-31"/>
       <use xlink:href="#DejaVuSans-30" transform="translate(63.623047 0)"/>
       <use xlink:href="#DejaVuSans-30" transform="translate(127.246094 0)"/>
      </g>
     </g>
    </g>
    <g id="xtick_19">
     <g id="line2d_38">
      <g>
       <use xlink:href="#ma8e843b99b" x="805.402214" y="330.44" style="stroke: #000000; stroke-width: 0.8"/>
      </g>
     </g>
     <g id="text_44">
      <!-- 125 -->
      <g transform="translate(797.767214 343.51875) scale(0.08 -0.08)">
       <use xlink:href="#DejaVuSans-31"/>
       <use xlink:href="#DejaVuSans-32" transform="translate(63.623047 0)"/>
       <use xlink:href="#DejaVuSans-35" transform="translate(127.246094 0)"/>
      </g>
     </g>
    </g>
    <g id="xtick_20">
     <g id="line2d_39">
      <g>
       <use xlink:href="#ma8e843b99b" x="839.70166" y="330.44" style="stroke: #000000; stroke-width: 0.8"/>
      </g>
     </g>
     <g id="text_45">
      <!-- 150 -->
      <g transform="translate(832.06666 343.51875) scale(0.08 -0.08)">
       <use xlink:href="#DejaVuSans-31"/>
       <use xlink:href="#DejaVuSans-35" transform="translate(63.623047 0)"/>
       <use xlink:href="#DejaVuSans-30" transform="translate(127.246094 0)"/>
      </g>
     </g>
    </g>
    <g id="xtick_21">
     <g id="line2d_40">
      <g>
       <use xlink:href="#ma8e843b99b" x="874.001105" y="330.44" style="stroke: #000000; stroke-width: 0.8"/>
      </g>
     </g>
     <g id="text_46">
      <!-- 175 -->
      <g transform="translate(866.366105 343.51875) scale(0.08 -0.08)">
       <use xlink:href="#DejaVuSans-31"/>
       <use xlink:href="#DejaVuSans-37" transform="translate(63.623047 0)"/>
       <use xlink:href="#DejaVuSans-35" transform="translate(127.246094 0)"/>
      </g>
     </g>
    </g>
    <g id="xtick_22">
     <g id="line2d_41">
      <g>
       <use xlink:href="#ma8e843b99b" x="908.300551" y="330.44" style="stroke: #000000; stroke-width: 0.8"/>
      </g>
     </g>
     <g id="text_47">
      <!-- 200 -->
      <g transform="translate(900.665551 343.51875) scale(0.08 -0.08)">
       <use xlink:href="#DejaVuSans-32"/>
       <use xlink:href="#DejaVuSans-30" transform="translate(63.623047 0)"/>
       <use xlink:href="#DejaVuSans-30" transform="translate(127.246094 0)"/>
      </g>
     </g>
    </g>
    <g id="text_48">
     <!-- Fungal Volume (mm³) -->
     <g transform="translate(745.428672 357.734219) scale(0.09 -0.09)">
      <use xlink:href="#ArialMT-46"/>
      <use xlink:href="#ArialMT-75" transform="translate(61.083984 0)"/>
      <use xlink:href="#ArialMT-6e" transform="translate(116.699219 0)"/>
      <use xlink:href="#ArialMT-67" transform="translate(172.314453 0)"/>
      <use xlink:href="#ArialMT-61" transform="translate(227.929688 0)"/>
      <use xlink:href="#ArialMT-6c" transform="translate(283.544922 0)"/>
      <use xlink:href="#ArialMT-20" transform="translate(305.761719 0)"/>
      <use xlink:href="#ArialMT-56" transform="translate(333.544922 0)"/>
      <use xlink:href="#ArialMT-6f" transform="translate(394.744141 0)"/>
      <use xlink:href="#ArialMT-6c" transform="translate(450.359375 0)"/>
      <use xlink:href="#ArialMT-75" transform="translate(472.576172 0)"/>
      <use xlink:href="#ArialMT-6d" transform="translate(528.191406 0)"/>
      <use xlink:href="#ArialMT-65" transform="translate(611.492188 0)"/>
      <use xlink:href="#ArialMT-20" transform="translate(667.107422 0)"/>
      <use xlink:href="#ArialMT-28" transform="translate(694.890625 0)"/>
      <use xlink:href="#ArialMT-6d" transform="translate(728.191406 0)"/>
      <use xlink:href="#ArialMT-6d" transform="translate(811.492188 0)"/>
      <use xlink:href="#ArialMT-b3" transform="translate(894.792969 0)"/>
      <use xlink:href="#ArialMT-29" transform="translate(928.09375 0)"/>
     </g>
    </g>
   </g>
   <g id="matplotlib.axis_6">
    <g id="ytick_16">
     <g id="line2d_42">
      <g>
       <use xlink:href="#mb175158291" x="655.605938" y="318.006136" style="stroke: #000000; stroke-width: 0.8"/>
      </g>
     </g>
     <g id="text_49">
      <!-- 0.0 -->
      <g transform="translate(635.883438 321.045511) scale(0.08 -0.08)">
       <use xlink:href="#DejaVuSans-30"/>
       <use xlink:href="#DejaVuSans-2e" transform="translate(63.623047 0)"/>
       <use xlink:href="#DejaVuSans-30" transform="translate(95.410156 0)"/>
      </g>
     </g>
    </g>
    <g id="ytick_17">
     <g id="line2d_43">
      <g>
       <use xlink:href="#mb175158291" x="655.605938" y="266.608471" style="stroke: #000000; stroke-width: 0.8"/>
      </g>
     </g>
     <g id="text_50">
      <!-- 0.5 -->
      <g transform="translate(635.883438 269.647846) scale(0.08 -0.08)">
       <use xlink:href="#DejaVuSans-30"/>
       <use xlink:href="#DejaVuSans-2e" transform="translate(63.623047 0)"/>
       <use xlink:href="#DejaVuSans-35" transform="translate(95.410156 0)"/>
      </g>
     </g>
    </g>
    <g id="ytick_18">
     <g id="line2d_44">
      <g>
       <use xlink:href="#mb175158291" x="655.605938" y="215.210805" style="stroke: #000000; stroke-width: 0.8"/>
      </g>
     </g>
     <g id="text_51">
      <!-- 1.0 -->
      <g transform="translate(635.883438 218.25018) scale(0.08 -0.08)">
       <use xlink:href="#DejaVuSans-31"/>
       <use xlink:href="#DejaVuSans-2e" transform="translate(63.623047 0)"/>
       <use xlink:href="#DejaVuSans-30" transform="translate(95.410156 0)"/>
      </g>
     </g>
    </g>
    <g id="ytick_19">
     <g id="line2d_45">
      <g>
       <use xlink:href="#mb175158291" x="655.605938" y="163.813139" style="stroke: #000000; stroke-width: 0.8"/>
      </g>
     </g>
     <g id="text_52">
      <!-- 1.5 -->
      <g transform="translate(635.883438 166.852514) scale(0.08 -0.08)">
       <use xlink:href="#DejaVuSans-31"/>
       <use xlink:href="#DejaVuSans-2e" transform="translate(63.623047 0)"/>
       <use xlink:href="#DejaVuSans-35" transform="translate(95.410156 0)"/>
      </g>
     </g>
    </g>
    <g id="ytick_20">
     <g id="line2d_46">
      <g>
       <use xlink:href="#mb175158291" x="655.605938" y="112.415473" style="stroke: #000000; stroke-width: 0.8"/>
      </g>
     </g>
     <g id="text_53">
      <!-- 2.0 -->
      <g transform="translate(635.883438 115.454848) scale(0.08 -0.08)">
       <use xlink:href="#DejaVuSans-32"/>
       <use xlink:href="#DejaVuSans-2e" transform="translate(63.623047 0)"/>
       <use xlink:href="#DejaVuSans-30" transform="translate(95.410156 0)"/>
      </g>
     </g>
    </g>
    <g id="ytick_21">
     <g id="line2d_47">
      <g>
       <use xlink:href="#mb175158291" x="655.605938" y="61.017807" style="stroke: #000000; stroke-width: 0.8"/>
      </g>
     </g>
     <g id="text_54">
      <!-- 2.5 -->
      <g transform="translate(635.883438 64.057182) scale(0.08 -0.08)">
       <use xlink:href="#DejaVuSans-32"/>
       <use xlink:href="#DejaVuSans-2e" transform="translate(63.623047 0)"/>
       <use xlink:href="#DejaVuSans-35" transform="translate(95.410156 0)"/>
      </g>
     </g>
    </g>
    <g id="text_55">
     <!-- Cell Density (1000 cells/100 μm circle) -->
     <g transform="translate(627.989219 270.282812) rotate(-90) scale(0.09 -0.09)">
      <use xlink:href="#ArialMT-43"/>
      <use xlink:href="#ArialMT-65" transform="translate(72.216797 0)"/>
      <use xlink:href="#ArialMT-6c" transform="translate(127.832031 0)"/>
      <use xlink:href="#ArialMT-6c" transform="translate(150.048828 0)"/>
      <use xlink:href="#ArialMT-20" transform="translate(172.265625 0)"/>
      <use xlink:href="#ArialMT-44" transform="translate(200.048828 0)"/>
      <use xlink:href="#ArialMT-65" transform="translate(272.265625 0)"/>
      <use xlink:href="#ArialMT-6e" transform="translate(327.880859 0)"/>
      <use xlink:href="#ArialMT-73" transform="translate(383.496094 0)"/>
      <use xlink:href="#ArialMT-69" transform="translate(433.496094 0)"/>
      <use xlink:href="#ArialMT-74" transform="translate(455.712891 0)"/>
      <use xlink:href="#ArialMT-79" transform="translate(483.496094 0)"/>
      <use xlink:href="#ArialMT-20" transform="translate(533.496094 0)"/>
      <use xlink:href="#ArialMT-28" transform="translate(561.279297 0)"/>
      <use xlink:href="#ArialMT-31" transform="translate(594.580078 0)"/>
      <use xlink:href="#ArialMT-30" transform="translate(650.195312 0)"/>
      <use xlink:href="#ArialMT-30" transform="translate(705.810547 0)"/>
      <use xlink:href="#ArialMT-30" transform="translate(761.425781 0)"/>
      <use xlink:href="#ArialMT-20" transform="translate(817.041016 0)"/>
      <use xlink:href="#ArialMT-63" transform="translate(844.824219 0)"/>
      <use xlink:href="#ArialMT-65" transform="translate(894.824219 0)"/>
      <use xlink:href="#ArialMT-6c" transform="translate(950.439453 0)"/>
      <use xlink:href="#ArialMT-6c" transform="translate(972.65625 0)"/>
      <use xlink:href="#ArialMT-73" transform="translate(994.873047 0)"/>
      <use xlink:href="#ArialMT-2f" transform="translate(1044.873047 0)"/>
      <use xlink:href="#ArialMT-31" transform="translate(1072.65625 0)"/>
      <use xlink:href="#ArialMT-30" transform="translate(1128.271484 0)"/>
      <use xlink:href="#ArialMT-30" transform="translate(1183.886719 0)"/>
      <use xlink:href="#ArialMT-20" transform="translate(1239.501953 0)"/>
      <use xlink:href="#ArialMT-3bc" transform="translate(1267.285156 0)"/>
      <use xlink:href="#ArialMT-6d" transform="translate(1324.902344 0)"/>
      <use xlink:href="#ArialMT-20" transform="translate(1408.203125 0)"/>
      <use xlink:href="#ArialMT-63" transform="translate(1435.986328 0)"/>
      <use xlink:href="#ArialMT-69" transform="translate(1485.986328 0)"/>
      <use xlink:href="#ArialMT-72" transform="translate(1508.203125 0)"/>
      <use xlink:href="#ArialMT-63" transform="translate(1541.503906 0)"/>
      <use xlink:href="#ArialMT-6c" transform="translate(1591.503906 0)"/>
      <use xlink:href="#ArialMT-65" transform="translate(1613.720703 0)"/>
      <use xlink:href="#ArialMT-29" transform="translate(1669.335938 0)"/>
     </g>
    </g>
   </g>
   <g id="line2d_48">
    <path d="M 667.704347 271.039067 
L 668.304175 271.126544 
L 668.904004 271.214022 
L 669.503833 271.3015 
L 670.103661 271.388977 
L 670.70349 271.476455 
L 671.303319 271.563932 
L 671.903148 271.65141 
L 672.502976 271.738888 
L 673.102805 271.826365 
L 673.702634 271.913843 
L 674.302462 272.00132 
L 674.902291 272.088798 
L 675.50212 272.176276 
L 676.101948 272.263753 
L 676.701777 272.351231 
L 677.301606 272.438708 
L 677.901435 272.526186 
L 678.501263 272.613663 
L 679.101092 272.701141 
L 679.700921 272.788619 
L 680.300749 272.876096 
L 680.900578 272.963574 
L 681.500407 273.051051 
L 682.100235 273.138529 
L 682.700064 273.226007 
L 683.299893 273.313484 
L 683.899722 273.400962 
L 684.49955 273.488439 
L 685.099379 273.575917 
L 685.699208 273.663395 
L 686.299036 273.750872 
L 686.898865 273.83835 
L 687.498694 273.925827 
L 688.098522 274.013305 
L 688.698351 274.100783 
L 689.29818 274.18826 
L 689.898009 274.275738 
L 690.497837 274.363215 
L 691.097666 274.450693 
L 691.697495 274.53817 
L 692.297323 274.625648 
L 692.897152 274.713126 
L 693.496981 274.800603 
L 694.096809 274.888081 
L 694.696638 274.975558 
L 695.296467 275.063036 
L 695.896296 275.150514 
L 696.496124 275.237991 
L 697.095953 275.325469 
L 697.695782 275.412946 
L 698.29561 275.500424 
L 698.895439 275.587902 
L 699.495268 275.675379 
L 700.095096 275.762857 
L 700.694925 275.850334 
L 701.294754 275.937812 
L 701.894583 276.02529 
L 702.494411 276.112767 
L 703.09424 276.200245 
L 703.694069 276.287722 
L 704.293897 276.3752 
L 704.893726 276.462677 
L 705.493555 276.550155 
L 706.093384 276.637633 
L 706.693212 276.72511 
L 707.293041 276.812588 
L 707.89287 276.900065 
L 708.492698 276.987543 
L 709.092527 277.075021 
L 709.692356 277.162498 
L 710.292184 277.249976 
L 710.892013 277.337453 
L 711.491842 277.424931 
L 712.091671 277.512409 
L 712.691499 277.599886 
L 713.291328 277.687364 
L 713.891157 277.774841 
L 714.490985 277.862319 
L 715.090814 277.949796 
L 715.690643 278.037274 
L 716.290471 278.124752 
L 716.8903 278.212229 
L 717.490129 278.299707 
L 718.089958 278.387184 
L 718.689786 278.474662 
L 719.289615 278.56214 
L 719.889444 278.649617 
L 720.489272 278.737095 
L 721.089101 278.824572 
L 721.68893 278.91205 
L 722.288758 278.999528 
L 722.888587 279.087005 
L 723.488416 279.174483 
L 724.088245 279.26196 
L 724.688073 279.349438 
L 725.287902 279.436916 
L 725.887731 279.524393 
L 726.487559 279.611871 
L 727.087388 279.699348 
" clip-path="url(#p400fb3214f)" style="fill: none; stroke: #808080; stroke-opacity: 0.9; stroke-width: 1.5; stroke-linecap: square"/>
   </g>
   <g id="line2d_49">
    <path d="M 737.473672 161.20965 
L 739.213054 161.92283 
L 740.952437 162.636011 
L 742.691819 163.349191 
L 744.431201 164.062372 
L 746.170584 164.775552 
L 747.909966 165.488732 
L 749.649348 166.201913 
L 751.388731 166.915093 
L 753.128113 167.628274 
L 754.867496 168.341454 
L 756.606878 169.054635 
L 758.34626 169.767815 
L 760.085643 170.480995 
L 761.825025 171.194176 
L 763.564408 171.907356 
L 765.30379 172.620537 
L 767.043172 173.333717 
L 768.782555 174.046897 
L 770.521937 174.760078 
L 772.26132 175.473258 
L 774.000702 176.186439 
L 775.740084 176.899619 
L 777.479467 177.6128 
L 779.218849 178.32598 
L 780.958232 179.03916 
L 782.697614 179.752341 
L 784.436996 180.465521 
L 786.176379 181.178702 
L 787.915761 181.891882 
L 789.655143 182.605062 
L 791.394526 183.318243 
L 793.133908 184.031423 
L 794.873291 184.744604 
L 796.612673 185.457784 
L 798.352055 186.170965 
L 800.091438 186.884145 
L 801.83082 187.597325 
L 803.570203 188.310506 
L 805.309585 189.023686 
L 807.048967 189.736867 
L 808.78835 190.450047 
L 810.527732 191.163228 
L 812.267115 191.876408 
L 814.006497 192.589588 
L 815.745879 193.302769 
L 817.485262 194.015949 
L 819.224644 194.72913 
L 820.964026 195.44231 
L 822.703409 196.15549 
L 824.442791 196.868671 
L 826.182174 197.581851 
L 827.921556 198.295032 
L 829.660938 199.008212 
L 831.400321 199.721393 
L 833.139703 200.434573 
L 834.879086 201.147753 
L 836.618468 201.860934 
L 838.35785 202.574114 
L 840.097233 203.287295 
L 841.836615 204.000475 
L 843.575998 204.713655 
L 845.31538 205.426836 
L 847.054762 206.140016 
L 848.794145 206.853197 
L 850.533527 207.566377 
L 852.27291 208.279558 
L 854.012292 208.992738 
L 855.751674 209.705918 
L 857.491057 210.419099 
L 859.230439 211.132279 
L 860.969821 211.84546 
L 862.709204 212.55864 
L 864.448586 213.271821 
L 866.187969 213.985001 
L 867.927351 214.698181 
L 869.666733 215.411362 
L 871.406116 216.124542 
L 873.145498 216.837723 
L 874.884881 217.550903 
L 876.624263 218.264083 
L 878.363645 218.977264 
L 880.103028 219.690444 
L 881.84241 220.403625 
L 883.581793 221.116805 
L 885.321175 221.829986 
L 887.060557 222.543166 
L 888.79994 223.256346 
L 890.539322 223.969527 
L 892.278705 224.682707 
L 894.018087 225.395888 
L 895.757469 226.109068 
L 897.496852 226.822248 
L 899.236234 227.535429 
L 900.975616 228.248609 
L 902.714999 228.96179 
L 904.454381 229.67497 
L 906.193764 230.388151 
L 907.933146 231.101331 
L 909.672528 231.814511 
" clip-path="url(#p400fb3214f)" style="fill: none; stroke: #fd810a; stroke-opacity: 0.9; stroke-width: 1.5; stroke-linecap: square"/>
   </g>
   <g id="patch_9">
    <path d="M 655.605938 330.44 
L 655.605938 56.895 
" style="fill: none; stroke: #000000; stroke-width: 0.8; stroke-linejoin: miter; stroke-linecap: square"/>
   </g>
   <g id="patch_10">
    <path d="M 655.605938 330.44 
L 921.770937 330.44 
" style="fill: none; stroke: #000000; stroke-width: 0.8; stroke-linejoin: miter; stroke-linecap: square"/>
   </g>
   <g id="text_56">
    <!-- r=-0.08 ns -->
    <g style="fill: #808080" transform="translate(706.490406 60.589806) scale(0.09 -0.09)">
     <defs>
      <path id="Arial-BoldMT-38" d="M 1025 2472 
Q 684 2616 529 2867 
Q 375 3119 375 3419 
Q 375 3931 733 4265 
Q 1091 4600 1750 4600 
Q 2403 4600 2764 4265 
Q 3125 3931 3125 3419 
Q 3125 3100 2959 2851 
Q 2794 2603 2494 2472 
Q 2875 2319 3073 2025 
Q 3272 1731 3272 1347 
Q 3272 713 2867 316 
Q 2463 -81 1791 -81 
Q 1166 -81 750 247 
Q 259 634 259 1309 
Q 259 1681 443 1992 
Q 628 2303 1025 2472 
z
M 1206 3356 
Q 1206 3094 1354 2947 
Q 1503 2800 1750 2800 
Q 2000 2800 2150 2948 
Q 2300 3097 2300 3359 
Q 2300 3606 2151 3754 
Q 2003 3903 1759 3903 
Q 1506 3903 1356 3753 
Q 1206 3603 1206 3356 
z
M 1125 1394 
Q 1125 1031 1311 828 
Q 1497 625 1775 625 
Q 2047 625 2225 820 
Q 2403 1016 2403 1384 
Q 2403 1706 2222 1901 
Q 2041 2097 1763 2097 
Q 1441 2097 1283 1875 
Q 1125 1653 1125 1394 
z
" transform="scale(0.015625)"/>
     </defs>
     <use xlink:href="#Arial-BoldMT-72"/>
     <use xlink:href="#Arial-BoldMT-3d" transform="translate(38.916016 0)"/>
     <use xlink:href="#Arial-BoldMT-2d" transform="translate(97.314453 0)"/>
     <use xlink:href="#Arial-BoldMT-30" transform="translate(130.615234 0)"/>
     <use xlink:href="#Arial-BoldMT-2e" transform="translate(186.230469 0)"/>
     <use xlink:href="#Arial-BoldMT-30" transform="translate(214.013672 0)"/>
     <use xlink:href="#Arial-BoldMT-38" transform="translate(269.628906 0)"/>
     <use xlink:href="#Arial-BoldMT-20" transform="translate(325.244141 0)"/>
     <use xlink:href="#Arial-BoldMT-6e" transform="translate(353.027344 0)"/>
     <use xlink:href="#Arial-BoldMT-73" transform="translate(414.111328 0)"/>
    </g>
   </g>
   <g id="text_57">
    <!-- r=-0.36 ns -->
    <g style="fill: #fd810a" transform="translate(828.613188 60.589806) scale(0.09 -0.09)">
     <defs>
      <path id="Arial-BoldMT-33" d="M 241 1216 
L 1091 1319 
Q 1131 994 1309 822 
Q 1488 650 1741 650 
Q 2013 650 2198 856 
Q 2384 1063 2384 1413 
Q 2384 1744 2206 1937 
Q 2028 2131 1772 2131 
Q 1603 2131 1369 2066 
L 1466 2781 
Q 1822 2772 2009 2936 
Q 2197 3100 2197 3372 
Q 2197 3603 2059 3740 
Q 1922 3878 1694 3878 
Q 1469 3878 1309 3722 
Q 1150 3566 1116 3266 
L 306 3403 
Q 391 3819 561 4067 
Q 731 4316 1036 4458 
Q 1341 4600 1719 4600 
Q 2366 4600 2756 4188 
Q 3078 3850 3078 3425 
Q 3078 2822 2419 2463 
Q 2813 2378 3048 2084 
Q 3284 1791 3284 1375 
Q 3284 772 2843 347 
Q 2403 -78 1747 -78 
Q 1125 -78 715 280 
Q 306 638 241 1216 
z
" transform="scale(0.015625)"/>
     </defs>
     <use xlink:href="#Arial-BoldMT-72"/>
     <use xlink:href="#Arial-BoldMT-3d" transform="translate(38.916016 0)"/>
     <use xlink:href="#Arial-BoldMT-2d" transform="translate(97.314453 0)"/>
     <use xlink:href="#Arial-BoldMT-30" transform="translate(130.615234 0)"/>
     <use xlink:href="#Arial-BoldMT-2e" transform="translate(186.230469 0)"/>
     <use xlink:href="#Arial-BoldMT-33" transform="translate(214.013672 0)"/>
     <use xlink:href="#Arial-BoldMT-36" transform="translate(269.628906 0)"/>
     <use xlink:href="#Arial-BoldMT-20" transform="translate(325.244141 0)"/>
     <use xlink:href="#Arial-BoldMT-6e" transform="translate(353.027344 0)"/>
     <use xlink:href="#Arial-BoldMT-73" transform="translate(414.111328 0)"/>
    </g>
   </g>
   <g id="text_58">
    <!-- Neutrophils -->
    <g transform="translate(760.911875 50.895) scale(0.1 -0.1)">
     <defs>
      <path id="Arial-BoldMT-4e" d="M 475 0 
L 475 4581 
L 1375 4581 
L 3250 1522 
L 3250 4581 
L 4109 4581 
L 4109 0 
L 3181 0 
L 1334 2988 
L 1334 0 
L 475 0 
z
" transform="scale(0.015625)"/>
      <path id="Arial-BoldMT-75" d="M 2644 0 
L 2644 497 
Q 2463 231 2167 78 
Q 1872 -75 1544 -75 
Q 1209 -75 943 72 
Q 678 219 559 484 
Q 441 750 441 1219 
L 441 3319 
L 1319 3319 
L 1319 1794 
Q 1319 1094 1367 936 
Q 1416 778 1544 686 
Q 1672 594 1869 594 
Q 2094 594 2272 717 
Q 2450 841 2515 1023 
Q 2581 1206 2581 1919 
L 2581 3319 
L 3459 3319 
L 3459 0 
L 2644 0 
z
" transform="scale(0.015625)"/>
      <path id="Arial-BoldMT-74" d="M 1981 3319 
L 1981 2619 
L 1381 2619 
L 1381 1281 
Q 1381 875 1398 808 
Q 1416 741 1477 697 
Q 1538 653 1625 653 
Q 1747 653 1978 738 
L 2053 56 
Q 1747 -75 1359 -75 
Q 1122 -75 931 4 
Q 741 84 652 211 
Q 563 338 528 553 
Q 500 706 500 1172 
L 500 2619 
L 97 2619 
L 97 3319 
L 500 3319 
L 500 3978 
L 1381 4491 
L 1381 3319 
L 1981 3319 
z
" transform="scale(0.015625)"/>
     </defs>
     <use xlink:href="#Arial-BoldMT-4e"/>
     <use xlink:href="#Arial-BoldMT-65" transform="translate(72.216797 0)"/>
     <use xlink:href="#Arial-BoldMT-75" transform="translate(127.832031 0)"/>
     <use xlink:href="#Arial-BoldMT-74" transform="translate(188.916016 0)"/>
     <use xlink:href="#Arial-BoldMT-72" transform="translate(222.216797 0)"/>
     <use xlink:href="#Arial-BoldMT-6f" transform="translate(261.132812 0)"/>
     <use xlink:href="#Arial-BoldMT-70" transform="translate(322.216797 0)"/>
     <use xlink:href="#Arial-BoldMT-68" transform="translate(383.300781 0)"/>
     <use xlink:href="#Arial-BoldMT-69" transform="translate(444.384766 0)"/>
     <use xlink:href="#Arial-BoldMT-6c" transform="translate(472.167969 0)"/>
     <use xlink:href="#Arial-BoldMT-73" transform="translate(499.951172 0)"/>
    </g>
   </g>
  </g>
  <g id="text_59">
   <!-- Hypothalamus — Inner -->
   <g transform="translate(399.230937 15.789375) scale(0.12 -0.12)">
    <defs>
     <path id="Arial-BoldMT-48" d="M 469 0 
L 469 4581 
L 1394 4581 
L 1394 2778 
L 3206 2778 
L 3206 4581 
L 4131 4581 
L 4131 0 
L 3206 0 
L 3206 2003 
L 1394 2003 
L 1394 0 
L 469 0 
z
" transform="scale(0.015625)"/>
     <path id="Arial-BoldMT-79" d="M 44 3319 
L 978 3319 
L 1772 963 
L 2547 3319 
L 3456 3319 
L 2284 125 
L 2075 -453 
Q 1959 -744 1854 -897 
Q 1750 -1050 1614 -1145 
Q 1478 -1241 1279 -1294 
Q 1081 -1347 831 -1347 
Q 578 -1347 334 -1294 
L 256 -606 
Q 463 -647 628 -647 
Q 934 -647 1081 -467 
Q 1228 -288 1306 -9 
L 44 3319 
z
" transform="scale(0.015625)"/>
     <path id="Arial-BoldMT-6d" d="M 394 3319 
L 1203 3319 
L 1203 2866 
Q 1638 3394 2238 3394 
Q 2556 3394 2790 3262 
Q 3025 3131 3175 2866 
Q 3394 3131 3647 3262 
Q 3900 3394 4188 3394 
Q 4553 3394 4806 3245 
Q 5059 3097 5184 2809 
Q 5275 2597 5275 2122 
L 5275 0 
L 4397 0 
L 4397 1897 
Q 4397 2391 4306 2534 
Q 4184 2722 3931 2722 
Q 3747 2722 3584 2609 
Q 3422 2497 3350 2280 
Q 3278 2063 3278 1594 
L 3278 0 
L 2400 0 
L 2400 1819 
Q 2400 2303 2353 2443 
Q 2306 2584 2207 2653 
Q 2109 2722 1941 2722 
Q 1738 2722 1575 2612 
Q 1413 2503 1342 2297 
Q 1272 2091 1272 1613 
L 1272 0 
L 394 0 
L 394 3319 
z
" transform="scale(0.015625)"/>
     <path id="Arial-BoldMT-2014" d="M 0 1331 
L 0 1988 
L 6400 1988 
L 6400 1331 
L 0 1331 
z
" transform="scale(0.015625)"/>
     <path id="Arial-BoldMT-49" d="M 438 0 
L 438 4581 
L 1363 4581 
L 1363 0 
L 438 0 
z
" transform="scale(0.015625)"/>
    </defs>
    <use xlink:href="#Arial-BoldMT-48"/>
    <use xlink:href="#Arial-BoldMT-79" transform="translate(72.216797 0)"/>
    <use xlink:href="#Arial-BoldMT-70" transform="translate(127.832031 0)"/>
    <use xlink:href="#Arial-BoldMT-6f" transform="translate(188.916016 0)"/>
    <use xlink:href="#Arial-BoldMT-74" transform="translate(250 0)"/>
    <use xlink:href="#Arial-BoldMT-68" transform="translate(283.300781 0)"/>
    <use xlink:href="#Arial-BoldMT-61" transform="translate(344.384766 0)"/>
    <use xlink:href="#Arial-BoldMT-6c" transform="translate(400 0)"/>
    <use xlink:href="#Arial-BoldMT-61" transform="translate(427.783203 0)"/>
    <use xlink:href="#Arial-BoldMT-6d" transform="translate(483.398438 0)"/>
    <use xlink:href="#Arial-BoldMT-75" transform="translate(572.314453 0)"/>
    <use xlink:href="#Arial-BoldMT-73" transform="translate(633.398438 0)"/>
    <use xlink:href="#Arial-BoldMT-20" transform="translate(689.013672 0)"/>
    <use xlink:href="#Arial-BoldMT-2014" transform="translate(716.796875 0)"/>
    <use xlink:href="#Arial-BoldMT-20" transform="translate(816.796875 0)"/>
    <use xlink:href="#Arial-BoldMT-49" transform="translate(844.580078 0)"/>
    <use xlink:href="#Arial-BoldMT-6e" transform="translate(872.363281 0)"/>
    <use xlink:href="#Arial-BoldMT-6e" transform="translate(933.447266 0)"/>
    <use xlink:href="#Arial-BoldMT-65" transform="translate(994.53125 0)"/>
    <use xlink:href="#Arial-BoldMT-72" transform="translate(1050.146484 0)"/>
   </g>
  </g>
 </g>
 <defs>
  <clipPath id="p33c0d11628">
   <rect x="33.735938" y="56.895" width="266.165" height="273.545"/>
  </clipPath>
  <clipPath id="pd01c10bd27">
   <rect x="344.670938" y="56.895" width="266.165" height="273.545"/>
  </clipPath>
  <clipPath id="p400fb3214f">
   <rect x="655.605938" y="56.895" width="266.165" height="273.545"/>
  </clipPath>
 </defs>
</svg>
