<?xml version="1.0" encoding="utf-8" standalone="no"?>
<!DOCTYPE svg PUBLIC "-//W3C//DTD SVG 1.1//EN"
  "http://www.w3.org/Graphics/SVG/1.1/DTD/svg11.dtd">
<svg xmlns:xlink="http://www.w3.org/1999/xlink" width="928.998437pt" height="366.828437pt" viewBox="0 0 928.998437 366.828437" xmlns="http://www.w3.org/2000/svg" version="1.1">
 <metadata>
  <rdf:RDF xmlns:dc="http://purl.org/dc/elements/1.1/" xmlns:cc="http://creativecommons.org/ns#" xmlns:rdf="http://www.w3.org/1999/02/22-rdf-syntax-ns#">
   <cc:Work>
    <dc:type rdf:resource="http://purl.org/dc/dcmitype/StillImage"/>
    <dc:date>2026-05-13T12:04:58.897674</dc:date>
    <dc:format>image/svg+xml</dc:format>
    <dc:creator>
     <cc:Agent>
      <dc:title>Matplotlib v3.10.0, https://matplotlib.org/</dc:title>
     </cc:Agent>
    </dc:creator>
   </cc:Work>
  </rdf:RDF>
 </metadata>
 <defs>
  <style type="text/css">*{stroke-linejoin: round; stroke-linecap: butt}</style>
 </defs>
 <g id="figure_1">
  <g id="patch_1">
   <path d="M 0 366.828437 
L 928.998437 366.828437 
L 928.998437 0 
L 0 0 
z
" style="fill: #ffffff"/>
  </g>
  <g id="axes_1">
   <g id="patch_2">
    <path d="M 41.368438 330.44 
L 304.998438 330.44 
L 304.998438 56.821875 
L 41.368438 56.821875 
z
" style="fill: #ffffff"/>
   </g>
   <g id="PathCollection_1">
    <defs>
     <path id="C0_0_2282b23886" d="M 0 3.535534 
C 0.937635 3.535534 1.836992 3.163008 2.5 2.5 
C 3.163008 1.836992 3.535534 0.937635 3.535534 -0 
C 3.535534 -0.937635 3.163008 -1.836992 2.5 -2.5 
C 1.836992 -3.163008 0.937635 -3.535534 0 -3.535534 
C -0.937635 -3.535534 -1.836992 -3.163008 -2.5 -2.5 
C -3.163008 -1.836992 -3.535534 -0.937635 -3.535534 0 
C -3.535534 0.937635 -3.163008 1.836992 -2.5 2.5 
C -1.836992 3.163008 -0.937635 3.535534 0 3.535534 
z
"/>
    </defs>
    <g clip-path="url(#p9e38674613)">
     <use xlink:href="#C0_0_2282b23886" x="293.015256" y="117.687049" style="fill: #808080; fill-opacity: 0.8"/>
    </g>
    <g clip-path="url(#p9e38674613)">
     <use xlink:href="#C0_0_2282b23886" x="293.015256" y="69.259063" style="fill: #808080; fill-opacity: 0.8"/>
    </g>
    <g clip-path="url(#p9e38674613)">
     <use xlink:href="#C0_0_2282b23886" x="130.56676" y="170.51758" style="fill: #808080; fill-opacity: 0.8"/>
    </g>
    <g clip-path="url(#p9e38674613)">
     <use xlink:href="#C0_0_2282b23886" x="130.56676" y="318.002812" style="fill: #808080; fill-opacity: 0.8"/>
    </g>
    <g clip-path="url(#p9e38674613)">
     <use xlink:href="#C0_0_2282b23886" x="53.351619" y="139.69977" style="fill: #808080; fill-opacity: 0.8"/>
    </g>
    <g clip-path="url(#p9e38674613)">
     <use xlink:href="#C0_0_2282b23886" x="53.351619" y="284.983731" style="fill: #808080; fill-opacity: 0.8"/>
    </g>
   </g>
   <g id="PathCollection_2">
    <defs>
     <path id="C1_0_a1d89a0293" d="M 0 3.535534 
C 0.937635 3.535534 1.836992 3.163008 2.5 2.5 
C 3.163008 1.836992 3.535534 0.937635 3.535534 -0 
C 3.535534 -0.937635 3.163008 -1.836992 2.5 -2.5 
C 1.836992 -3.163008 0.937635 -3.535534 0 -3.535534 
C -0.937635 -3.535534 -1.836992 -3.163008 -2.5 -2.5 
C -3.163008 -1.836992 -3.535534 -0.937635 -3.535534 0 
C -3.535534 0.937635 -3.163008 1.836992 -2.5 2.5 
C -1.836992 3.163008 -0.937635 3.535534 0 3.535534 
z
"/>
    </defs>
    <g clip-path="url(#p9e38674613)">
     <use xlink:href="#C1_0_a1d89a0293" x="94.51805" y="318.002812" style="fill: #fd810a; fill-opacity: 0.8"/>
    </g>
    <g clip-path="url(#p9e38674613)">
     <use xlink:href="#C1_0_a1d89a0293" x="94.51805" y="318.002812" style="fill: #fd810a; fill-opacity: 0.8"/>
    </g>
    <g clip-path="url(#p9e38674613)">
     <use xlink:href="#C1_0_a1d89a0293" x="91.066073" y="282.782459" style="fill: #fd810a; fill-opacity: 0.8"/>
    </g>
    <g clip-path="url(#p9e38674613)">
     <use xlink:href="#C1_0_a1d89a0293" x="91.066073" y="318.002812" style="fill: #fd810a; fill-opacity: 0.8"/>
    </g>
    <g clip-path="url(#p9e38674613)">
     <use xlink:href="#C1_0_a1d89a0293" x="237.696021" y="309.197724" style="fill: #fd810a; fill-opacity: 0.8"/>
    </g>
    <g clip-path="url(#p9e38674613)">
     <use xlink:href="#C1_0_a1d89a0293" x="237.696021" y="137.498498" style="fill: #fd810a; fill-opacity: 0.8"/>
    </g>
   </g>
   <g id="matplotlib.axis_1">
    <g id="xtick_1">
     <g id="line2d_1">
      <defs>
       <path id="mfc26d8f80e" d="M 0 0 
L 0 3.5 
" style="stroke: #000000; stroke-width: 0.8"/>
      </defs>
      <g>
       <use xlink:href="#mfc26d8f80e" x="62.559652" y="330.44" style="stroke: #000000; stroke-width: 0.8"/>
      </g>
     </g>
     <g id="text_1">
      <!-- 20 -->
      <g transform="translate(57.469652 343.51875) scale(0.08 -0.08)">
       <defs>
        <path id="DejaVuSans-32" d="M 1228 531 
L 3431 531 
L 3431 0 
L 469 0 
L 469 531 
Q 828 903 1448 1529 
Q 2069 2156 2228 2338 
Q 2531 2678 2651 2914 
Q 2772 3150 2772 3378 
Q 2772 3750 2511 3984 
Q 2250 4219 1831 4219 
Q 1534 4219 1204 4116 
Q 875 4013 500 3803 
L 500 4441 
Q 881 4594 1212 4672 
Q 1544 4750 1819 4750 
Q 2544 4750 2975 4387 
Q 3406 4025 3406 3419 
Q 3406 3131 3298 2873 
Q 3191 2616 2906 2266 
Q 2828 2175 2409 1742 
Q 1991 1309 1228 531 
z
" transform="scale(0.015625)"/>
        <path id="DejaVuSans-30" d="M 2034 4250 
Q 1547 4250 1301 3770 
Q 1056 3291 1056 2328 
Q 1056 1369 1301 889 
Q 1547 409 2034 409 
Q 2525 409 2770 889 
Q 3016 1369 3016 2328 
Q 3016 3291 2770 3770 
Q 2525 4250 2034 4250 
z
M 2034 4750 
Q 2819 4750 3233 4129 
Q 3647 3509 3647 2328 
Q 3647 1150 3233 529 
Q 2819 -91 2034 -91 
Q 1250 -91 836 529 
Q 422 1150 422 2328 
Q 422 3509 836 4129 
Q 1250 4750 2034 4750 
z
" transform="scale(0.015625)"/>
       </defs>
       <use xlink:href="#DejaVuSans-32"/>
       <use xlink:href="#DejaVuSans-30" transform="translate(63.623047 0)"/>
      </g>
     </g>
    </g>
    <g id="xtick_2">
     <g id="line2d_2">
      <g>
       <use xlink:href="#mfc26d8f80e" x="112.762923" y="330.44" style="stroke: #000000; stroke-width: 0.8"/>
      </g>
     </g>
     <g id="text_2">
      <!-- 40 -->
      <g transform="translate(107.672923 343.51875) scale(0.08 -0.08)">
       <defs>
        <path id="DejaVuSans-34" d="M 2419 4116 
L 825 1625 
L 2419 1625 
L 2419 4116 
z
M 2253 4666 
L 3047 4666 
L 3047 1625 
L 3713 1625 
L 3713 1100 
L 3047 1100 
L 3047 0 
L 2419 0 
L 2419 1100 
L 313 1100 
L 313 1709 
L 2253 4666 
z
" transform="scale(0.015625)"/>
       </defs>
       <use xlink:href="#DejaVuSans-34"/>
       <use xlink:href="#DejaVuSans-30" transform="translate(63.623047 0)"/>
      </g>
     </g>
    </g>
    <g id="xtick_3">
     <g id="line2d_3">
      <g>
       <use xlink:href="#mfc26d8f80e" x="162.966193" y="330.44" style="stroke: #000000; stroke-width: 0.8"/>
      </g>
     </g>
     <g id="text_3">
      <!-- 60 -->
      <g transform="translate(157.876193 343.51875) scale(0.08 -0.08)">
       <defs>
        <path id="DejaVuSans-36" d="M 2113 2584 
Q 1688 2584 1439 2293 
Q 1191 2003 1191 1497 
Q 1191 994 1439 701 
Q 1688 409 2113 409 
Q 2538 409 2786 701 
Q 3034 994 3034 1497 
Q 3034 2003 2786 2293 
Q 2538 2584 2113 2584 
z
M 3366 4563 
L 3366 3988 
Q 3128 4100 2886 4159 
Q 2644 4219 2406 4219 
Q 1781 4219 1451 3797 
Q 1122 3375 1075 2522 
Q 1259 2794 1537 2939 
Q 1816 3084 2150 3084 
Q 2853 3084 3261 2657 
Q 3669 2231 3669 1497 
Q 3669 778 3244 343 
Q 2819 -91 2113 -91 
Q 1303 -91 875 529 
Q 447 1150 447 2328 
Q 447 3434 972 4092 
Q 1497 4750 2381 4750 
Q 2619 4750 2861 4703 
Q 3103 4656 3366 4563 
z
" transform="scale(0.015625)"/>
       </defs>
       <use xlink:href="#DejaVuSans-36"/>
       <use xlink:href="#DejaVuSans-30" transform="translate(63.623047 0)"/>
      </g>
     </g>
    </g>
    <g id="xtick_4">
     <g id="line2d_4">
      <g>
       <use xlink:href="#mfc26d8f80e" x="213.169464" y="330.44" style="stroke: #000000; stroke-width: 0.8"/>
      </g>
     </g>
     <g id="text_4">
      <!-- 80 -->
      <g transform="translate(208.079464 343.51875) scale(0.08 -0.08)">
       <defs>
        <path id="DejaVuSans-38" d="M 2034 2216 
Q 1584 2216 1326 1975 
Q 1069 1734 1069 1313 
Q 1069 891 1326 650 
Q 1584 409 2034 409 
Q 2484 409 2743 651 
Q 3003 894 3003 1313 
Q 3003 1734 2745 1975 
Q 2488 2216 2034 2216 
z
M 1403 2484 
Q 997 2584 770 2862 
Q 544 3141 544 3541 
Q 544 4100 942 4425 
Q 1341 4750 2034 4750 
Q 2731 4750 3128 4425 
Q 3525 4100 3525 3541 
Q 3525 3141 3298 2862 
Q 3072 2584 2669 2484 
Q 3125 2378 3379 2068 
Q 3634 1759 3634 1313 
Q 3634 634 3220 271 
Q 2806 -91 2034 -91 
Q 1263 -91 848 271 
Q 434 634 434 1313 
Q 434 1759 690 2068 
Q 947 2378 1403 2484 
z
M 1172 3481 
Q 1172 3119 1398 2916 
Q 1625 2713 2034 2713 
Q 2441 2713 2670 2916 
Q 2900 3119 2900 3481 
Q 2900 3844 2670 4047 
Q 2441 4250 2034 4250 
Q 1625 4250 1398 4047 
Q 1172 3844 1172 3481 
z
" transform="scale(0.015625)"/>
       </defs>
       <use xlink:href="#DejaVuSans-38"/>
       <use xlink:href="#DejaVuSans-30" transform="translate(63.623047 0)"/>
      </g>
     </g>
    </g>
    <g id="xtick_5">
     <g id="line2d_5">
      <g>
       <use xlink:href="#mfc26d8f80e" x="263.372735" y="330.44" style="stroke: #000000; stroke-width: 0.8"/>
      </g>
     </g>
     <g id="text_5">
      <!-- 100 -->
      <g transform="translate(255.737735 343.51875) scale(0.08 -0.08)">
       <defs>
        <path id="DejaVuSans-31" d="M 794 531 
L 1825 531 
L 1825 4091 
L 703 3866 
L 703 4441 
L 1819 4666 
L 2450 4666 
L 2450 531 
L 3481 531 
L 3481 0 
L 794 0 
L 794 531 
z
" transform="scale(0.015625)"/>
       </defs>
       <use xlink:href="#DejaVuSans-31"/>
       <use xlink:href="#DejaVuSans-30" transform="translate(63.623047 0)"/>
       <use xlink:href="#DejaVuSans-30" transform="translate(127.246094 0)"/>
      </g>
     </g>
    </g>
    <g id="text_6">
     <!-- Fungal Volume (mm³) -->
     <g transform="translate(129.923672 357.734219) scale(0.09 -0.09)">
      <defs>
       <path id="ArialMT-46" d="M 525 0 
L 525 4581 
L 3616 4581 
L 3616 4041 
L 1131 4041 
L 1131 2622 
L 3281 2622 
L 3281 2081 
L 1131 2081 
L 1131 0 
L 525 0 
z
" transform="scale(0.015625)"/>
       <path id="ArialMT-75" d="M 2597 0 
L 2597 488 
Q 2209 -75 1544 -75 
Q 1250 -75 995 37 
Q 741 150 617 320 
Q 494 491 444 738 
Q 409 903 409 1263 
L 409 3319 
L 972 3319 
L 972 1478 
Q 972 1038 1006 884 
Q 1059 663 1231 536 
Q 1403 409 1656 409 
Q 1909 409 2131 539 
Q 2353 669 2445 892 
Q 2538 1116 2538 1541 
L 2538 3319 
L 3100 3319 
L 3100 0 
L 2597 0 
z
" transform="scale(0.015625)"/>
       <path id="ArialMT-6e" d="M 422 0 
L 422 3319 
L 928 3319 
L 928 2847 
Q 1294 3394 1984 3394 
Q 2284 3394 2536 3286 
Q 2788 3178 2913 3003 
Q 3038 2828 3088 2588 
Q 3119 2431 3119 2041 
L 3119 0 
L 2556 0 
L 2556 2019 
Q 2556 2363 2490 2533 
Q 2425 2703 2258 2804 
Q 2091 2906 1866 2906 
Q 1506 2906 1245 2678 
Q 984 2450 984 1813 
L 984 0 
L 422 0 
z
" transform="scale(0.015625)"/>
       <path id="ArialMT-67" d="M 319 -275 
L 866 -356 
Q 900 -609 1056 -725 
Q 1266 -881 1628 -881 
Q 2019 -881 2231 -725 
Q 2444 -569 2519 -288 
Q 2563 -116 2559 434 
Q 2191 0 1641 0 
Q 956 0 581 494 
Q 206 988 206 1678 
Q 206 2153 378 2554 
Q 550 2956 876 3175 
Q 1203 3394 1644 3394 
Q 2231 3394 2613 2919 
L 2613 3319 
L 3131 3319 
L 3131 450 
Q 3131 -325 2973 -648 
Q 2816 -972 2473 -1159 
Q 2131 -1347 1631 -1347 
Q 1038 -1347 672 -1080 
Q 306 -813 319 -275 
z
M 784 1719 
Q 784 1066 1043 766 
Q 1303 466 1694 466 
Q 2081 466 2343 764 
Q 2606 1063 2606 1700 
Q 2606 2309 2336 2618 
Q 2066 2928 1684 2928 
Q 1309 2928 1046 2623 
Q 784 2319 784 1719 
z
" transform="scale(0.015625)"/>
       <path id="ArialMT-61" d="M 2588 409 
Q 2275 144 1986 34 
Q 1697 -75 1366 -75 
Q 819 -75 525 192 
Q 231 459 231 875 
Q 231 1119 342 1320 
Q 453 1522 633 1644 
Q 813 1766 1038 1828 
Q 1203 1872 1538 1913 
Q 2219 1994 2541 2106 
Q 2544 2222 2544 2253 
Q 2544 2597 2384 2738 
Q 2169 2928 1744 2928 
Q 1347 2928 1158 2789 
Q 969 2650 878 2297 
L 328 2372 
Q 403 2725 575 2942 
Q 747 3159 1072 3276 
Q 1397 3394 1825 3394 
Q 2250 3394 2515 3294 
Q 2781 3194 2906 3042 
Q 3031 2891 3081 2659 
Q 3109 2516 3109 2141 
L 3109 1391 
Q 3109 606 3145 398 
Q 3181 191 3288 0 
L 2700 0 
Q 2613 175 2588 409 
z
M 2541 1666 
Q 2234 1541 1622 1453 
Q 1275 1403 1131 1340 
Q 988 1278 909 1158 
Q 831 1038 831 891 
Q 831 666 1001 516 
Q 1172 366 1500 366 
Q 1825 366 2078 508 
Q 2331 650 2450 897 
Q 2541 1088 2541 1459 
L 2541 1666 
z
" transform="scale(0.015625)"/>
       <path id="ArialMT-6c" d="M 409 0 
L 409 4581 
L 972 4581 
L 972 0 
L 409 0 
z
" transform="scale(0.015625)"/>
       <path id="ArialMT-20" transform="scale(0.015625)"/>
       <path id="ArialMT-56" d="M 1803 0 
L 28 4581 
L 684 4581 
L 1875 1253 
Q 2019 853 2116 503 
Q 2222 878 2363 1253 
L 3600 4581 
L 4219 4581 
L 2425 0 
L 1803 0 
z
" transform="scale(0.015625)"/>
       <path id="ArialMT-6f" d="M 213 1659 
Q 213 2581 725 3025 
Q 1153 3394 1769 3394 
Q 2453 3394 2887 2945 
Q 3322 2497 3322 1706 
Q 3322 1066 3130 698 
Q 2938 331 2570 128 
Q 2203 -75 1769 -75 
Q 1072 -75 642 372 
Q 213 819 213 1659 
z
M 791 1659 
Q 791 1022 1069 705 
Q 1347 388 1769 388 
Q 2188 388 2466 706 
Q 2744 1025 2744 1678 
Q 2744 2294 2464 2611 
Q 2184 2928 1769 2928 
Q 1347 2928 1069 2612 
Q 791 2297 791 1659 
z
" transform="scale(0.015625)"/>
       <path id="ArialMT-6d" d="M 422 0 
L 422 3319 
L 925 3319 
L 925 2853 
Q 1081 3097 1340 3245 
Q 1600 3394 1931 3394 
Q 2300 3394 2536 3241 
Q 2772 3088 2869 2813 
Q 3263 3394 3894 3394 
Q 4388 3394 4653 3120 
Q 4919 2847 4919 2278 
L 4919 0 
L 4359 0 
L 4359 2091 
Q 4359 2428 4304 2576 
Q 4250 2725 4106 2815 
Q 3963 2906 3769 2906 
Q 3419 2906 3187 2673 
Q 2956 2441 2956 1928 
L 2956 0 
L 2394 0 
L 2394 2156 
Q 2394 2531 2256 2718 
Q 2119 2906 1806 2906 
Q 1569 2906 1367 2781 
Q 1166 2656 1075 2415 
Q 984 2175 984 1722 
L 984 0 
L 422 0 
z
" transform="scale(0.015625)"/>
       <path id="ArialMT-65" d="M 2694 1069 
L 3275 997 
Q 3138 488 2766 206 
Q 2394 -75 1816 -75 
Q 1088 -75 661 373 
Q 234 822 234 1631 
Q 234 2469 665 2931 
Q 1097 3394 1784 3394 
Q 2450 3394 2872 2941 
Q 3294 2488 3294 1666 
Q 3294 1616 3291 1516 
L 816 1516 
Q 847 969 1125 678 
Q 1403 388 1819 388 
Q 2128 388 2347 550 
Q 2566 713 2694 1069 
z
M 847 1978 
L 2700 1978 
Q 2663 2397 2488 2606 
Q 2219 2931 1791 2931 
Q 1403 2931 1139 2672 
Q 875 2413 847 1978 
z
" transform="scale(0.015625)"/>
       <path id="ArialMT-28" d="M 1497 -1347 
Q 1031 -759 709 28 
Q 388 816 388 1659 
Q 388 2403 628 3084 
Q 909 3875 1497 4659 
L 1900 4659 
Q 1522 4009 1400 3731 
Q 1209 3300 1100 2831 
Q 966 2247 966 1656 
Q 966 153 1900 -1347 
L 1497 -1347 
z
" transform="scale(0.015625)"/>
       <path id="ArialMT-b3" d="M 103 2903 
L 559 2950 
Q 622 2763 722 2694 
Q 856 2600 1041 2600 
Q 1263 2600 1397 2722 
Q 1531 2844 1531 3016 
Q 1531 3172 1418 3265 
Q 1306 3359 1034 3359 
Q 997 3359 931 3353 
Q 888 3350 863 3350 
L 931 3694 
Q 1184 3691 1301 3784 
Q 1419 3878 1419 4013 
Q 1419 4128 1325 4209 
Q 1231 4291 1047 4291 
Q 872 4291 773 4222 
Q 675 4153 603 3972 
L 156 4044 
Q 284 4375 479 4506 
Q 675 4638 1050 4638 
Q 1500 4638 1704 4470 
Q 1909 4303 1909 4053 
Q 1909 3881 1798 3747 
Q 1688 3613 1478 3553 
Q 1756 3484 1887 3326 
Q 2019 3169 2019 2956 
Q 2019 2666 1772 2450 
Q 1525 2234 1069 2234 
Q 631 2234 400 2407 
Q 169 2581 103 2903 
z
" transform="scale(0.015625)"/>
       <path id="ArialMT-29" d="M 791 -1347 
L 388 -1347 
Q 1322 153 1322 1656 
Q 1322 2244 1188 2822 
Q 1081 3291 891 3722 
Q 769 4003 388 4659 
L 791 4659 
Q 1378 3875 1659 3084 
Q 1900 2403 1900 1659 
Q 1900 816 1576 28 
Q 1253 -759 791 -1347 
z
" transform="scale(0.015625)"/>
      </defs>
      <use xlink:href="#ArialMT-46"/>
      <use xlink:href="#ArialMT-75" transform="translate(61.083984 0)"/>
      <use xlink:href="#ArialMT-6e" transform="translate(116.699219 0)"/>
      <use xlink:href="#ArialMT-67" transform="translate(172.314453 0)"/>
      <use xlink:href="#ArialMT-61" transform="translate(227.929688 0)"/>
      <use xlink:href="#ArialMT-6c" transform="translate(283.544922 0)"/>
      <use xlink:href="#ArialMT-20" transform="translate(305.761719 0)"/>
      <use xlink:href="#ArialMT-56" transform="translate(333.544922 0)"/>
      <use xlink:href="#ArialMT-6f" transform="translate(394.744141 0)"/>
      <use xlink:href="#ArialMT-6c" transform="translate(450.359375 0)"/>
      <use xlink:href="#ArialMT-75" transform="translate(472.576172 0)"/>
      <use xlink:href="#ArialMT-6d" transform="translate(528.191406 0)"/>
      <use xlink:href="#ArialMT-65" transform="translate(611.492188 0)"/>
      <use xlink:href="#ArialMT-20" transform="translate(667.107422 0)"/>
      <use xlink:href="#ArialMT-28" transform="translate(694.890625 0)"/>
      <use xlink:href="#ArialMT-6d" transform="translate(728.191406 0)"/>
      <use xlink:href="#ArialMT-6d" transform="translate(811.492188 0)"/>
      <use xlink:href="#ArialMT-b3" transform="translate(894.792969 0)"/>
      <use xlink:href="#ArialMT-29" transform="translate(928.09375 0)"/>
     </g>
    </g>
   </g>
   <g id="matplotlib.axis_2">
    <g id="ytick_1">
     <g id="line2d_6">
      <defs>
       <path id="mf0d7ec22ef" d="M 0 0 
L -3.5 0 
" style="stroke: #000000; stroke-width: 0.8"/>
      </defs>
      <g>
       <use xlink:href="#mf0d7ec22ef" x="41.368438" y="322.405357" style="stroke: #000000; stroke-width: 0.8"/>
      </g>
     </g>
     <g id="text_7">
      <!-- 0.0 -->
      <g transform="translate(21.645938 325.444732) scale(0.08 -0.08)">
       <defs>
        <path id="DejaVuSans-2e" d="M 684 794 
L 1344 794 
L 1344 0 
L 684 0 
L 684 794 
z
" transform="scale(0.015625)"/>
       </defs>
       <use xlink:href="#DejaVuSans-30"/>
       <use xlink:href="#DejaVuSans-2e" transform="translate(63.623047 0)"/>
       <use xlink:href="#DejaVuSans-30" transform="translate(95.410156 0)"/>
      </g>
     </g>
    </g>
    <g id="ytick_2">
     <g id="line2d_7">
      <g>
       <use xlink:href="#mf0d7ec22ef" x="41.368438" y="287.827774" style="stroke: #000000; stroke-width: 0.8"/>
      </g>
     </g>
     <g id="text_8">
      <!-- 0.5 -->
      <g transform="translate(21.645938 290.867149) scale(0.08 -0.08)">
       <defs>
        <path id="DejaVuSans-35" d="M 691 4666 
L 3169 4666 
L 3169 4134 
L 1269 4134 
L 1269 2991 
Q 1406 3038 1543 3061 
Q 1681 3084 1819 3084 
Q 2600 3084 3056 2656 
Q 3513 2228 3513 1497 
Q 3513 744 3044 326 
Q 2575 -91 1722 -91 
Q 1428 -91 1123 -41 
Q 819 9 494 109 
L 494 744 
Q 775 591 1075 516 
Q 1375 441 1709 441 
Q 2250 441 2565 725 
Q 2881 1009 2881 1497 
Q 2881 1984 2565 2268 
Q 2250 2553 1709 2553 
Q 1456 2553 1204 2497 
Q 953 2441 691 2322 
L 691 4666 
z
" transform="scale(0.015625)"/>
       </defs>
       <use xlink:href="#DejaVuSans-30"/>
       <use xlink:href="#DejaVuSans-2e" transform="translate(63.623047 0)"/>
       <use xlink:href="#DejaVuSans-35" transform="translate(95.410156 0)"/>
      </g>
     </g>
    </g>
    <g id="ytick_3">
     <g id="line2d_8">
      <g>
       <use xlink:href="#mf0d7ec22ef" x="41.368438" y="253.250192" style="stroke: #000000; stroke-width: 0.8"/>
      </g>
     </g>
     <g id="text_9">
      <!-- 1.0 -->
      <g transform="translate(21.645938 256.289567) scale(0.08 -0.08)">
       <use xlink:href="#DejaVuSans-31"/>
       <use xlink:href="#DejaVuSans-2e" transform="translate(63.623047 0)"/>
       <use xlink:href="#DejaVuSans-30" transform="translate(95.410156 0)"/>
      </g>
     </g>
    </g>
    <g id="ytick_4">
     <g id="line2d_9">
      <g>
       <use xlink:href="#mf0d7ec22ef" x="41.368438" y="218.672609" style="stroke: #000000; stroke-width: 0.8"/>
      </g>
     </g>
     <g id="text_10">
      <!-- 1.5 -->
      <g transform="translate(21.645938 221.711984) scale(0.08 -0.08)">
       <use xlink:href="#DejaVuSans-31"/>
       <use xlink:href="#DejaVuSans-2e" transform="translate(63.623047 0)"/>
       <use xlink:href="#DejaVuSans-35" transform="translate(95.410156 0)"/>
      </g>
     </g>
    </g>
    <g id="ytick_5">
     <g id="line2d_10">
      <g>
       <use xlink:href="#mf0d7ec22ef" x="41.368438" y="184.095027" style="stroke: #000000; stroke-width: 0.8"/>
      </g>
     </g>
     <g id="text_11">
      <!-- 2.0 -->
      <g transform="translate(21.645938 187.134402) scale(0.08 -0.08)">
       <use xlink:href="#DejaVuSans-32"/>
       <use xlink:href="#DejaVuSans-2e" transform="translate(63.623047 0)"/>
       <use xlink:href="#DejaVuSans-30" transform="translate(95.410156 0)"/>
      </g>
     </g>
    </g>
    <g id="ytick_6">
     <g id="line2d_11">
      <g>
       <use xlink:href="#mf0d7ec22ef" x="41.368438" y="149.517444" style="stroke: #000000; stroke-width: 0.8"/>
      </g>
     </g>
     <g id="text_12">
      <!-- 2.5 -->
      <g transform="translate(21.645938 152.556819) scale(0.08 -0.08)">
       <use xlink:href="#DejaVuSans-32"/>
       <use xlink:href="#DejaVuSans-2e" transform="translate(63.623047 0)"/>
       <use xlink:href="#DejaVuSans-35" transform="translate(95.410156 0)"/>
      </g>
     </g>
    </g>
    <g id="ytick_7">
     <g id="line2d_12">
      <g>
       <use xlink:href="#mf0d7ec22ef" x="41.368438" y="114.939862" style="stroke: #000000; stroke-width: 0.8"/>
      </g>
     </g>
     <g id="text_13">
      <!-- 3.0 -->
      <g transform="translate(21.645938 117.979237) scale(0.08 -0.08)">
       <defs>
        <path id="DejaVuSans-33" d="M 2597 2516 
Q 3050 2419 3304 2112 
Q 3559 1806 3559 1356 
Q 3559 666 3084 287 
Q 2609 -91 1734 -91 
Q 1441 -91 1130 -33 
Q 819 25 488 141 
L 488 750 
Q 750 597 1062 519 
Q 1375 441 1716 441 
Q 2309 441 2620 675 
Q 2931 909 2931 1356 
Q 2931 1769 2642 2001 
Q 2353 2234 1838 2234 
L 1294 2234 
L 1294 2753 
L 1863 2753 
Q 2328 2753 2575 2939 
Q 2822 3125 2822 3475 
Q 2822 3834 2567 4026 
Q 2313 4219 1838 4219 
Q 1578 4219 1281 4162 
Q 984 4106 628 3988 
L 628 4550 
Q 988 4650 1302 4700 
Q 1616 4750 1894 4750 
Q 2613 4750 3031 4423 
Q 3450 4097 3450 3541 
Q 3450 3153 3228 2886 
Q 3006 2619 2597 2516 
z
" transform="scale(0.015625)"/>
       </defs>
       <use xlink:href="#DejaVuSans-33"/>
       <use xlink:href="#DejaVuSans-2e" transform="translate(63.623047 0)"/>
       <use xlink:href="#DejaVuSans-30" transform="translate(95.410156 0)"/>
      </g>
     </g>
    </g>
    <g id="ytick_8">
     <g id="line2d_13">
      <g>
       <use xlink:href="#mf0d7ec22ef" x="41.368438" y="80.362279" style="stroke: #000000; stroke-width: 0.8"/>
      </g>
     </g>
     <g id="text_14">
      <!-- 3.5 -->
      <g transform="translate(21.645938 83.401654) scale(0.08 -0.08)">
       <use xlink:href="#DejaVuSans-33"/>
       <use xlink:href="#DejaVuSans-2e" transform="translate(63.623047 0)"/>
       <use xlink:href="#DejaVuSans-35" transform="translate(95.410156 0)"/>
      </g>
     </g>
    </g>
    <g id="text_15">
     <!-- Cell Density (1000 cells/100 μm circle) -->
     <g transform="translate(13.751719 270.24625) rotate(-90) scale(0.09 -0.09)">
      <defs>
       <path id="ArialMT-43" d="M 3763 1606 
L 4369 1453 
Q 4178 706 3683 314 
Q 3188 -78 2472 -78 
Q 1731 -78 1267 223 
Q 803 525 561 1097 
Q 319 1669 319 2325 
Q 319 3041 592 3573 
Q 866 4106 1370 4382 
Q 1875 4659 2481 4659 
Q 3169 4659 3637 4309 
Q 4106 3959 4291 3325 
L 3694 3184 
Q 3534 3684 3231 3912 
Q 2928 4141 2469 4141 
Q 1941 4141 1586 3887 
Q 1231 3634 1087 3207 
Q 944 2781 944 2328 
Q 944 1744 1114 1308 
Q 1284 872 1643 656 
Q 2003 441 2422 441 
Q 2931 441 3284 734 
Q 3638 1028 3763 1606 
z
" transform="scale(0.015625)"/>
       <path id="ArialMT-44" d="M 494 0 
L 494 4581 
L 2072 4581 
Q 2606 4581 2888 4516 
Q 3281 4425 3559 4188 
Q 3922 3881 4101 3404 
Q 4281 2928 4281 2316 
Q 4281 1794 4159 1391 
Q 4038 988 3847 723 
Q 3656 459 3429 307 
Q 3203 156 2883 78 
Q 2563 0 2147 0 
L 494 0 
z
M 1100 541 
L 2078 541 
Q 2531 541 2789 625 
Q 3047 709 3200 863 
Q 3416 1078 3536 1442 
Q 3656 1806 3656 2325 
Q 3656 3044 3420 3430 
Q 3184 3816 2847 3947 
Q 2603 4041 2063 4041 
L 1100 4041 
L 1100 541 
z
" transform="scale(0.015625)"/>
       <path id="ArialMT-73" d="M 197 991 
L 753 1078 
Q 800 744 1014 566 
Q 1228 388 1613 388 
Q 2000 388 2187 545 
Q 2375 703 2375 916 
Q 2375 1106 2209 1216 
Q 2094 1291 1634 1406 
Q 1016 1563 777 1677 
Q 538 1791 414 1992 
Q 291 2194 291 2438 
Q 291 2659 392 2848 
Q 494 3038 669 3163 
Q 800 3259 1026 3326 
Q 1253 3394 1513 3394 
Q 1903 3394 2198 3281 
Q 2494 3169 2634 2976 
Q 2775 2784 2828 2463 
L 2278 2388 
Q 2241 2644 2061 2787 
Q 1881 2931 1553 2931 
Q 1166 2931 1000 2803 
Q 834 2675 834 2503 
Q 834 2394 903 2306 
Q 972 2216 1119 2156 
Q 1203 2125 1616 2013 
Q 2213 1853 2448 1751 
Q 2684 1650 2818 1456 
Q 2953 1263 2953 975 
Q 2953 694 2789 445 
Q 2625 197 2315 61 
Q 2006 -75 1616 -75 
Q 969 -75 630 194 
Q 291 463 197 991 
z
" transform="scale(0.015625)"/>
       <path id="ArialMT-69" d="M 425 3934 
L 425 4581 
L 988 4581 
L 988 3934 
L 425 3934 
z
M 425 0 
L 425 3319 
L 988 3319 
L 988 0 
L 425 0 
z
" transform="scale(0.015625)"/>
       <path id="ArialMT-74" d="M 1650 503 
L 1731 6 
Q 1494 -44 1306 -44 
Q 1000 -44 831 53 
Q 663 150 594 308 
Q 525 466 525 972 
L 525 2881 
L 113 2881 
L 113 3319 
L 525 3319 
L 525 4141 
L 1084 4478 
L 1084 3319 
L 1650 3319 
L 1650 2881 
L 1084 2881 
L 1084 941 
Q 1084 700 1114 631 
Q 1144 563 1211 522 
Q 1278 481 1403 481 
Q 1497 481 1650 503 
z
" transform="scale(0.015625)"/>
       <path id="ArialMT-79" d="M 397 -1278 
L 334 -750 
Q 519 -800 656 -800 
Q 844 -800 956 -737 
Q 1069 -675 1141 -563 
Q 1194 -478 1313 -144 
Q 1328 -97 1363 -6 
L 103 3319 
L 709 3319 
L 1400 1397 
Q 1534 1031 1641 628 
Q 1738 1016 1872 1384 
L 2581 3319 
L 3144 3319 
L 1881 -56 
Q 1678 -603 1566 -809 
Q 1416 -1088 1222 -1217 
Q 1028 -1347 759 -1347 
Q 597 -1347 397 -1278 
z
" transform="scale(0.015625)"/>
       <path id="ArialMT-31" d="M 2384 0 
L 1822 0 
L 1822 3584 
Q 1619 3391 1289 3197 
Q 959 3003 697 2906 
L 697 3450 
Q 1169 3672 1522 3987 
Q 1875 4303 2022 4600 
L 2384 4600 
L 2384 0 
z
" transform="scale(0.015625)"/>
       <path id="ArialMT-30" d="M 266 2259 
Q 266 3072 433 3567 
Q 600 4063 929 4331 
Q 1259 4600 1759 4600 
Q 2128 4600 2406 4451 
Q 2684 4303 2865 4023 
Q 3047 3744 3150 3342 
Q 3253 2941 3253 2259 
Q 3253 1453 3087 958 
Q 2922 463 2592 192 
Q 2263 -78 1759 -78 
Q 1097 -78 719 397 
Q 266 969 266 2259 
z
M 844 2259 
Q 844 1131 1108 757 
Q 1372 384 1759 384 
Q 2147 384 2411 759 
Q 2675 1134 2675 2259 
Q 2675 3391 2411 3762 
Q 2147 4134 1753 4134 
Q 1366 4134 1134 3806 
Q 844 3388 844 2259 
z
" transform="scale(0.015625)"/>
       <path id="ArialMT-63" d="M 2588 1216 
L 3141 1144 
Q 3050 572 2676 248 
Q 2303 -75 1759 -75 
Q 1078 -75 664 370 
Q 250 816 250 1647 
Q 250 2184 428 2587 
Q 606 2991 970 3192 
Q 1334 3394 1763 3394 
Q 2303 3394 2647 3120 
Q 2991 2847 3088 2344 
L 2541 2259 
Q 2463 2594 2264 2762 
Q 2066 2931 1784 2931 
Q 1359 2931 1093 2626 
Q 828 2322 828 1663 
Q 828 994 1084 691 
Q 1341 388 1753 388 
Q 2084 388 2306 591 
Q 2528 794 2588 1216 
z
" transform="scale(0.015625)"/>
       <path id="ArialMT-2f" d="M 0 -78 
L 1328 4659 
L 1778 4659 
L 453 -78 
L 0 -78 
z
" transform="scale(0.015625)"/>
       <path id="ArialMT-3bc" d="M 3181 3319 
L 3181 0 
L 2678 0 
L 2678 394 
Q 2516 144 2356 50 
Q 2138 -78 1847 -78 
Q 1588 -78 1388 25 
Q 1238 103 1056 334 
L 1056 -1272 
L 500 -1272 
L 500 3319 
L 1056 3319 
L 1056 1913 
Q 1056 1147 1137 920 
Q 1219 694 1401 562 
Q 1584 431 1822 431 
Q 2072 431 2269 568 
Q 2466 706 2547 923 
Q 2628 1141 2628 1903 
L 2628 3319 
L 3181 3319 
z
" transform="scale(0.015625)"/>
       <path id="ArialMT-72" d="M 416 0 
L 416 3319 
L 922 3319 
L 922 2816 
Q 1116 3169 1280 3281 
Q 1444 3394 1641 3394 
Q 1925 3394 2219 3213 
L 2025 2691 
Q 1819 2813 1613 2813 
Q 1428 2813 1281 2702 
Q 1134 2591 1072 2394 
Q 978 2094 978 1738 
L 978 0 
L 416 0 
z
" transform="scale(0.015625)"/>
      </defs>
      <use xlink:href="#ArialMT-43"/>
      <use xlink:href="#ArialMT-65" transform="translate(72.216797 0)"/>
      <use xlink:href="#ArialMT-6c" transform="translate(127.832031 0)"/>
      <use xlink:href="#ArialMT-6c" transform="translate(150.048828 0)"/>
      <use xlink:href="#ArialMT-20" transform="translate(172.265625 0)"/>
      <use xlink:href="#ArialMT-44" transform="translate(200.048828 0)"/>
      <use xlink:href="#ArialMT-65" transform="translate(272.265625 0)"/>
      <use xlink:href="#ArialMT-6e" transform="translate(327.880859 0)"/>
      <use xlink:href="#ArialMT-73" transform="translate(383.496094 0)"/>
      <use xlink:href="#ArialMT-69" transform="translate(433.496094 0)"/>
      <use xlink:href="#ArialMT-74" transform="translate(455.712891 0)"/>
      <use xlink:href="#ArialMT-79" transform="translate(483.496094 0)"/>
      <use xlink:href="#ArialMT-20" transform="translate(533.496094 0)"/>
      <use xlink:href="#ArialMT-28" transform="translate(561.279297 0)"/>
      <use xlink:href="#ArialMT-31" transform="translate(594.580078 0)"/>
      <use xlink:href="#ArialMT-30" transform="translate(650.195312 0)"/>
      <use xlink:href="#ArialMT-30" transform="translate(705.810547 0)"/>
      <use xlink:href="#ArialMT-30" transform="translate(761.425781 0)"/>
      <use xlink:href="#ArialMT-20" transform="translate(817.041016 0)"/>
      <use xlink:href="#ArialMT-63" transform="translate(844.824219 0)"/>
      <use xlink:href="#ArialMT-65" transform="translate(894.824219 0)"/>
      <use xlink:href="#ArialMT-6c" transform="translate(950.439453 0)"/>
      <use xlink:href="#ArialMT-6c" transform="translate(972.65625 0)"/>
      <use xlink:href="#ArialMT-73" transform="translate(994.873047 0)"/>
      <use xlink:href="#ArialMT-2f" transform="translate(1044.873047 0)"/>
      <use xlink:href="#ArialMT-31" transform="translate(1072.65625 0)"/>
      <use xlink:href="#ArialMT-30" transform="translate(1128.271484 0)"/>
      <use xlink:href="#ArialMT-30" transform="translate(1183.886719 0)"/>
      <use xlink:href="#ArialMT-20" transform="translate(1239.501953 0)"/>
      <use xlink:href="#ArialMT-3bc" transform="translate(1267.285156 0)"/>
      <use xlink:href="#ArialMT-6d" transform="translate(1324.902344 0)"/>
      <use xlink:href="#ArialMT-20" transform="translate(1408.203125 0)"/>
      <use xlink:href="#ArialMT-63" transform="translate(1435.986328 0)"/>
      <use xlink:href="#ArialMT-69" transform="translate(1485.986328 0)"/>
      <use xlink:href="#ArialMT-72" transform="translate(1508.203125 0)"/>
      <use xlink:href="#ArialMT-63" transform="translate(1541.503906 0)"/>
      <use xlink:href="#ArialMT-6c" transform="translate(1591.503906 0)"/>
      <use xlink:href="#ArialMT-65" transform="translate(1613.720703 0)"/>
      <use xlink:href="#ArialMT-29" transform="translate(1669.335938 0)"/>
     </g>
    </g>
   </g>
   <g id="line2d_14">
    <path d="M 53.351619 242.787208 
L 55.772464 241.425159 
L 58.193309 240.063111 
L 60.614154 238.701062 
L 63.034999 237.339014 
L 65.455843 235.976966 
L 67.876688 234.614917 
L 70.297533 233.252869 
L 72.718378 231.89082 
L 75.139223 230.528772 
L 77.560067 229.166723 
L 79.980912 227.804675 
L 82.401757 226.442627 
L 84.822602 225.080578 
L 87.243447 223.71853 
L 89.664291 222.356481 
L 92.085136 220.994433 
L 94.505981 219.632384 
L 96.926826 218.270336 
L 99.347671 216.908288 
L 101.768516 215.546239 
L 104.18936 214.184191 
L 106.610205 212.822142 
L 109.03105 211.460094 
L 111.451895 210.098045 
L 113.87274 208.735997 
L 116.293584 207.373949 
L 118.714429 206.0119 
L 121.135274 204.649852 
L 123.556119 203.287803 
L 125.976964 201.925755 
L 128.397808 200.563706 
L 130.818653 199.201658 
L 133.239498 197.83961 
L 135.660343 196.477561 
L 138.081188 195.115513 
L 140.502033 193.753464 
L 142.922877 192.391416 
L 145.343722 191.029367 
L 147.764567 189.667319 
L 150.185412 188.305271 
L 152.606257 186.943222 
L 155.027101 185.581174 
L 157.447946 184.219125 
L 159.868791 182.857077 
L 162.289636 181.495028 
L 164.710481 180.13298 
L 167.131325 178.770932 
L 169.55217 177.408883 
L 171.973015 176.046835 
L 174.39386 174.684786 
L 176.814705 173.322738 
L 179.23555 171.960689 
L 181.656394 170.598641 
L 184.077239 169.236593 
L 186.498084 167.874544 
L 188.918929 166.512496 
L 191.339774 165.150447 
L 193.760618 163.788399 
L 196.181463 162.42635 
L 198.602308 161.064302 
L 201.023153 159.702254 
L 203.443998 158.340205 
L 205.864842 156.978157 
L 208.285687 155.616108 
L 210.706532 154.25406 
L 213.127377 152.892011 
L 215.548222 151.529963 
L 217.969067 150.167915 
L 220.389911 148.805866 
L 222.810756 147.443818 
L 225.231601 146.081769 
L 227.652446 144.719721 
L 230.073291 143.357672 
L 232.494135 141.995624 
L 234.91498 140.633576 
L 237.335825 139.271527 
L 239.75667 137.909479 
L 242.177515 136.54743 
L 244.598359 135.185382 
L 247.019204 133.823333 
L 249.440049 132.461285 
L 251.860894 131.099237 
L 254.281739 129.737188 
L 256.702584 128.37514 
L 259.123428 127.013091 
L 261.544273 125.651043 
L 263.965118 124.288994 
L 266.385963 122.926946 
L 268.806808 121.564898 
L 271.227652 120.202849 
L 273.648497 118.840801 
L 276.069342 117.478752 
L 278.490187 116.116704 
L 280.911032 114.754655 
L 283.331876 113.392607 
L 285.752721 112.030559 
L 288.173566 110.66851 
L 290.594411 109.306462 
L 293.015256 107.944413 
" clip-path="url(#p9e38674613)" style="fill: none; stroke: #808080; stroke-opacity: 0.9; stroke-width: 1.5; stroke-linecap: square"/>
   </g>
   <g id="line2d_15">
    <path d="M 91.066073 310.09911 
L 92.547184 309.225201 
L 94.028294 308.351292 
L 95.509405 307.477383 
L 96.990516 306.603474 
L 98.471626 305.729565 
L 99.952737 304.855656 
L 101.433847 303.981748 
L 102.914958 303.107839 
L 104.396069 302.23393 
L 105.877179 301.360021 
L 107.35829 300.486112 
L 108.8394 299.612203 
L 110.320511 298.738294 
L 111.801621 297.864385 
L 113.282732 296.990477 
L 114.763843 296.116568 
L 116.244953 295.242659 
L 117.726064 294.36875 
L 119.207174 293.494841 
L 120.688285 292.620932 
L 122.169395 291.747023 
L 123.650506 290.873114 
L 125.131617 289.999206 
L 126.612727 289.125297 
L 128.093838 288.251388 
L 129.574948 287.377479 
L 131.056059 286.50357 
L 132.53717 285.629661 
L 134.01828 284.755752 
L 135.499391 283.881843 
L 136.980501 283.007935 
L 138.461612 282.134026 
L 139.942722 281.260117 
L 141.423833 280.386208 
L 142.904944 279.512299 
L 144.386054 278.63839 
L 145.867165 277.764481 
L 147.348275 276.890572 
L 148.829386 276.016664 
L 150.310497 275.142755 
L 151.791607 274.268846 
L 153.272718 273.394937 
L 154.753828 272.521028 
L 156.234939 271.647119 
L 157.716049 270.77321 
L 159.19716 269.899302 
L 160.678271 269.025393 
L 162.159381 268.151484 
L 163.640492 267.277575 
L 165.121602 266.403666 
L 166.602713 265.529757 
L 168.083824 264.655848 
L 169.564934 263.781939 
L 171.046045 262.908031 
L 172.527155 262.034122 
L 174.008266 261.160213 
L 175.489376 260.286304 
L 176.970487 259.412395 
L 178.451598 258.538486 
L 179.932708 257.664577 
L 181.413819 256.790668 
L 182.894929 255.91676 
L 184.37604 255.042851 
L 185.85715 254.168942 
L 187.338261 253.295033 
L 188.819372 252.421124 
L 190.300482 251.547215 
L 191.781593 250.673306 
L 193.262703 249.799397 
L 194.743814 248.925489 
L 196.224925 248.05158 
L 197.706035 247.177671 
L 199.187146 246.303762 
L 200.668256 245.429853 
L 202.149367 244.555944 
L 203.630477 243.682035 
L 205.111588 242.808126 
L 206.592699 241.934218 
L 208.073809 241.060309 
L 209.55492 240.1864 
L 211.03603 239.312491 
L 212.517141 238.438582 
L 213.998252 237.564673 
L 215.479362 236.690764 
L 216.960473 235.816855 
L 218.441583 234.942947 
L 219.922694 234.069038 
L 221.403804 233.195129 
L 222.884915 232.32122 
L 224.366026 231.447311 
L 225.847136 230.573402 
L 227.328247 229.699493 
L 228.809357 228.825585 
L 230.290468 227.951676 
L 231.771578 227.077767 
L 233.252689 226.203858 
L 234.7338 225.329949 
L 236.21491 224.45604 
L 237.696021 223.582131 
" clip-path="url(#p9e38674613)" style="fill: none; stroke: #fd810a; stroke-opacity: 0.9; stroke-width: 1.5; stroke-linecap: square"/>
   </g>
   <g id="patch_3">
    <path d="M 41.368438 330.44 
L 41.368438 56.821875 
" style="fill: none; stroke: #000000; stroke-width: 0.8; stroke-linejoin: miter; stroke-linecap: square"/>
   </g>
   <g id="patch_4">
    <path d="M 41.368437 330.44 
L 304.998438 330.44 
" style="fill: none; stroke: #000000; stroke-width: 0.8; stroke-linejoin: miter; stroke-linecap: square"/>
   </g>
   <g id="text_16">
    <!-- r=0.63 ns -->
    <g style="fill: #808080" transform="translate(94.362375 60.518144) scale(0.09 -0.09)">
     <defs>
      <path id="Arial-BoldMT-72" d="M 1300 0 
L 422 0 
L 422 3319 
L 1238 3319 
L 1238 2847 
Q 1447 3181 1614 3287 
Q 1781 3394 1994 3394 
Q 2294 3394 2572 3228 
L 2300 2463 
Q 2078 2606 1888 2606 
Q 1703 2606 1575 2504 
Q 1447 2403 1373 2137 
Q 1300 1872 1300 1025 
L 1300 0 
z
" transform="scale(0.015625)"/>
      <path id="Arial-BoldMT-3d" d="M 266 2550 
L 266 3356 
L 3469 3356 
L 3469 2550 
L 266 2550 
z
M 266 1163 
L 266 1972 
L 3469 1972 
L 3469 1163 
L 266 1163 
z
" transform="scale(0.015625)"/>
      <path id="Arial-BoldMT-30" d="M 1756 4600 
Q 2422 4600 2797 4125 
Q 3244 3563 3244 2259 
Q 3244 959 2794 391 
Q 2422 -78 1756 -78 
Q 1088 -78 678 436 
Q 269 950 269 2269 
Q 269 3563 719 4131 
Q 1091 4600 1756 4600 
z
M 1756 3872 
Q 1597 3872 1472 3770 
Q 1347 3669 1278 3406 
Q 1188 3066 1188 2259 
Q 1188 1453 1269 1151 
Q 1350 850 1473 750 
Q 1597 650 1756 650 
Q 1916 650 2041 751 
Q 2166 853 2234 1116 
Q 2325 1453 2325 2259 
Q 2325 3066 2244 3367 
Q 2163 3669 2039 3770 
Q 1916 3872 1756 3872 
z
" transform="scale(0.015625)"/>
      <path id="Arial-BoldMT-2e" d="M 459 0 
L 459 878 
L 1338 878 
L 1338 0 
L 459 0 
z
" transform="scale(0.015625)"/>
      <path id="Arial-BoldMT-36" d="M 3247 3459 
L 2397 3366 
Q 2366 3628 2234 3753 
Q 2103 3878 1894 3878 
Q 1616 3878 1423 3628 
Q 1231 3378 1181 2588 
Q 1509 2975 1997 2975 
Q 2547 2975 2939 2556 
Q 3331 2138 3331 1475 
Q 3331 772 2918 347 
Q 2506 -78 1859 -78 
Q 1166 -78 719 461 
Q 272 1000 272 2228 
Q 272 3488 737 4044 
Q 1203 4600 1947 4600 
Q 2469 4600 2811 4308 
Q 3153 4016 3247 3459 
z
M 1256 1544 
Q 1256 1116 1453 883 
Q 1650 650 1903 650 
Q 2147 650 2309 840 
Q 2472 1031 2472 1466 
Q 2472 1913 2297 2120 
Q 2122 2328 1859 2328 
Q 1606 2328 1431 2129 
Q 1256 1931 1256 1544 
z
" transform="scale(0.015625)"/>
      <path id="Arial-BoldMT-33" d="M 241 1216 
L 1091 1319 
Q 1131 994 1309 822 
Q 1488 650 1741 650 
Q 2013 650 2198 856 
Q 2384 1063 2384 1413 
Q 2384 1744 2206 1937 
Q 2028 2131 1772 2131 
Q 1603 2131 1369 2066 
L 1466 2781 
Q 1822 2772 2009 2936 
Q 2197 3100 2197 3372 
Q 2197 3603 2059 3740 
Q 1922 3878 1694 3878 
Q 1469 3878 1309 3722 
Q 1150 3566 1116 3266 
L 306 3403 
Q 391 3819 561 4067 
Q 731 4316 1036 4458 
Q 1341 4600 1719 4600 
Q 2366 4600 2756 4188 
Q 3078 3850 3078 3425 
Q 3078 2822 2419 2463 
Q 2813 2378 3048 2084 
Q 3284 1791 3284 1375 
Q 3284 772 2843 347 
Q 2403 -78 1747 -78 
Q 1125 -78 715 280 
Q 306 638 241 1216 
z
" transform="scale(0.015625)"/>
      <path id="Arial-BoldMT-20" transform="scale(0.015625)"/>
      <path id="Arial-BoldMT-6e" d="M 3478 0 
L 2600 0 
L 2600 1694 
Q 2600 2231 2544 2389 
Q 2488 2547 2361 2634 
Q 2234 2722 2056 2722 
Q 1828 2722 1647 2597 
Q 1466 2472 1398 2265 
Q 1331 2059 1331 1503 
L 1331 0 
L 453 0 
L 453 3319 
L 1269 3319 
L 1269 2831 
Q 1703 3394 2363 3394 
Q 2653 3394 2893 3289 
Q 3134 3184 3257 3021 
Q 3381 2859 3429 2653 
Q 3478 2447 3478 2063 
L 3478 0 
z
" transform="scale(0.015625)"/>
      <path id="Arial-BoldMT-73" d="M 150 947 
L 1031 1081 
Q 1088 825 1259 692 
Q 1431 559 1741 559 
Q 2081 559 2253 684 
Q 2369 772 2369 919 
Q 2369 1019 2306 1084 
Q 2241 1147 2013 1200 
Q 950 1434 666 1628 
Q 272 1897 272 2375 
Q 272 2806 612 3100 
Q 953 3394 1669 3394 
Q 2350 3394 2681 3172 
Q 3013 2950 3138 2516 
L 2309 2363 
Q 2256 2556 2107 2659 
Q 1959 2763 1684 2763 
Q 1338 2763 1188 2666 
Q 1088 2597 1088 2488 
Q 1088 2394 1175 2328 
Q 1294 2241 1995 2081 
Q 2697 1922 2975 1691 
Q 3250 1456 3250 1038 
Q 3250 581 2869 253 
Q 2488 -75 1741 -75 
Q 1063 -75 667 200 
Q 272 475 150 947 
z
" transform="scale(0.015625)"/>
     </defs>
     <use xlink:href="#Arial-BoldMT-72"/>
     <use xlink:href="#Arial-BoldMT-3d" transform="translate(38.916016 0)"/>
     <use xlink:href="#Arial-BoldMT-30" transform="translate(97.314453 0)"/>
     <use xlink:href="#Arial-BoldMT-2e" transform="translate(152.929688 0)"/>
     <use xlink:href="#Arial-BoldMT-36" transform="translate(180.712891 0)"/>
     <use xlink:href="#Arial-BoldMT-33" transform="translate(236.328125 0)"/>
     <use xlink:href="#Arial-BoldMT-20" transform="translate(291.943359 0)"/>
     <use xlink:href="#Arial-BoldMT-6e" transform="translate(319.726562 0)"/>
     <use xlink:href="#Arial-BoldMT-73" transform="translate(380.810547 0)"/>
    </g>
   </g>
   <g id="text_17">
    <!-- r=0.62 ns -->
    <g style="fill: #fd810a" transform="translate(212.727937 60.518144) scale(0.09 -0.09)">
     <defs>
      <path id="Arial-BoldMT-32" d="M 3238 816 
L 3238 0 
L 159 0 
Q 209 463 459 877 
Q 709 1291 1447 1975 
Q 2041 2528 2175 2725 
Q 2356 2997 2356 3263 
Q 2356 3556 2198 3714 
Q 2041 3872 1763 3872 
Q 1488 3872 1325 3706 
Q 1163 3541 1138 3156 
L 263 3244 
Q 341 3969 753 4284 
Q 1166 4600 1784 4600 
Q 2463 4600 2850 4234 
Q 3238 3869 3238 3325 
Q 3238 3016 3127 2736 
Q 3016 2456 2775 2150 
Q 2616 1947 2200 1565 
Q 1784 1184 1673 1059 
Q 1563 934 1494 816 
L 3238 816 
z
" transform="scale(0.015625)"/>
     </defs>
     <use xlink:href="#Arial-BoldMT-72"/>
     <use xlink:href="#Arial-BoldMT-3d" transform="translate(38.916016 0)"/>
     <use xlink:href="#Arial-BoldMT-30" transform="translate(97.314453 0)"/>
     <use xlink:href="#Arial-BoldMT-2e" transform="translate(152.929688 0)"/>
     <use xlink:href="#Arial-BoldMT-36" transform="translate(180.712891 0)"/>
     <use xlink:href="#Arial-BoldMT-32" transform="translate(236.328125 0)"/>
     <use xlink:href="#Arial-BoldMT-20" transform="translate(291.943359 0)"/>
     <use xlink:href="#Arial-BoldMT-6e" transform="translate(319.726562 0)"/>
     <use xlink:href="#Arial-BoldMT-73" transform="translate(380.810547 0)"/>
    </g>
   </g>
   <g id="text_18">
    <!-- Macrophages -->
    <g transform="translate(140.954531 50.821875) scale(0.1 -0.1)">
     <defs>
      <path id="Arial-BoldMT-4d" d="M 453 0 
L 453 4581 
L 1838 4581 
L 2669 1456 
L 3491 4581 
L 4878 4581 
L 4878 0 
L 4019 0 
L 4019 3606 
L 3109 0 
L 2219 0 
L 1313 3606 
L 1313 0 
L 453 0 
z
" transform="scale(0.015625)"/>
      <path id="Arial-BoldMT-61" d="M 1116 2306 
L 319 2450 
Q 453 2931 781 3162 
Q 1109 3394 1756 3394 
Q 2344 3394 2631 3255 
Q 2919 3116 3036 2902 
Q 3153 2688 3153 2116 
L 3144 1091 
Q 3144 653 3186 445 
Q 3228 238 3344 0 
L 2475 0 
Q 2441 88 2391 259 
Q 2369 338 2359 363 
Q 2134 144 1878 34 
Q 1622 -75 1331 -75 
Q 819 -75 523 203 
Q 228 481 228 906 
Q 228 1188 362 1408 
Q 497 1628 739 1745 
Q 981 1863 1438 1950 
Q 2053 2066 2291 2166 
L 2291 2253 
Q 2291 2506 2166 2614 
Q 2041 2722 1694 2722 
Q 1459 2722 1328 2630 
Q 1197 2538 1116 2306 
z
M 2291 1594 
Q 2122 1538 1756 1459 
Q 1391 1381 1278 1306 
Q 1106 1184 1106 997 
Q 1106 813 1243 678 
Q 1381 544 1594 544 
Q 1831 544 2047 700 
Q 2206 819 2256 991 
Q 2291 1103 2291 1419 
L 2291 1594 
z
" transform="scale(0.015625)"/>
      <path id="Arial-BoldMT-63" d="M 3353 2338 
L 2488 2181 
Q 2444 2441 2289 2572 
Q 2134 2703 1888 2703 
Q 1559 2703 1364 2476 
Q 1169 2250 1169 1719 
Q 1169 1128 1367 884 
Q 1566 641 1900 641 
Q 2150 641 2309 783 
Q 2469 925 2534 1272 
L 3397 1125 
Q 3263 531 2881 228 
Q 2500 -75 1859 -75 
Q 1131 -75 698 384 
Q 266 844 266 1656 
Q 266 2478 700 2936 
Q 1134 3394 1875 3394 
Q 2481 3394 2839 3133 
Q 3197 2872 3353 2338 
z
" transform="scale(0.015625)"/>
      <path id="Arial-BoldMT-6f" d="M 256 1706 
Q 256 2144 472 2553 
Q 688 2963 1083 3178 
Q 1478 3394 1966 3394 
Q 2719 3394 3200 2905 
Q 3681 2416 3681 1669 
Q 3681 916 3195 420 
Q 2709 -75 1972 -75 
Q 1516 -75 1102 131 
Q 688 338 472 736 
Q 256 1134 256 1706 
z
M 1156 1659 
Q 1156 1166 1390 903 
Q 1625 641 1969 641 
Q 2313 641 2545 903 
Q 2778 1166 2778 1666 
Q 2778 2153 2545 2415 
Q 2313 2678 1969 2678 
Q 1625 2678 1390 2415 
Q 1156 2153 1156 1659 
z
" transform="scale(0.015625)"/>
      <path id="Arial-BoldMT-70" d="M 434 3319 
L 1253 3319 
L 1253 2831 
Q 1413 3081 1684 3237 
Q 1956 3394 2288 3394 
Q 2866 3394 3269 2941 
Q 3672 2488 3672 1678 
Q 3672 847 3265 386 
Q 2859 -75 2281 -75 
Q 2006 -75 1782 34 
Q 1559 144 1313 409 
L 1313 -1263 
L 434 -1263 
L 434 3319 
z
M 1303 1716 
Q 1303 1156 1525 889 
Q 1747 622 2066 622 
Q 2372 622 2575 867 
Q 2778 1113 2778 1672 
Q 2778 2194 2568 2447 
Q 2359 2700 2050 2700 
Q 1728 2700 1515 2451 
Q 1303 2203 1303 1716 
z
" transform="scale(0.015625)"/>
      <path id="Arial-BoldMT-68" d="M 1334 4581 
L 1334 2897 
Q 1759 3394 2350 3394 
Q 2653 3394 2897 3281 
Q 3141 3169 3264 2994 
Q 3388 2819 3433 2606 
Q 3478 2394 3478 1947 
L 3478 0 
L 2600 0 
L 2600 1753 
Q 2600 2275 2550 2415 
Q 2500 2556 2373 2639 
Q 2247 2722 2056 2722 
Q 1838 2722 1666 2615 
Q 1494 2509 1414 2295 
Q 1334 2081 1334 1663 
L 1334 0 
L 456 0 
L 456 4581 
L 1334 4581 
z
" transform="scale(0.015625)"/>
      <path id="Arial-BoldMT-67" d="M 378 -219 
L 1381 -341 
Q 1406 -516 1497 -581 
Q 1622 -675 1891 -675 
Q 2234 -675 2406 -572 
Q 2522 -503 2581 -350 
Q 2622 -241 2622 53 
L 2622 538 
Q 2228 0 1628 0 
Q 959 0 569 566 
Q 263 1013 263 1678 
Q 263 2513 664 2953 
Q 1066 3394 1663 3394 
Q 2278 3394 2678 2853 
L 2678 3319 
L 3500 3319 
L 3500 341 
Q 3500 -247 3403 -537 
Q 3306 -828 3131 -993 
Q 2956 -1159 2664 -1253 
Q 2372 -1347 1925 -1347 
Q 1081 -1347 728 -1058 
Q 375 -769 375 -325 
Q 375 -281 378 -219 
z
M 1163 1728 
Q 1163 1200 1367 954 
Q 1572 709 1872 709 
Q 2194 709 2416 961 
Q 2638 1213 2638 1706 
Q 2638 2222 2425 2472 
Q 2213 2722 1888 2722 
Q 1572 2722 1367 2476 
Q 1163 2231 1163 1728 
z
" transform="scale(0.015625)"/>
      <path id="Arial-BoldMT-65" d="M 2381 1056 
L 3256 909 
Q 3088 428 2723 176 
Q 2359 -75 1813 -75 
Q 947 -75 531 491 
Q 203 944 203 1634 
Q 203 2459 634 2926 
Q 1066 3394 1725 3394 
Q 2466 3394 2894 2905 
Q 3322 2416 3303 1406 
L 1103 1406 
Q 1113 1016 1316 798 
Q 1519 581 1822 581 
Q 2028 581 2168 693 
Q 2309 806 2381 1056 
z
M 2431 1944 
Q 2422 2325 2234 2523 
Q 2047 2722 1778 2722 
Q 1491 2722 1303 2513 
Q 1116 2303 1119 1944 
L 2431 1944 
z
" transform="scale(0.015625)"/>
     </defs>
     <use xlink:href="#Arial-BoldMT-4d"/>
     <use xlink:href="#Arial-BoldMT-61" transform="translate(83.300781 0)"/>
     <use xlink:href="#Arial-BoldMT-63" transform="translate(138.916016 0)"/>
     <use xlink:href="#Arial-BoldMT-72" transform="translate(194.53125 0)"/>
     <use xlink:href="#Arial-BoldMT-6f" transform="translate(233.447266 0)"/>
     <use xlink:href="#Arial-BoldMT-70" transform="translate(294.53125 0)"/>
     <use xlink:href="#Arial-BoldMT-68" transform="translate(355.615234 0)"/>
     <use xlink:href="#Arial-BoldMT-61" transform="translate(416.699219 0)"/>
     <use xlink:href="#Arial-BoldMT-67" transform="translate(472.314453 0)"/>
     <use xlink:href="#Arial-BoldMT-65" transform="translate(533.398438 0)"/>
     <use xlink:href="#Arial-BoldMT-73" transform="translate(589.013672 0)"/>
    </g>
   </g>
  </g>
  <g id="axes_2">
   <g id="patch_5">
    <path d="M 349.768438 330.44 
L 613.398438 330.44 
L 613.398438 56.821875 
L 349.768438 56.821875 
z
" style="fill: #ffffff"/>
   </g>
   <g id="PathCollection_3">
    <defs>
     <path id="C2_0_a20843b12c" d="M 0 3.535534 
C 0.937635 3.535534 1.836992 3.163008 2.5 2.5 
C 3.163008 1.836992 3.535534 0.937635 3.535534 -0 
C 3.535534 -0.937635 3.163008 -1.836992 2.5 -2.5 
C 1.836992 -3.163008 0.937635 -3.535534 0 -3.535534 
C -0.937635 -3.535534 -1.836992 -3.163008 -2.5 -2.5 
C -3.163008 -1.836992 -3.535534 -0.937635 -3.535534 0 
C -3.535534 0.937635 -3.163008 1.836992 -2.5 2.5 
C -1.836992 3.163008 -0.937635 3.535534 0 3.535534 
z
"/>
    </defs>
    <g clip-path="url(#pce590178ef)">
     <use xlink:href="#C2_0_a20843b12c" x="361.751619" y="232.76894" style="fill: #808080; fill-opacity: 0.8"/>
    </g>
    <g clip-path="url(#pce590178ef)">
     <use xlink:href="#C2_0_a20843b12c" x="361.751619" y="180.584937" style="fill: #808080; fill-opacity: 0.8"/>
    </g>
    <g clip-path="url(#pce590178ef)">
     <use xlink:href="#C2_0_a20843b12c" x="562.029624" y="246.684674" style="fill: #808080; fill-opacity: 0.8"/>
    </g>
    <g clip-path="url(#pce590178ef)">
     <use xlink:href="#C2_0_a20843b12c" x="562.029624" y="175.366536" style="fill: #808080; fill-opacity: 0.8"/>
    </g>
    <g clip-path="url(#pce590178ef)">
     <use xlink:href="#C2_0_a20843b12c" x="601.415256" y="147.535068" style="fill: #808080; fill-opacity: 0.8"/>
    </g>
    <g clip-path="url(#pce590178ef)">
     <use xlink:href="#C2_0_a20843b12c" x="601.415256" y="126.661466" style="fill: #808080; fill-opacity: 0.8"/>
    </g>
   </g>
   <g id="PathCollection_4">
    <defs>
     <path id="C3_0_3c2ccaa896" d="M 0 3.535534 
C 0.937635 3.535534 1.836992 3.163008 2.5 2.5 
C 3.163008 1.836992 3.535534 0.937635 3.535534 -0 
C 3.535534 -0.937635 3.163008 -1.836992 2.5 -2.5 
C 1.836992 -3.163008 0.937635 -3.535534 0 -3.535534 
C -0.937635 -3.535534 -1.836992 -3.163008 -2.5 -2.5 
C -3.163008 -1.836992 -3.535534 -0.937635 -3.535534 0 
C -3.535534 0.937635 -3.163008 1.836992 -2.5 2.5 
C -1.836992 3.163008 -0.937635 3.535534 0 3.535534 
z
"/>
    </defs>
    <g clip-path="url(#pce590178ef)">
     <use xlink:href="#C3_0_3c2ccaa896" x="410.215251" y="318.002812" style="fill: #fd810a; fill-opacity: 0.8"/>
    </g>
    <g clip-path="url(#pce590178ef)">
     <use xlink:href="#C3_0_3c2ccaa896" x="410.215251" y="265.818809" style="fill: #fd810a; fill-opacity: 0.8"/>
    </g>
    <g clip-path="url(#pce590178ef)">
     <use xlink:href="#C3_0_3c2ccaa896" x="395.13783" y="316.263346" style="fill: #fd810a; fill-opacity: 0.8"/>
    </g>
    <g clip-path="url(#pce590178ef)">
     <use xlink:href="#C3_0_3c2ccaa896" x="395.13783" y="69.259062" style="fill: #fd810a; fill-opacity: 0.8"/>
    </g>
    <g clip-path="url(#pce590178ef)">
     <use xlink:href="#C3_0_3c2ccaa896" x="537.708556" y="244.945208" style="fill: #fd810a; fill-opacity: 0.8"/>
    </g>
    <g clip-path="url(#pce590178ef)">
     <use xlink:href="#C3_0_3c2ccaa896" x="537.708556" y="248.424141" style="fill: #fd810a; fill-opacity: 0.8"/>
    </g>
   </g>
   <g id="matplotlib.axis_3">
    <g id="xtick_6">
     <g id="line2d_16">
      <g>
       <use xlink:href="#mfc26d8f80e" x="389.590653" y="330.44" style="stroke: #000000; stroke-width: 0.8"/>
      </g>
     </g>
     <g id="text_19">
      <!-- 50 -->
      <g transform="translate(384.500653 343.51875) scale(0.08 -0.08)">
       <use xlink:href="#DejaVuSans-35"/>
       <use xlink:href="#DejaVuSans-30" transform="translate(63.623047 0)"/>
      </g>
     </g>
    </g>
    <g id="xtick_7">
     <g id="line2d_17">
      <g>
       <use xlink:href="#mfc26d8f80e" x="439.037788" y="330.44" style="stroke: #000000; stroke-width: 0.8"/>
      </g>
     </g>
     <g id="text_20">
      <!-- 100 -->
      <g transform="translate(431.402788 343.51875) scale(0.08 -0.08)">
       <use xlink:href="#DejaVuSans-31"/>
       <use xlink:href="#DejaVuSans-30" transform="translate(63.623047 0)"/>
       <use xlink:href="#DejaVuSans-30" transform="translate(127.246094 0)"/>
      </g>
     </g>
    </g>
    <g id="xtick_8">
     <g id="line2d_18">
      <g>
       <use xlink:href="#mfc26d8f80e" x="488.484922" y="330.44" style="stroke: #000000; stroke-width: 0.8"/>
      </g>
     </g>
     <g id="text_21">
      <!-- 150 -->
      <g transform="translate(480.849922 343.51875) scale(0.08 -0.08)">
       <use xlink:href="#DejaVuSans-31"/>
       <use xlink:href="#DejaVuSans-35" transform="translate(63.623047 0)"/>
       <use xlink:href="#DejaVuSans-30" transform="translate(127.246094 0)"/>
      </g>
     </g>
    </g>
    <g id="xtick_9">
     <g id="line2d_19">
      <g>
       <use xlink:href="#mfc26d8f80e" x="537.932057" y="330.44" style="stroke: #000000; stroke-width: 0.8"/>
      </g>
     </g>
     <g id="text_22">
      <!-- 200 -->
      <g transform="translate(530.297057 343.51875) scale(0.08 -0.08)">
       <use xlink:href="#DejaVuSans-32"/>
       <use xlink:href="#DejaVuSans-30" transform="translate(63.623047 0)"/>
       <use xlink:href="#DejaVuSans-30" transform="translate(127.246094 0)"/>
      </g>
     </g>
    </g>
    <g id="xtick_10">
     <g id="line2d_20">
      <g>
       <use xlink:href="#mfc26d8f80e" x="587.379192" y="330.44" style="stroke: #000000; stroke-width: 0.8"/>
      </g>
     </g>
     <g id="text_23">
      <!-- 250 -->
      <g transform="translate(579.744192 343.51875) scale(0.08 -0.08)">
       <use xlink:href="#DejaVuSans-32"/>
       <use xlink:href="#DejaVuSans-35" transform="translate(63.623047 0)"/>
       <use xlink:href="#DejaVuSans-30" transform="translate(127.246094 0)"/>
      </g>
     </g>
    </g>
    <g id="text_24">
     <!-- Fungal Volume (mm³) -->
     <g transform="translate(438.323672 357.734219) scale(0.09 -0.09)">
      <use xlink:href="#ArialMT-46"/>
      <use xlink:href="#ArialMT-75" transform="translate(61.083984 0)"/>
      <use xlink:href="#ArialMT-6e" transform="translate(116.699219 0)"/>
      <use xlink:href="#ArialMT-67" transform="translate(172.314453 0)"/>
      <use xlink:href="#ArialMT-61" transform="translate(227.929688 0)"/>
      <use xlink:href="#ArialMT-6c" transform="translate(283.544922 0)"/>
      <use xlink:href="#ArialMT-20" transform="translate(305.761719 0)"/>
      <use xlink:href="#ArialMT-56" transform="translate(333.544922 0)"/>
      <use xlink:href="#ArialMT-6f" transform="translate(394.744141 0)"/>
      <use xlink:href="#ArialMT-6c" transform="translate(450.359375 0)"/>
      <use xlink:href="#ArialMT-75" transform="translate(472.576172 0)"/>
      <use xlink:href="#ArialMT-6d" transform="translate(528.191406 0)"/>
      <use xlink:href="#ArialMT-65" transform="translate(611.492188 0)"/>
      <use xlink:href="#ArialMT-20" transform="translate(667.107422 0)"/>
      <use xlink:href="#ArialMT-28" transform="translate(694.890625 0)"/>
      <use xlink:href="#ArialMT-6d" transform="translate(728.191406 0)"/>
      <use xlink:href="#ArialMT-6d" transform="translate(811.492188 0)"/>
      <use xlink:href="#ArialMT-b3" transform="translate(894.792969 0)"/>
      <use xlink:href="#ArialMT-29" transform="translate(928.09375 0)"/>
     </g>
    </g>
   </g>
   <g id="matplotlib.axis_4">
    <g id="ytick_9">
     <g id="line2d_21">
      <g>
       <use xlink:href="#mf0d7ec22ef" x="349.768438" y="289.447726" style="stroke: #000000; stroke-width: 0.8"/>
      </g>
     </g>
     <g id="text_25">
      <!-- 1 -->
      <g transform="translate(337.678438 292.487101) scale(0.08 -0.08)">
       <use xlink:href="#DejaVuSans-31"/>
      </g>
     </g>
    </g>
    <g id="ytick_10">
     <g id="line2d_22">
      <g>
       <use xlink:href="#mf0d7ec22ef" x="349.768438" y="234.800637" style="stroke: #000000; stroke-width: 0.8"/>
      </g>
     </g>
     <g id="text_26">
      <!-- 2 -->
      <g transform="translate(337.678438 237.840012) scale(0.08 -0.08)">
       <use xlink:href="#DejaVuSans-32"/>
      </g>
     </g>
    </g>
    <g id="ytick_11">
     <g id="line2d_23">
      <g>
       <use xlink:href="#mf0d7ec22ef" x="349.768438" y="180.153549" style="stroke: #000000; stroke-width: 0.8"/>
      </g>
     </g>
     <g id="text_27">
      <!-- 3 -->
      <g transform="translate(337.678438 183.192924) scale(0.08 -0.08)">
       <use xlink:href="#DejaVuSans-33"/>
      </g>
     </g>
    </g>
    <g id="ytick_12">
     <g id="line2d_24">
      <g>
       <use xlink:href="#mf0d7ec22ef" x="349.768438" y="125.50646" style="stroke: #000000; stroke-width: 0.8"/>
      </g>
     </g>
     <g id="text_28">
      <!-- 4 -->
      <g transform="translate(337.678438 128.545835) scale(0.08 -0.08)">
       <use xlink:href="#DejaVuSans-34"/>
      </g>
     </g>
    </g>
    <g id="ytick_13">
     <g id="line2d_25">
      <g>
       <use xlink:href="#mf0d7ec22ef" x="349.768438" y="70.859372" style="stroke: #000000; stroke-width: 0.8"/>
      </g>
     </g>
     <g id="text_29">
      <!-- 5 -->
      <g transform="translate(337.678438 73.898747) scale(0.08 -0.08)">
       <use xlink:href="#DejaVuSans-35"/>
      </g>
     </g>
    </g>
    <g id="text_30">
     <!-- Cell Density (1000 cells/100 μm circle) -->
     <g transform="translate(329.784219 270.24625) rotate(-90) scale(0.09 -0.09)">
      <use xlink:href="#ArialMT-43"/>
      <use xlink:href="#ArialMT-65" transform="translate(72.216797 0)"/>
      <use xlink:href="#ArialMT-6c" transform="translate(127.832031 0)"/>
      <use xlink:href="#ArialMT-6c" transform="translate(150.048828 0)"/>
      <use xlink:href="#ArialMT-20" transform="translate(172.265625 0)"/>
      <use xlink:href="#ArialMT-44" transform="translate(200.048828 0)"/>
      <use xlink:href="#ArialMT-65" transform="translate(272.265625 0)"/>
      <use xlink:href="#ArialMT-6e" transform="translate(327.880859 0)"/>
      <use xlink:href="#ArialMT-73" transform="translate(383.496094 0)"/>
      <use xlink:href="#ArialMT-69" transform="translate(433.496094 0)"/>
      <use xlink:href="#ArialMT-74" transform="translate(455.712891 0)"/>
      <use xlink:href="#ArialMT-79" transform="translate(483.496094 0)"/>
      <use xlink:href="#ArialMT-20" transform="translate(533.496094 0)"/>
      <use xlink:href="#ArialMT-28" transform="translate(561.279297 0)"/>
      <use xlink:href="#ArialMT-31" transform="translate(594.580078 0)"/>
      <use xlink:href="#ArialMT-30" transform="translate(650.195312 0)"/>
      <use xlink:href="#ArialMT-30" transform="translate(705.810547 0)"/>
      <use xlink:href="#ArialMT-30" transform="translate(761.425781 0)"/>
      <use xlink:href="#ArialMT-20" transform="translate(817.041016 0)"/>
      <use xlink:href="#ArialMT-63" transform="translate(844.824219 0)"/>
      <use xlink:href="#ArialMT-65" transform="translate(894.824219 0)"/>
      <use xlink:href="#ArialMT-6c" transform="translate(950.439453 0)"/>
      <use xlink:href="#ArialMT-6c" transform="translate(972.65625 0)"/>
      <use xlink:href="#ArialMT-73" transform="translate(994.873047 0)"/>
      <use xlink:href="#ArialMT-2f" transform="translate(1044.873047 0)"/>
      <use xlink:href="#ArialMT-31" transform="translate(1072.65625 0)"/>
      <use xlink:href="#ArialMT-30" transform="translate(1128.271484 0)"/>
      <use xlink:href="#ArialMT-30" transform="translate(1183.886719 0)"/>
      <use xlink:href="#ArialMT-20" transform="translate(1239.501953 0)"/>
      <use xlink:href="#ArialMT-3bc" transform="translate(1267.285156 0)"/>
      <use xlink:href="#ArialMT-6d" transform="translate(1324.902344 0)"/>
      <use xlink:href="#ArialMT-20" transform="translate(1408.203125 0)"/>
      <use xlink:href="#ArialMT-63" transform="translate(1435.986328 0)"/>
      <use xlink:href="#ArialMT-69" transform="translate(1485.986328 0)"/>
      <use xlink:href="#ArialMT-72" transform="translate(1508.203125 0)"/>
      <use xlink:href="#ArialMT-63" transform="translate(1541.503906 0)"/>
      <use xlink:href="#ArialMT-6c" transform="translate(1591.503906 0)"/>
      <use xlink:href="#ArialMT-65" transform="translate(1613.720703 0)"/>
      <use xlink:href="#ArialMT-29" transform="translate(1669.335938 0)"/>
     </g>
    </g>
   </g>
   <g id="line2d_26">
    <path d="M 361.751619 212.629343 
L 364.172464 212.172143 
L 366.593309 211.714943 
L 369.014154 211.257743 
L 371.434999 210.800543 
L 373.855843 210.343343 
L 376.276688 209.886144 
L 378.697533 209.428944 
L 381.118378 208.971744 
L 383.539223 208.514544 
L 385.960067 208.057344 
L 388.380912 207.600144 
L 390.801757 207.142944 
L 393.222602 206.685745 
L 395.643447 206.228545 
L 398.064291 205.771345 
L 400.485136 205.314145 
L 402.905981 204.856945 
L 405.326826 204.399745 
L 407.747671 203.942545 
L 410.168516 203.485345 
L 412.58936 203.028146 
L 415.010205 202.570946 
L 417.43105 202.113746 
L 419.851895 201.656546 
L 422.27274 201.199346 
L 424.693584 200.742146 
L 427.114429 200.284946 
L 429.535274 199.827747 
L 431.956119 199.370547 
L 434.376964 198.913347 
L 436.797808 198.456147 
L 439.218653 197.998947 
L 441.639498 197.541747 
L 444.060343 197.084547 
L 446.481188 196.627347 
L 448.902033 196.170148 
L 451.322877 195.712948 
L 453.743722 195.255748 
L 456.164567 194.798548 
L 458.585412 194.341348 
L 461.006257 193.884148 
L 463.427101 193.426948 
L 465.847946 192.969749 
L 468.268791 192.512549 
L 470.689636 192.055349 
L 473.110481 191.598149 
L 475.531325 191.140949 
L 477.95217 190.683749 
L 480.373015 190.226549 
L 482.79386 189.769349 
L 485.214705 189.31215 
L 487.63555 188.85495 
L 490.056394 188.39775 
L 492.477239 187.94055 
L 494.898084 187.48335 
L 497.318929 187.02615 
L 499.739774 186.56895 
L 502.160618 186.111751 
L 504.581463 185.654551 
L 507.002308 185.197351 
L 509.423153 184.740151 
L 511.843998 184.282951 
L 514.264842 183.825751 
L 516.685687 183.368551 
L 519.106532 182.911351 
L 521.527377 182.454152 
L 523.948222 181.996952 
L 526.369067 181.539752 
L 528.789911 181.082552 
L 531.210756 180.625352 
L 533.631601 180.168152 
L 536.052446 179.710952 
L 538.473291 179.253753 
L 540.894135 178.796553 
L 543.31498 178.339353 
L 545.735825 177.882153 
L 548.15667 177.424953 
L 550.577515 176.967753 
L 552.998359 176.510553 
L 555.419204 176.053353 
L 557.840049 175.596154 
L 560.260894 175.138954 
L 562.681739 174.681754 
L 565.102584 174.224554 
L 567.523428 173.767354 
L 569.944273 173.310154 
L 572.365118 172.852954 
L 574.785963 172.395754 
L 577.206808 171.938555 
L 579.627652 171.481355 
L 582.048497 171.024155 
L 584.469342 170.566955 
L 586.890187 170.109755 
L 589.311032 169.652555 
L 591.731876 169.195355 
L 594.152721 168.738156 
L 596.573566 168.280956 
L 598.994411 167.823756 
L 601.415256 167.366556 
" clip-path="url(#pce590178ef)" style="fill: none; stroke: #808080; stroke-opacity: 0.9; stroke-width: 1.5; stroke-linecap: square"/>
   </g>
   <g id="line2d_27">
    <path d="M 395.13783 238.907567 
L 396.577939 239.041247 
L 398.018047 239.174928 
L 399.458155 239.308609 
L 400.898264 239.44229 
L 402.338372 239.575971 
L 403.77848 239.709651 
L 405.218589 239.843332 
L 406.658697 239.977013 
L 408.098805 240.110694 
L 409.538914 240.244375 
L 410.979022 240.378055 
L 412.41913 240.511736 
L 413.859239 240.645417 
L 415.299347 240.779098 
L 416.739455 240.912779 
L 418.179564 241.046459 
L 419.619672 241.18014 
L 421.05978 241.313821 
L 422.499889 241.447502 
L 423.939997 241.581183 
L 425.380105 241.714863 
L 426.820214 241.848544 
L 428.260322 241.982225 
L 429.70043 242.115906 
L 431.140539 242.249587 
L 432.580647 242.383267 
L 434.020756 242.516948 
L 435.460864 242.650629 
L 436.900972 242.78431 
L 438.341081 242.917991 
L 439.781189 243.051671 
L 441.221297 243.185352 
L 442.661406 243.319033 
L 444.101514 243.452714 
L 445.541622 243.586395 
L 446.981731 243.720075 
L 448.421839 243.853756 
L 449.861947 243.987437 
L 451.302056 244.121118 
L 452.742164 244.254799 
L 454.182272 244.388479 
L 455.622381 244.52216 
L 457.062489 244.655841 
L 458.502597 244.789522 
L 459.942706 244.923203 
L 461.382814 245.056883 
L 462.822922 245.190564 
L 464.263031 245.324245 
L 465.703139 245.457926 
L 467.143247 245.591607 
L 468.583356 245.725287 
L 470.023464 245.858968 
L 471.463572 245.992649 
L 472.903681 246.12633 
L 474.343789 246.260011 
L 475.783897 246.393691 
L 477.224006 246.527372 
L 478.664114 246.661053 
L 480.104222 246.794734 
L 481.544331 246.928415 
L 482.984439 247.062095 
L 484.424547 247.195776 
L 485.864656 247.329457 
L 487.304764 247.463138 
L 488.744873 247.596819 
L 490.184981 247.730499 
L 491.625089 247.86418 
L 493.065198 247.997861 
L 494.505306 248.131542 
L 495.945414 248.265223 
L 497.385523 248.398903 
L 498.825631 248.532584 
L 500.265739 248.666265 
L 501.705848 248.799946 
L 503.145956 248.933627 
L 504.586064 249.067307 
L 506.026173 249.200988 
L 507.466281 249.334669 
L 508.906389 249.46835 
L 510.346498 249.602031 
L 511.786606 249.735711 
L 513.226714 249.869392 
L 514.666823 250.003073 
L 516.106931 250.136754 
L 517.547039 250.270434 
L 518.987148 250.404115 
L 520.427256 250.537796 
L 521.867364 250.671477 
L 523.307473 250.805158 
L 524.747581 250.938838 
L 526.187689 251.072519 
L 527.627798 251.2062 
L 529.067906 251.339881 
L 530.508014 251.473562 
L 531.948123 251.607242 
L 533.388231 251.740923 
L 534.828339 251.874604 
L 536.268448 252.008285 
L 537.708556 252.141966 
" clip-path="url(#pce590178ef)" style="fill: none; stroke: #fd810a; stroke-opacity: 0.9; stroke-width: 1.5; stroke-linecap: square"/>
   </g>
   <g id="patch_6">
    <path d="M 349.768438 330.44 
L 349.768438 56.821875 
" style="fill: none; stroke: #000000; stroke-width: 0.8; stroke-linejoin: miter; stroke-linecap: square"/>
   </g>
   <g id="patch_7">
    <path d="M 349.768438 330.44 
L 613.398438 330.44 
" style="fill: none; stroke: #000000; stroke-width: 0.8; stroke-linejoin: miter; stroke-linecap: square"/>
   </g>
   <g id="text_31">
    <!-- r=0.46 ns -->
    <g style="fill: #808080" transform="translate(402.762375 60.518144) scale(0.09 -0.09)">
     <defs>
      <path id="Arial-BoldMT-34" d="M 1994 0 
L 1994 922 
L 119 922 
L 119 1691 
L 2106 4600 
L 2844 4600 
L 2844 1694 
L 3413 1694 
L 3413 922 
L 2844 922 
L 2844 0 
L 1994 0 
z
M 1994 1694 
L 1994 3259 
L 941 1694 
L 1994 1694 
z
" transform="scale(0.015625)"/>
     </defs>
     <use xlink:href="#Arial-BoldMT-72"/>
     <use xlink:href="#Arial-BoldMT-3d" transform="translate(38.916016 0)"/>
     <use xlink:href="#Arial-BoldMT-30" transform="translate(97.314453 0)"/>
     <use xlink:href="#Arial-BoldMT-2e" transform="translate(152.929688 0)"/>
     <use xlink:href="#Arial-BoldMT-34" transform="translate(180.712891 0)"/>
     <use xlink:href="#Arial-BoldMT-36" transform="translate(236.328125 0)"/>
     <use xlink:href="#Arial-BoldMT-20" transform="translate(291.943359 0)"/>
     <use xlink:href="#Arial-BoldMT-6e" transform="translate(319.726562 0)"/>
     <use xlink:href="#Arial-BoldMT-73" transform="translate(380.810547 0)"/>
    </g>
   </g>
   <g id="text_32">
    <!-- r=-0.07 ns -->
    <g style="fill: #fd810a" transform="translate(521.127938 60.518144) scale(0.09 -0.09)">
     <defs>
      <path id="Arial-BoldMT-2d" d="M 359 1222 
L 359 2100 
L 2084 2100 
L 2084 1222 
L 359 1222 
z
" transform="scale(0.015625)"/>
      <path id="Arial-BoldMT-37" d="M 272 3703 
L 272 4519 
L 3275 4519 
L 3275 3881 
Q 2903 3516 2518 2831 
Q 2134 2147 1932 1376 
Q 1731 606 1734 0 
L 888 0 
Q 909 950 1279 1937 
Q 1650 2925 2269 3703 
L 272 3703 
z
" transform="scale(0.015625)"/>
     </defs>
     <use xlink:href="#Arial-BoldMT-72"/>
     <use xlink:href="#Arial-BoldMT-3d" transform="translate(38.916016 0)"/>
     <use xlink:href="#Arial-BoldMT-2d" transform="translate(97.314453 0)"/>
     <use xlink:href="#Arial-BoldMT-30" transform="translate(130.615234 0)"/>
     <use xlink:href="#Arial-BoldMT-2e" transform="translate(186.230469 0)"/>
     <use xlink:href="#Arial-BoldMT-30" transform="translate(214.013672 0)"/>
     <use xlink:href="#Arial-BoldMT-37" transform="translate(269.628906 0)"/>
     <use xlink:href="#Arial-BoldMT-20" transform="translate(325.244141 0)"/>
     <use xlink:href="#Arial-BoldMT-6e" transform="translate(353.027344 0)"/>
     <use xlink:href="#Arial-BoldMT-73" transform="translate(414.111328 0)"/>
    </g>
   </g>
   <g id="text_33">
    <!-- Microglia -->
    <g transform="translate(459.636563 50.821875) scale(0.1 -0.1)">
     <defs>
      <path id="Arial-BoldMT-69" d="M 459 3769 
L 459 4581 
L 1338 4581 
L 1338 3769 
L 459 3769 
z
M 459 0 
L 459 3319 
L 1338 3319 
L 1338 0 
L 459 0 
z
" transform="scale(0.015625)"/>
      <path id="Arial-BoldMT-6c" d="M 459 0 
L 459 4581 
L 1338 4581 
L 1338 0 
L 459 0 
z
" transform="scale(0.015625)"/>
     </defs>
     <use xlink:href="#Arial-BoldMT-4d"/>
     <use xlink:href="#Arial-BoldMT-69" transform="translate(83.300781 0)"/>
     <use xlink:href="#Arial-BoldMT-63" transform="translate(111.083984 0)"/>
     <use xlink:href="#Arial-BoldMT-72" transform="translate(166.699219 0)"/>
     <use xlink:href="#Arial-BoldMT-6f" transform="translate(205.615234 0)"/>
     <use xlink:href="#Arial-BoldMT-67" transform="translate(266.699219 0)"/>
     <use xlink:href="#Arial-BoldMT-6c" transform="translate(327.783203 0)"/>
     <use xlink:href="#Arial-BoldMT-69" transform="translate(355.566406 0)"/>
     <use xlink:href="#Arial-BoldMT-61" transform="translate(383.349609 0)"/>
    </g>
   </g>
  </g>
  <g id="axes_3">
   <g id="patch_8">
    <path d="M 658.168437 330.44 
L 921.798438 330.44 
L 921.798438 56.821875 
L 658.168437 56.821875 
z
" style="fill: #ffffff"/>
   </g>
   <g id="PathCollection_5">
    <defs>
     <path id="C4_0_0df8d7859a" d="M 0 3.535534 
C 0.937635 3.535534 1.836992 3.163008 2.5 2.5 
C 3.163008 1.836992 3.535534 0.937635 3.535534 -0 
C 3.535534 -0.937635 3.163008 -1.836992 2.5 -2.5 
C 1.836992 -3.163008 0.937635 -3.535534 0 -3.535534 
C -0.937635 -3.535534 -1.836992 -3.163008 -2.5 -2.5 
C -3.163008 -1.836992 -3.535534 -0.937635 -3.535534 0 
C -3.535534 0.937635 -3.163008 1.836992 -2.5 2.5 
C -1.836992 3.163008 -0.937635 3.535534 0 3.535534 
z
"/>
    </defs>
    <g clip-path="url(#pddca42d4dc)">
     <use xlink:href="#C4_0_0df8d7859a" x="821.138612" y="288.738842" style="fill: #808080; fill-opacity: 0.8"/>
    </g>
    <g clip-path="url(#pddca42d4dc)">
     <use xlink:href="#C4_0_0df8d7859a" x="821.138612" y="113.155018" style="fill: #808080; fill-opacity: 0.8"/>
    </g>
    <g clip-path="url(#pddca42d4dc)">
     <use xlink:href="#C4_0_0df8d7859a" x="727.689931" y="303.370827" style="fill: #808080; fill-opacity: 0.8"/>
    </g>
    <g clip-path="url(#pddca42d4dc)">
     <use xlink:href="#C4_0_0df8d7859a" x="670.151619" y="244.842886" style="fill: #808080; fill-opacity: 0.8"/>
    </g>
    <g clip-path="url(#pddca42d4dc)">
     <use xlink:href="#C4_0_0df8d7859a" x="670.151619" y="318.002812" style="fill: #808080; fill-opacity: 0.8"/>
    </g>
   </g>
   <g id="PathCollection_6">
    <defs>
     <path id="C5_0_2d15723d79" d="M 0 3.535534 
C 0.937635 3.535534 1.836992 3.163008 2.5 2.5 
C 3.163008 1.836992 3.535534 0.937635 3.535534 -0 
C 3.535534 -0.937635 3.163008 -1.836992 2.5 -2.5 
C 1.836992 -3.163008 0.937635 -3.535534 0 -3.535534 
C -0.937635 -3.535534 -1.836992 -3.163008 -2.5 -2.5 
C -3.163008 -1.836992 -3.535534 -0.937635 -3.535534 0 
C -3.535534 0.937635 -3.163008 1.836992 -2.5 2.5 
C -1.836992 3.163008 -0.937635 3.535534 0 3.535534 
z
"/>
    </defs>
    <g clip-path="url(#pddca42d4dc)">
     <use xlink:href="#C5_0_2d15723d79" x="698.28458" y="288.738842" style="fill: #fd810a; fill-opacity: 0.8"/>
    </g>
    <g clip-path="url(#pddca42d4dc)">
     <use xlink:href="#C5_0_2d15723d79" x="698.28458" y="274.106857" style="fill: #fd810a; fill-opacity: 0.8"/>
    </g>
    <g clip-path="url(#pddca42d4dc)">
     <use xlink:href="#C5_0_2d15723d79" x="825.968874" y="157.050974" style="fill: #fd810a; fill-opacity: 0.8"/>
    </g>
    <g clip-path="url(#pddca42d4dc)">
     <use xlink:href="#C5_0_2d15723d79" x="825.968874" y="69.259062" style="fill: #fd810a; fill-opacity: 0.8"/>
    </g>
    <g clip-path="url(#pddca42d4dc)">
     <use xlink:href="#C5_0_2d15723d79" x="909.815256" y="274.106857" style="fill: #fd810a; fill-opacity: 0.8"/>
    </g>
    <g clip-path="url(#pddca42d4dc)">
     <use xlink:href="#C5_0_2d15723d79" x="909.815256" y="230.210901" style="fill: #fd810a; fill-opacity: 0.8"/>
    </g>
   </g>
   <g id="matplotlib.axis_5">
    <g id="xtick_11">
     <g id="line2d_28">
      <g>
       <use xlink:href="#mfc26d8f80e" x="680.485455" y="330.44" style="stroke: #000000; stroke-width: 0.8"/>
      </g>
     </g>
     <g id="text_34">
      <!-- 20 -->
      <g transform="translate(675.395455 343.51875) scale(0.08 -0.08)">
       <use xlink:href="#DejaVuSans-32"/>
       <use xlink:href="#DejaVuSans-30" transform="translate(63.623047 0)"/>
      </g>
     </g>
    </g>
    <g id="xtick_12">
     <g id="line2d_29">
      <g>
       <use xlink:href="#mfc26d8f80e" x="722.073653" y="330.44" style="stroke: #000000; stroke-width: 0.8"/>
      </g>
     </g>
     <g id="text_35">
      <!-- 40 -->
      <g transform="translate(716.983653 343.51875) scale(0.08 -0.08)">
       <use xlink:href="#DejaVuSans-34"/>
       <use xlink:href="#DejaVuSans-30" transform="translate(63.623047 0)"/>
      </g>
     </g>
    </g>
    <g id="xtick_13">
     <g id="line2d_30">
      <g>
       <use xlink:href="#mfc26d8f80e" x="763.661851" y="330.44" style="stroke: #000000; stroke-width: 0.8"/>
      </g>
     </g>
     <g id="text_36">
      <!-- 60 -->
      <g transform="translate(758.571851 343.51875) scale(0.08 -0.08)">
       <use xlink:href="#DejaVuSans-36"/>
       <use xlink:href="#DejaVuSans-30" transform="translate(63.623047 0)"/>
      </g>
     </g>
    </g>
    <g id="xtick_14">
     <g id="line2d_31">
      <g>
       <use xlink:href="#mfc26d8f80e" x="805.250049" y="330.44" style="stroke: #000000; stroke-width: 0.8"/>
      </g>
     </g>
     <g id="text_37">
      <!-- 80 -->
      <g transform="translate(800.160049 343.51875) scale(0.08 -0.08)">
       <use xlink:href="#DejaVuSans-38"/>
       <use xlink:href="#DejaVuSans-30" transform="translate(63.623047 0)"/>
      </g>
     </g>
    </g>
    <g id="xtick_15">
     <g id="line2d_32">
      <g>
       <use xlink:href="#mfc26d8f80e" x="846.838247" y="330.44" style="stroke: #000000; stroke-width: 0.8"/>
      </g>
     </g>
     <g id="text_38">
      <!-- 100 -->
      <g transform="translate(839.203247 343.51875) scale(0.08 -0.08)">
       <use xlink:href="#DejaVuSans-31"/>
       <use xlink:href="#DejaVuSans-30" transform="translate(63.623047 0)"/>
       <use xlink:href="#DejaVuSans-30" transform="translate(127.246094 0)"/>
      </g>
     </g>
    </g>
    <g id="xtick_16">
     <g id="line2d_33">
      <g>
       <use xlink:href="#mfc26d8f80e" x="888.426445" y="330.44" style="stroke: #000000; stroke-width: 0.8"/>
      </g>
     </g>
     <g id="text_39">
      <!-- 120 -->
      <g transform="translate(880.791445 343.51875) scale(0.08 -0.08)">
       <use xlink:href="#DejaVuSans-31"/>
       <use xlink:href="#DejaVuSans-32" transform="translate(63.623047 0)"/>
       <use xlink:href="#DejaVuSans-30" transform="translate(127.246094 0)"/>
      </g>
     </g>
    </g>
    <g id="text_40">
     <!-- Fungal Volume (mm³) -->
     <g transform="translate(746.723672 357.734219) scale(0.09 -0.09)">
      <use xlink:href="#ArialMT-46"/>
      <use xlink:href="#ArialMT-75" transform="translate(61.083984 0)"/>
      <use xlink:href="#ArialMT-6e" transform="translate(116.699219 0)"/>
      <use xlink:href="#ArialMT-67" transform="translate(172.314453 0)"/>
      <use xlink:href="#ArialMT-61" transform="translate(227.929688 0)"/>
      <use xlink:href="#ArialMT-6c" transform="translate(283.544922 0)"/>
      <use xlink:href="#ArialMT-20" transform="translate(305.761719 0)"/>
      <use xlink:href="#ArialMT-56" transform="translate(333.544922 0)"/>
      <use xlink:href="#ArialMT-6f" transform="translate(394.744141 0)"/>
      <use xlink:href="#ArialMT-6c" transform="translate(450.359375 0)"/>
      <use xlink:href="#ArialMT-75" transform="translate(472.576172 0)"/>
      <use xlink:href="#ArialMT-6d" transform="translate(528.191406 0)"/>
      <use xlink:href="#ArialMT-65" transform="translate(611.492188 0)"/>
      <use xlink:href="#ArialMT-20" transform="translate(667.107422 0)"/>
      <use xlink:href="#ArialMT-28" transform="translate(694.890625 0)"/>
      <use xlink:href="#ArialMT-6d" transform="translate(728.191406 0)"/>
      <use xlink:href="#ArialMT-6d" transform="translate(811.492188 0)"/>
      <use xlink:href="#ArialMT-b3" transform="translate(894.792969 0)"/>
      <use xlink:href="#ArialMT-29" transform="translate(928.09375 0)"/>
     </g>
    </g>
   </g>
   <g id="matplotlib.axis_6">
    <g id="ytick_14">
     <g id="line2d_34">
      <g>
       <use xlink:href="#mf0d7ec22ef" x="658.168437" y="286.666953" style="stroke: #000000; stroke-width: 0.8"/>
      </g>
     </g>
     <g id="text_41">
      <!-- 0.1 -->
      <g transform="translate(638.445938 289.706328) scale(0.08 -0.08)">
       <use xlink:href="#DejaVuSans-30"/>
       <use xlink:href="#DejaVuSans-2e" transform="translate(63.623047 0)"/>
       <use xlink:href="#DejaVuSans-31" transform="translate(95.410156 0)"/>
      </g>
     </g>
    </g>
    <g id="ytick_15">
     <g id="line2d_35">
      <g>
       <use xlink:href="#mf0d7ec22ef" x="658.168437" y="240.699108" style="stroke: #000000; stroke-width: 0.8"/>
      </g>
     </g>
     <g id="text_42">
      <!-- 0.2 -->
      <g transform="translate(638.445938 243.738483) scale(0.08 -0.08)">
       <use xlink:href="#DejaVuSans-30"/>
       <use xlink:href="#DejaVuSans-2e" transform="translate(63.623047 0)"/>
       <use xlink:href="#DejaVuSans-32" transform="translate(95.410156 0)"/>
      </g>
     </g>
    </g>
    <g id="ytick_16">
     <g id="line2d_36">
      <g>
       <use xlink:href="#mf0d7ec22ef" x="658.168437" y="194.731263" style="stroke: #000000; stroke-width: 0.8"/>
      </g>
     </g>
     <g id="text_43">
      <!-- 0.3 -->
      <g transform="translate(638.445938 197.770638) scale(0.08 -0.08)">
       <use xlink:href="#DejaVuSans-30"/>
       <use xlink:href="#DejaVuSans-2e" transform="translate(63.623047 0)"/>
       <use xlink:href="#DejaVuSans-33" transform="translate(95.410156 0)"/>
      </g>
     </g>
    </g>
    <g id="ytick_17">
     <g id="line2d_37">
      <g>
       <use xlink:href="#mf0d7ec22ef" x="658.168437" y="148.763418" style="stroke: #000000; stroke-width: 0.8"/>
      </g>
     </g>
     <g id="text_44">
      <!-- 0.4 -->
      <g transform="translate(638.445938 151.802793) scale(0.08 -0.08)">
       <use xlink:href="#DejaVuSans-30"/>
       <use xlink:href="#DejaVuSans-2e" transform="translate(63.623047 0)"/>
       <use xlink:href="#DejaVuSans-34" transform="translate(95.410156 0)"/>
      </g>
     </g>
    </g>
    <g id="ytick_18">
     <g id="line2d_38">
      <g>
       <use xlink:href="#mf0d7ec22ef" x="658.168437" y="102.795573" style="stroke: #000000; stroke-width: 0.8"/>
      </g>
     </g>
     <g id="text_45">
      <!-- 0.5 -->
      <g transform="translate(638.445938 105.834948) scale(0.08 -0.08)">
       <use xlink:href="#DejaVuSans-30"/>
       <use xlink:href="#DejaVuSans-2e" transform="translate(63.623047 0)"/>
       <use xlink:href="#DejaVuSans-35" transform="translate(95.410156 0)"/>
      </g>
     </g>
    </g>
    <g id="ytick_19">
     <g id="line2d_39">
      <g>
       <use xlink:href="#mf0d7ec22ef" x="658.168437" y="56.827728" style="stroke: #000000; stroke-width: 0.8"/>
      </g>
     </g>
     <g id="text_46">
      <!-- 0.6 -->
      <g transform="translate(638.445938 59.867103) scale(0.08 -0.08)">
       <use xlink:href="#DejaVuSans-30"/>
       <use xlink:href="#DejaVuSans-2e" transform="translate(63.623047 0)"/>
       <use xlink:href="#DejaVuSans-36" transform="translate(95.410156 0)"/>
      </g>
     </g>
    </g>
    <g id="text_47">
     <!-- Cell Density (1000 cells/100 μm circle) -->
     <g transform="translate(630.551719 270.24625) rotate(-90) scale(0.09 -0.09)">
      <use xlink:href="#ArialMT-43"/>
      <use xlink:href="#ArialMT-65" transform="translate(72.216797 0)"/>
      <use xlink:href="#ArialMT-6c" transform="translate(127.832031 0)"/>
      <use xlink:href="#ArialMT-6c" transform="translate(150.048828 0)"/>
      <use xlink:href="#ArialMT-20" transform="translate(172.265625 0)"/>
      <use xlink:href="#ArialMT-44" transform="translate(200.048828 0)"/>
      <use xlink:href="#ArialMT-65" transform="translate(272.265625 0)"/>
      <use xlink:href="#ArialMT-6e" transform="translate(327.880859 0)"/>
      <use xlink:href="#ArialMT-73" transform="translate(383.496094 0)"/>
      <use xlink:href="#ArialMT-69" transform="translate(433.496094 0)"/>
      <use xlink:href="#ArialMT-74" transform="translate(455.712891 0)"/>
      <use xlink:href="#ArialMT-79" transform="translate(483.496094 0)"/>
      <use xlink:href="#ArialMT-20" transform="translate(533.496094 0)"/>
      <use xlink:href="#ArialMT-28" transform="translate(561.279297 0)"/>
      <use xlink:href="#ArialMT-31" transform="translate(594.580078 0)"/>
      <use xlink:href="#ArialMT-30" transform="translate(650.195312 0)"/>
      <use xlink:href="#ArialMT-30" transform="translate(705.810547 0)"/>
      <use xlink:href="#ArialMT-30" transform="translate(761.425781 0)"/>
      <use xlink:href="#ArialMT-20" transform="translate(817.041016 0)"/>
      <use xlink:href="#ArialMT-63" transform="translate(844.824219 0)"/>
      <use xlink:href="#ArialMT-65" transform="translate(894.824219 0)"/>
      <use xlink:href="#ArialMT-6c" transform="translate(950.439453 0)"/>
      <use xlink:href="#ArialMT-6c" transform="translate(972.65625 0)"/>
      <use xlink:href="#ArialMT-73" transform="translate(994.873047 0)"/>
      <use xlink:href="#ArialMT-2f" transform="translate(1044.873047 0)"/>
      <use xlink:href="#ArialMT-31" transform="translate(1072.65625 0)"/>
      <use xlink:href="#ArialMT-30" transform="translate(1128.271484 0)"/>
      <use xlink:href="#ArialMT-30" transform="translate(1183.886719 0)"/>
      <use xlink:href="#ArialMT-20" transform="translate(1239.501953 0)"/>
      <use xlink:href="#ArialMT-3bc" transform="translate(1267.285156 0)"/>
      <use xlink:href="#ArialMT-6d" transform="translate(1324.902344 0)"/>
      <use xlink:href="#ArialMT-20" transform="translate(1408.203125 0)"/>
      <use xlink:href="#ArialMT-63" transform="translate(1435.986328 0)"/>
      <use xlink:href="#ArialMT-69" transform="translate(1485.986328 0)"/>
      <use xlink:href="#ArialMT-72" transform="translate(1508.203125 0)"/>
      <use xlink:href="#ArialMT-63" transform="translate(1541.503906 0)"/>
      <use xlink:href="#ArialMT-6c" transform="translate(1591.503906 0)"/>
      <use xlink:href="#ArialMT-65" transform="translate(1613.720703 0)"/>
      <use xlink:href="#ArialMT-29" transform="translate(1669.335938 0)"/>
     </g>
    </g>
   </g>
   <g id="line2d_40">
    <path d="M 670.151619 294.303103 
L 671.67674 293.440219 
L 673.201862 292.577335 
L 674.726983 291.714451 
L 676.252104 290.851566 
L 677.777225 289.988682 
L 679.302346 289.125798 
L 680.827467 288.262914 
L 682.352588 287.40003 
L 683.87771 286.537146 
L 685.402831 285.674262 
L 686.927952 284.811377 
L 688.453073 283.948493 
L 689.978194 283.085609 
L 691.503315 282.222725 
L 693.028436 281.359841 
L 694.553558 280.496957 
L 696.078679 279.634073 
L 697.6038 278.771188 
L 699.128921 277.908304 
L 700.654042 277.04542 
L 702.179163 276.182536 
L 703.704284 275.319652 
L 705.229406 274.456768 
L 706.754527 273.593883 
L 708.279648 272.730999 
L 709.804769 271.868115 
L 711.32989 271.005231 
L 712.855011 270.142347 
L 714.380132 269.279463 
L 715.905254 268.416579 
L 717.430375 267.553694 
L 718.955496 266.69081 
L 720.480617 265.827926 
L 722.005738 264.965042 
L 723.530859 264.102158 
L 725.05598 263.239274 
L 726.581102 262.37639 
L 728.106223 261.513505 
L 729.631344 260.650621 
L 731.156465 259.787737 
L 732.681586 258.924853 
L 734.206707 258.061969 
L 735.731828 257.199085 
L 737.25695 256.336201 
L 738.782071 255.473316 
L 740.307192 254.610432 
L 741.832313 253.747548 
L 743.357434 252.884664 
L 744.882555 252.02178 
L 746.407676 251.158896 
L 747.932798 250.296011 
L 749.457919 249.433127 
L 750.98304 248.570243 
L 752.508161 247.707359 
L 754.033282 246.844475 
L 755.558403 245.981591 
L 757.083524 245.118707 
L 758.608646 244.255822 
L 760.133767 243.392938 
L 761.658888 242.530054 
L 763.184009 241.66717 
L 764.70913 240.804286 
L 766.234251 239.941402 
L 767.759372 239.078518 
L 769.284493 238.215633 
L 770.809615 237.352749 
L 772.334736 236.489865 
L 773.859857 235.626981 
L 775.384978 234.764097 
L 776.910099 233.901213 
L 778.43522 233.038329 
L 779.960341 232.175444 
L 781.485463 231.31256 
L 783.010584 230.449676 
L 784.535705 229.586792 
L 786.060826 228.723908 
L 787.585947 227.861024 
L 789.111068 226.998139 
L 790.636189 226.135255 
L 792.161311 225.272371 
L 793.686432 224.409487 
L 795.211553 223.546603 
L 796.736674 222.683719 
L 798.261795 221.820835 
L 799.786916 220.95795 
L 801.312037 220.095066 
L 802.837159 219.232182 
L 804.36228 218.369298 
L 805.887401 217.506414 
L 807.412522 216.64353 
L 808.937643 215.780646 
L 810.462764 214.917761 
L 811.987885 214.054877 
L 813.513007 213.191993 
L 815.038128 212.329109 
L 816.563249 211.466225 
L 818.08837 210.603341 
L 819.613491 209.740457 
L 821.138612 208.877572 
" clip-path="url(#pddca42d4dc)" style="fill: none; stroke: #808080; stroke-opacity: 0.9; stroke-width: 1.5; stroke-linecap: square"/>
   </g>
   <g id="line2d_41">
    <path d="M 698.28458 242.187155 
L 700.421253 241.684349 
L 702.557927 241.181543 
L 704.6946 240.678737 
L 706.831274 240.175931 
L 708.967947 239.673125 
L 711.104621 239.170319 
L 713.241294 238.667513 
L 715.377968 238.164706 
L 717.514641 237.6619 
L 719.651315 237.159094 
L 721.787988 236.656288 
L 723.924662 236.153482 
L 726.061335 235.650676 
L 728.198009 235.14787 
L 730.334682 234.645064 
L 732.471356 234.142257 
L 734.608029 233.639451 
L 736.744703 233.136645 
L 738.881376 232.633839 
L 741.01805 232.131033 
L 743.154723 231.628227 
L 745.291397 231.125421 
L 747.42807 230.622615 
L 749.564744 230.119808 
L 751.701417 229.617002 
L 753.838091 229.114196 
L 755.974764 228.61139 
L 758.111438 228.108584 
L 760.248111 227.605778 
L 762.384785 227.102972 
L 764.521458 226.600166 
L 766.658132 226.09736 
L 768.794805 225.594553 
L 770.931479 225.091747 
L 773.068152 224.588941 
L 775.204826 224.086135 
L 777.341499 223.583329 
L 779.478173 223.080523 
L 781.614846 222.577717 
L 783.75152 222.074911 
L 785.888193 221.572104 
L 788.024867 221.069298 
L 790.16154 220.566492 
L 792.298214 220.063686 
L 794.434887 219.56088 
L 796.57156 219.058074 
L 798.708234 218.555268 
L 800.844907 218.052462 
L 802.981581 217.549655 
L 805.118254 217.046849 
L 807.254928 216.544043 
L 809.391601 216.041237 
L 811.528275 215.538431 
L 813.664948 215.035625 
L 815.801622 214.532819 
L 817.938295 214.030013 
L 820.074969 213.527206 
L 822.211642 213.0244 
L 824.348316 212.521594 
L 826.484989 212.018788 
L 828.621663 211.515982 
L 830.758336 211.013176 
L 832.89501 210.51037 
L 835.031683 210.007564 
L 837.168357 209.504758 
L 839.30503 209.001951 
L 841.441704 208.499145 
L 843.578377 207.996339 
L 845.715051 207.493533 
L 847.851724 206.990727 
L 849.988398 206.487921 
L 852.125071 205.985115 
L 854.261745 205.482309 
L 856.398418 204.979502 
L 858.535092 204.476696 
L 860.671765 203.97389 
L 862.808439 203.471084 
L 864.945112 202.968278 
L 867.081786 202.465472 
L 869.218459 201.962666 
L 871.355133 201.45986 
L 873.491806 200.957053 
L 875.62848 200.454247 
L 877.765153 199.951441 
L 879.901827 199.448635 
L 882.0385 198.945829 
L 884.175174 198.443023 
L 886.311847 197.940217 
L 888.448521 197.437411 
L 890.585194 196.934604 
L 892.721868 196.431798 
L 894.858541 195.928992 
L 896.995215 195.426186 
L 899.131888 194.92338 
L 901.268562 194.420574 
L 903.405235 193.917768 
L 905.541909 193.414962 
L 907.678582 192.912156 
L 909.815256 192.409349 
" clip-path="url(#pddca42d4dc)" style="fill: none; stroke: #fd810a; stroke-opacity: 0.9; stroke-width: 1.5; stroke-linecap: square"/>
   </g>
   <g id="patch_9">
    <path d="M 658.168437 330.44 
L 658.168437 56.821875 
" style="fill: none; stroke: #000000; stroke-width: 0.8; stroke-linejoin: miter; stroke-linecap: square"/>
   </g>
   <g id="patch_10">
    <path d="M 658.168437 330.44 
L 921.798438 330.44 
" style="fill: none; stroke: #000000; stroke-width: 0.8; stroke-linejoin: miter; stroke-linecap: square"/>
   </g>
   <g id="text_48">
    <!-- r=0.52 ns -->
    <g style="fill: #808080" transform="translate(711.162375 60.518144) scale(0.09 -0.09)">
     <defs>
      <path id="Arial-BoldMT-35" d="M 284 1178 
L 1159 1269 
Q 1197 972 1381 798 
Q 1566 625 1806 625 
Q 2081 625 2272 848 
Q 2463 1072 2463 1522 
Q 2463 1944 2273 2155 
Q 2084 2366 1781 2366 
Q 1403 2366 1103 2031 
L 391 2134 
L 841 4519 
L 3163 4519 
L 3163 3697 
L 1506 3697 
L 1369 2919 
Q 1663 3066 1969 3066 
Q 2553 3066 2959 2641 
Q 3366 2216 3366 1538 
Q 3366 972 3038 528 
Q 2591 -78 1797 -78 
Q 1163 -78 763 262 
Q 363 603 284 1178 
z
" transform="scale(0.015625)"/>
     </defs>
     <use xlink:href="#Arial-BoldMT-72"/>
     <use xlink:href="#Arial-BoldMT-3d" transform="translate(38.916016 0)"/>
     <use xlink:href="#Arial-BoldMT-30" transform="translate(97.314453 0)"/>
     <use xlink:href="#Arial-BoldMT-2e" transform="translate(152.929688 0)"/>
     <use xlink:href="#Arial-BoldMT-35" transform="translate(180.712891 0)"/>
     <use xlink:href="#Arial-BoldMT-32" transform="translate(236.328125 0)"/>
     <use xlink:href="#Arial-BoldMT-20" transform="translate(291.943359 0)"/>
     <use xlink:href="#Arial-BoldMT-6e" transform="translate(319.726562 0)"/>
     <use xlink:href="#Arial-BoldMT-73" transform="translate(380.810547 0)"/>
    </g>
   </g>
   <g id="text_49">
    <!-- r=0.26 ns -->
    <g style="fill: #fd810a" transform="translate(829.527938 60.518144) scale(0.09 -0.09)">
     <use xlink:href="#Arial-BoldMT-72"/>
     <use xlink:href="#Arial-BoldMT-3d" transform="translate(38.916016 0)"/>
     <use xlink:href="#Arial-BoldMT-30" transform="translate(97.314453 0)"/>
     <use xlink:href="#Arial-BoldMT-2e" transform="translate(152.929688 0)"/>
     <use xlink:href="#Arial-BoldMT-32" transform="translate(180.712891 0)"/>
     <use xlink:href="#Arial-BoldMT-36" transform="translate(236.328125 0)"/>
     <use xlink:href="#Arial-BoldMT-20" transform="translate(291.943359 0)"/>
     <use xlink:href="#Arial-BoldMT-6e" transform="translate(319.726562 0)"/>
     <use xlink:href="#Arial-BoldMT-73" transform="translate(380.810547 0)"/>
    </g>
   </g>
   <g id="text_50">
    <!-- Neutrophils -->
    <g transform="translate(762.206875 50.821875) scale(0.1 -0.1)">
     <defs>
      <path id="Arial-BoldMT-4e" d="M 475 0 
L 475 4581 
L 1375 4581 
L 3250 1522 
L 3250 4581 
L 4109 4581 
L 4109 0 
L 3181 0 
L 1334 2988 
L 1334 0 
L 475 0 
z
" transform="scale(0.015625)"/>
      <path id="Arial-BoldMT-75" d="M 2644 0 
L 2644 497 
Q 2463 231 2167 78 
Q 1872 -75 1544 -75 
Q 1209 -75 943 72 
Q 678 219 559 484 
Q 441 750 441 1219 
L 441 3319 
L 1319 3319 
L 1319 1794 
Q 1319 1094 1367 936 
Q 1416 778 1544 686 
Q 1672 594 1869 594 
Q 2094 594 2272 717 
Q 2450 841 2515 1023 
Q 2581 1206 2581 1919 
L 2581 3319 
L 3459 3319 
L 3459 0 
L 2644 0 
z
" transform="scale(0.015625)"/>
      <path id="Arial-BoldMT-74" d="M 1981 3319 
L 1981 2619 
L 1381 2619 
L 1381 1281 
Q 1381 875 1398 808 
Q 1416 741 1477 697 
Q 1538 653 1625 653 
Q 1747 653 1978 738 
L 2053 56 
Q 1747 -75 1359 -75 
Q 1122 -75 931 4 
Q 741 84 652 211 
Q 563 338 528 553 
Q 500 706 500 1172 
L 500 2619 
L 97 2619 
L 97 3319 
L 500 3319 
L 500 3978 
L 1381 4491 
L 1381 3319 
L 1981 3319 
z
" transform="scale(0.015625)"/>
     </defs>
     <use xlink:href="#Arial-BoldMT-4e"/>
     <use xlink:href="#Arial-BoldMT-65" transform="translate(72.216797 0)"/>
     <use xlink:href="#Arial-BoldMT-75" transform="translate(127.832031 0)"/>
     <use xlink:href="#Arial-BoldMT-74" transform="translate(188.916016 0)"/>
     <use xlink:href="#Arial-BoldMT-72" transform="translate(222.216797 0)"/>
     <use xlink:href="#Arial-BoldMT-6f" transform="translate(261.132812 0)"/>
     <use xlink:href="#Arial-BoldMT-70" transform="translate(322.216797 0)"/>
     <use xlink:href="#Arial-BoldMT-68" transform="translate(383.300781 0)"/>
     <use xlink:href="#Arial-BoldMT-69" transform="translate(444.384766 0)"/>
     <use xlink:href="#Arial-BoldMT-6c" transform="translate(472.167969 0)"/>
     <use xlink:href="#Arial-BoldMT-73" transform="translate(499.951172 0)"/>
    </g>
   </g>
  </g>
  <g id="text_51">
   <!-- Pons — Inner -->
   <g transform="translate(425.928437 15.789375) scale(0.12 -0.12)">
    <defs>
     <path id="Arial-BoldMT-50" d="M 466 0 
L 466 4581 
L 1950 4581 
Q 2794 4581 3050 4513 
Q 3444 4409 3709 4064 
Q 3975 3719 3975 3172 
Q 3975 2750 3822 2462 
Q 3669 2175 3433 2011 
Q 3197 1847 2953 1794 
Q 2622 1728 1994 1728 
L 1391 1728 
L 1391 0 
L 466 0 
z
M 1391 3806 
L 1391 2506 
L 1897 2506 
Q 2444 2506 2628 2578 
Q 2813 2650 2917 2803 
Q 3022 2956 3022 3159 
Q 3022 3409 2875 3571 
Q 2728 3734 2503 3775 
Q 2338 3806 1838 3806 
L 1391 3806 
z
" transform="scale(0.015625)"/>
     <path id="Arial-BoldMT-2014" d="M 0 1331 
L 0 1988 
L 6400 1988 
L 6400 1331 
L 0 1331 
z
" transform="scale(0.015625)"/>
     <path id="Arial-BoldMT-49" d="M 438 0 
L 438 4581 
L 1363 4581 
L 1363 0 
L 438 0 
z
" transform="scale(0.015625)"/>
    </defs>
    <use xlink:href="#Arial-BoldMT-50"/>
    <use xlink:href="#Arial-BoldMT-6f" transform="translate(66.699219 0)"/>
    <use xlink:href="#Arial-BoldMT-6e" transform="translate(127.783203 0)"/>
    <use xlink:href="#Arial-BoldMT-73" transform="translate(188.867188 0)"/>
    <use xlink:href="#Arial-BoldMT-20" transform="translate(244.482422 0)"/>
    <use xlink:href="#Arial-BoldMT-2014" transform="translate(272.265625 0)"/>
    <use xlink:href="#Arial-BoldMT-20" transform="translate(372.265625 0)"/>
    <use xlink:href="#Arial-BoldMT-49" transform="translate(400.048828 0)"/>
    <use xlink:href="#Arial-BoldMT-6e" transform="translate(427.832031 0)"/>
    <use xlink:href="#Arial-BoldMT-6e" transform="translate(488.916016 0)"/>
    <use xlink:href="#Arial-BoldMT-65" transform="translate(550 0)"/>
    <use xlink:href="#Arial-BoldMT-72" transform="translate(605.615234 0)"/>
   </g>
  </g>
 </g>
 <defs>
  <clipPath id="p9e38674613">
   <rect x="41.368438" y="56.821875" width="263.63" height="273.618125"/>
  </clipPath>
  <clipPath id="pce590178ef">
   <rect x="349.768438" y="56.821875" width="263.63" height="273.618125"/>
  </clipPath>
  <clipPath id="pddca42d4dc">
   <rect x="658.168437" y="56.821875" width="263.63" height="273.618125"/>
  </clipPath>
 </defs>
</svg>
