<?xml version="1.0" encoding="utf-8" standalone="no"?>
<!DOCTYPE svg PUBLIC "-//W3C//DTD SVG 1.1//EN"
  "http://www.w3.org/Graphics/SVG/1.1/DTD/svg11.dtd">
<svg xmlns:xlink="http://www.w3.org/1999/xlink" width="928.970937pt" height="366.828437pt" viewBox="0 0 928.970937 366.828437" xmlns="http://www.w3.org/2000/svg" version="1.1">
 <metadata>
  <rdf:RDF xmlns:dc="http://purl.org/dc/elements/1.1/" xmlns:cc="http://creativecommons.org/ns#" xmlns:rdf="http://www.w3.org/1999/02/22-rdf-syntax-ns#">
   <cc:Work>
    <dc:type rdf:resource="http://purl.org/dc/dcmitype/StillImage"/>
    <dc:date>2026-04-26T20:19:30.504583</dc:date>
    <dc:format>image/svg+xml</dc:format>
    <dc:creator>
     <cc:Agent>
      <dc:title>Matplotlib v3.10.0, https://matplotlib.org/</dc:title>
     </cc:Agent>
    </dc:creator>
   </cc:Work>
  </rdf:RDF>
 </metadata>
 <defs>
  <style type="text/css">*{stroke-linejoin: round; stroke-linecap: butt}</style>
 </defs>
 <g id="figure_1">
  <g id="patch_1">
   <path d="M 0 366.828437 
L 928.970937 366.828437 
L 928.970937 0 
L 0 0 
z
" style="fill: #ffffff"/>
  </g>
  <g id="axes_1">
   <g id="patch_2">
    <path d="M 33.735938 330.44 
L 299.900937 330.44 
L 299.900937 56.821875 
L 33.735938 56.821875 
z
" style="fill: #ffffff"/>
   </g>
   <g id="PathCollection_1">
    <defs>
     <path id="C0_0_c428b5fcc3" d="M 0 3.535534 
C 0.937635 3.535534 1.836992 3.163008 2.5 2.5 
C 3.163008 1.836992 3.535534 0.937635 3.535534 -0 
C 3.535534 -0.937635 3.163008 -1.836992 2.5 -2.5 
C 1.836992 -3.163008 0.937635 -3.535534 0 -3.535534 
C -0.937635 -3.535534 -1.836992 -3.163008 -2.5 -2.5 
C -3.163008 -1.836992 -3.535534 -0.937635 -3.535534 0 
C -3.535534 0.937635 -3.163008 1.836992 -2.5 2.5 
C -1.836992 3.163008 -0.937635 3.535534 0 3.535534 
z
"/>
    </defs>
    <g clip-path="url(#p5ddf618a83)">
     <use xlink:href="#C0_0_c428b5fcc3" x="45.834347" y="232.76894" style="fill: #808080; fill-opacity: 0.8"/>
    </g>
    <g clip-path="url(#p5ddf618a83)">
     <use xlink:href="#C0_0_c428b5fcc3" x="45.834347" y="180.584937" style="fill: #808080; fill-opacity: 0.8"/>
    </g>
    <g clip-path="url(#p5ddf618a83)">
     <use xlink:href="#C0_0_c428b5fcc3" x="248.038174" y="246.684674" style="fill: #808080; fill-opacity: 0.8"/>
    </g>
    <g clip-path="url(#p5ddf618a83)">
     <use xlink:href="#C0_0_c428b5fcc3" x="248.038174" y="175.366536" style="fill: #808080; fill-opacity: 0.8"/>
    </g>
    <g clip-path="url(#p5ddf618a83)">
     <use xlink:href="#C0_0_c428b5fcc3" x="287.802528" y="147.535068" style="fill: #808080; fill-opacity: 0.8"/>
    </g>
    <g clip-path="url(#p5ddf618a83)">
     <use xlink:href="#C0_0_c428b5fcc3" x="287.802528" y="126.661466" style="fill: #808080; fill-opacity: 0.8"/>
    </g>
   </g>
   <g id="PathCollection_2">
    <defs>
     <path id="C1_0_43e1a5e26d" d="M 0 3.535534 
C 0.937635 3.535534 1.836992 3.163008 2.5 2.5 
C 3.163008 1.836992 3.535534 0.937635 3.535534 -0 
C 3.535534 -0.937635 3.163008 -1.836992 2.5 -2.5 
C 1.836992 -3.163008 0.937635 -3.535534 0 -3.535534 
C -0.937635 -3.535534 -1.836992 -3.163008 -2.5 -2.5 
C -3.163008 -1.836992 -3.535534 -0.937635 -3.535534 0 
C -3.535534 0.937635 -3.163008 1.836992 -2.5 2.5 
C -1.836992 3.163008 -0.937635 3.535534 0 3.535534 
z
"/>
    </defs>
    <g clip-path="url(#p5ddf618a83)">
     <use xlink:href="#C1_0_43e1a5e26d" x="94.763992" y="318.002812" style="fill: #fd810a; fill-opacity: 0.8"/>
    </g>
    <g clip-path="url(#p5ddf618a83)">
     <use xlink:href="#C1_0_43e1a5e26d" x="94.763992" y="265.818809" style="fill: #fd810a; fill-opacity: 0.8"/>
    </g>
    <g clip-path="url(#p5ddf618a83)">
     <use xlink:href="#C1_0_43e1a5e26d" x="79.541591" y="316.263346" style="fill: #fd810a; fill-opacity: 0.8"/>
    </g>
    <g clip-path="url(#p5ddf618a83)">
     <use xlink:href="#C1_0_43e1a5e26d" x="79.541591" y="69.259062" style="fill: #fd810a; fill-opacity: 0.8"/>
    </g>
    <g clip-path="url(#p5ddf618a83)">
     <use xlink:href="#C1_0_43e1a5e26d" x="223.483241" y="244.945208" style="fill: #fd810a; fill-opacity: 0.8"/>
    </g>
    <g clip-path="url(#p5ddf618a83)">
     <use xlink:href="#C1_0_43e1a5e26d" x="223.483241" y="248.424141" style="fill: #fd810a; fill-opacity: 0.8"/>
    </g>
   </g>
   <g id="matplotlib.axis_1">
    <g id="xtick_1">
     <g id="line2d_1">
      <defs>
       <path id="m17a27a1325" d="M 0 0 
L 0 3.5 
" style="stroke: #000000; stroke-width: 0.8"/>
      </defs>
      <g>
       <use xlink:href="#m17a27a1325" x="73.941073" y="330.44" style="stroke: #000000; stroke-width: 0.8"/>
      </g>
     </g>
     <g id="text_1">
      <!-- 50 -->
      <g transform="translate(68.851073 343.51875) scale(0.08 -0.08)">
       <defs>
        <path id="DejaVuSans-35" d="M 691 4666 
L 3169 4666 
L 3169 4134 
L 1269 4134 
L 1269 2991 
Q 1406 3038 1543 3061 
Q 1681 3084 1819 3084 
Q 2600 3084 3056 2656 
Q 3513 2228 3513 1497 
Q 3513 744 3044 326 
Q 2575 -91 1722 -91 
Q 1428 -91 1123 -41 
Q 819 9 494 109 
L 494 744 
Q 775 591 1075 516 
Q 1375 441 1709 441 
Q 2250 441 2565 725 
Q 2881 1009 2881 1497 
Q 2881 1984 2565 2268 
Q 2250 2553 1709 2553 
Q 1456 2553 1204 2497 
Q 953 2441 691 2322 
L 691 4666 
z
" transform="scale(0.015625)"/>
        <path id="DejaVuSans-30" d="M 2034 4250 
Q 1547 4250 1301 3770 
Q 1056 3291 1056 2328 
Q 1056 1369 1301 889 
Q 1547 409 2034 409 
Q 2525 409 2770 889 
Q 3016 1369 3016 2328 
Q 3016 3291 2770 3770 
Q 2525 4250 2034 4250 
z
M 2034 4750 
Q 2819 4750 3233 4129 
Q 3647 3509 3647 2328 
Q 3647 1150 3233 529 
Q 2819 -91 2034 -91 
Q 1250 -91 836 529 
Q 422 1150 422 2328 
Q 422 3509 836 4129 
Q 1250 4750 2034 4750 
z
" transform="scale(0.015625)"/>
       </defs>
       <use xlink:href="#DejaVuSans-35"/>
       <use xlink:href="#DejaVuSans-30" transform="translate(63.623047 0)"/>
      </g>
     </g>
    </g>
    <g id="xtick_2">
     <g id="line2d_2">
      <g>
       <use xlink:href="#m17a27a1325" x="123.863679" y="330.44" style="stroke: #000000; stroke-width: 0.8"/>
      </g>
     </g>
     <g id="text_2">
      <!-- 100 -->
      <g transform="translate(116.228679 343.51875) scale(0.08 -0.08)">
       <defs>
        <path id="DejaVuSans-31" d="M 794 531 
L 1825 531 
L 1825 4091 
L 703 3866 
L 703 4441 
L 1819 4666 
L 2450 4666 
L 2450 531 
L 3481 531 
L 3481 0 
L 794 0 
L 794 531 
z
" transform="scale(0.015625)"/>
       </defs>
       <use xlink:href="#DejaVuSans-31"/>
       <use xlink:href="#DejaVuSans-30" transform="translate(63.623047 0)"/>
       <use xlink:href="#DejaVuSans-30" transform="translate(127.246094 0)"/>
      </g>
     </g>
    </g>
    <g id="xtick_3">
     <g id="line2d_3">
      <g>
       <use xlink:href="#m17a27a1325" x="173.786285" y="330.44" style="stroke: #000000; stroke-width: 0.8"/>
      </g>
     </g>
     <g id="text_3">
      <!-- 150 -->
      <g transform="translate(166.151285 343.51875) scale(0.08 -0.08)">
       <use xlink:href="#DejaVuSans-31"/>
       <use xlink:href="#DejaVuSans-35" transform="translate(63.623047 0)"/>
       <use xlink:href="#DejaVuSans-30" transform="translate(127.246094 0)"/>
      </g>
     </g>
    </g>
    <g id="xtick_4">
     <g id="line2d_4">
      <g>
       <use xlink:href="#m17a27a1325" x="223.708891" y="330.44" style="stroke: #000000; stroke-width: 0.8"/>
      </g>
     </g>
     <g id="text_4">
      <!-- 200 -->
      <g transform="translate(216.073891 343.51875) scale(0.08 -0.08)">
       <defs>
        <path id="DejaVuSans-32" d="M 1228 531 
L 3431 531 
L 3431 0 
L 469 0 
L 469 531 
Q 828 903 1448 1529 
Q 2069 2156 2228 2338 
Q 2531 2678 2651 2914 
Q 2772 3150 2772 3378 
Q 2772 3750 2511 3984 
Q 2250 4219 1831 4219 
Q 1534 4219 1204 4116 
Q 875 4013 500 3803 
L 500 4441 
Q 881 4594 1212 4672 
Q 1544 4750 1819 4750 
Q 2544 4750 2975 4387 
Q 3406 4025 3406 3419 
Q 3406 3131 3298 2873 
Q 3191 2616 2906 2266 
Q 2828 2175 2409 1742 
Q 1991 1309 1228 531 
z
" transform="scale(0.015625)"/>
       </defs>
       <use xlink:href="#DejaVuSans-32"/>
       <use xlink:href="#DejaVuSans-30" transform="translate(63.623047 0)"/>
       <use xlink:href="#DejaVuSans-30" transform="translate(127.246094 0)"/>
      </g>
     </g>
    </g>
    <g id="xtick_5">
     <g id="line2d_5">
      <g>
       <use xlink:href="#m17a27a1325" x="273.631497" y="330.44" style="stroke: #000000; stroke-width: 0.8"/>
      </g>
     </g>
     <g id="text_5">
      <!-- 250 -->
      <g transform="translate(265.996497 343.51875) scale(0.08 -0.08)">
       <use xlink:href="#DejaVuSans-32"/>
       <use xlink:href="#DejaVuSans-35" transform="translate(63.623047 0)"/>
       <use xlink:href="#DejaVuSans-30" transform="translate(127.246094 0)"/>
      </g>
     </g>
    </g>
    <g id="text_6">
     <!-- Fungal Volume (mm³) -->
     <g transform="translate(123.558672 357.734219) scale(0.09 -0.09)">
      <defs>
       <path id="ArialMT-46" d="M 525 0 
L 525 4581 
L 3616 4581 
L 3616 4041 
L 1131 4041 
L 1131 2622 
L 3281 2622 
L 3281 2081 
L 1131 2081 
L 1131 0 
L 525 0 
z
" transform="scale(0.015625)"/>
       <path id="ArialMT-75" d="M 2597 0 
L 2597 488 
Q 2209 -75 1544 -75 
Q 1250 -75 995 37 
Q 741 150 617 320 
Q 494 491 444 738 
Q 409 903 409 1263 
L 409 3319 
L 972 3319 
L 972 1478 
Q 972 1038 1006 884 
Q 1059 663 1231 536 
Q 1403 409 1656 409 
Q 1909 409 2131 539 
Q 2353 669 2445 892 
Q 2538 1116 2538 1541 
L 2538 3319 
L 3100 3319 
L 3100 0 
L 2597 0 
z
" transform="scale(0.015625)"/>
       <path id="ArialMT-6e" d="M 422 0 
L 422 3319 
L 928 3319 
L 928 2847 
Q 1294 3394 1984 3394 
Q 2284 3394 2536 3286 
Q 2788 3178 2913 3003 
Q 3038 2828 3088 2588 
Q 3119 2431 3119 2041 
L 3119 0 
L 2556 0 
L 2556 2019 
Q 2556 2363 2490 2533 
Q 2425 2703 2258 2804 
Q 2091 2906 1866 2906 
Q 1506 2906 1245 2678 
Q 984 2450 984 1813 
L 984 0 
L 422 0 
z
" transform="scale(0.015625)"/>
       <path id="ArialMT-67" d="M 319 -275 
L 866 -356 
Q 900 -609 1056 -725 
Q 1266 -881 1628 -881 
Q 2019 -881 2231 -725 
Q 2444 -569 2519 -288 
Q 2563 -116 2559 434 
Q 2191 0 1641 0 
Q 956 0 581 494 
Q 206 988 206 1678 
Q 206 2153 378 2554 
Q 550 2956 876 3175 
Q 1203 3394 1644 3394 
Q 2231 3394 2613 2919 
L 2613 3319 
L 3131 3319 
L 3131 450 
Q 3131 -325 2973 -648 
Q 2816 -972 2473 -1159 
Q 2131 -1347 1631 -1347 
Q 1038 -1347 672 -1080 
Q 306 -813 319 -275 
z
M 784 1719 
Q 784 1066 1043 766 
Q 1303 466 1694 466 
Q 2081 466 2343 764 
Q 2606 1063 2606 1700 
Q 2606 2309 2336 2618 
Q 2066 2928 1684 2928 
Q 1309 2928 1046 2623 
Q 784 2319 784 1719 
z
" transform="scale(0.015625)"/>
       <path id="ArialMT-61" d="M 2588 409 
Q 2275 144 1986 34 
Q 1697 -75 1366 -75 
Q 819 -75 525 192 
Q 231 459 231 875 
Q 231 1119 342 1320 
Q 453 1522 633 1644 
Q 813 1766 1038 1828 
Q 1203 1872 1538 1913 
Q 2219 1994 2541 2106 
Q 2544 2222 2544 2253 
Q 2544 2597 2384 2738 
Q 2169 2928 1744 2928 
Q 1347 2928 1158 2789 
Q 969 2650 878 2297 
L 328 2372 
Q 403 2725 575 2942 
Q 747 3159 1072 3276 
Q 1397 3394 1825 3394 
Q 2250 3394 2515 3294 
Q 2781 3194 2906 3042 
Q 3031 2891 3081 2659 
Q 3109 2516 3109 2141 
L 3109 1391 
Q 3109 606 3145 398 
Q 3181 191 3288 0 
L 2700 0 
Q 2613 175 2588 409 
z
M 2541 1666 
Q 2234 1541 1622 1453 
Q 1275 1403 1131 1340 
Q 988 1278 909 1158 
Q 831 1038 831 891 
Q 831 666 1001 516 
Q 1172 366 1500 366 
Q 1825 366 2078 508 
Q 2331 650 2450 897 
Q 2541 1088 2541 1459 
L 2541 1666 
z
" transform="scale(0.015625)"/>
       <path id="ArialMT-6c" d="M 409 0 
L 409 4581 
L 972 4581 
L 972 0 
L 409 0 
z
" transform="scale(0.015625)"/>
       <path id="ArialMT-20" transform="scale(0.015625)"/>
       <path id="ArialMT-56" d="M 1803 0 
L 28 4581 
L 684 4581 
L 1875 1253 
Q 2019 853 2116 503 
Q 2222 878 2363 1253 
L 3600 4581 
L 4219 4581 
L 2425 0 
L 1803 0 
z
" transform="scale(0.015625)"/>
       <path id="ArialMT-6f" d="M 213 1659 
Q 213 2581 725 3025 
Q 1153 3394 1769 3394 
Q 2453 3394 2887 2945 
Q 3322 2497 3322 1706 
Q 3322 1066 3130 698 
Q 2938 331 2570 128 
Q 2203 -75 1769 -75 
Q 1072 -75 642 372 
Q 213 819 213 1659 
z
M 791 1659 
Q 791 1022 1069 705 
Q 1347 388 1769 388 
Q 2188 388 2466 706 
Q 2744 1025 2744 1678 
Q 2744 2294 2464 2611 
Q 2184 2928 1769 2928 
Q 1347 2928 1069 2612 
Q 791 2297 791 1659 
z
" transform="scale(0.015625)"/>
       <path id="ArialMT-6d" d="M 422 0 
L 422 3319 
L 925 3319 
L 925 2853 
Q 1081 3097 1340 3245 
Q 1600 3394 1931 3394 
Q 2300 3394 2536 3241 
Q 2772 3088 2869 2813 
Q 3263 3394 3894 3394 
Q 4388 3394 4653 3120 
Q 4919 2847 4919 2278 
L 4919 0 
L 4359 0 
L 4359 2091 
Q 4359 2428 4304 2576 
Q 4250 2725 4106 2815 
Q 3963 2906 3769 2906 
Q 3419 2906 3187 2673 
Q 2956 2441 2956 1928 
L 2956 0 
L 2394 0 
L 2394 2156 
Q 2394 2531 2256 2718 
Q 2119 2906 1806 2906 
Q 1569 2906 1367 2781 
Q 1166 2656 1075 2415 
Q 984 2175 984 1722 
L 984 0 
L 422 0 
z
" transform="scale(0.015625)"/>
       <path id="ArialMT-65" d="M 2694 1069 
L 3275 997 
Q 3138 488 2766 206 
Q 2394 -75 1816 -75 
Q 1088 -75 661 373 
Q 234 822 234 1631 
Q 234 2469 665 2931 
Q 1097 3394 1784 3394 
Q 2450 3394 2872 2941 
Q 3294 2488 3294 1666 
Q 3294 1616 3291 1516 
L 816 1516 
Q 847 969 1125 678 
Q 1403 388 1819 388 
Q 2128 388 2347 550 
Q 2566 713 2694 1069 
z
M 847 1978 
L 2700 1978 
Q 2663 2397 2488 2606 
Q 2219 2931 1791 2931 
Q 1403 2931 1139 2672 
Q 875 2413 847 1978 
z
" transform="scale(0.015625)"/>
       <path id="ArialMT-28" d="M 1497 -1347 
Q 1031 -759 709 28 
Q 388 816 388 1659 
Q 388 2403 628 3084 
Q 909 3875 1497 4659 
L 1900 4659 
Q 1522 4009 1400 3731 
Q 1209 3300 1100 2831 
Q 966 2247 966 1656 
Q 966 153 1900 -1347 
L 1497 -1347 
z
" transform="scale(0.015625)"/>
       <path id="ArialMT-b3" d="M 103 2903 
L 559 2950 
Q 622 2763 722 2694 
Q 856 2600 1041 2600 
Q 1263 2600 1397 2722 
Q 1531 2844 1531 3016 
Q 1531 3172 1418 3265 
Q 1306 3359 1034 3359 
Q 997 3359 931 3353 
Q 888 3350 863 3350 
L 931 3694 
Q 1184 3691 1301 3784 
Q 1419 3878 1419 4013 
Q 1419 4128 1325 4209 
Q 1231 4291 1047 4291 
Q 872 4291 773 4222 
Q 675 4153 603 3972 
L 156 4044 
Q 284 4375 479 4506 
Q 675 4638 1050 4638 
Q 1500 4638 1704 4470 
Q 1909 4303 1909 4053 
Q 1909 3881 1798 3747 
Q 1688 3613 1478 3553 
Q 1756 3484 1887 3326 
Q 2019 3169 2019 2956 
Q 2019 2666 1772 2450 
Q 1525 2234 1069 2234 
Q 631 2234 400 2407 
Q 169 2581 103 2903 
z
" transform="scale(0.015625)"/>
       <path id="ArialMT-29" d="M 791 -1347 
L 388 -1347 
Q 1322 153 1322 1656 
Q 1322 2244 1188 2822 
Q 1081 3291 891 3722 
Q 769 4003 388 4659 
L 791 4659 
Q 1378 3875 1659 3084 
Q 1900 2403 1900 1659 
Q 1900 816 1576 28 
Q 1253 -759 791 -1347 
z
" transform="scale(0.015625)"/>
      </defs>
      <use xlink:href="#ArialMT-46"/>
      <use xlink:href="#ArialMT-75" transform="translate(61.083984 0)"/>
      <use xlink:href="#ArialMT-6e" transform="translate(116.699219 0)"/>
      <use xlink:href="#ArialMT-67" transform="translate(172.314453 0)"/>
      <use xlink:href="#ArialMT-61" transform="translate(227.929688 0)"/>
      <use xlink:href="#ArialMT-6c" transform="translate(283.544922 0)"/>
      <use xlink:href="#ArialMT-20" transform="translate(305.761719 0)"/>
      <use xlink:href="#ArialMT-56" transform="translate(333.544922 0)"/>
      <use xlink:href="#ArialMT-6f" transform="translate(394.744141 0)"/>
      <use xlink:href="#ArialMT-6c" transform="translate(450.359375 0)"/>
      <use xlink:href="#ArialMT-75" transform="translate(472.576172 0)"/>
      <use xlink:href="#ArialMT-6d" transform="translate(528.191406 0)"/>
      <use xlink:href="#ArialMT-65" transform="translate(611.492188 0)"/>
      <use xlink:href="#ArialMT-20" transform="translate(667.107422 0)"/>
      <use xlink:href="#ArialMT-28" transform="translate(694.890625 0)"/>
      <use xlink:href="#ArialMT-6d" transform="translate(728.191406 0)"/>
      <use xlink:href="#ArialMT-6d" transform="translate(811.492188 0)"/>
      <use xlink:href="#ArialMT-b3" transform="translate(894.792969 0)"/>
      <use xlink:href="#ArialMT-29" transform="translate(928.09375 0)"/>
     </g>
    </g>
   </g>
   <g id="matplotlib.axis_2">
    <g id="ytick_1">
     <g id="line2d_6">
      <defs>
       <path id="m8a5f529376" d="M 0 0 
L -3.5 0 
" style="stroke: #000000; stroke-width: 0.8"/>
      </defs>
      <g>
       <use xlink:href="#m8a5f529376" x="33.735938" y="289.447726" style="stroke: #000000; stroke-width: 0.8"/>
      </g>
     </g>
     <g id="text_7">
      <!-- 1 -->
      <g transform="translate(21.645938 292.487101) scale(0.08 -0.08)">
       <use xlink:href="#DejaVuSans-31"/>
      </g>
     </g>
    </g>
    <g id="ytick_2">
     <g id="line2d_7">
      <g>
       <use xlink:href="#m8a5f529376" x="33.735938" y="234.800637" style="stroke: #000000; stroke-width: 0.8"/>
      </g>
     </g>
     <g id="text_8">
      <!-- 2 -->
      <g transform="translate(21.645938 237.840012) scale(0.08 -0.08)">
       <use xlink:href="#DejaVuSans-32"/>
      </g>
     </g>
    </g>
    <g id="ytick_3">
     <g id="line2d_8">
      <g>
       <use xlink:href="#m8a5f529376" x="33.735938" y="180.153549" style="stroke: #000000; stroke-width: 0.8"/>
      </g>
     </g>
     <g id="text_9">
      <!-- 3 -->
      <g transform="translate(21.645938 183.192924) scale(0.08 -0.08)">
       <defs>
        <path id="DejaVuSans-33" d="M 2597 2516 
Q 3050 2419 3304 2112 
Q 3559 1806 3559 1356 
Q 3559 666 3084 287 
Q 2609 -91 1734 -91 
Q 1441 -91 1130 -33 
Q 819 25 488 141 
L 488 750 
Q 750 597 1062 519 
Q 1375 441 1716 441 
Q 2309 441 2620 675 
Q 2931 909 2931 1356 
Q 2931 1769 2642 2001 
Q 2353 2234 1838 2234 
L 1294 2234 
L 1294 2753 
L 1863 2753 
Q 2328 2753 2575 2939 
Q 2822 3125 2822 3475 
Q 2822 3834 2567 4026 
Q 2313 4219 1838 4219 
Q 1578 4219 1281 4162 
Q 984 4106 628 3988 
L 628 4550 
Q 988 4650 1302 4700 
Q 1616 4750 1894 4750 
Q 2613 4750 3031 4423 
Q 3450 4097 3450 3541 
Q 3450 3153 3228 2886 
Q 3006 2619 2597 2516 
z
" transform="scale(0.015625)"/>
       </defs>
       <use xlink:href="#DejaVuSans-33"/>
      </g>
     </g>
    </g>
    <g id="ytick_4">
     <g id="line2d_9">
      <g>
       <use xlink:href="#m8a5f529376" x="33.735938" y="125.50646" style="stroke: #000000; stroke-width: 0.8"/>
      </g>
     </g>
     <g id="text_10">
      <!-- 4 -->
      <g transform="translate(21.645938 128.545835) scale(0.08 -0.08)">
       <defs>
        <path id="DejaVuSans-34" d="M 2419 4116 
L 825 1625 
L 2419 1625 
L 2419 4116 
z
M 2253 4666 
L 3047 4666 
L 3047 1625 
L 3713 1625 
L 3713 1100 
L 3047 1100 
L 3047 0 
L 2419 0 
L 2419 1100 
L 313 1100 
L 313 1709 
L 2253 4666 
z
" transform="scale(0.015625)"/>
       </defs>
       <use xlink:href="#DejaVuSans-34"/>
      </g>
     </g>
    </g>
    <g id="ytick_5">
     <g id="line2d_10">
      <g>
       <use xlink:href="#m8a5f529376" x="33.735938" y="70.859372" style="stroke: #000000; stroke-width: 0.8"/>
      </g>
     </g>
     <g id="text_11">
      <!-- 5 -->
      <g transform="translate(21.645938 73.898747) scale(0.08 -0.08)">
       <use xlink:href="#DejaVuSans-35"/>
      </g>
     </g>
    </g>
    <g id="text_12">
     <!-- Cell Density (1000 cells/100 μm circle) -->
     <g transform="translate(13.751719 270.24625) rotate(-90) scale(0.09 -0.09)">
      <defs>
       <path id="ArialMT-43" d="M 3763 1606 
L 4369 1453 
Q 4178 706 3683 314 
Q 3188 -78 2472 -78 
Q 1731 -78 1267 223 
Q 803 525 561 1097 
Q 319 1669 319 2325 
Q 319 3041 592 3573 
Q 866 4106 1370 4382 
Q 1875 4659 2481 4659 
Q 3169 4659 3637 4309 
Q 4106 3959 4291 3325 
L 3694 3184 
Q 3534 3684 3231 3912 
Q 2928 4141 2469 4141 
Q 1941 4141 1586 3887 
Q 1231 3634 1087 3207 
Q 944 2781 944 2328 
Q 944 1744 1114 1308 
Q 1284 872 1643 656 
Q 2003 441 2422 441 
Q 2931 441 3284 734 
Q 3638 1028 3763 1606 
z
" transform="scale(0.015625)"/>
       <path id="ArialMT-44" d="M 494 0 
L 494 4581 
L 2072 4581 
Q 2606 4581 2888 4516 
Q 3281 4425 3559 4188 
Q 3922 3881 4101 3404 
Q 4281 2928 4281 2316 
Q 4281 1794 4159 1391 
Q 4038 988 3847 723 
Q 3656 459 3429 307 
Q 3203 156 2883 78 
Q 2563 0 2147 0 
L 494 0 
z
M 1100 541 
L 2078 541 
Q 2531 541 2789 625 
Q 3047 709 3200 863 
Q 3416 1078 3536 1442 
Q 3656 1806 3656 2325 
Q 3656 3044 3420 3430 
Q 3184 3816 2847 3947 
Q 2603 4041 2063 4041 
L 1100 4041 
L 1100 541 
z
" transform="scale(0.015625)"/>
       <path id="ArialMT-73" d="M 197 991 
L 753 1078 
Q 800 744 1014 566 
Q 1228 388 1613 388 
Q 2000 388 2187 545 
Q 2375 703 2375 916 
Q 2375 1106 2209 1216 
Q 2094 1291 1634 1406 
Q 1016 1563 777 1677 
Q 538 1791 414 1992 
Q 291 2194 291 2438 
Q 291 2659 392 2848 
Q 494 3038 669 3163 
Q 800 3259 1026 3326 
Q 1253 3394 1513 3394 
Q 1903 3394 2198 3281 
Q 2494 3169 2634 2976 
Q 2775 2784 2828 2463 
L 2278 2388 
Q 2241 2644 2061 2787 
Q 1881 2931 1553 2931 
Q 1166 2931 1000 2803 
Q 834 2675 834 2503 
Q 834 2394 903 2306 
Q 972 2216 1119 2156 
Q 1203 2125 1616 2013 
Q 2213 1853 2448 1751 
Q 2684 1650 2818 1456 
Q 2953 1263 2953 975 
Q 2953 694 2789 445 
Q 2625 197 2315 61 
Q 2006 -75 1616 -75 
Q 969 -75 630 194 
Q 291 463 197 991 
z
" transform="scale(0.015625)"/>
       <path id="ArialMT-69" d="M 425 3934 
L 425 4581 
L 988 4581 
L 988 3934 
L 425 3934 
z
M 425 0 
L 425 3319 
L 988 3319 
L 988 0 
L 425 0 
z
" transform="scale(0.015625)"/>
       <path id="ArialMT-74" d="M 1650 503 
L 1731 6 
Q 1494 -44 1306 -44 
Q 1000 -44 831 53 
Q 663 150 594 308 
Q 525 466 525 972 
L 525 2881 
L 113 2881 
L 113 3319 
L 525 3319 
L 525 4141 
L 1084 4478 
L 1084 3319 
L 1650 3319 
L 1650 2881 
L 1084 2881 
L 1084 941 
Q 1084 700 1114 631 
Q 1144 563 1211 522 
Q 1278 481 1403 481 
Q 1497 481 1650 503 
z
" transform="scale(0.015625)"/>
       <path id="ArialMT-79" d="M 397 -1278 
L 334 -750 
Q 519 -800 656 -800 
Q 844 -800 956 -737 
Q 1069 -675 1141 -563 
Q 1194 -478 1313 -144 
Q 1328 -97 1363 -6 
L 103 3319 
L 709 3319 
L 1400 1397 
Q 1534 1031 1641 628 
Q 1738 1016 1872 1384 
L 2581 3319 
L 3144 3319 
L 1881 -56 
Q 1678 -603 1566 -809 
Q 1416 -1088 1222 -1217 
Q 1028 -1347 759 -1347 
Q 597 -1347 397 -1278 
z
" transform="scale(0.015625)"/>
       <path id="ArialMT-31" d="M 2384 0 
L 1822 0 
L 1822 3584 
Q 1619 3391 1289 3197 
Q 959 3003 697 2906 
L 697 3450 
Q 1169 3672 1522 3987 
Q 1875 4303 2022 4600 
L 2384 4600 
L 2384 0 
z
" transform="scale(0.015625)"/>
       <path id="ArialMT-30" d="M 266 2259 
Q 266 3072 433 3567 
Q 600 4063 929 4331 
Q 1259 4600 1759 4600 
Q 2128 4600 2406 4451 
Q 2684 4303 2865 4023 
Q 3047 3744 3150 3342 
Q 3253 2941 3253 2259 
Q 3253 1453 3087 958 
Q 2922 463 2592 192 
Q 2263 -78 1759 -78 
Q 1097 -78 719 397 
Q 266 969 266 2259 
z
M 844 2259 
Q 844 1131 1108 757 
Q 1372 384 1759 384 
Q 2147 384 2411 759 
Q 2675 1134 2675 2259 
Q 2675 3391 2411 3762 
Q 2147 4134 1753 4134 
Q 1366 4134 1134 3806 
Q 844 3388 844 2259 
z
" transform="scale(0.015625)"/>
       <path id="ArialMT-63" d="M 2588 1216 
L 3141 1144 
Q 3050 572 2676 248 
Q 2303 -75 1759 -75 
Q 1078 -75 664 370 
Q 250 816 250 1647 
Q 250 2184 428 2587 
Q 606 2991 970 3192 
Q 1334 3394 1763 3394 
Q 2303 3394 2647 3120 
Q 2991 2847 3088 2344 
L 2541 2259 
Q 2463 2594 2264 2762 
Q 2066 2931 1784 2931 
Q 1359 2931 1093 2626 
Q 828 2322 828 1663 
Q 828 994 1084 691 
Q 1341 388 1753 388 
Q 2084 388 2306 591 
Q 2528 794 2588 1216 
z
" transform="scale(0.015625)"/>
       <path id="ArialMT-2f" d="M 0 -78 
L 1328 4659 
L 1778 4659 
L 453 -78 
L 0 -78 
z
" transform="scale(0.015625)"/>
       <path id="ArialMT-3bc" d="M 3181 3319 
L 3181 0 
L 2678 0 
L 2678 394 
Q 2516 144 2356 50 
Q 2138 -78 1847 -78 
Q 1588 -78 1388 25 
Q 1238 103 1056 334 
L 1056 -1272 
L 500 -1272 
L 500 3319 
L 1056 3319 
L 1056 1913 
Q 1056 1147 1137 920 
Q 1219 694 1401 562 
Q 1584 431 1822 431 
Q 2072 431 2269 568 
Q 2466 706 2547 923 
Q 2628 1141 2628 1903 
L 2628 3319 
L 3181 3319 
z
" transform="scale(0.015625)"/>
       <path id="ArialMT-72" d="M 416 0 
L 416 3319 
L 922 3319 
L 922 2816 
Q 1116 3169 1280 3281 
Q 1444 3394 1641 3394 
Q 1925 3394 2219 3213 
L 2025 2691 
Q 1819 2813 1613 2813 
Q 1428 2813 1281 2702 
Q 1134 2591 1072 2394 
Q 978 2094 978 1738 
L 978 0 
L 416 0 
z
" transform="scale(0.015625)"/>
      </defs>
      <use xlink:href="#ArialMT-43"/>
      <use xlink:href="#ArialMT-65" transform="translate(72.216797 0)"/>
      <use xlink:href="#ArialMT-6c" transform="translate(127.832031 0)"/>
      <use xlink:href="#ArialMT-6c" transform="translate(150.048828 0)"/>
      <use xlink:href="#ArialMT-20" transform="translate(172.265625 0)"/>
      <use xlink:href="#ArialMT-44" transform="translate(200.048828 0)"/>
      <use xlink:href="#ArialMT-65" transform="translate(272.265625 0)"/>
      <use xlink:href="#ArialMT-6e" transform="translate(327.880859 0)"/>
      <use xlink:href="#ArialMT-73" transform="translate(383.496094 0)"/>
      <use xlink:href="#ArialMT-69" transform="translate(433.496094 0)"/>
      <use xlink:href="#ArialMT-74" transform="translate(455.712891 0)"/>
      <use xlink:href="#ArialMT-79" transform="translate(483.496094 0)"/>
      <use xlink:href="#ArialMT-20" transform="translate(533.496094 0)"/>
      <use xlink:href="#ArialMT-28" transform="translate(561.279297 0)"/>
      <use xlink:href="#ArialMT-31" transform="translate(594.580078 0)"/>
      <use xlink:href="#ArialMT-30" transform="translate(650.195312 0)"/>
      <use xlink:href="#ArialMT-30" transform="translate(705.810547 0)"/>
      <use xlink:href="#ArialMT-30" transform="translate(761.425781 0)"/>
      <use xlink:href="#ArialMT-20" transform="translate(817.041016 0)"/>
      <use xlink:href="#ArialMT-63" transform="translate(844.824219 0)"/>
      <use xlink:href="#ArialMT-65" transform="translate(894.824219 0)"/>
      <use xlink:href="#ArialMT-6c" transform="translate(950.439453 0)"/>
      <use xlink:href="#ArialMT-6c" transform="translate(972.65625 0)"/>
      <use xlink:href="#ArialMT-73" transform="translate(994.873047 0)"/>
      <use xlink:href="#ArialMT-2f" transform="translate(1044.873047 0)"/>
      <use xlink:href="#ArialMT-31" transform="translate(1072.65625 0)"/>
      <use xlink:href="#ArialMT-30" transform="translate(1128.271484 0)"/>
      <use xlink:href="#ArialMT-30" transform="translate(1183.886719 0)"/>
      <use xlink:href="#ArialMT-20" transform="translate(1239.501953 0)"/>
      <use xlink:href="#ArialMT-3bc" transform="translate(1267.285156 0)"/>
      <use xlink:href="#ArialMT-6d" transform="translate(1324.902344 0)"/>
      <use xlink:href="#ArialMT-20" transform="translate(1408.203125 0)"/>
      <use xlink:href="#ArialMT-63" transform="translate(1435.986328 0)"/>
      <use xlink:href="#ArialMT-69" transform="translate(1485.986328 0)"/>
      <use xlink:href="#ArialMT-72" transform="translate(1508.203125 0)"/>
      <use xlink:href="#ArialMT-63" transform="translate(1541.503906 0)"/>
      <use xlink:href="#ArialMT-6c" transform="translate(1591.503906 0)"/>
      <use xlink:href="#ArialMT-65" transform="translate(1613.720703 0)"/>
      <use xlink:href="#ArialMT-29" transform="translate(1669.335938 0)"/>
     </g>
    </g>
   </g>
   <g id="line2d_11">
    <path d="M 45.834347 212.629343 
L 48.27847 212.172143 
L 50.722593 211.714943 
L 53.166716 211.257743 
L 55.610839 210.800543 
L 58.054962 210.343343 
L 60.499085 209.886144 
L 62.943208 209.428944 
L 65.387331 208.971744 
L 67.831454 208.514544 
L 70.275577 208.057344 
L 72.7197 207.600144 
L 75.163823 207.142944 
L 77.607946 206.685745 
L 80.052069 206.228545 
L 82.496192 205.771345 
L 84.940315 205.314145 
L 87.384438 204.856945 
L 89.828561 204.399745 
L 92.272685 203.942545 
L 94.716808 203.485345 
L 97.160931 203.028146 
L 99.605054 202.570946 
L 102.049177 202.113746 
L 104.4933 201.656546 
L 106.937423 201.199346 
L 109.381546 200.742146 
L 111.825669 200.284946 
L 114.269792 199.827747 
L 116.713915 199.370547 
L 119.158038 198.913347 
L 121.602161 198.456147 
L 124.046284 197.998947 
L 126.490407 197.541747 
L 128.93453 197.084547 
L 131.378653 196.627347 
L 133.822776 196.170148 
L 136.266899 195.712948 
L 138.711022 195.255748 
L 141.155145 194.798548 
L 143.599269 194.341348 
L 146.043392 193.884148 
L 148.487515 193.426948 
L 150.931638 192.969749 
L 153.375761 192.512549 
L 155.819884 192.055349 
L 158.264007 191.598149 
L 160.70813 191.140949 
L 163.152253 190.683749 
L 165.596376 190.226549 
L 168.040499 189.769349 
L 170.484622 189.31215 
L 172.928745 188.85495 
L 175.372868 188.39775 
L 177.816991 187.94055 
L 180.261114 187.48335 
L 182.705237 187.02615 
L 185.14936 186.56895 
L 187.593483 186.111751 
L 190.037606 185.654551 
L 192.48173 185.197351 
L 194.925853 184.740151 
L 197.369976 184.282951 
L 199.814099 183.825751 
L 202.258222 183.368551 
L 204.702345 182.911351 
L 207.146468 182.454152 
L 209.590591 181.996952 
L 212.034714 181.539752 
L 214.478837 181.082552 
L 216.92296 180.625352 
L 219.367083 180.168152 
L 221.811206 179.710952 
L 224.255329 179.253753 
L 226.699452 178.796553 
L 229.143575 178.339353 
L 231.587698 177.882153 
L 234.031821 177.424953 
L 236.475944 176.967753 
L 238.920067 176.510553 
L 241.36419 176.053353 
L 243.808314 175.596154 
L 246.252437 175.138954 
L 248.69656 174.681754 
L 251.140683 174.224554 
L 253.584806 173.767354 
L 256.028929 173.310154 
L 258.473052 172.852954 
L 260.917175 172.395754 
L 263.361298 171.938555 
L 265.805421 171.481355 
L 268.249544 171.024155 
L 270.693667 170.566955 
L 273.13779 170.109755 
L 275.581913 169.652555 
L 278.026036 169.195355 
L 280.470159 168.738156 
L 282.914282 168.280956 
L 285.358405 167.823756 
L 287.802528 167.366556 
" clip-path="url(#p5ddf618a83)" style="fill: none; stroke: #808080; stroke-opacity: 0.9; stroke-width: 1.5; stroke-linecap: square"/>
   </g>
   <g id="line2d_12">
    <path d="M 79.541591 238.907567 
L 80.995547 239.041247 
L 82.449503 239.174928 
L 83.903459 239.308609 
L 85.357415 239.44229 
L 86.811371 239.575971 
L 88.265327 239.709651 
L 89.719283 239.843332 
L 91.173239 239.977013 
L 92.627196 240.110694 
L 94.081152 240.244375 
L 95.535108 240.378055 
L 96.989064 240.511736 
L 98.44302 240.645417 
L 99.896976 240.779098 
L 101.350932 240.912779 
L 102.804888 241.046459 
L 104.258844 241.18014 
L 105.7128 241.313821 
L 107.166756 241.447502 
L 108.620712 241.581183 
L 110.074668 241.714863 
L 111.528624 241.848544 
L 112.98258 241.982225 
L 114.436536 242.115906 
L 115.890493 242.249587 
L 117.344449 242.383267 
L 118.798405 242.516948 
L 120.252361 242.650629 
L 121.706317 242.78431 
L 123.160273 242.917991 
L 124.614229 243.051671 
L 126.068185 243.185352 
L 127.522141 243.319033 
L 128.976097 243.452714 
L 130.430053 243.586395 
L 131.884009 243.720075 
L 133.337965 243.853756 
L 134.791921 243.987437 
L 136.245877 244.121118 
L 137.699833 244.254799 
L 139.15379 244.388479 
L 140.607746 244.52216 
L 142.061702 244.655841 
L 143.515658 244.789522 
L 144.969614 244.923203 
L 146.42357 245.056883 
L 147.877526 245.190564 
L 149.331482 245.324245 
L 150.785438 245.457926 
L 152.239394 245.591607 
L 153.69335 245.725287 
L 155.147306 245.858968 
L 156.601262 245.992649 
L 158.055218 246.12633 
L 159.509174 246.260011 
L 160.963131 246.393691 
L 162.417087 246.527372 
L 163.871043 246.661053 
L 165.324999 246.794734 
L 166.778955 246.928415 
L 168.232911 247.062095 
L 169.686867 247.195776 
L 171.140823 247.329457 
L 172.594779 247.463138 
L 174.048735 247.596819 
L 175.502691 247.730499 
L 176.956647 247.86418 
L 178.410603 247.997861 
L 179.864559 248.131542 
L 181.318515 248.265223 
L 182.772471 248.398903 
L 184.226428 248.532584 
L 185.680384 248.666265 
L 187.13434 248.799946 
L 188.588296 248.933627 
L 190.042252 249.067307 
L 191.496208 249.200988 
L 192.950164 249.334669 
L 194.40412 249.46835 
L 195.858076 249.602031 
L 197.312032 249.735711 
L 198.765988 249.869392 
L 200.219944 250.003073 
L 201.6739 250.136754 
L 203.127856 250.270434 
L 204.581812 250.404115 
L 206.035768 250.537796 
L 207.489725 250.671477 
L 208.943681 250.805158 
L 210.397637 250.938838 
L 211.851593 251.072519 
L 213.305549 251.2062 
L 214.759505 251.339881 
L 216.213461 251.473562 
L 217.667417 251.607242 
L 219.121373 251.740923 
L 220.575329 251.874604 
L 222.029285 252.008285 
L 223.483241 252.141966 
" clip-path="url(#p5ddf618a83)" style="fill: none; stroke: #fd810a; stroke-opacity: 0.9; stroke-width: 1.5; stroke-linecap: square"/>
   </g>
   <g id="patch_3">
    <path d="M 33.735938 330.44 
L 33.735938 56.821875 
" style="fill: none; stroke: #000000; stroke-width: 0.8; stroke-linejoin: miter; stroke-linecap: square"/>
   </g>
   <g id="patch_4">
    <path d="M 33.735938 330.44 
L 299.900937 330.44 
" style="fill: none; stroke: #000000; stroke-width: 0.8; stroke-linejoin: miter; stroke-linecap: square"/>
   </g>
   <g id="text_13">
    <!-- r²=0.21 ns -->
    <g style="fill: #808080" transform="translate(84.620406 60.518144) scale(0.09 -0.09)">
     <defs>
      <path id="Arial-BoldMT-72" d="M 1300 0 
L 422 0 
L 422 3319 
L 1238 3319 
L 1238 2847 
Q 1447 3181 1614 3287 
Q 1781 3394 1994 3394 
Q 2294 3394 2572 3228 
L 2300 2463 
Q 2078 2606 1888 2606 
Q 1703 2606 1575 2504 
Q 1447 2403 1373 2137 
Q 1300 1872 1300 1025 
L 1300 0 
z
" transform="scale(0.015625)"/>
      <path id="Arial-BoldMT-b2" d="M 1975 2766 
L 1975 2272 
L 78 2272 
Q 113 2538 248 2747 
Q 384 2956 856 3328 
Q 1213 3606 1284 3697 
Q 1381 3816 1381 3938 
Q 1381 4053 1303 4122 
Q 1225 4191 1066 4191 
Q 906 4191 828 4114 
Q 750 4038 731 3831 
L 141 3881 
Q 188 4247 375 4416 
Q 625 4638 1081 4638 
Q 1516 4638 1745 4438 
Q 1975 4238 1975 3966 
Q 1975 3797 1903 3645 
Q 1831 3494 1675 3331 
Q 1594 3250 1253 2981 
Q 1072 2841 994 2766 
L 1975 2766 
z
" transform="scale(0.015625)"/>
      <path id="Arial-BoldMT-3d" d="M 266 2550 
L 266 3356 
L 3469 3356 
L 3469 2550 
L 266 2550 
z
M 266 1163 
L 266 1972 
L 3469 1972 
L 3469 1163 
L 266 1163 
z
" transform="scale(0.015625)"/>
      <path id="Arial-BoldMT-30" d="M 1756 4600 
Q 2422 4600 2797 4125 
Q 3244 3563 3244 2259 
Q 3244 959 2794 391 
Q 2422 -78 1756 -78 
Q 1088 -78 678 436 
Q 269 950 269 2269 
Q 269 3563 719 4131 
Q 1091 4600 1756 4600 
z
M 1756 3872 
Q 1597 3872 1472 3770 
Q 1347 3669 1278 3406 
Q 1188 3066 1188 2259 
Q 1188 1453 1269 1151 
Q 1350 850 1473 750 
Q 1597 650 1756 650 
Q 1916 650 2041 751 
Q 2166 853 2234 1116 
Q 2325 1453 2325 2259 
Q 2325 3066 2244 3367 
Q 2163 3669 2039 3770 
Q 1916 3872 1756 3872 
z
" transform="scale(0.015625)"/>
      <path id="Arial-BoldMT-2e" d="M 459 0 
L 459 878 
L 1338 878 
L 1338 0 
L 459 0 
z
" transform="scale(0.015625)"/>
      <path id="Arial-BoldMT-32" d="M 3238 816 
L 3238 0 
L 159 0 
Q 209 463 459 877 
Q 709 1291 1447 1975 
Q 2041 2528 2175 2725 
Q 2356 2997 2356 3263 
Q 2356 3556 2198 3714 
Q 2041 3872 1763 3872 
Q 1488 3872 1325 3706 
Q 1163 3541 1138 3156 
L 263 3244 
Q 341 3969 753 4284 
Q 1166 4600 1784 4600 
Q 2463 4600 2850 4234 
Q 3238 3869 3238 3325 
Q 3238 3016 3127 2736 
Q 3016 2456 2775 2150 
Q 2616 1947 2200 1565 
Q 1784 1184 1673 1059 
Q 1563 934 1494 816 
L 3238 816 
z
" transform="scale(0.015625)"/>
      <path id="Arial-BoldMT-31" d="M 2519 0 
L 1641 0 
L 1641 3309 
Q 1159 2859 506 2644 
L 506 3441 
Q 850 3553 1253 3867 
Q 1656 4181 1806 4600 
L 2519 4600 
L 2519 0 
z
" transform="scale(0.015625)"/>
      <path id="Arial-BoldMT-20" transform="scale(0.015625)"/>
      <path id="Arial-BoldMT-6e" d="M 3478 0 
L 2600 0 
L 2600 1694 
Q 2600 2231 2544 2389 
Q 2488 2547 2361 2634 
Q 2234 2722 2056 2722 
Q 1828 2722 1647 2597 
Q 1466 2472 1398 2265 
Q 1331 2059 1331 1503 
L 1331 0 
L 453 0 
L 453 3319 
L 1269 3319 
L 1269 2831 
Q 1703 3394 2363 3394 
Q 2653 3394 2893 3289 
Q 3134 3184 3257 3021 
Q 3381 2859 3429 2653 
Q 3478 2447 3478 2063 
L 3478 0 
z
" transform="scale(0.015625)"/>
      <path id="Arial-BoldMT-73" d="M 150 947 
L 1031 1081 
Q 1088 825 1259 692 
Q 1431 559 1741 559 
Q 2081 559 2253 684 
Q 2369 772 2369 919 
Q 2369 1019 2306 1084 
Q 2241 1147 2013 1200 
Q 950 1434 666 1628 
Q 272 1897 272 2375 
Q 272 2806 612 3100 
Q 953 3394 1669 3394 
Q 2350 3394 2681 3172 
Q 3013 2950 3138 2516 
L 2309 2363 
Q 2256 2556 2107 2659 
Q 1959 2763 1684 2763 
Q 1338 2763 1188 2666 
Q 1088 2597 1088 2488 
Q 1088 2394 1175 2328 
Q 1294 2241 1995 2081 
Q 2697 1922 2975 1691 
Q 3250 1456 3250 1038 
Q 3250 581 2869 253 
Q 2488 -75 1741 -75 
Q 1063 -75 667 200 
Q 272 475 150 947 
z
" transform="scale(0.015625)"/>
     </defs>
     <use xlink:href="#Arial-BoldMT-72"/>
     <use xlink:href="#Arial-BoldMT-b2" transform="translate(38.916016 0)"/>
     <use xlink:href="#Arial-BoldMT-3d" transform="translate(72.216797 0)"/>
     <use xlink:href="#Arial-BoldMT-30" transform="translate(130.615234 0)"/>
     <use xlink:href="#Arial-BoldMT-2e" transform="translate(186.230469 0)"/>
     <use xlink:href="#Arial-BoldMT-32" transform="translate(214.013672 0)"/>
     <use xlink:href="#Arial-BoldMT-31" transform="translate(269.628906 0)"/>
     <use xlink:href="#Arial-BoldMT-20" transform="translate(325.244141 0)"/>
     <use xlink:href="#Arial-BoldMT-6e" transform="translate(353.027344 0)"/>
     <use xlink:href="#Arial-BoldMT-73" transform="translate(414.111328 0)"/>
    </g>
   </g>
   <g id="text_14">
    <!-- r²=0.01 ns -->
    <g style="fill: #fd810a" transform="translate(206.743187 60.518144) scale(0.09 -0.09)">
     <use xlink:href="#Arial-BoldMT-72"/>
     <use xlink:href="#Arial-BoldMT-b2" transform="translate(38.916016 0)"/>
     <use xlink:href="#Arial-BoldMT-3d" transform="translate(72.216797 0)"/>
     <use xlink:href="#Arial-BoldMT-30" transform="translate(130.615234 0)"/>
     <use xlink:href="#Arial-BoldMT-2e" transform="translate(186.230469 0)"/>
     <use xlink:href="#Arial-BoldMT-30" transform="translate(214.013672 0)"/>
     <use xlink:href="#Arial-BoldMT-31" transform="translate(269.628906 0)"/>
     <use xlink:href="#Arial-BoldMT-20" transform="translate(325.244141 0)"/>
     <use xlink:href="#Arial-BoldMT-6e" transform="translate(353.027344 0)"/>
     <use xlink:href="#Arial-BoldMT-73" transform="translate(414.111328 0)"/>
    </g>
   </g>
   <g id="text_15">
    <!-- Microglia -->
    <g transform="translate(144.871562 50.821875) scale(0.1 -0.1)">
     <defs>
      <path id="Arial-BoldMT-4d" d="M 453 0 
L 453 4581 
L 1838 4581 
L 2669 1456 
L 3491 4581 
L 4878 4581 
L 4878 0 
L 4019 0 
L 4019 3606 
L 3109 0 
L 2219 0 
L 1313 3606 
L 1313 0 
L 453 0 
z
" transform="scale(0.015625)"/>
      <path id="Arial-BoldMT-69" d="M 459 3769 
L 459 4581 
L 1338 4581 
L 1338 3769 
L 459 3769 
z
M 459 0 
L 459 3319 
L 1338 3319 
L 1338 0 
L 459 0 
z
" transform="scale(0.015625)"/>
      <path id="Arial-BoldMT-63" d="M 3353 2338 
L 2488 2181 
Q 2444 2441 2289 2572 
Q 2134 2703 1888 2703 
Q 1559 2703 1364 2476 
Q 1169 2250 1169 1719 
Q 1169 1128 1367 884 
Q 1566 641 1900 641 
Q 2150 641 2309 783 
Q 2469 925 2534 1272 
L 3397 1125 
Q 3263 531 2881 228 
Q 2500 -75 1859 -75 
Q 1131 -75 698 384 
Q 266 844 266 1656 
Q 266 2478 700 2936 
Q 1134 3394 1875 3394 
Q 2481 3394 2839 3133 
Q 3197 2872 3353 2338 
z
" transform="scale(0.015625)"/>
      <path id="Arial-BoldMT-6f" d="M 256 1706 
Q 256 2144 472 2553 
Q 688 2963 1083 3178 
Q 1478 3394 1966 3394 
Q 2719 3394 3200 2905 
Q 3681 2416 3681 1669 
Q 3681 916 3195 420 
Q 2709 -75 1972 -75 
Q 1516 -75 1102 131 
Q 688 338 472 736 
Q 256 1134 256 1706 
z
M 1156 1659 
Q 1156 1166 1390 903 
Q 1625 641 1969 641 
Q 2313 641 2545 903 
Q 2778 1166 2778 1666 
Q 2778 2153 2545 2415 
Q 2313 2678 1969 2678 
Q 1625 2678 1390 2415 
Q 1156 2153 1156 1659 
z
" transform="scale(0.015625)"/>
      <path id="Arial-BoldMT-67" d="M 378 -219 
L 1381 -341 
Q 1406 -516 1497 -581 
Q 1622 -675 1891 -675 
Q 2234 -675 2406 -572 
Q 2522 -503 2581 -350 
Q 2622 -241 2622 53 
L 2622 538 
Q 2228 0 1628 0 
Q 959 0 569 566 
Q 263 1013 263 1678 
Q 263 2513 664 2953 
Q 1066 3394 1663 3394 
Q 2278 3394 2678 2853 
L 2678 3319 
L 3500 3319 
L 3500 341 
Q 3500 -247 3403 -537 
Q 3306 -828 3131 -993 
Q 2956 -1159 2664 -1253 
Q 2372 -1347 1925 -1347 
Q 1081 -1347 728 -1058 
Q 375 -769 375 -325 
Q 375 -281 378 -219 
z
M 1163 1728 
Q 1163 1200 1367 954 
Q 1572 709 1872 709 
Q 2194 709 2416 961 
Q 2638 1213 2638 1706 
Q 2638 2222 2425 2472 
Q 2213 2722 1888 2722 
Q 1572 2722 1367 2476 
Q 1163 2231 1163 1728 
z
" transform="scale(0.015625)"/>
      <path id="Arial-BoldMT-6c" d="M 459 0 
L 459 4581 
L 1338 4581 
L 1338 0 
L 459 0 
z
" transform="scale(0.015625)"/>
      <path id="Arial-BoldMT-61" d="M 1116 2306 
L 319 2450 
Q 453 2931 781 3162 
Q 1109 3394 1756 3394 
Q 2344 3394 2631 3255 
Q 2919 3116 3036 2902 
Q 3153 2688 3153 2116 
L 3144 1091 
Q 3144 653 3186 445 
Q 3228 238 3344 0 
L 2475 0 
Q 2441 88 2391 259 
Q 2369 338 2359 363 
Q 2134 144 1878 34 
Q 1622 -75 1331 -75 
Q 819 -75 523 203 
Q 228 481 228 906 
Q 228 1188 362 1408 
Q 497 1628 739 1745 
Q 981 1863 1438 1950 
Q 2053 2066 2291 2166 
L 2291 2253 
Q 2291 2506 2166 2614 
Q 2041 2722 1694 2722 
Q 1459 2722 1328 2630 
Q 1197 2538 1116 2306 
z
M 2291 1594 
Q 2122 1538 1756 1459 
Q 1391 1381 1278 1306 
Q 1106 1184 1106 997 
Q 1106 813 1243 678 
Q 1381 544 1594 544 
Q 1831 544 2047 700 
Q 2206 819 2256 991 
Q 2291 1103 2291 1419 
L 2291 1594 
z
" transform="scale(0.015625)"/>
     </defs>
     <use xlink:href="#Arial-BoldMT-4d"/>
     <use xlink:href="#Arial-BoldMT-69" transform="translate(83.300781 0)"/>
     <use xlink:href="#Arial-BoldMT-63" transform="translate(111.083984 0)"/>
     <use xlink:href="#Arial-BoldMT-72" transform="translate(166.699219 0)"/>
     <use xlink:href="#Arial-BoldMT-6f" transform="translate(205.615234 0)"/>
     <use xlink:href="#Arial-BoldMT-67" transform="translate(266.699219 0)"/>
     <use xlink:href="#Arial-BoldMT-6c" transform="translate(327.783203 0)"/>
     <use xlink:href="#Arial-BoldMT-69" transform="translate(355.566406 0)"/>
     <use xlink:href="#Arial-BoldMT-61" transform="translate(383.349609 0)"/>
    </g>
   </g>
  </g>
  <g id="axes_2">
   <g id="patch_5">
    <path d="M 344.670938 330.44 
L 610.835938 330.44 
L 610.835938 56.821875 
L 344.670938 56.821875 
z
" style="fill: #ffffff"/>
   </g>
   <g id="PathCollection_3">
    <defs>
     <path id="C2_0_440163a3ed" d="M 0 3.535534 
C 0.937635 3.535534 1.836992 3.163008 2.5 2.5 
C 3.163008 1.836992 3.535534 0.937635 3.535534 -0 
C 3.535534 -0.937635 3.163008 -1.836992 2.5 -2.5 
C 1.836992 -3.163008 0.937635 -3.535534 0 -3.535534 
C -0.937635 -3.535534 -1.836992 -3.163008 -2.5 -2.5 
C -3.163008 -1.836992 -3.535534 -0.937635 -3.535534 0 
C -3.535534 0.937635 -3.163008 1.836992 -2.5 2.5 
C -1.836992 3.163008 -0.937635 3.535534 0 3.535534 
z
"/>
    </defs>
    <g clip-path="url(#pd4f66b4fa6)">
     <use xlink:href="#C2_0_440163a3ed" x="509.208193" y="288.738842" style="fill: #808080; fill-opacity: 0.8"/>
    </g>
    <g clip-path="url(#pd4f66b4fa6)">
     <use xlink:href="#C2_0_440163a3ed" x="509.208193" y="113.155018" style="fill: #808080; fill-opacity: 0.8"/>
    </g>
    <g clip-path="url(#pd4f66b4fa6)">
     <use xlink:href="#C2_0_440163a3ed" x="414.860932" y="303.370827" style="fill: #808080; fill-opacity: 0.8"/>
    </g>
    <g clip-path="url(#pd4f66b4fa6)">
     <use xlink:href="#C2_0_440163a3ed" x="356.769347" y="244.842886" style="fill: #808080; fill-opacity: 0.8"/>
    </g>
    <g clip-path="url(#pd4f66b4fa6)">
     <use xlink:href="#C2_0_440163a3ed" x="356.769347" y="318.002812" style="fill: #808080; fill-opacity: 0.8"/>
    </g>
   </g>
   <g id="PathCollection_4">
    <defs>
     <path id="C3_0_f1d1239c50" d="M 0 3.535534 
C 0.937635 3.535534 1.836992 3.163008 2.5 2.5 
C 3.163008 1.836992 3.535534 0.937635 3.535534 -0 
C 3.535534 -0.937635 3.163008 -1.836992 2.5 -2.5 
C 1.836992 -3.163008 0.937635 -3.535534 0 -3.535534 
C -0.937635 -3.535534 -1.836992 -3.163008 -2.5 -2.5 
C -3.163008 -1.836992 -3.535534 -0.937635 -3.535534 0 
C -3.535534 0.937635 -3.163008 1.836992 -2.5 2.5 
C -1.836992 3.163008 -0.937635 3.535534 0 3.535534 
z
"/>
    </defs>
    <g clip-path="url(#pd4f66b4fa6)">
     <use xlink:href="#C3_0_f1d1239c50" x="385.172827" y="288.738842" style="fill: #fd810a; fill-opacity: 0.8"/>
    </g>
    <g clip-path="url(#pd4f66b4fa6)">
     <use xlink:href="#C3_0_f1d1239c50" x="385.172827" y="274.106857" style="fill: #fd810a; fill-opacity: 0.8"/>
    </g>
    <g clip-path="url(#pd4f66b4fa6)">
     <use xlink:href="#C3_0_f1d1239c50" x="514.084901" y="157.050974" style="fill: #fd810a; fill-opacity: 0.8"/>
    </g>
    <g clip-path="url(#pd4f66b4fa6)">
     <use xlink:href="#C3_0_f1d1239c50" x="514.084901" y="69.259062" style="fill: #fd810a; fill-opacity: 0.8"/>
    </g>
    <g clip-path="url(#pd4f66b4fa6)">
     <use xlink:href="#C3_0_f1d1239c50" x="598.737528" y="274.106857" style="fill: #fd810a; fill-opacity: 0.8"/>
    </g>
    <g clip-path="url(#pd4f66b4fa6)">
     <use xlink:href="#C3_0_f1d1239c50" x="598.737528" y="230.210901" style="fill: #fd810a; fill-opacity: 0.8"/>
    </g>
   </g>
   <g id="matplotlib.axis_3">
    <g id="xtick_6">
     <g id="line2d_13">
      <g>
       <use xlink:href="#m17a27a1325" x="367.20255" y="330.44" style="stroke: #000000; stroke-width: 0.8"/>
      </g>
     </g>
     <g id="text_16">
      <!-- 20 -->
      <g transform="translate(362.11255 343.51875) scale(0.08 -0.08)">
       <use xlink:href="#DejaVuSans-32"/>
       <use xlink:href="#DejaVuSans-30" transform="translate(63.623047 0)"/>
      </g>
     </g>
    </g>
    <g id="xtick_7">
     <g id="line2d_14">
      <g>
       <use xlink:href="#m17a27a1325" x="409.190649" y="330.44" style="stroke: #000000; stroke-width: 0.8"/>
      </g>
     </g>
     <g id="text_17">
      <!-- 40 -->
      <g transform="translate(404.100649 343.51875) scale(0.08 -0.08)">
       <use xlink:href="#DejaVuSans-34"/>
       <use xlink:href="#DejaVuSans-30" transform="translate(63.623047 0)"/>
      </g>
     </g>
    </g>
    <g id="xtick_8">
     <g id="line2d_15">
      <g>
       <use xlink:href="#m17a27a1325" x="451.178749" y="330.44" style="stroke: #000000; stroke-width: 0.8"/>
      </g>
     </g>
     <g id="text_18">
      <!-- 60 -->
      <g transform="translate(446.088749 343.51875) scale(0.08 -0.08)">
       <defs>
        <path id="DejaVuSans-36" d="M 2113 2584 
Q 1688 2584 1439 2293 
Q 1191 2003 1191 1497 
Q 1191 994 1439 701 
Q 1688 409 2113 409 
Q 2538 409 2786 701 
Q 3034 994 3034 1497 
Q 3034 2003 2786 2293 
Q 2538 2584 2113 2584 
z
M 3366 4563 
L 3366 3988 
Q 3128 4100 2886 4159 
Q 2644 4219 2406 4219 
Q 1781 4219 1451 3797 
Q 1122 3375 1075 2522 
Q 1259 2794 1537 2939 
Q 1816 3084 2150 3084 
Q 2853 3084 3261 2657 
Q 3669 2231 3669 1497 
Q 3669 778 3244 343 
Q 2819 -91 2113 -91 
Q 1303 -91 875 529 
Q 447 1150 447 2328 
Q 447 3434 972 4092 
Q 1497 4750 2381 4750 
Q 2619 4750 2861 4703 
Q 3103 4656 3366 4563 
z
" transform="scale(0.015625)"/>
       </defs>
       <use xlink:href="#DejaVuSans-36"/>
       <use xlink:href="#DejaVuSans-30" transform="translate(63.623047 0)"/>
      </g>
     </g>
    </g>
    <g id="xtick_9">
     <g id="line2d_16">
      <g>
       <use xlink:href="#m17a27a1325" x="493.166849" y="330.44" style="stroke: #000000; stroke-width: 0.8"/>
      </g>
     </g>
     <g id="text_19">
      <!-- 80 -->
      <g transform="translate(488.076849 343.51875) scale(0.08 -0.08)">
       <defs>
        <path id="DejaVuSans-38" d="M 2034 2216 
Q 1584 2216 1326 1975 
Q 1069 1734 1069 1313 
Q 1069 891 1326 650 
Q 1584 409 2034 409 
Q 2484 409 2743 651 
Q 3003 894 3003 1313 
Q 3003 1734 2745 1975 
Q 2488 2216 2034 2216 
z
M 1403 2484 
Q 997 2584 770 2862 
Q 544 3141 544 3541 
Q 544 4100 942 4425 
Q 1341 4750 2034 4750 
Q 2731 4750 3128 4425 
Q 3525 4100 3525 3541 
Q 3525 3141 3298 2862 
Q 3072 2584 2669 2484 
Q 3125 2378 3379 2068 
Q 3634 1759 3634 1313 
Q 3634 634 3220 271 
Q 2806 -91 2034 -91 
Q 1263 -91 848 271 
Q 434 634 434 1313 
Q 434 1759 690 2068 
Q 947 2378 1403 2484 
z
M 1172 3481 
Q 1172 3119 1398 2916 
Q 1625 2713 2034 2713 
Q 2441 2713 2670 2916 
Q 2900 3119 2900 3481 
Q 2900 3844 2670 4047 
Q 2441 4250 2034 4250 
Q 1625 4250 1398 4047 
Q 1172 3844 1172 3481 
z
" transform="scale(0.015625)"/>
       </defs>
       <use xlink:href="#DejaVuSans-38"/>
       <use xlink:href="#DejaVuSans-30" transform="translate(63.623047 0)"/>
      </g>
     </g>
    </g>
    <g id="xtick_10">
     <g id="line2d_17">
      <g>
       <use xlink:href="#m17a27a1325" x="535.154949" y="330.44" style="stroke: #000000; stroke-width: 0.8"/>
      </g>
     </g>
     <g id="text_20">
      <!-- 100 -->
      <g transform="translate(527.519949 343.51875) scale(0.08 -0.08)">
       <use xlink:href="#DejaVuSans-31"/>
       <use xlink:href="#DejaVuSans-30" transform="translate(63.623047 0)"/>
       <use xlink:href="#DejaVuSans-30" transform="translate(127.246094 0)"/>
      </g>
     </g>
    </g>
    <g id="xtick_11">
     <g id="line2d_18">
      <g>
       <use xlink:href="#m17a27a1325" x="577.143049" y="330.44" style="stroke: #000000; stroke-width: 0.8"/>
      </g>
     </g>
     <g id="text_21">
      <!-- 120 -->
      <g transform="translate(569.508049 343.51875) scale(0.08 -0.08)">
       <use xlink:href="#DejaVuSans-31"/>
       <use xlink:href="#DejaVuSans-32" transform="translate(63.623047 0)"/>
       <use xlink:href="#DejaVuSans-30" transform="translate(127.246094 0)"/>
      </g>
     </g>
    </g>
    <g id="text_22">
     <!-- Fungal Volume (mm³) -->
     <g transform="translate(434.493672 357.734219) scale(0.09 -0.09)">
      <use xlink:href="#ArialMT-46"/>
      <use xlink:href="#ArialMT-75" transform="translate(61.083984 0)"/>
      <use xlink:href="#ArialMT-6e" transform="translate(116.699219 0)"/>
      <use xlink:href="#ArialMT-67" transform="translate(172.314453 0)"/>
      <use xlink:href="#ArialMT-61" transform="translate(227.929688 0)"/>
      <use xlink:href="#ArialMT-6c" transform="translate(283.544922 0)"/>
      <use xlink:href="#ArialMT-20" transform="translate(305.761719 0)"/>
      <use xlink:href="#ArialMT-56" transform="translate(333.544922 0)"/>
      <use xlink:href="#ArialMT-6f" transform="translate(394.744141 0)"/>
      <use xlink:href="#ArialMT-6c" transform="translate(450.359375 0)"/>
      <use xlink:href="#ArialMT-75" transform="translate(472.576172 0)"/>
      <use xlink:href="#ArialMT-6d" transform="translate(528.191406 0)"/>
      <use xlink:href="#ArialMT-65" transform="translate(611.492188 0)"/>
      <use xlink:href="#ArialMT-20" transform="translate(667.107422 0)"/>
      <use xlink:href="#ArialMT-28" transform="translate(694.890625 0)"/>
      <use xlink:href="#ArialMT-6d" transform="translate(728.191406 0)"/>
      <use xlink:href="#ArialMT-6d" transform="translate(811.492188 0)"/>
      <use xlink:href="#ArialMT-b3" transform="translate(894.792969 0)"/>
      <use xlink:href="#ArialMT-29" transform="translate(928.09375 0)"/>
     </g>
    </g>
   </g>
   <g id="matplotlib.axis_4">
    <g id="ytick_6">
     <g id="line2d_19">
      <g>
       <use xlink:href="#m8a5f529376" x="344.670938" y="286.666953" style="stroke: #000000; stroke-width: 0.8"/>
      </g>
     </g>
     <g id="text_23">
      <!-- 0.1 -->
      <g transform="translate(324.948438 289.706328) scale(0.08 -0.08)">
       <defs>
        <path id="DejaVuSans-2e" d="M 684 794 
L 1344 794 
L 1344 0 
L 684 0 
L 684 794 
z
" transform="scale(0.015625)"/>
       </defs>
       <use xlink:href="#DejaVuSans-30"/>
       <use xlink:href="#DejaVuSans-2e" transform="translate(63.623047 0)"/>
       <use xlink:href="#DejaVuSans-31" transform="translate(95.410156 0)"/>
      </g>
     </g>
    </g>
    <g id="ytick_7">
     <g id="line2d_20">
      <g>
       <use xlink:href="#m8a5f529376" x="344.670938" y="240.699108" style="stroke: #000000; stroke-width: 0.8"/>
      </g>
     </g>
     <g id="text_24">
      <!-- 0.2 -->
      <g transform="translate(324.948438 243.738483) scale(0.08 -0.08)">
       <use xlink:href="#DejaVuSans-30"/>
       <use xlink:href="#DejaVuSans-2e" transform="translate(63.623047 0)"/>
       <use xlink:href="#DejaVuSans-32" transform="translate(95.410156 0)"/>
      </g>
     </g>
    </g>
    <g id="ytick_8">
     <g id="line2d_21">
      <g>
       <use xlink:href="#m8a5f529376" x="344.670938" y="194.731263" style="stroke: #000000; stroke-width: 0.8"/>
      </g>
     </g>
     <g id="text_25">
      <!-- 0.3 -->
      <g transform="translate(324.948438 197.770638) scale(0.08 -0.08)">
       <use xlink:href="#DejaVuSans-30"/>
       <use xlink:href="#DejaVuSans-2e" transform="translate(63.623047 0)"/>
       <use xlink:href="#DejaVuSans-33" transform="translate(95.410156 0)"/>
      </g>
     </g>
    </g>
    <g id="ytick_9">
     <g id="line2d_22">
      <g>
       <use xlink:href="#m8a5f529376" x="344.670938" y="148.763418" style="stroke: #000000; stroke-width: 0.8"/>
      </g>
     </g>
     <g id="text_26">
      <!-- 0.4 -->
      <g transform="translate(324.948438 151.802793) scale(0.08 -0.08)">
       <use xlink:href="#DejaVuSans-30"/>
       <use xlink:href="#DejaVuSans-2e" transform="translate(63.623047 0)"/>
       <use xlink:href="#DejaVuSans-34" transform="translate(95.410156 0)"/>
      </g>
     </g>
    </g>
    <g id="ytick_10">
     <g id="line2d_23">
      <g>
       <use xlink:href="#m8a5f529376" x="344.670938" y="102.795573" style="stroke: #000000; stroke-width: 0.8"/>
      </g>
     </g>
     <g id="text_27">
      <!-- 0.5 -->
      <g transform="translate(324.948438 105.834948) scale(0.08 -0.08)">
       <use xlink:href="#DejaVuSans-30"/>
       <use xlink:href="#DejaVuSans-2e" transform="translate(63.623047 0)"/>
       <use xlink:href="#DejaVuSans-35" transform="translate(95.410156 0)"/>
      </g>
     </g>
    </g>
    <g id="ytick_11">
     <g id="line2d_24">
      <g>
       <use xlink:href="#m8a5f529376" x="344.670938" y="56.827728" style="stroke: #000000; stroke-width: 0.8"/>
      </g>
     </g>
     <g id="text_28">
      <!-- 0.6 -->
      <g transform="translate(324.948438 59.867103) scale(0.08 -0.08)">
       <use xlink:href="#DejaVuSans-30"/>
       <use xlink:href="#DejaVuSans-2e" transform="translate(63.623047 0)"/>
       <use xlink:href="#DejaVuSans-36" transform="translate(95.410156 0)"/>
      </g>
     </g>
    </g>
    <g id="text_29">
     <!-- Cell Density (1000 cells/100 μm circle) -->
     <g transform="translate(317.054219 270.24625) rotate(-90) scale(0.09 -0.09)">
      <use xlink:href="#ArialMT-43"/>
      <use xlink:href="#ArialMT-65" transform="translate(72.216797 0)"/>
      <use xlink:href="#ArialMT-6c" transform="translate(127.832031 0)"/>
      <use xlink:href="#ArialMT-6c" transform="translate(150.048828 0)"/>
      <use xlink:href="#ArialMT-20" transform="translate(172.265625 0)"/>
      <use xlink:href="#ArialMT-44" transform="translate(200.048828 0)"/>
      <use xlink:href="#ArialMT-65" transform="translate(272.265625 0)"/>
      <use xlink:href="#ArialMT-6e" transform="translate(327.880859 0)"/>
      <use xlink:href="#ArialMT-73" transform="translate(383.496094 0)"/>
      <use xlink:href="#ArialMT-69" transform="translate(433.496094 0)"/>
      <use xlink:href="#ArialMT-74" transform="translate(455.712891 0)"/>
      <use xlink:href="#ArialMT-79" transform="translate(483.496094 0)"/>
      <use xlink:href="#ArialMT-20" transform="translate(533.496094 0)"/>
      <use xlink:href="#ArialMT-28" transform="translate(561.279297 0)"/>
      <use xlink:href="#ArialMT-31" transform="translate(594.580078 0)"/>
      <use xlink:href="#ArialMT-30" transform="translate(650.195312 0)"/>
      <use xlink:href="#ArialMT-30" transform="translate(705.810547 0)"/>
      <use xlink:href="#ArialMT-30" transform="translate(761.425781 0)"/>
      <use xlink:href="#ArialMT-20" transform="translate(817.041016 0)"/>
      <use xlink:href="#ArialMT-63" transform="translate(844.824219 0)"/>
      <use xlink:href="#ArialMT-65" transform="translate(894.824219 0)"/>
      <use xlink:href="#ArialMT-6c" transform="translate(950.439453 0)"/>
      <use xlink:href="#ArialMT-6c" transform="translate(972.65625 0)"/>
      <use xlink:href="#ArialMT-73" transform="translate(994.873047 0)"/>
      <use xlink:href="#ArialMT-2f" transform="translate(1044.873047 0)"/>
      <use xlink:href="#ArialMT-31" transform="translate(1072.65625 0)"/>
      <use xlink:href="#ArialMT-30" transform="translate(1128.271484 0)"/>
      <use xlink:href="#ArialMT-30" transform="translate(1183.886719 0)"/>
      <use xlink:href="#ArialMT-20" transform="translate(1239.501953 0)"/>
      <use xlink:href="#ArialMT-3bc" transform="translate(1267.285156 0)"/>
      <use xlink:href="#ArialMT-6d" transform="translate(1324.902344 0)"/>
      <use xlink:href="#ArialMT-20" transform="translate(1408.203125 0)"/>
      <use xlink:href="#ArialMT-63" transform="translate(1435.986328 0)"/>
      <use xlink:href="#ArialMT-69" transform="translate(1485.986328 0)"/>
      <use xlink:href="#ArialMT-72" transform="translate(1508.203125 0)"/>
      <use xlink:href="#ArialMT-63" transform="translate(1541.503906 0)"/>
      <use xlink:href="#ArialMT-6c" transform="translate(1591.503906 0)"/>
      <use xlink:href="#ArialMT-65" transform="translate(1613.720703 0)"/>
      <use xlink:href="#ArialMT-29" transform="translate(1669.335938 0)"/>
     </g>
    </g>
   </g>
   <g id="line2d_25">
    <path d="M 356.769347 294.303103 
L 358.309133 293.440219 
L 359.848919 292.577335 
L 361.388706 291.714451 
L 362.928492 290.851566 
L 364.468278 289.988682 
L 366.008065 289.125798 
L 367.547851 288.262914 
L 369.087637 287.40003 
L 370.627424 286.537146 
L 372.16721 285.674262 
L 373.706996 284.811377 
L 375.246782 283.948493 
L 376.786569 283.085609 
L 378.326355 282.222725 
L 379.866141 281.359841 
L 381.405928 280.496957 
L 382.945714 279.634073 
L 384.4855 278.771188 
L 386.025287 277.908304 
L 387.565073 277.04542 
L 389.104859 276.182536 
L 390.644646 275.319652 
L 392.184432 274.456768 
L 393.724218 273.593883 
L 395.264005 272.730999 
L 396.803791 271.868115 
L 398.343577 271.005231 
L 399.883364 270.142347 
L 401.42315 269.279463 
L 402.962936 268.416579 
L 404.502723 267.553694 
L 406.042509 266.69081 
L 407.582295 265.827926 
L 409.122082 264.965042 
L 410.661868 264.102158 
L 412.201654 263.239274 
L 413.741441 262.37639 
L 415.281227 261.513505 
L 416.821013 260.650621 
L 418.3608 259.787737 
L 419.900586 258.924853 
L 421.440372 258.061969 
L 422.980159 257.199085 
L 424.519945 256.336201 
L 426.059731 255.473316 
L 427.599517 254.610432 
L 429.139304 253.747548 
L 430.67909 252.884664 
L 432.218876 252.02178 
L 433.758663 251.158896 
L 435.298449 250.296011 
L 436.838235 249.433127 
L 438.378022 248.570243 
L 439.917808 247.707359 
L 441.457594 246.844475 
L 442.997381 245.981591 
L 444.537167 245.118707 
L 446.076953 244.255822 
L 447.61674 243.392938 
L 449.156526 242.530054 
L 450.696312 241.66717 
L 452.236099 240.804286 
L 453.775885 239.941402 
L 455.315671 239.078518 
L 456.855458 238.215633 
L 458.395244 237.352749 
L 459.93503 236.489865 
L 461.474817 235.626981 
L 463.014603 234.764097 
L 464.554389 233.901213 
L 466.094176 233.038329 
L 467.633962 232.175444 
L 469.173748 231.31256 
L 470.713535 230.449676 
L 472.253321 229.586792 
L 473.793107 228.723908 
L 475.332894 227.861024 
L 476.87268 226.998139 
L 478.412466 226.135255 
L 479.952252 225.272371 
L 481.492039 224.409487 
L 483.031825 223.546603 
L 484.571611 222.683719 
L 486.111398 221.820835 
L 487.651184 220.95795 
L 489.19097 220.095066 
L 490.730757 219.232182 
L 492.270543 218.369298 
L 493.810329 217.506414 
L 495.350116 216.64353 
L 496.889902 215.780646 
L 498.429688 214.917761 
L 499.969475 214.054877 
L 501.509261 213.191993 
L 503.049047 212.329109 
L 504.588834 211.466225 
L 506.12862 210.603341 
L 507.668406 209.740457 
L 509.208193 208.877572 
" clip-path="url(#pd4f66b4fa6)" style="fill: none; stroke: #808080; stroke-opacity: 0.9; stroke-width: 1.5; stroke-linecap: square"/>
   </g>
   <g id="line2d_26">
    <path d="M 385.172827 242.187155 
L 387.330046 241.684349 
L 389.487265 241.181543 
L 391.644484 240.678737 
L 393.801703 240.175931 
L 395.958923 239.673125 
L 398.116142 239.170319 
L 400.273361 238.667513 
L 402.43058 238.164706 
L 404.587799 237.6619 
L 406.745019 237.159094 
L 408.902238 236.656288 
L 411.059457 236.153482 
L 413.216676 235.650676 
L 415.373895 235.14787 
L 417.531115 234.645064 
L 419.688334 234.142257 
L 421.845553 233.639451 
L 424.002772 233.136645 
L 426.159992 232.633839 
L 428.317211 232.131033 
L 430.47443 231.628227 
L 432.631649 231.125421 
L 434.788868 230.622615 
L 436.946088 230.119808 
L 439.103307 229.617002 
L 441.260526 229.114196 
L 443.417745 228.61139 
L 445.574964 228.108584 
L 447.732184 227.605778 
L 449.889403 227.102972 
L 452.046622 226.600166 
L 454.203841 226.09736 
L 456.36106 225.594553 
L 458.51828 225.091747 
L 460.675499 224.588941 
L 462.832718 224.086135 
L 464.989937 223.583329 
L 467.147157 223.080523 
L 469.304376 222.577717 
L 471.461595 222.074911 
L 473.618814 221.572104 
L 475.776033 221.069298 
L 477.933253 220.566492 
L 480.090472 220.063686 
L 482.247691 219.56088 
L 484.40491 219.058074 
L 486.562129 218.555268 
L 488.719349 218.052462 
L 490.876568 217.549655 
L 493.033787 217.046849 
L 495.191006 216.544043 
L 497.348225 216.041237 
L 499.505445 215.538431 
L 501.662664 215.035625 
L 503.819883 214.532819 
L 505.977102 214.030013 
L 508.134322 213.527206 
L 510.291541 213.0244 
L 512.44876 212.521594 
L 514.605979 212.018788 
L 516.763198 211.515982 
L 518.920418 211.013176 
L 521.077637 210.51037 
L 523.234856 210.007564 
L 525.392075 209.504758 
L 527.549294 209.001951 
L 529.706514 208.499145 
L 531.863733 207.996339 
L 534.020952 207.493533 
L 536.178171 206.990727 
L 538.335391 206.487921 
L 540.49261 205.985115 
L 542.649829 205.482309 
L 544.807048 204.979502 
L 546.964267 204.476696 
L 549.121487 203.97389 
L 551.278706 203.471084 
L 553.435925 202.968278 
L 555.593144 202.465472 
L 557.750363 201.962666 
L 559.907583 201.45986 
L 562.064802 200.957053 
L 564.222021 200.454247 
L 566.37924 199.951441 
L 568.536459 199.448635 
L 570.693679 198.945829 
L 572.850898 198.443023 
L 575.008117 197.940217 
L 577.165336 197.437411 
L 579.322556 196.934604 
L 581.479775 196.431798 
L 583.636994 195.928992 
L 585.794213 195.426186 
L 587.951432 194.92338 
L 590.108652 194.420574 
L 592.265871 193.917768 
L 594.42309 193.414962 
L 596.580309 192.912156 
L 598.737528 192.409349 
" clip-path="url(#pd4f66b4fa6)" style="fill: none; stroke: #fd810a; stroke-opacity: 0.9; stroke-width: 1.5; stroke-linecap: square"/>
   </g>
   <g id="patch_6">
    <path d="M 344.670938 330.44 
L 344.670938 56.821875 
" style="fill: none; stroke: #000000; stroke-width: 0.8; stroke-linejoin: miter; stroke-linecap: square"/>
   </g>
   <g id="patch_7">
    <path d="M 344.670938 330.44 
L 610.835938 330.44 
" style="fill: none; stroke: #000000; stroke-width: 0.8; stroke-linejoin: miter; stroke-linecap: square"/>
   </g>
   <g id="text_30">
    <!-- r²=0.27 ns -->
    <g style="fill: #808080" transform="translate(395.555406 60.518144) scale(0.09 -0.09)">
     <defs>
      <path id="Arial-BoldMT-37" d="M 272 3703 
L 272 4519 
L 3275 4519 
L 3275 3881 
Q 2903 3516 2518 2831 
Q 2134 2147 1932 1376 
Q 1731 606 1734 0 
L 888 0 
Q 909 950 1279 1937 
Q 1650 2925 2269 3703 
L 272 3703 
z
" transform="scale(0.015625)"/>
     </defs>
     <use xlink:href="#Arial-BoldMT-72"/>
     <use xlink:href="#Arial-BoldMT-b2" transform="translate(38.916016 0)"/>
     <use xlink:href="#Arial-BoldMT-3d" transform="translate(72.216797 0)"/>
     <use xlink:href="#Arial-BoldMT-30" transform="translate(130.615234 0)"/>
     <use xlink:href="#Arial-BoldMT-2e" transform="translate(186.230469 0)"/>
     <use xlink:href="#Arial-BoldMT-32" transform="translate(214.013672 0)"/>
     <use xlink:href="#Arial-BoldMT-37" transform="translate(269.628906 0)"/>
     <use xlink:href="#Arial-BoldMT-20" transform="translate(325.244141 0)"/>
     <use xlink:href="#Arial-BoldMT-6e" transform="translate(353.027344 0)"/>
     <use xlink:href="#Arial-BoldMT-73" transform="translate(414.111328 0)"/>
    </g>
   </g>
   <g id="text_31">
    <!-- r²=0.07 ns -->
    <g style="fill: #fd810a" transform="translate(517.678188 60.518144) scale(0.09 -0.09)">
     <use xlink:href="#Arial-BoldMT-72"/>
     <use xlink:href="#Arial-BoldMT-b2" transform="translate(38.916016 0)"/>
     <use xlink:href="#Arial-BoldMT-3d" transform="translate(72.216797 0)"/>
     <use xlink:href="#Arial-BoldMT-30" transform="translate(130.615234 0)"/>
     <use xlink:href="#Arial-BoldMT-2e" transform="translate(186.230469 0)"/>
     <use xlink:href="#Arial-BoldMT-30" transform="translate(214.013672 0)"/>
     <use xlink:href="#Arial-BoldMT-37" transform="translate(269.628906 0)"/>
     <use xlink:href="#Arial-BoldMT-20" transform="translate(325.244141 0)"/>
     <use xlink:href="#Arial-BoldMT-6e" transform="translate(353.027344 0)"/>
     <use xlink:href="#Arial-BoldMT-73" transform="translate(414.111328 0)"/>
    </g>
   </g>
   <g id="text_32">
    <!-- Neutrophils -->
    <g transform="translate(449.976875 50.821875) scale(0.1 -0.1)">
     <defs>
      <path id="Arial-BoldMT-4e" d="M 475 0 
L 475 4581 
L 1375 4581 
L 3250 1522 
L 3250 4581 
L 4109 4581 
L 4109 0 
L 3181 0 
L 1334 2988 
L 1334 0 
L 475 0 
z
" transform="scale(0.015625)"/>
      <path id="Arial-BoldMT-65" d="M 2381 1056 
L 3256 909 
Q 3088 428 2723 176 
Q 2359 -75 1813 -75 
Q 947 -75 531 491 
Q 203 944 203 1634 
Q 203 2459 634 2926 
Q 1066 3394 1725 3394 
Q 2466 3394 2894 2905 
Q 3322 2416 3303 1406 
L 1103 1406 
Q 1113 1016 1316 798 
Q 1519 581 1822 581 
Q 2028 581 2168 693 
Q 2309 806 2381 1056 
z
M 2431 1944 
Q 2422 2325 2234 2523 
Q 2047 2722 1778 2722 
Q 1491 2722 1303 2513 
Q 1116 2303 1119 1944 
L 2431 1944 
z
" transform="scale(0.015625)"/>
      <path id="Arial-BoldMT-75" d="M 2644 0 
L 2644 497 
Q 2463 231 2167 78 
Q 1872 -75 1544 -75 
Q 1209 -75 943 72 
Q 678 219 559 484 
Q 441 750 441 1219 
L 441 3319 
L 1319 3319 
L 1319 1794 
Q 1319 1094 1367 936 
Q 1416 778 1544 686 
Q 1672 594 1869 594 
Q 2094 594 2272 717 
Q 2450 841 2515 1023 
Q 2581 1206 2581 1919 
L 2581 3319 
L 3459 3319 
L 3459 0 
L 2644 0 
z
" transform="scale(0.015625)"/>
      <path id="Arial-BoldMT-74" d="M 1981 3319 
L 1981 2619 
L 1381 2619 
L 1381 1281 
Q 1381 875 1398 808 
Q 1416 741 1477 697 
Q 1538 653 1625 653 
Q 1747 653 1978 738 
L 2053 56 
Q 1747 -75 1359 -75 
Q 1122 -75 931 4 
Q 741 84 652 211 
Q 563 338 528 553 
Q 500 706 500 1172 
L 500 2619 
L 97 2619 
L 97 3319 
L 500 3319 
L 500 3978 
L 1381 4491 
L 1381 3319 
L 1981 3319 
z
" transform="scale(0.015625)"/>
      <path id="Arial-BoldMT-70" d="M 434 3319 
L 1253 3319 
L 1253 2831 
Q 1413 3081 1684 3237 
Q 1956 3394 2288 3394 
Q 2866 3394 3269 2941 
Q 3672 2488 3672 1678 
Q 3672 847 3265 386 
Q 2859 -75 2281 -75 
Q 2006 -75 1782 34 
Q 1559 144 1313 409 
L 1313 -1263 
L 434 -1263 
L 434 3319 
z
M 1303 1716 
Q 1303 1156 1525 889 
Q 1747 622 2066 622 
Q 2372 622 2575 867 
Q 2778 1113 2778 1672 
Q 2778 2194 2568 2447 
Q 2359 2700 2050 2700 
Q 1728 2700 1515 2451 
Q 1303 2203 1303 1716 
z
" transform="scale(0.015625)"/>
      <path id="Arial-BoldMT-68" d="M 1334 4581 
L 1334 2897 
Q 1759 3394 2350 3394 
Q 2653 3394 2897 3281 
Q 3141 3169 3264 2994 
Q 3388 2819 3433 2606 
Q 3478 2394 3478 1947 
L 3478 0 
L 2600 0 
L 2600 1753 
Q 2600 2275 2550 2415 
Q 2500 2556 2373 2639 
Q 2247 2722 2056 2722 
Q 1838 2722 1666 2615 
Q 1494 2509 1414 2295 
Q 1334 2081 1334 1663 
L 1334 0 
L 456 0 
L 456 4581 
L 1334 4581 
z
" transform="scale(0.015625)"/>
     </defs>
     <use xlink:href="#Arial-BoldMT-4e"/>
     <use xlink:href="#Arial-BoldMT-65" transform="translate(72.216797 0)"/>
     <use xlink:href="#Arial-BoldMT-75" transform="translate(127.832031 0)"/>
     <use xlink:href="#Arial-BoldMT-74" transform="translate(188.916016 0)"/>
     <use xlink:href="#Arial-BoldMT-72" transform="translate(222.216797 0)"/>
     <use xlink:href="#Arial-BoldMT-6f" transform="translate(261.132812 0)"/>
     <use xlink:href="#Arial-BoldMT-70" transform="translate(322.216797 0)"/>
     <use xlink:href="#Arial-BoldMT-68" transform="translate(383.300781 0)"/>
     <use xlink:href="#Arial-BoldMT-69" transform="translate(444.384766 0)"/>
     <use xlink:href="#Arial-BoldMT-6c" transform="translate(472.167969 0)"/>
     <use xlink:href="#Arial-BoldMT-73" transform="translate(499.951172 0)"/>
    </g>
   </g>
  </g>
  <g id="axes_3">
   <g id="patch_8">
    <path d="M 655.605938 330.44 
L 921.770938 330.44 
L 921.770938 56.821875 
L 655.605938 56.821875 
z
" style="fill: #ffffff"/>
   </g>
   <g id="PathCollection_5">
    <defs>
     <path id="C4_0_4ec0f45e69" d="M 0 3.535534 
C 0.937635 3.535534 1.836992 3.163008 2.5 2.5 
C 3.163008 1.836992 3.535534 0.937635 3.535534 -0 
C 3.535534 -0.937635 3.163008 -1.836992 2.5 -2.5 
C 1.836992 -3.163008 0.937635 -3.535534 0 -3.535534 
C -0.937635 -3.535534 -1.836992 -3.163008 -2.5 -2.5 
C -3.163008 -1.836992 -3.535534 -0.937635 -3.535534 0 
C -3.535534 0.937635 -3.163008 1.836992 -2.5 2.5 
C -1.836992 3.163008 -0.937635 3.535534 0 3.535534 
z
"/>
    </defs>
    <g clip-path="url(#pec489a790f)">
     <use xlink:href="#C4_0_4ec0f45e69" x="909.672528" y="117.687049" style="fill: #808080; fill-opacity: 0.8"/>
    </g>
    <g clip-path="url(#pec489a790f)">
     <use xlink:href="#C4_0_4ec0f45e69" x="909.672528" y="69.259063" style="fill: #808080; fill-opacity: 0.8"/>
    </g>
    <g clip-path="url(#pec489a790f)">
     <use xlink:href="#C4_0_4ec0f45e69" x="745.661968" y="170.51758" style="fill: #808080; fill-opacity: 0.8"/>
    </g>
    <g clip-path="url(#pec489a790f)">
     <use xlink:href="#C4_0_4ec0f45e69" x="745.661968" y="318.002812" style="fill: #808080; fill-opacity: 0.8"/>
    </g>
    <g clip-path="url(#pec489a790f)">
     <use xlink:href="#C4_0_4ec0f45e69" x="667.704347" y="139.69977" style="fill: #808080; fill-opacity: 0.8"/>
    </g>
    <g clip-path="url(#pec489a790f)">
     <use xlink:href="#C4_0_4ec0f45e69" x="667.704347" y="284.983731" style="fill: #808080; fill-opacity: 0.8"/>
    </g>
   </g>
   <g id="PathCollection_6">
    <defs>
     <path id="C5_0_265320933e" d="M 0 3.535534 
C 0.937635 3.535534 1.836992 3.163008 2.5 2.5 
C 3.163008 1.836992 3.535534 0.937635 3.535534 -0 
C 3.535534 -0.937635 3.163008 -1.836992 2.5 -2.5 
C 1.836992 -3.163008 0.937635 -3.535534 0 -3.535534 
C -0.937635 -3.535534 -1.836992 -3.163008 -2.5 -2.5 
C -3.163008 -1.836992 -3.535534 -0.937635 -3.535534 0 
C -3.535534 0.937635 -3.163008 1.836992 -2.5 2.5 
C -1.836992 3.163008 -0.937635 3.535534 0 3.535534 
z
"/>
    </defs>
    <g clip-path="url(#pec489a790f)">
     <use xlink:href="#C5_0_265320933e" x="709.266624" y="318.002812" style="fill: #fd810a; fill-opacity: 0.8"/>
    </g>
    <g clip-path="url(#pec489a790f)">
     <use xlink:href="#C5_0_265320933e" x="709.266624" y="318.002812" style="fill: #fd810a; fill-opacity: 0.8"/>
    </g>
    <g clip-path="url(#pec489a790f)">
     <use xlink:href="#C5_0_265320933e" x="705.781453" y="282.782459" style="fill: #fd810a; fill-opacity: 0.8"/>
    </g>
    <g clip-path="url(#pec489a790f)">
     <use xlink:href="#C5_0_265320933e" x="705.781453" y="318.002812" style="fill: #fd810a; fill-opacity: 0.8"/>
    </g>
    <g clip-path="url(#pec489a790f)">
     <use xlink:href="#C5_0_265320933e" x="853.821358" y="309.197724" style="fill: #fd810a; fill-opacity: 0.8"/>
    </g>
    <g clip-path="url(#pec489a790f)">
     <use xlink:href="#C5_0_265320933e" x="853.821358" y="137.498498" style="fill: #fd810a; fill-opacity: 0.8"/>
    </g>
   </g>
   <g id="matplotlib.axis_5">
    <g id="xtick_12">
     <g id="line2d_27">
      <g>
       <use xlink:href="#m17a27a1325" x="677.000922" y="330.44" style="stroke: #000000; stroke-width: 0.8"/>
      </g>
     </g>
     <g id="text_33">
      <!-- 20 -->
      <g transform="translate(671.910922 343.51875) scale(0.08 -0.08)">
       <use xlink:href="#DejaVuSans-32"/>
       <use xlink:href="#DejaVuSans-30" transform="translate(63.623047 0)"/>
      </g>
     </g>
    </g>
    <g id="xtick_13">
     <g id="line2d_28">
      <g>
       <use xlink:href="#m17a27a1325" x="727.686934" y="330.44" style="stroke: #000000; stroke-width: 0.8"/>
      </g>
     </g>
     <g id="text_34">
      <!-- 40 -->
      <g transform="translate(722.596934 343.51875) scale(0.08 -0.08)">
       <use xlink:href="#DejaVuSans-34"/>
       <use xlink:href="#DejaVuSans-30" transform="translate(63.623047 0)"/>
      </g>
     </g>
    </g>
    <g id="xtick_14">
     <g id="line2d_29">
      <g>
       <use xlink:href="#m17a27a1325" x="778.372947" y="330.44" style="stroke: #000000; stroke-width: 0.8"/>
      </g>
     </g>
     <g id="text_35">
      <!-- 60 -->
      <g transform="translate(773.282947 343.51875) scale(0.08 -0.08)">
       <use xlink:href="#DejaVuSans-36"/>
       <use xlink:href="#DejaVuSans-30" transform="translate(63.623047 0)"/>
      </g>
     </g>
    </g>
    <g id="xtick_15">
     <g id="line2d_30">
      <g>
       <use xlink:href="#m17a27a1325" x="829.05896" y="330.44" style="stroke: #000000; stroke-width: 0.8"/>
      </g>
     </g>
     <g id="text_36">
      <!-- 80 -->
      <g transform="translate(823.96896 343.51875) scale(0.08 -0.08)">
       <use xlink:href="#DejaVuSans-38"/>
       <use xlink:href="#DejaVuSans-30" transform="translate(63.623047 0)"/>
      </g>
     </g>
    </g>
    <g id="xtick_16">
     <g id="line2d_31">
      <g>
       <use xlink:href="#m17a27a1325" x="879.744972" y="330.44" style="stroke: #000000; stroke-width: 0.8"/>
      </g>
     </g>
     <g id="text_37">
      <!-- 100 -->
      <g transform="translate(872.109972 343.51875) scale(0.08 -0.08)">
       <use xlink:href="#DejaVuSans-31"/>
       <use xlink:href="#DejaVuSans-30" transform="translate(63.623047 0)"/>
       <use xlink:href="#DejaVuSans-30" transform="translate(127.246094 0)"/>
      </g>
     </g>
    </g>
    <g id="text_38">
     <!-- Fungal Volume (mm³) -->
     <g transform="translate(745.428672 357.734219) scale(0.09 -0.09)">
      <use xlink:href="#ArialMT-46"/>
      <use xlink:href="#ArialMT-75" transform="translate(61.083984 0)"/>
      <use xlink:href="#ArialMT-6e" transform="translate(116.699219 0)"/>
      <use xlink:href="#ArialMT-67" transform="translate(172.314453 0)"/>
      <use xlink:href="#ArialMT-61" transform="translate(227.929688 0)"/>
      <use xlink:href="#ArialMT-6c" transform="translate(283.544922 0)"/>
      <use xlink:href="#ArialMT-20" transform="translate(305.761719 0)"/>
      <use xlink:href="#ArialMT-56" transform="translate(333.544922 0)"/>
      <use xlink:href="#ArialMT-6f" transform="translate(394.744141 0)"/>
      <use xlink:href="#ArialMT-6c" transform="translate(450.359375 0)"/>
      <use xlink:href="#ArialMT-75" transform="translate(472.576172 0)"/>
      <use xlink:href="#ArialMT-6d" transform="translate(528.191406 0)"/>
      <use xlink:href="#ArialMT-65" transform="translate(611.492188 0)"/>
      <use xlink:href="#ArialMT-20" transform="translate(667.107422 0)"/>
      <use xlink:href="#ArialMT-28" transform="translate(694.890625 0)"/>
      <use xlink:href="#ArialMT-6d" transform="translate(728.191406 0)"/>
      <use xlink:href="#ArialMT-6d" transform="translate(811.492188 0)"/>
      <use xlink:href="#ArialMT-b3" transform="translate(894.792969 0)"/>
      <use xlink:href="#ArialMT-29" transform="translate(928.09375 0)"/>
     </g>
    </g>
   </g>
   <g id="matplotlib.axis_6">
    <g id="ytick_12">
     <g id="line2d_32">
      <g>
       <use xlink:href="#m8a5f529376" x="655.605938" y="322.405357" style="stroke: #000000; stroke-width: 0.8"/>
      </g>
     </g>
     <g id="text_39">
      <!-- 0.0 -->
      <g transform="translate(635.883438 325.444732) scale(0.08 -0.08)">
       <use xlink:href="#DejaVuSans-30"/>
       <use xlink:href="#DejaVuSans-2e" transform="translate(63.623047 0)"/>
       <use xlink:href="#DejaVuSans-30" transform="translate(95.410156 0)"/>
      </g>
     </g>
    </g>
    <g id="ytick_13">
     <g id="line2d_33">
      <g>
       <use xlink:href="#m8a5f529376" x="655.605938" y="287.827774" style="stroke: #000000; stroke-width: 0.8"/>
      </g>
     </g>
     <g id="text_40">
      <!-- 0.5 -->
      <g transform="translate(635.883438 290.867149) scale(0.08 -0.08)">
       <use xlink:href="#DejaVuSans-30"/>
       <use xlink:href="#DejaVuSans-2e" transform="translate(63.623047 0)"/>
       <use xlink:href="#DejaVuSans-35" transform="translate(95.410156 0)"/>
      </g>
     </g>
    </g>
    <g id="ytick_14">
     <g id="line2d_34">
      <g>
       <use xlink:href="#m8a5f529376" x="655.605938" y="253.250192" style="stroke: #000000; stroke-width: 0.8"/>
      </g>
     </g>
     <g id="text_41">
      <!-- 1.0 -->
      <g transform="translate(635.883438 256.289567) scale(0.08 -0.08)">
       <use xlink:href="#DejaVuSans-31"/>
       <use xlink:href="#DejaVuSans-2e" transform="translate(63.623047 0)"/>
       <use xlink:href="#DejaVuSans-30" transform="translate(95.410156 0)"/>
      </g>
     </g>
    </g>
    <g id="ytick_15">
     <g id="line2d_35">
      <g>
       <use xlink:href="#m8a5f529376" x="655.605938" y="218.672609" style="stroke: #000000; stroke-width: 0.8"/>
      </g>
     </g>
     <g id="text_42">
      <!-- 1.5 -->
      <g transform="translate(635.883438 221.711984) scale(0.08 -0.08)">
       <use xlink:href="#DejaVuSans-31"/>
       <use xlink:href="#DejaVuSans-2e" transform="translate(63.623047 0)"/>
       <use xlink:href="#DejaVuSans-35" transform="translate(95.410156 0)"/>
      </g>
     </g>
    </g>
    <g id="ytick_16">
     <g id="line2d_36">
      <g>
       <use xlink:href="#m8a5f529376" x="655.605938" y="184.095027" style="stroke: #000000; stroke-width: 0.8"/>
      </g>
     </g>
     <g id="text_43">
      <!-- 2.0 -->
      <g transform="translate(635.883438 187.134402) scale(0.08 -0.08)">
       <use xlink:href="#DejaVuSans-32"/>
       <use xlink:href="#DejaVuSans-2e" transform="translate(63.623047 0)"/>
       <use xlink:href="#DejaVuSans-30" transform="translate(95.410156 0)"/>
      </g>
     </g>
    </g>
    <g id="ytick_17">
     <g id="line2d_37">
      <g>
       <use xlink:href="#m8a5f529376" x="655.605938" y="149.517444" style="stroke: #000000; stroke-width: 0.8"/>
      </g>
     </g>
     <g id="text_44">
      <!-- 2.5 -->
      <g transform="translate(635.883438 152.556819) scale(0.08 -0.08)">
       <use xlink:href="#DejaVuSans-32"/>
       <use xlink:href="#DejaVuSans-2e" transform="translate(63.623047 0)"/>
       <use xlink:href="#DejaVuSans-35" transform="translate(95.410156 0)"/>
      </g>
     </g>
    </g>
    <g id="ytick_18">
     <g id="line2d_38">
      <g>
       <use xlink:href="#m8a5f529376" x="655.605938" y="114.939862" style="stroke: #000000; stroke-width: 0.8"/>
      </g>
     </g>
     <g id="text_45">
      <!-- 3.0 -->
      <g transform="translate(635.883438 117.979237) scale(0.08 -0.08)">
       <use xlink:href="#DejaVuSans-33"/>
       <use xlink:href="#DejaVuSans-2e" transform="translate(63.623047 0)"/>
       <use xlink:href="#DejaVuSans-30" transform="translate(95.410156 0)"/>
      </g>
     </g>
    </g>
    <g id="ytick_19">
     <g id="line2d_39">
      <g>
       <use xlink:href="#m8a5f529376" x="655.605938" y="80.362279" style="stroke: #000000; stroke-width: 0.8"/>
      </g>
     </g>
     <g id="text_46">
      <!-- 3.5 -->
      <g transform="translate(635.883438 83.401654) scale(0.08 -0.08)">
       <use xlink:href="#DejaVuSans-33"/>
       <use xlink:href="#DejaVuSans-2e" transform="translate(63.623047 0)"/>
       <use xlink:href="#DejaVuSans-35" transform="translate(95.410156 0)"/>
      </g>
     </g>
    </g>
    <g id="text_47">
     <!-- Cell Density (1000 cells/100 μm circle) -->
     <g transform="translate(627.989219 270.24625) rotate(-90) scale(0.09 -0.09)">
      <use xlink:href="#ArialMT-43"/>
      <use xlink:href="#ArialMT-65" transform="translate(72.216797 0)"/>
      <use xlink:href="#ArialMT-6c" transform="translate(127.832031 0)"/>
      <use xlink:href="#ArialMT-6c" transform="translate(150.048828 0)"/>
      <use xlink:href="#ArialMT-20" transform="translate(172.265625 0)"/>
      <use xlink:href="#ArialMT-44" transform="translate(200.048828 0)"/>
      <use xlink:href="#ArialMT-65" transform="translate(272.265625 0)"/>
      <use xlink:href="#ArialMT-6e" transform="translate(327.880859 0)"/>
      <use xlink:href="#ArialMT-73" transform="translate(383.496094 0)"/>
      <use xlink:href="#ArialMT-69" transform="translate(433.496094 0)"/>
      <use xlink:href="#ArialMT-74" transform="translate(455.712891 0)"/>
      <use xlink:href="#ArialMT-79" transform="translate(483.496094 0)"/>
      <use xlink:href="#ArialMT-20" transform="translate(533.496094 0)"/>
      <use xlink:href="#ArialMT-28" transform="translate(561.279297 0)"/>
      <use xlink:href="#ArialMT-31" transform="translate(594.580078 0)"/>
      <use xlink:href="#ArialMT-30" transform="translate(650.195312 0)"/>
      <use xlink:href="#ArialMT-30" transform="translate(705.810547 0)"/>
      <use xlink:href="#ArialMT-30" transform="translate(761.425781 0)"/>
      <use xlink:href="#ArialMT-20" transform="translate(817.041016 0)"/>
      <use xlink:href="#ArialMT-63" transform="translate(844.824219 0)"/>
      <use xlink:href="#ArialMT-65" transform="translate(894.824219 0)"/>
      <use xlink:href="#ArialMT-6c" transform="translate(950.439453 0)"/>
      <use xlink:href="#ArialMT-6c" transform="translate(972.65625 0)"/>
      <use xlink:href="#ArialMT-73" transform="translate(994.873047 0)"/>
      <use xlink:href="#ArialMT-2f" transform="translate(1044.873047 0)"/>
      <use xlink:href="#ArialMT-31" transform="translate(1072.65625 0)"/>
      <use xlink:href="#ArialMT-30" transform="translate(1128.271484 0)"/>
      <use xlink:href="#ArialMT-30" transform="translate(1183.886719 0)"/>
      <use xlink:href="#ArialMT-20" transform="translate(1239.501953 0)"/>
      <use xlink:href="#ArialMT-3bc" transform="translate(1267.285156 0)"/>
      <use xlink:href="#ArialMT-6d" transform="translate(1324.902344 0)"/>
      <use xlink:href="#ArialMT-20" transform="translate(1408.203125 0)"/>
      <use xlink:href="#ArialMT-63" transform="translate(1435.986328 0)"/>
      <use xlink:href="#ArialMT-69" transform="translate(1485.986328 0)"/>
      <use xlink:href="#ArialMT-72" transform="translate(1508.203125 0)"/>
      <use xlink:href="#ArialMT-63" transform="translate(1541.503906 0)"/>
      <use xlink:href="#ArialMT-6c" transform="translate(1591.503906 0)"/>
      <use xlink:href="#ArialMT-65" transform="translate(1613.720703 0)"/>
      <use xlink:href="#ArialMT-29" transform="translate(1669.335938 0)"/>
     </g>
    </g>
   </g>
   <g id="line2d_40">
    <path d="M 667.704347 242.787208 
L 670.14847 241.425159 
L 672.592593 240.063111 
L 675.036716 238.701062 
L 677.480839 237.339014 
L 679.924962 235.976966 
L 682.369085 234.614917 
L 684.813208 233.252869 
L 687.257331 231.89082 
L 689.701454 230.528772 
L 692.145577 229.166723 
L 694.5897 227.804675 
L 697.033823 226.442627 
L 699.477946 225.080578 
L 701.922069 223.71853 
L 704.366192 222.356481 
L 706.810315 220.994433 
L 709.254438 219.632384 
L 711.698561 218.270336 
L 714.142685 216.908288 
L 716.586808 215.546239 
L 719.030931 214.184191 
L 721.475054 212.822142 
L 723.919177 211.460094 
L 726.3633 210.098045 
L 728.807423 208.735997 
L 731.251546 207.373949 
L 733.695669 206.0119 
L 736.139792 204.649852 
L 738.583915 203.287803 
L 741.028038 201.925755 
L 743.472161 200.563706 
L 745.916284 199.201658 
L 748.360407 197.83961 
L 750.80453 196.477561 
L 753.248653 195.115513 
L 755.692776 193.753464 
L 758.136899 192.391416 
L 760.581022 191.029367 
L 763.025145 189.667319 
L 765.469269 188.305271 
L 767.913392 186.943222 
L 770.357515 185.581174 
L 772.801638 184.219125 
L 775.245761 182.857077 
L 777.689884 181.495028 
L 780.134007 180.13298 
L 782.57813 178.770932 
L 785.022253 177.408883 
L 787.466376 176.046835 
L 789.910499 174.684786 
L 792.354622 173.322738 
L 794.798745 171.960689 
L 797.242868 170.598641 
L 799.686991 169.236593 
L 802.131114 167.874544 
L 804.575237 166.512496 
L 807.01936 165.150447 
L 809.463483 163.788399 
L 811.907606 162.42635 
L 814.35173 161.064302 
L 816.795853 159.702254 
L 819.239976 158.340205 
L 821.684099 156.978157 
L 824.128222 155.616108 
L 826.572345 154.25406 
L 829.016468 152.892011 
L 831.460591 151.529963 
L 833.904714 150.167915 
L 836.348837 148.805866 
L 838.79296 147.443818 
L 841.237083 146.081769 
L 843.681206 144.719721 
L 846.125329 143.357672 
L 848.569452 141.995624 
L 851.013575 140.633576 
L 853.457698 139.271527 
L 855.901821 137.909479 
L 858.345944 136.54743 
L 860.790067 135.185382 
L 863.23419 133.823333 
L 865.678314 132.461285 
L 868.122437 131.099237 
L 870.56656 129.737188 
L 873.010683 128.37514 
L 875.454806 127.013091 
L 877.898929 125.651043 
L 880.343052 124.288994 
L 882.787175 122.926946 
L 885.231298 121.564898 
L 887.675421 120.202849 
L 890.119544 118.840801 
L 892.563667 117.478752 
L 895.00779 116.116704 
L 897.451913 114.754655 
L 899.896036 113.392607 
L 902.340159 112.030559 
L 904.784282 110.66851 
L 907.228405 109.306462 
L 909.672528 107.944413 
" clip-path="url(#pec489a790f)" style="fill: none; stroke: #808080; stroke-opacity: 0.9; stroke-width: 1.5; stroke-linecap: square"/>
   </g>
   <g id="line2d_41">
    <path d="M 705.781453 310.09911 
L 707.276806 309.225201 
L 708.772158 308.351292 
L 710.267511 307.477383 
L 711.762864 306.603474 
L 713.258216 305.729565 
L 714.753569 304.855656 
L 716.248921 303.981748 
L 717.744274 303.107839 
L 719.239626 302.23393 
L 720.734979 301.360021 
L 722.230332 300.486112 
L 723.725684 299.612203 
L 725.221037 298.738294 
L 726.716389 297.864385 
L 728.211742 296.990477 
L 729.707094 296.116568 
L 731.202447 295.242659 
L 732.6978 294.36875 
L 734.193152 293.494841 
L 735.688505 292.620932 
L 737.183857 291.747023 
L 738.67921 290.873114 
L 740.174562 289.999206 
L 741.669915 289.125297 
L 743.165268 288.251388 
L 744.66062 287.377479 
L 746.155973 286.50357 
L 747.651325 285.629661 
L 749.146678 284.755752 
L 750.64203 283.881843 
L 752.137383 283.007935 
L 753.632736 282.134026 
L 755.128088 281.260117 
L 756.623441 280.386208 
L 758.118793 279.512299 
L 759.614146 278.63839 
L 761.109498 277.764481 
L 762.604851 276.890572 
L 764.100203 276.016664 
L 765.595556 275.142755 
L 767.090909 274.268846 
L 768.586261 273.394937 
L 770.081614 272.521028 
L 771.576966 271.647119 
L 773.072319 270.77321 
L 774.567671 269.899302 
L 776.063024 269.025393 
L 777.558377 268.151484 
L 779.053729 267.277575 
L 780.549082 266.403666 
L 782.044434 265.529757 
L 783.539787 264.655848 
L 785.035139 263.781939 
L 786.530492 262.908031 
L 788.025845 262.034122 
L 789.521197 261.160213 
L 791.01655 260.286304 
L 792.511902 259.412395 
L 794.007255 258.538486 
L 795.502607 257.664577 
L 796.99796 256.790668 
L 798.493313 255.91676 
L 799.988665 255.042851 
L 801.484018 254.168942 
L 802.97937 253.295033 
L 804.474723 252.421124 
L 805.970075 251.547215 
L 807.465428 250.673306 
L 808.960781 249.799397 
L 810.456133 248.925489 
L 811.951486 248.05158 
L 813.446838 247.177671 
L 814.942191 246.303762 
L 816.437543 245.429853 
L 817.932896 244.555944 
L 819.428249 243.682035 
L 820.923601 242.808126 
L 822.418954 241.934218 
L 823.914306 241.060309 
L 825.409659 240.1864 
L 826.905011 239.312491 
L 828.400364 238.438582 
L 829.895717 237.564673 
L 831.391069 236.690764 
L 832.886422 235.816855 
L 834.381774 234.942947 
L 835.877127 234.069038 
L 837.372479 233.195129 
L 838.867832 232.32122 
L 840.363185 231.447311 
L 841.858537 230.573402 
L 843.35389 229.699493 
L 844.849242 228.825585 
L 846.344595 227.951676 
L 847.839947 227.077767 
L 849.3353 226.203858 
L 850.830652 225.329949 
L 852.326005 224.45604 
L 853.821358 223.582131 
" clip-path="url(#pec489a790f)" style="fill: none; stroke: #fd810a; stroke-opacity: 0.9; stroke-width: 1.5; stroke-linecap: square"/>
   </g>
   <g id="patch_9">
    <path d="M 655.605938 330.44 
L 655.605938 56.821875 
" style="fill: none; stroke: #000000; stroke-width: 0.8; stroke-linejoin: miter; stroke-linecap: square"/>
   </g>
   <g id="patch_10">
    <path d="M 655.605938 330.44 
L 921.770938 330.44 
" style="fill: none; stroke: #000000; stroke-width: 0.8; stroke-linejoin: miter; stroke-linecap: square"/>
   </g>
   <g id="text_48">
    <!-- r²=0.40 ns -->
    <g style="fill: #808080" transform="translate(706.490406 60.518144) scale(0.09 -0.09)">
     <defs>
      <path id="Arial-BoldMT-34" d="M 1994 0 
L 1994 922 
L 119 922 
L 119 1691 
L 2106 4600 
L 2844 4600 
L 2844 1694 
L 3413 1694 
L 3413 922 
L 2844 922 
L 2844 0 
L 1994 0 
z
M 1994 1694 
L 1994 3259 
L 941 1694 
L 1994 1694 
z
" transform="scale(0.015625)"/>
     </defs>
     <use xlink:href="#Arial-BoldMT-72"/>
     <use xlink:href="#Arial-BoldMT-b2" transform="translate(38.916016 0)"/>
     <use xlink:href="#Arial-BoldMT-3d" transform="translate(72.216797 0)"/>
     <use xlink:href="#Arial-BoldMT-30" transform="translate(130.615234 0)"/>
     <use xlink:href="#Arial-BoldMT-2e" transform="translate(186.230469 0)"/>
     <use xlink:href="#Arial-BoldMT-34" transform="translate(214.013672 0)"/>
     <use xlink:href="#Arial-BoldMT-30" transform="translate(269.628906 0)"/>
     <use xlink:href="#Arial-BoldMT-20" transform="translate(325.244141 0)"/>
     <use xlink:href="#Arial-BoldMT-6e" transform="translate(353.027344 0)"/>
     <use xlink:href="#Arial-BoldMT-73" transform="translate(414.111328 0)"/>
    </g>
   </g>
   <g id="text_49">
    <!-- r²=0.38 ns -->
    <g style="fill: #fd810a" transform="translate(828.613188 60.518144) scale(0.09 -0.09)">
     <defs>
      <path id="Arial-BoldMT-33" d="M 241 1216 
L 1091 1319 
Q 1131 994 1309 822 
Q 1488 650 1741 650 
Q 2013 650 2198 856 
Q 2384 1063 2384 1413 
Q 2384 1744 2206 1937 
Q 2028 2131 1772 2131 
Q 1603 2131 1369 2066 
L 1466 2781 
Q 1822 2772 2009 2936 
Q 2197 3100 2197 3372 
Q 2197 3603 2059 3740 
Q 1922 3878 1694 3878 
Q 1469 3878 1309 3722 
Q 1150 3566 1116 3266 
L 306 3403 
Q 391 3819 561 4067 
Q 731 4316 1036 4458 
Q 1341 4600 1719 4600 
Q 2366 4600 2756 4188 
Q 3078 3850 3078 3425 
Q 3078 2822 2419 2463 
Q 2813 2378 3048 2084 
Q 3284 1791 3284 1375 
Q 3284 772 2843 347 
Q 2403 -78 1747 -78 
Q 1125 -78 715 280 
Q 306 638 241 1216 
z
" transform="scale(0.015625)"/>
      <path id="Arial-BoldMT-38" d="M 1025 2472 
Q 684 2616 529 2867 
Q 375 3119 375 3419 
Q 375 3931 733 4265 
Q 1091 4600 1750 4600 
Q 2403 4600 2764 4265 
Q 3125 3931 3125 3419 
Q 3125 3100 2959 2851 
Q 2794 2603 2494 2472 
Q 2875 2319 3073 2025 
Q 3272 1731 3272 1347 
Q 3272 713 2867 316 
Q 2463 -81 1791 -81 
Q 1166 -81 750 247 
Q 259 634 259 1309 
Q 259 1681 443 1992 
Q 628 2303 1025 2472 
z
M 1206 3356 
Q 1206 3094 1354 2947 
Q 1503 2800 1750 2800 
Q 2000 2800 2150 2948 
Q 2300 3097 2300 3359 
Q 2300 3606 2151 3754 
Q 2003 3903 1759 3903 
Q 1506 3903 1356 3753 
Q 1206 3603 1206 3356 
z
M 1125 1394 
Q 1125 1031 1311 828 
Q 1497 625 1775 625 
Q 2047 625 2225 820 
Q 2403 1016 2403 1384 
Q 2403 1706 2222 1901 
Q 2041 2097 1763 2097 
Q 1441 2097 1283 1875 
Q 1125 1653 1125 1394 
z
" transform="scale(0.015625)"/>
     </defs>
     <use xlink:href="#Arial-BoldMT-72"/>
     <use xlink:href="#Arial-BoldMT-b2" transform="translate(38.916016 0)"/>
     <use xlink:href="#Arial-BoldMT-3d" transform="translate(72.216797 0)"/>
     <use xlink:href="#Arial-BoldMT-30" transform="translate(130.615234 0)"/>
     <use xlink:href="#Arial-BoldMT-2e" transform="translate(186.230469 0)"/>
     <use xlink:href="#Arial-BoldMT-33" transform="translate(214.013672 0)"/>
     <use xlink:href="#Arial-BoldMT-38" transform="translate(269.628906 0)"/>
     <use xlink:href="#Arial-BoldMT-20" transform="translate(325.244141 0)"/>
     <use xlink:href="#Arial-BoldMT-6e" transform="translate(353.027344 0)"/>
     <use xlink:href="#Arial-BoldMT-73" transform="translate(414.111328 0)"/>
    </g>
   </g>
   <g id="text_50">
    <!-- Macrophages -->
    <g transform="translate(756.459531 50.821875) scale(0.1 -0.1)">
     <use xlink:href="#Arial-BoldMT-4d"/>
     <use xlink:href="#Arial-BoldMT-61" transform="translate(83.300781 0)"/>
     <use xlink:href="#Arial-BoldMT-63" transform="translate(138.916016 0)"/>
     <use xlink:href="#Arial-BoldMT-72" transform="translate(194.53125 0)"/>
     <use xlink:href="#Arial-BoldMT-6f" transform="translate(233.447266 0)"/>
     <use xlink:href="#Arial-BoldMT-70" transform="translate(294.53125 0)"/>
     <use xlink:href="#Arial-BoldMT-68" transform="translate(355.615234 0)"/>
     <use xlink:href="#Arial-BoldMT-61" transform="translate(416.699219 0)"/>
     <use xlink:href="#Arial-BoldMT-67" transform="translate(472.314453 0)"/>
     <use xlink:href="#Arial-BoldMT-65" transform="translate(533.398438 0)"/>
     <use xlink:href="#Arial-BoldMT-73" transform="translate(589.013672 0)"/>
    </g>
   </g>
  </g>
  <g id="text_51">
   <!-- Pons — Inner -->
   <g transform="translate(425.900937 15.789375) scale(0.12 -0.12)">
    <defs>
     <path id="Arial-BoldMT-50" d="M 466 0 
L 466 4581 
L 1950 4581 
Q 2794 4581 3050 4513 
Q 3444 4409 3709 4064 
Q 3975 3719 3975 3172 
Q 3975 2750 3822 2462 
Q 3669 2175 3433 2011 
Q 3197 1847 2953 1794 
Q 2622 1728 1994 1728 
L 1391 1728 
L 1391 0 
L 466 0 
z
M 1391 3806 
L 1391 2506 
L 1897 2506 
Q 2444 2506 2628 2578 
Q 2813 2650 2917 2803 
Q 3022 2956 3022 3159 
Q 3022 3409 2875 3571 
Q 2728 3734 2503 3775 
Q 2338 3806 1838 3806 
L 1391 3806 
z
" transform="scale(0.015625)"/>
     <path id="Arial-BoldMT-2014" d="M 0 1331 
L 0 1988 
L 6400 1988 
L 6400 1331 
L 0 1331 
z
" transform="scale(0.015625)"/>
     <path id="Arial-BoldMT-49" d="M 438 0 
L 438 4581 
L 1363 4581 
L 1363 0 
L 438 0 
z
" transform="scale(0.015625)"/>
    </defs>
    <use xlink:href="#Arial-BoldMT-50"/>
    <use xlink:href="#Arial-BoldMT-6f" transform="translate(66.699219 0)"/>
    <use xlink:href="#Arial-BoldMT-6e" transform="translate(127.783203 0)"/>
    <use xlink:href="#Arial-BoldMT-73" transform="translate(188.867188 0)"/>
    <use xlink:href="#Arial-BoldMT-20" transform="translate(244.482422 0)"/>
    <use xlink:href="#Arial-BoldMT-2014" transform="translate(272.265625 0)"/>
    <use xlink:href="#Arial-BoldMT-20" transform="translate(372.265625 0)"/>
    <use xlink:href="#Arial-BoldMT-49" transform="translate(400.048828 0)"/>
    <use xlink:href="#Arial-BoldMT-6e" transform="translate(427.832031 0)"/>
    <use xlink:href="#Arial-BoldMT-6e" transform="translate(488.916016 0)"/>
    <use xlink:href="#Arial-BoldMT-65" transform="translate(550 0)"/>
    <use xlink:href="#Arial-BoldMT-72" transform="translate(605.615234 0)"/>
   </g>
  </g>
 </g>
 <defs>
  <clipPath id="p5ddf618a83">
   <rect x="33.735938" y="56.821875" width="266.165" height="273.618125"/>
  </clipPath>
  <clipPath id="pd4f66b4fa6">
   <rect x="344.670938" y="56.821875" width="266.165" height="273.618125"/>
  </clipPath>
  <clipPath id="pec489a790f">
   <rect x="655.605938" y="56.821875" width="266.165" height="273.618125"/>
  </clipPath>
 </defs>
</svg>
